<svg xmlns="http://www.w3.org/2000/svg"
     viewBox="0 0 350 350">
  <path id="Auswahl"
        fill="#ffffff"
        d="M 103.00,245.00
           C 106.19,238.50 111.28,232.82 115.63,227.00
             115.63,227.00 137.13,198.00 137.13,198.00
             140.18,193.97 148.54,184.28 149.84,180.00
             150.27,177.97 150.03,175.14 149.84,173.00
             149.99,170.50 150.39,165.00 149.84,163.00
             148.37,158.29 133.71,140.02 129.88,135.00
             129.88,135.00 78.53,66.00 78.53,66.00
             78.53,66.00 62.00,44.00 62.00,44.00
             57.79,38.41 53.87,32.11 57.69,25.09
             61.25,18.55 70.95,17.18 76.91,21.01
             80.60,23.37 89.58,35.86 92.58,40.00
             92.58,40.00 152.58,120.00 152.58,120.00
             152.58,120.00 167.58,140.00 167.58,140.00
             169.05,141.86 171.43,145.52 174.07,145.52
             177.35,145.52 180.41,140.37 182.15,138.00
             182.15,138.00 198.63,116.00 198.63,116.00
             198.63,116.00 251.88,45.00 251.88,45.00
             251.88,45.00 264.79,28.00 264.79,28.00
             267.67,24.38 270.24,20.61 275.00,19.42
             284.78,16.96 293.93,23.40 291.61,34.00
             290.43,39.35 282.19,49.25 278.63,54.00
             278.63,54.00 236.27,111.00 236.27,111.00
             236.27,111.00 218.28,135.00 218.28,135.00
             218.28,135.00 198.73,162.00 198.73,162.00
             198.02,163.94 198.03,165.97 198.19,168.00
             197.97,170.66 197.71,177.85 198.19,180.00
             199.65,184.14 209.47,195.80 212.63,200.00
             212.63,200.00 245.00,245.00 245.00,245.00
             251.50,242.50 259.01,240.31 266.00,240.04
             270.68,239.86 274.48,240.58 279.00,241.65
             318.53,251.00 326.44,300.51 298.91,324.19
             287.34,334.15 278.47,335.17 264.00,335.00
             238.68,334.70 219.34,312.91 219.34,288.00
             219.34,283.89 220.69,275.90 222.09,272.00
             223.24,268.79 225.66,265.46 224.49,262.00
             223.81,259.99 217.94,252.30 216.29,250.00
             216.29,250.00 194.37,221.00 194.37,221.00
             194.37,221.00 181.71,204.00 181.71,204.00
             180.23,201.97 177.47,197.88 174.99,197.20
             171.02,196.11 166.20,204.23 164.13,207.00
             164.13,207.00 137.87,242.00 137.87,242.00
             135.05,245.77 123.96,259.42 123.38,263.00
             123.38,263.00 128.39,282.00 128.39,282.00
             130.48,293.81 125.82,308.69 118.48,318.00
             107.09,332.46 94.23,335.20 77.00,335.00
             68.88,334.90 60.77,332.40 54.00,327.90
             40.07,318.63 32.64,303.57 33.01,287.00
             33.62,260.25 53.40,240.89 80.00,240.04
             86.84,239.82 96.60,242.54 103.00,245.00 Z
           M 76.00,266.33
           C 51.14,272.30 54.13,308.20 79.00,309.90
             103.47,311.59 111.92,279.88 92.00,268.53
             86.89,265.62 81.66,265.70 76.00,266.33 Z
           M 262.00,266.34
           C 237.46,272.96 240.58,308.34 266.00,309.91
             289.36,311.35 297.53,282.06 280.00,269.65
             274.49,265.75 268.44,265.59 262.00,266.34 Z" />
</svg>
