<?xml version="1.0" encoding="UTF-8"?>
<svg id="Layer_1" data-name="Layer 1" xmlns="http://www.w3.org/2000/svg" version="1.1" viewBox="0 0 210 182">
  <defs>
    <style>
      .cls-1 {
        fill: #231f20;
      }

      .cls-1, .cls-2 {
        stroke-width: 0px;
      }

      .cls-2 {
        fill: #fff;
      }
    </style>
  </defs>
  <path class="cls-1" d="M215.96-384.38"/>
  <path class="cls-1" d="M215.96,1093.18"/>
  <g>
    <polygon class="cls-2" points="143.44 38.46 82.71 143.46 91 157.83 168.26 24.13 92.92 24.13 92.92 38.46 143.44 38.46"/>
    <polygon class="cls-2" points="92.92 .25 92.92 14.58 184.8 14.58 96.52 167.38 104.79 181.7 209.62 .25 92.92 .25"/>
    <polygon class="cls-2" points="57.93 52.78 90.98 110.03 99.25 95.7 89.45 78.72 89.47 79.04 81.29 64.88 81.37 64.74 43.85 .25 27.34 .25 49.66 38.46 57.93 52.78"/>
    <polygon class="cls-2" points="33.11 28.91 16.36 .25 -.27 .25 77.19 133.91 85.46 119.58 33.11 28.91"/>
  </g>
</svg>