<svg xmlns="http://www.w3.org/2000/svg" xmlns:xlink="http://www.w3.org/1999/xlink" xmlns:inkscape="http://www.inkscape.org/namespaces/inkscape" version="1.1" width="450.866" height="83.4" viewBox="0 0 450.866 83.4">
<style>
   @media (prefers-color-scheme: light) { :root { --color: #000000; } }
   @media (prefers-color-scheme: dark) { :root { --color: #DDDDDD; } }
</style>
<defs>
<path id="font_1_9" d="M.5509949 .33203126V0H.6439972V.7285156H.5509949V.41401673H.17599488V.7285156H.08299255V0H.1769867V.33203126H.5509949Z"/>
<path id="font_1_12" d="M.5349884 .048553468C.526001 .046554567 .5219879 .046554567 .5169983 .046554567 .48799134 .046554567 .47200013 .061569215 .47200013 .08760071V.39598084C.47200013 .48905946 .4039917 .5390625 .2749939 .5390625 .19898987 .5390625 .13598633 .5170593 .100997928 .47805787 .07699585 .45103456 .066986087 .42100526 .06498718 .36894227H.14898682C.1559906 .43301393 .19400025 .4620514 .27198792 .4620514 .34700013 .4620514 .3889923 .434021 .3889923 .3839569V.36193849C.3889923 .32688905 .36799623 .3118744 .3019867 .30386354 .18399048 .28884889 .1659851 .28483583 .13398743 .27182008 .07299805 .24679566 .041992189 .19973755 .041992189 .13165283 .041992189 .03656006 .10798645-.0234375 .21398926-.0234375 .27999879-.0234375 .33299256-.00044250489 .3919983 .05355835 .397995 .0005493164 .42399598-.0234375 .47799684-.0234375 .49499513-.0234375 .5079956-.021438599 .5349884-.014450073V.048553468M.3889923 .16468811C.3889923 .13665772 .3809967 .119644168 .35598756 .09661865 .32199098 .06556702 .2809906 .049560548 .23199463 .049560548 .16699219 .049560548 .1289978 .080596927 .1289978 .13365174 .1289978 .1887207 .1659851 .2167511 .25498963 .22976685 .34298707 .24179077 .36099244 .24578858 .3889923 .25880433V.16468811Z"/>
<path id="font_1_27" d="M.44299317 .52441409H.051986696V.45140077H.34399415L.0309906 .07499695V0H.45700074V.07299805H.13198853L.44299317 .45040895V.52441409Z"/>
<path id="font_1_23" d="M.068984989 .52441409V0H.15299988V.27220155C.15299988 .34727479 .17199707 .39631654 .21199036 .42533876 .23799134 .4443512 .2630005 .45036317 .32099916 .45135499V.5364075C.30699159 .5380554 .2999878 .5390625 .2889862 .5390625 .23498535 .5390625 .19400025 .50704959 .1459961 .42904664V.52441409H.068984989Z"/>
<path id="font_1_15" d="M.49499513 .7285156H.4119873V.4580536C.3769989 .51104739 .32099916 .5390625 .25099183 .5390625 .114990238 .5390625 .025985718 .43000794 .025985718 .26280213 .025985718 .08558655 .11299133-.0234375 .2539978-.0234375 .32598878-.0234375 .37599183 .0035552979 .42099 .068573V-.00044250489H.49499513V.7285156M.2649994 .46105958C.35499574 .46105958 .4119873 .38095094 .4119873 .25579835 .4119873 .13465882 .35398866 .05455017 .2659912 .05455017 .17399597 .05455017 .11299133 .13565064 .11299133 .25779725 .11299133 .3799591 .17399597 .46105958 .2649994 .46105958Z"/>
<path id="font_1_11" d="M.59599307 .51504519C.59498599 .6582031 .49699403 .74121096 .32899476 .74121096 .16899109 .74121096 .069992069 .65919497 .069992069 .52705386 .069992069 .43795777 .116989139 .38189698 .21299744 .35687257L.3939972 .30882264C.48599244 .2848053 .5279999 .24775696 .5279999 .19070435 .5279999 .1516571 .5069885 .11161804 .47599793 .08958435 .44699098 .06956482 .40098573 .058547975 .34199525 .058547975 .2630005 .058547975 .20899964 .07757568 .17399597 .11961365 .14698792 .1516571 .1349945 .18669129 .13598633 .23173523H.04798889C.04899597 .16467285 .06199646 .12062073 .09098816 .080581668 .14099121 .012557983 .22499085-.0234375 .33599855-.0234375 .4229889-.0234375 .49398805-.0034484864 .54100039 .032562257 .58999636 .07156372 .62098696 .13664246 .62098696 .19970703 .62098696 .28981019 .5649872 .35588075 .46598817 .38290406L.2829895 .43196107C.19499207 .4559784 .16299439 .4840088 .16299439 .5400696 .16299439 .614151 .22799683 .663208 .32598878 .663208 .44198609 .663208 .5069885 .6101532 .5079956 .51504519H.59599307Z"/>
<path id="font_1_25" d="M.2539978 .52441409H.16799927V.66841128H.084991458V.52441409H.01399231V.45640565H.084991458V.059570314C.084991458 .0065612795 .12098694-.0234375 .18598938-.0234375 .20599365-.0234375 .22599793-.021438599 .2539978-.016448975V.05355835C.24299622 .05055237 .22999573 .049560548 .21398926 .049560548 .17799378 .049560548 .16799927 .059570314 .16799927 .09664917V.45640565H.2539978V.52441409Z"/>
<path id="font_1_10" d="M.18399048 .30862428H.41299439C.46998597 .30862428 .5149994 .32562257 .55400088 .36061097 .59799197 .4006195 .61698916 .44758607 .61698916 .5145569 .61698916 .6515045 .5359955 .7285156 .3919983 .7285156H.09098816V0H.18399048V.30862428M.18399048 .390625V.6465149H.37799073C.46699525 .6465149 .519989 .598526 .519989 .51856997 .519989 .43859864 .46699525 .390625 .37799073 .390625H.18399048Z"/>
<path id="font_1_19" d="M.1519928 .7285156H.067993167V0H.1519928V.7285156Z"/>
<path id="font_1_16" d="M.5130005 .23374939C.5130005 .31376649 .5069885 .36186219 .49198915 .40093995 .45799256 .48706056 .37799073 .5390625 .27999879 .5390625 .13398743 .5390625 .039993287 .4269867 .039993287 .25474549 .039993287 .08258057 .1309967-.0234375 .27799989-.0234375 .397995-.0234375 .48098756 .044555665 .5019989 .15867615H.41799928C.394989 .08959961 .34799195 .05355835 .2809906 .05355835 .22799683 .05355835 .18299866 .07757568 .15499878 .12162781 .1349945 .1516571 .12799073 .18170166 .1269989 .23374939H.5130005M.1289978 .3017578C.13598633 .39894105 .19499207 .4620514 .2789917 .4620514 .36099244 .4620514 .42399598 .3939209 .42399598 .30775453 .42399598 .30575563 .42399598 .3037567 .4229889 .3017578H.1289978Z"/>
<path id="font_1_13" d="M.053985597 .7285156V-.00044250489H.1289978V.0665741C.16899109 .005554199 .22200012-.0234375 .29499818-.0234375 .43299867-.0234375 .522995 .08959961 .522995 .2638092 .522995 .434021 .43699647 .5390625 .29899598 .5390625 .22698975 .5390625 .17599488 .51205447 .13699341 .4530487V.7285156H.053985597M.2829895 .46105958C.37599183 .46105958 .43598939 .3799591 .43598939 .25480653 .43598939 .13565064 .37399293 .05455017 .2829895 .05455017 .19499207 .05455017 .13699341 .13465882 .13699341 .25779725 .13699341 .38095094 .19499207 .46105958 .2829895 .46105958Z"/>
<path id="font_1_21" d="M.27198792 .5390625C.125 .5390625 .035995485 .434021 .035995485 .25779725 .035995485 .081588748 .12399292-.0234375 .272995-.0234375 .41999818-.0234375 .5099945 .081588748 .5099945 .25379945 .5099945 .43502809 .4229889 .5390625 .27198792 .5390625M.272995 .4620514C.36698915 .4620514 .4229889 .384964 .4229889 .25480653 .4229889 .13165283 .36499024 .05355835 .272995 .05355835 .17999268 .05355835 .12298584 .13064575 .12298584 .25779725 .12298584 .3839569 .17999268 .4620514 .272995 .4620514Z"/>
<path id="font_1_14" d="M.47099305 .34791566C.46699525 .39897157 .45599366 .4320221 .43598939 .46105958 .3999939 .51005557 .33699037 .5390625 .2639923 .5390625 .12298584 .5390625 .0309906 .4270172 .0309906 .25279237 .0309906 .08358765 .12098694-.0234375 .2630005-.0234375 .3880005-.0234375 .46699525 .05155945 .47698976 .17970276H.3929901C.3789978 .09561157 .33599855 .05355835 .2649994 .05355835 .17298889 .05355835 .117996219 .12864685 .117996219 .25279237 .117996219 .3839569 .17199707 .4620514 .2630005 .4620514 .33299256 .4620514 .3769989 .42100526 .3869934 .34791566H.47099305Z"/>
<path id="font_1_18" d="M.14099121 .7285156H.057998659V0H.14099121V.20385742L.22200012 .28381349 .39898683 0H.5019989L.28799439 .34277345 .46998597 .52363589H.36299134L.14099121 .30178834V.7285156Z"/>
<path id="font_1_24" d="M.43798829 .37794496C.43699647 .48104859 .36898805 .5390625 .24798584 .5390625 .12599182 .5390625 .04699707 .47605897 .04699707 .37895204 .04699707 .29685975 .08898926 .25779725 .21299744 .22776795L.29100038 .20874024C.34899903 .19473267 .37199403 .17370606 .37199403 .13565064 .37199403 .08659363 .32299806 .05355835 .25 .05355835 .20498657 .05355835 .16699219 .0665741 .1459961 .08859253 .1329956 .10362244 .1269989 .118637088 .12199402 .15568543H.033996583C.037994386 .034561159 .10598755-.0234375 .24299622-.0234375 .375-.0234375 .45899964 .041549684 .45899964 .14266968 .45899964 .22076416 .4149933 .2638092 .31098939 .28884889L.23098755 .30786134C.16299439 .32388307 .13398743 .34591676 .13398743 .3829651 .13398743 .431015 .1769867 .4620514 .24499512 .4620514 .31199647 .4620514 .34799195 .43301393 .34999085 .37794496H.43798829Z"/>
<path id="font_1_6" d="M.07899475 0H.4079895C.47698976 0 .5279999 .018997193 .5669861 .06098938 .6029968 .09899902 .6230011 .15100098 .6230011 .20799256 .6230011 .29600526 .58299258 .34899903 .48999024 .3849945 .55599978 .41600038 .59098818 .46987916 .59098818 .5437317 .59098818 .59661868 .57099917 .6435089 .5329895 .6775055 .49499513 .71250918 .44499208 .7285156 .375 .7285156H.07899475V0M.17199707 .4149933V.6465149H.35198976C.4039917 .6465149 .43299867 .63952639 .45799256 .6205597 .48399354 .6006012 .49798585 .57066348 .49798585 .53074648 .49798585 .49183656 .48399354 .46090699 .45799256 .4409485 .43299867 .4219818 .4039917 .4149933 .35198976 .4149933H.17199707M.17199707 .08198547V.3330078H.39898683C.44400025 .3330078 .47399903 .32200624 .49598695 .29800416 .5179901 .2749939 .5299988 .24299622 .5299988 .20700073 .5299988 .17199707 .5179901 .13999939 .49598695 .116989139 .47399903 .09298706 .44400025 .08198547 .39898683 .08198547H.17199707Z"/>
<path id="font_1_1" d="M.25898744 .5049896V0H.34700013V.70899966H.2889862C.2579956 .59999087 .23799134 .58499148 .101989749 .56799319V.5049896H.25898744Z"/>
<path id="font_1_2" d="M.5059967 .08699036H.1329956C.14199829 .14498902 .17399597 .18199158 .26098634 .23298645L.36099244 .2869873C.45999146 .34098817 .5109863 .4139862 .5109863 .50097659 .5109863 .5599823 .4869995 .614975 .44499208 .65296939 .40299989 .690979 .35099793 .7089844 .28399659 .7089844 .19400025 .7089844 .1269989 .67697146 .08799744 .6169739 .06298828 .5789795 .051986696 .53497317 .049987794 .46298219H.13798523C.14099121 .5109863 .14698792 .539978 .15899658 .562973 .18199158 .6059723 .22799683 .63197329 .2809906 .63197329 .36099244 .63197329 .42099 .5749817 .42099 .49897767 .42099 .4429779 .3880005 .394989 .32499696 .35897828L.23298645 .30699159C.084991458 .22299195 .041992189 .1559906 .033996583 0H.5059967V.08699036Z"/>
<path id="font_1_3" d="M.22099304 .3247528H.23199463L.2689972 .3257599C.3659973 .3257599 .41600038 .28172303 .41600038 .19665528 .41600038 .10758972 .36099244 .05455017 .2689972 .05455017 .17298889 .05455017 .12599182 .10258484 .11999512 .20567322H.03199768C.035995485 .1486206 .04598999 .11160278 .06298828 .079574588 .09899902 .011550903 .16899109-.0234375 .2659912-.0234375 .4119873-.0234375 .5059967 .063568118 .5059967 .19766236 .5059967 .28771974 .47099305 .33776856 .38598634 .36679078 .45199586 .392807 .4850006 .44284059 .4850006 .5138855 .4850006 .63597109 .4039917 .7089844 .2689972 .7089844 .12599182 .7089844 .049987794 .63098147 .04699707 .47987367H.1349945C.13598633 .52290347 .13999939 .5469208 .15098572 .56892397 .17098999 .60795596 .21499634 .63197329 .269989 .63197329 .34799195 .63197329 .394989 .5859375 .394989 .5108948 .394989 .46084596 .3769989 .4308319 .33799745 .41482545 .31399537 .40481568 .2829895 .4008026 .22099304 .3998108V.3247528Z"/>
<path id="font_1_4" d="M.32699586 .17001343V0H.4149933V.17001343H.519989V.24902344H.4149933V.7090149H.34999085L.027999878 .26301576V.17001343H.32699586M.32699586 .24902344H.10499573L.32699586 .559021V.24902344Z"/>
<path id="font_1_8" d="M.70899966 .38476563H.40499879V.3027649H.6269989V.28274537C.6269989 .15263367 .5309906 .058547975 .397995 .058547975 .32398988 .058547975 .25698854 .08557129 .21398926 .13261414 .1659851 .18466187 .13699341 .27172853 .13699341 .36175538 .13699341 .5410156 .23899842 .6592102 .3929901 .6592102 .5039978 .6592102 .58399966 .6021118 .60398867 .5079651H.69898989C.6729889 .6562042 .5609894 .74121096 .3939972 .74121096 .30499269 .74121096 .23298645 .7182007 .17599488 .6712036 .09199524 .60110476 .04399109 .4879303 .04399109 .3567505 .04399109 .13261414 .18099976-.0234375 .37799073-.0234375 .47698976-.0234375 .55599978 .013549805 .6269989 .09259033L.6499939-.0044403078H.70899966V.38476563Z"/>
<path id="font_1_26" d="M.48199464-.00044250489V.52441409H.39898683V.22688294C.39898683 .11968994 .34298707 .049560548 .2559967 .049560548 .18998719 .049560548 .147995 .08963013 .147995 .15275574V.52441409H.06498718V.11968994C.06498718 .032562257 .12998963-.0234375 .23199463-.0234375 .30899049-.0234375 .35798646 .0035552979 .40699769 .07260132V-.00044250489H.48199464Z"/>
<path id="font_1_22" d="M.053985597-.21824646H.13798523V.05455017C.18199158 .0005493164 .23098755-.0234375 .29899598-.0234375 .43399049-.0234375 .522995 .08558655 .522995 .25279237 .522995 .4290161 .43699647 .5390625 .2979889 .5390625 .22698975 .5390625 .16999817 .50704959 .1309967 .44503785V.52404788H.053985597V-.21824646M.28399659 .46105958C.37599183 .46105958 .43598939 .3799591 .43598939 .25480653 .43598939 .13565064 .375 .05455017 .28399659 .05455017 .19599915 .05455017 .13798523 .13465882 .13798523 .25779725 .13798523 .38095094 .19599915 .46105958 .28399659 .46105958Z"/>
<path id="font_1_5" d="M.47399903 .21887207 .548996 0H.6529999L.39698792 .7285156H.2769928L.016998291 0H.115997318L.19299317 .21887207H.47399903M.44799806 .296875H.21598816L.33599855 .62857058 .44799806 .296875Z"/>
<path id="font_1_17" d="M.1499939 .5235901H.066986087V0H.1499939V.5235901M.1499939 .7285156H.06599426V.62350466H.1499939V.7285156Z"/>
<path id="font_1_7" d="M.18299866 .33203126H.5799866V.41401673H.18299866V.6465149H.59498599V.7285156H.08999634V0H.61299136V.08198547H.18299866V.33203126Z"/>
<path id="font_1_20" d="M.069992069 .52441409V0H.1539917V.2892151C.1539917 .39604188 .20999146 .4660492 .29599 .4660492 .3619995 .4660492 .4039917 .42604066 .4039917 .3630371V0H.4869995V.39604188C.4869995 .4830475 .42199708 .5390625 .32099916 .5390625 .24299622 .5390625 .19299317 .50904849 .14698792 .43605042V.52441409H.069992069Z"/>
</defs>
<path transform="matrix(1,0,0,-1,.199,48.787004)" stroke-width=".79701" stroke-linecap="butt" stroke-miterlimit="10" stroke-linejoin="miter" fill="none" stroke="#fff200" d="M196.14748-34.21536V34.21536H307.27589V-34.21536ZM307.27589 34.21536"/>
<path transform="matrix(1,0,0,-1,.199,48.787004)" stroke-width=".79701" stroke-linecap="butt" stroke-miterlimit="10" stroke-linejoin="miter" fill="none" stroke="#ff8000" d="M311.52793-17.2073V17.2073H413.44075V-17.2073ZM413.44075 17.2073"/>
<path transform="matrix(1,0,0,-1,.199,48.787004)" d="M39.22955 14.17339H.85039C.38072 14.17339 0 13.79266 0 13.323V-13.323C0-13.79266 .38072-14.17339 .85039-14.17339H39.22955C39.69922-14.17339 40.07994-13.79266 40.07994-13.323V13.323C40.07994 13.79266 39.69922 14.17339 39.22955 14.17339ZM0-14.17339" fill="#ff6666"/>
<path transform="matrix(1,0,0,-1,.199,48.787004)" stroke-width=".3985" stroke-linecap="butt" stroke-miterlimit="10" stroke-linejoin="miter" fill="none" stroke="#262626" d="M39.22955 14.17339H.85039C.38072 14.17339 0 13.79266 0 13.323V-13.323C0-13.79266 .38072-14.17339 .85039-14.17339H39.22955C39.69922-14.17339 40.07994-13.79266 40.07994-13.323V13.323C40.07994 13.79266 39.69922 14.17339 39.22955 14.17339ZM0-14.17339"/>
<use data-text="H" xlink:href="#font_1_9" transform="matrix(9.96264,0,0,-9.96264,4.184,52.278)"/>
<use data-text="a" xlink:href="#font_1_12" transform="matrix(9.96264,0,0,-9.96264,11.377027,52.278)"/>
<use data-text="z" xlink:href="#font_1_27" transform="matrix(9.96264,0,0,-9.96264,16.916256,52.278)"/>
<use data-text="a" xlink:href="#font_1_12" transform="matrix(9.96264,0,0,-9.96264,21.897576,52.278)"/>
<use data-text="r" xlink:href="#font_1_23" transform="matrix(9.96264,0,0,-9.96264,27.436804,52.278)"/>
<use data-text="d" xlink:href="#font_1_15" transform="matrix(9.96264,0,0,-9.96264,30.754363,52.278)"/>
<path transform="matrix(1,0,0,-1,.199,48.787004)" d="M82.81255 14.17339H55.10374C54.63408 14.17339 54.25334 13.79266 54.25334 13.323V-13.323C54.25334-13.79266 54.63408-14.17339 55.10374-14.17339H82.81255C83.28221-14.17339 83.66293-13.79266 83.66293-13.323V13.323C83.66293 13.79266 83.28221 14.17339 82.81255 14.17339ZM54.25334-14.17339" fill="#8888ff"/>
<path transform="matrix(1,0,0,-1,.199,48.787004)" stroke-width=".3985" stroke-linecap="butt" stroke-miterlimit="10" stroke-linejoin="miter" fill="none" stroke="#262626" d="M82.81255 14.17339H55.10374C54.63408 14.17339 54.25334 13.79266 54.25334 13.323V-13.323C54.25334-13.79266 54.63408-14.17339 55.10374-14.17339H82.81255C83.28221-14.17339 83.66293-13.79266 83.66293-13.323V13.323C83.66293 13.79266 83.28221 14.17339 82.81255 14.17339ZM54.25334-14.17339"/>
<use data-text="S" xlink:href="#font_1_11" transform="matrix(9.96264,0,0,-9.96264,58.437,52.348)"/>
<use data-text="t" xlink:href="#font_1_25" transform="matrix(9.96264,0,0,-9.96264,65.082088,52.348)"/>
<use data-text="a" xlink:href="#font_1_12" transform="matrix(9.96264,0,0,-9.96264,67.8517,52.348)"/>
<use data-text="r" xlink:href="#font_1_23" transform="matrix(9.96264,0,0,-9.96264,73.39093,52.348)"/>
<use data-text="t" xlink:href="#font_1_25" transform="matrix(9.96264,0,0,-9.96264,77.106998,52.348)"/>
<path transform="matrix(1,0,0,-1,.199,48.787004)" stroke-width=".79701" stroke-linecap="butt" stroke-miterlimit="10" stroke-linejoin="miter" fill="none" stroke="var(--color)" d="M40.07994 0H47.16664 49.59087"/>
<path transform="matrix(1,0,0,-1,49.78987,48.787004)" d="M4.66248 0C3.28098 .25902 1.0361 1.0361-.51805 1.94269V-1.94269C1.0361-1.0361 3.28098-.25902 4.66248 0" fill="var(--color)"/>
<path transform="matrix(1,0,0,-1,98.433,31.779)" d="M78.9468 14.17339H9.3545C8.88484 14.17339 8.50412 13.79266 8.50412 13.323V-13.323C8.50412-13.79266 8.88484-14.17339 9.3545-14.17339H78.9468C79.41646-14.17339 79.7972-13.79266 79.7972-13.323V13.323C79.7972 13.79266 79.41646 14.17339 78.9468 14.17339ZM8.50412-14.17339" fill="#7f807f"/>
<path transform="matrix(1,0,0,-1,98.433,31.779)" stroke-width=".3985" stroke-linecap="butt" stroke-miterlimit="10" stroke-linejoin="miter" fill="none" stroke="#262626" d="M78.9468 14.17339H9.3545C8.88484 14.17339 8.50412 13.79266 8.50412 13.323V-13.323C8.50412-13.79266 8.88484-14.17339 9.3545-14.17339H78.9468C79.41646-14.17339 79.7972-13.79266 79.7972-13.323V13.323C79.7972 13.79266 79.41646 14.17339 78.9468 14.17339ZM8.50412-14.17339"/>
<use data-text="P" xlink:href="#font_1_10" transform="matrix(9.96264,0,0,-9.96264,110.922,35.271)"/>
<use data-text="a" xlink:href="#font_1_12" transform="matrix(9.96264,0,0,-9.96264,117.16857,35.271)"/>
<use data-text="r" xlink:href="#font_1_23" transform="matrix(9.96264,0,0,-9.96264,122.7078,35.271)"/>
<use data-text="a" xlink:href="#font_1_12" transform="matrix(9.96264,0,0,-9.96264,125.925739,35.271)"/>
<use data-text="l" xlink:href="#font_1_19" transform="matrix(9.96264,0,0,-9.96264,131.46497,35.271)"/>
<use data-text="l" xlink:href="#font_1_19" transform="matrix(9.96264,0,0,-9.96264,133.67667,35.271)"/>
<use data-text="e" xlink:href="#font_1_16" transform="matrix(9.96264,0,0,-9.96264,135.88837,35.271)"/>
<use data-text="l" xlink:href="#font_1_19" transform="matrix(9.96264,0,0,-9.96264,141.4276,35.271)"/>
<use data-text="b" xlink:href="#font_1_13" transform="matrix(9.96264,0,0,-9.96264,146.39896,35.271)"/>
<use data-text="l" xlink:href="#font_1_19" transform="matrix(9.96264,0,0,-9.96264,151.7489,35.271)"/>
<use data-text="o" xlink:href="#font_1_21" transform="matrix(9.96264,0,0,-9.96264,153.9606,35.271)"/>
<use data-text="c" xlink:href="#font_1_14" transform="matrix(9.96264,0,0,-9.96264,159.49983,35.271)"/>
<use data-text="k" xlink:href="#font_1_18" transform="matrix(9.96264,0,0,-9.96264,164.2819,35.271)"/>
<use data-text="s" xlink:href="#font_1_24" transform="matrix(9.96264,0,0,-9.96264,169.26323,35.271)"/>
<path transform="matrix(1,0,0,-1,98.433,31.779)" stroke-width=".79701" stroke-linecap="butt" stroke-miterlimit="10" stroke-linejoin="miter" fill="none" stroke="var(--color)" d="M0 0V0H3.84164"/>
<path transform="matrix(1,0,0,-1,102.274639,31.779)" d="M4.66248 0C3.28098 .25902 1.0361 1.0361-.51805 1.94269V-1.94269C1.0361-1.0361 3.28098-.25902 4.66248 0" fill="var(--color)"/>
<path transform="matrix(1,0,0,-1,98.433,31.779)" d="M78.9468-19.8427H9.3545C8.88484-19.8427 8.50412-20.22343 8.50412-20.6931V-47.3391C8.50412-47.80876 8.88484-48.18948 9.3545-48.18948H78.9468C79.41646-48.18948 79.7972-47.80876 79.7972-47.3391V-20.6931C79.7972-20.22343 79.41646-19.8427 78.9468-19.8427ZM8.50412-48.18948" fill="#7f807f"/>
<path transform="matrix(1,0,0,-1,98.433,31.779)" stroke-width=".3985" stroke-linecap="butt" stroke-miterlimit="10" stroke-linejoin="miter" fill="none" stroke="#262626" d="M78.9468-19.8427H9.3545C8.88484-19.8427 8.50412-20.22343 8.50412-20.6931V-47.3391C8.50412-47.80876 8.88484-48.18948 9.3545-48.18948H78.9468C79.41646-48.18948 79.7972-47.80876 79.7972-47.3391V-20.6931C79.7972-20.22343 79.41646-19.8427 78.9468-19.8427ZM8.50412-48.18948"/>
<use data-text="P" xlink:href="#font_1_10" transform="matrix(9.96264,0,0,-9.96264,110.922,69.285999)"/>
<use data-text="a" xlink:href="#font_1_12" transform="matrix(9.96264,0,0,-9.96264,117.16857,69.285999)"/>
<use data-text="r" xlink:href="#font_1_23" transform="matrix(9.96264,0,0,-9.96264,122.7078,69.285999)"/>
<use data-text="a" xlink:href="#font_1_12" transform="matrix(9.96264,0,0,-9.96264,125.925739,69.285999)"/>
<use data-text="l" xlink:href="#font_1_19" transform="matrix(9.96264,0,0,-9.96264,131.46497,69.285999)"/>
<use data-text="l" xlink:href="#font_1_19" transform="matrix(9.96264,0,0,-9.96264,133.67667,69.285999)"/>
<use data-text="e" xlink:href="#font_1_16" transform="matrix(9.96264,0,0,-9.96264,135.88837,69.285999)"/>
<use data-text="l" xlink:href="#font_1_19" transform="matrix(9.96264,0,0,-9.96264,141.4276,69.285999)"/>
<use data-text="b" xlink:href="#font_1_13" transform="matrix(9.96264,0,0,-9.96264,146.39896,69.285999)"/>
<use data-text="l" xlink:href="#font_1_19" transform="matrix(9.96264,0,0,-9.96264,151.7489,69.285999)"/>
<use data-text="o" xlink:href="#font_1_21" transform="matrix(9.96264,0,0,-9.96264,153.9606,69.285999)"/>
<use data-text="c" xlink:href="#font_1_14" transform="matrix(9.96264,0,0,-9.96264,159.49983,69.285999)"/>
<use data-text="k" xlink:href="#font_1_18" transform="matrix(9.96264,0,0,-9.96264,164.2819,69.285999)"/>
<use data-text="s" xlink:href="#font_1_24" transform="matrix(9.96264,0,0,-9.96264,169.26323,69.285999)"/>
<path transform="matrix(1,0,0,-1,98.433,31.779)" stroke-width=".79701" stroke-linecap="butt" stroke-miterlimit="10" stroke-linejoin="miter" fill="none" stroke="var(--color)" d="M0 0V0-34.0161H3.84164"/>
<path transform="matrix(1,0,0,-1,102.274639,65.795108)" d="M4.66248 0C3.28098 .25902 1.0361 1.0361-.51805 1.94269V-1.94269C1.0361-1.0361 3.28098-.25902 4.66248 0" fill="var(--color)"/>
<path transform="matrix(1,0,0,-1,98.433,31.779)" stroke-width=".79701" stroke-linecap="butt" stroke-miterlimit="10" stroke-linejoin="miter" fill="none" stroke="var(--color)" d="M79.7972 0H86.1754V-34.0161H79.7972"/>
<path transform="matrix(1,0,0,-1,.199,48.787004)" stroke-width=".79701" stroke-linecap="butt" stroke-miterlimit="10" stroke-linejoin="miter" fill="none" stroke="var(--color)" d="M83.66293 0H97.83633"/>
<path transform="matrix(1,0,0,-1,208.28099,31.779002)" d="M39.58817 14.17339H.85039C.38072 14.17339 0 13.79266 0 13.323V-13.323C0-13.79266 .38072-14.17339 .85039-14.17339H39.58817C40.05783-14.17339 40.43857-13.79266 40.43857-13.323V13.323C40.43857 13.79266 40.05783 14.17339 39.58817 14.17339ZM0-14.17339" fill="#fff799"/>
<path transform="matrix(1,0,0,-1,208.28099,31.779002)" stroke-width=".3985" stroke-linecap="butt" stroke-miterlimit="10" stroke-linejoin="miter" fill="none" stroke="#262626" d="M39.58817 14.17339H.85039C.38072 14.17339 0 13.79266 0 13.323V-13.323C0-13.79266 .38072-14.17339 .85039-14.17339H39.58817C40.05783-14.17339 40.43857-13.79266 40.43857-13.323V13.323C40.43857 13.79266 40.05783 14.17339 39.58817 14.17339ZM0-14.17339"/>
<use data-text="B" xlink:href="#font_1_6" transform="matrix(9.96264,0,0,-9.96264,212.26599,35.271)"/>
<use data-text="l" xlink:href="#font_1_19" transform="matrix(9.96264,0,0,-9.96264,218.91107,35.271)"/>
<use data-text="o" xlink:href="#font_1_21" transform="matrix(9.96264,0,0,-9.96264,221.12277,35.271)"/>
<use data-text="c" xlink:href="#font_1_14" transform="matrix(9.96264,0,0,-9.96264,226.662,35.271)"/>
<use data-text="k" xlink:href="#font_1_18" transform="matrix(9.96264,0,0,-9.96264,231.44408,35.271)"/>
<use data-text="1" xlink:href="#font_1_1" transform="matrix(9.96264,0,0,-9.96264,239.18505,35.271)"/>
<path transform="matrix(1,0,0,-1,208.28099,31.779002)" d="M88.53085 14.17339H49.79309C49.32343 14.17339 48.94269 13.79266 48.94269 13.323V-13.323C48.94269-13.79266 49.32343-14.17339 49.79309-14.17339H88.53085C89.00052-14.17339 89.38126-13.79266 89.38126-13.323V13.323C89.38126 13.79266 89.00052 14.17339 88.53085 14.17339ZM48.94269-14.17339" fill="#fff799"/>
<path transform="matrix(1,0,0,-1,208.28099,31.779002)" stroke-width=".3985" stroke-linecap="butt" stroke-miterlimit="10" stroke-linejoin="miter" fill="none" stroke="#262626" d="M88.53085 14.17339H49.79309C49.32343 14.17339 48.94269 13.79266 48.94269 13.323V-13.323C48.94269-13.79266 49.32343-14.17339 49.79309-14.17339H88.53085C89.00052-14.17339 89.38126-13.79266 89.38126-13.323V13.323C89.38126 13.79266 89.00052 14.17339 88.53085 14.17339ZM48.94269-14.17339"/>
<use data-text="B" xlink:href="#font_1_6" transform="matrix(9.96264,0,0,-9.96264,261.20799,35.271)"/>
<use data-text="l" xlink:href="#font_1_19" transform="matrix(9.96264,0,0,-9.96264,267.85307,35.271)"/>
<use data-text="o" xlink:href="#font_1_21" transform="matrix(9.96264,0,0,-9.96264,270.06477,35.271)"/>
<use data-text="c" xlink:href="#font_1_14" transform="matrix(9.96264,0,0,-9.96264,275.60398,35.271)"/>
<use data-text="k" xlink:href="#font_1_18" transform="matrix(9.96264,0,0,-9.96264,280.38606,35.271)"/>
<use data-text="2" xlink:href="#font_1_2" transform="matrix(9.96264,0,0,-9.96264,288.127,35.271)"/>
<path transform="matrix(1,0,0,-1,208.28099,31.779002)" stroke-width=".79701" stroke-linecap="butt" stroke-miterlimit="10" stroke-linejoin="miter" fill="none" stroke="var(--color)" d="M40.43857 0V0H44.28021"/>
<path transform="matrix(1,0,0,-1,252.5612,31.779002)" d="M4.66248 0C3.28098 .25902 1.0361 1.0361-.51805 1.94269V-1.94269C1.0361-1.0361 3.28098-.25902 4.66248 0" fill="var(--color)"/>
<path transform="matrix(1,0,0,-1,199.577,31.779)" stroke-width=".79701" stroke-linecap="butt" stroke-miterlimit="10" stroke-linejoin="miter" fill="none" stroke="var(--color)" d="M0 0V0H3.84164"/>
<path transform="matrix(1,0,0,-1,203.41864,31.779)" d="M4.66248 0C3.28098 .25902 1.0361 1.0361-.51805 1.94269V-1.94269C1.0361-1.0361 3.28098-.25902 4.66248 0" fill="var(--color)"/>
<path transform="matrix(1,0,0,-1,208.28099,65.794)" d="M39.58817 14.17339H.85039C.38072 14.17339 0 13.79266 0 13.323V-13.323C0-13.79266 .38072-14.17339 .85039-14.17339H39.58817C40.05783-14.17339 40.43857-13.79266 40.43857-13.323V13.323C40.43857 13.79266 40.05783 14.17339 39.58817 14.17339ZM0-14.17339" fill="#fff799"/>
<path transform="matrix(1,0,0,-1,208.28099,65.794)" stroke-width=".3985" stroke-linecap="butt" stroke-miterlimit="10" stroke-linejoin="miter" fill="none" stroke="#262626" d="M39.58817 14.17339H.85039C.38072 14.17339 0 13.79266 0 13.323V-13.323C0-13.79266 .38072-14.17339 .85039-14.17339H39.58817C40.05783-14.17339 40.43857-13.79266 40.43857-13.323V13.323C40.43857 13.79266 40.05783 14.17339 39.58817 14.17339ZM0-14.17339"/>
<use data-text="B" xlink:href="#font_1_6" transform="matrix(9.96264,0,0,-9.96264,212.26599,69.241)"/>
<use data-text="l" xlink:href="#font_1_19" transform="matrix(9.96264,0,0,-9.96264,218.91107,69.241)"/>
<use data-text="o" xlink:href="#font_1_21" transform="matrix(9.96264,0,0,-9.96264,221.12277,69.241)"/>
<use data-text="c" xlink:href="#font_1_14" transform="matrix(9.96264,0,0,-9.96264,226.662,69.241)"/>
<use data-text="k" xlink:href="#font_1_18" transform="matrix(9.96264,0,0,-9.96264,231.44408,69.241)"/>
<use data-text="3" xlink:href="#font_1_3" transform="matrix(9.96264,0,0,-9.96264,239.18505,69.241)"/>
<path transform="matrix(1,0,0,-1,208.28099,65.794)" d="M88.53085 14.17339H49.79309C49.32343 14.17339 48.94269 13.79266 48.94269 13.323V-13.323C48.94269-13.79266 49.32343-14.17339 49.79309-14.17339H88.53085C89.00052-14.17339 89.38126-13.79266 89.38126-13.323V13.323C89.38126 13.79266 89.00052 14.17339 88.53085 14.17339ZM48.94269-14.17339" fill="#fff799"/>
<path transform="matrix(1,0,0,-1,208.28099,65.794)" stroke-width=".3985" stroke-linecap="butt" stroke-miterlimit="10" stroke-linejoin="miter" fill="none" stroke="#262626" d="M88.53085 14.17339H49.79309C49.32343 14.17339 48.94269 13.79266 48.94269 13.323V-13.323C48.94269-13.79266 49.32343-14.17339 49.79309-14.17339H88.53085C89.00052-14.17339 89.38126-13.79266 89.38126-13.323V13.323C89.38126 13.79266 89.00052 14.17339 88.53085 14.17339ZM48.94269-14.17339"/>
<use data-text="B" xlink:href="#font_1_6" transform="matrix(9.96264,0,0,-9.96264,261.20799,69.285999)"/>
<use data-text="l" xlink:href="#font_1_19" transform="matrix(9.96264,0,0,-9.96264,267.85307,69.285999)"/>
<use data-text="o" xlink:href="#font_1_21" transform="matrix(9.96264,0,0,-9.96264,270.06477,69.285999)"/>
<use data-text="c" xlink:href="#font_1_14" transform="matrix(9.96264,0,0,-9.96264,275.60398,69.285999)"/>
<use data-text="k" xlink:href="#font_1_18" transform="matrix(9.96264,0,0,-9.96264,280.38606,69.285999)"/>
<use data-text="4" xlink:href="#font_1_4" transform="matrix(9.96264,0,0,-9.96264,288.127,69.285999)"/>
<path transform="matrix(1,0,0,-1,208.28099,65.794)" stroke-width=".79701" stroke-linecap="butt" stroke-miterlimit="10" stroke-linejoin="miter" fill="none" stroke="var(--color)" d="M40.43857 0V0H44.28021"/>
<path transform="matrix(1,0,0,-1,252.5612,65.794)" d="M4.66248 0C3.28098 .25902 1.0361 1.0361-.51805 1.94269V-1.94269C1.0361-1.0361 3.28098-.25902 4.66248 0" fill="var(--color)"/>
<path transform="matrix(1,0,0,-1,199.577,31.779)" stroke-width=".79701" stroke-linecap="butt" stroke-miterlimit="10" stroke-linejoin="miter" fill="none" stroke="var(--color)" d="M0 0V0-34.0161H3.84164"/>
<path transform="matrix(1,0,0,-1,203.41864,65.795108)" d="M4.66248 0C3.28098 .25902 1.0361 1.0361-.51805 1.94269V-1.94269C1.0361-1.0361 3.28098-.25902 4.66248 0" fill="var(--color)"/>
<path transform="matrix(1,0,0,-1,199.577,31.779)" stroke-width=".79701" stroke-linecap="butt" stroke-miterlimit="10" stroke-linejoin="miter" fill="none" stroke="var(--color)" d="M98.28387 0H104.66208V-34.0161H98.28387"/>
<path transform="matrix(1,0,0,-1,.199,48.787004)" stroke-width=".79701" stroke-linecap="butt" stroke-miterlimit="10" stroke-linejoin="miter" fill="none" stroke="var(--color)" d="M184.80875 0H198.98213"/>
<path transform="matrix(1,0,0,-1,.199,48.787004)" d="M196.14748 34.21536V48.38876H307.27589V34.21536ZM307.27589 48.38876" fill="#fff799"/>
<path transform="matrix(1,0,0,-1,.199,48.787004)" stroke-width=".79701" stroke-linecap="butt" stroke-miterlimit="10" stroke-linejoin="miter" fill="none" stroke="#fff200" d="M196.14748 34.21536V48.38876H307.27589V34.21536ZM307.27589 48.38876"/>
<use data-text="G" xlink:href="#font_1_8" transform="matrix(9.96264,0,0,-9.96264,238.065,10.100006)"/>
<use data-text="r" xlink:href="#font_1_23" transform="matrix(9.96264,0,0,-9.96264,245.81594,10.100006)"/>
<use data-text="o" xlink:href="#font_1_21" transform="matrix(9.96264,0,0,-9.96264,249.1335,10.100006)"/>
<use data-text="u" xlink:href="#font_1_26" transform="matrix(9.96264,0,0,-9.96264,254.67273,10.100006)"/>
<use data-text="p" xlink:href="#font_1_22" transform="matrix(9.96264,0,0,-9.96264,260.21195,10.100006)"/>
<path transform="matrix(1,0,0,-1,319.009,48.787004)" d="M40.69402 14.17339H.85039C.38072 14.17339 0 13.79266 0 13.323V-13.323C0-13.79266 .38072-14.17339 .85039-14.17339H40.69402C41.16368-14.17339 41.54442-13.79266 41.54442-13.323V13.323C41.54442 13.79266 41.16368 14.17339 40.69402 14.17339ZM0-14.17339" fill="#ffbf80"/>
<path transform="matrix(1,0,0,-1,319.009,48.787004)" stroke-width=".3985" stroke-linecap="butt" stroke-miterlimit="10" stroke-linejoin="miter" fill="none" stroke="#262626" d="M40.69402 14.17339H.85039C.38072 14.17339 0 13.79266 0 13.323V-13.323C0-13.79266 .38072-14.17339 .85039-14.17339H40.69402C41.16368-14.17339 41.54442-13.79266 41.54442-13.323V13.323C41.54442 13.79266 41.16368 14.17339 40.69402 14.17339ZM0-14.17339"/>
<use data-text="B" xlink:href="#font_1_6" transform="matrix(9.96264,0,0,-9.96264,322.994,52.278)"/>
<use data-text="l" xlink:href="#font_1_19" transform="matrix(9.96264,0,0,-9.96264,329.63908,52.278)"/>
<use data-text="o" xlink:href="#font_1_21" transform="matrix(9.96264,0,0,-9.96264,331.85078,52.278)"/>
<use data-text="c" xlink:href="#font_1_14" transform="matrix(9.96264,0,0,-9.96264,337.38999,52.278)"/>
<use data-text="k" xlink:href="#font_1_18" transform="matrix(9.96264,0,0,-9.96264,342.17207,52.278)"/>
<use data-text="A" xlink:href="#font_1_5" transform="matrix(9.96264,0,0,-9.96264,349.923,52.278)"/>
<path transform="matrix(1,0,0,-1,319.009,48.787004)" d="M90.74257 14.17339H50.89894C50.42928 14.17339 50.04854 13.79266 50.04854 13.323V-13.323C50.04854-13.79266 50.42928-14.17339 50.89894-14.17339H90.74257C91.21223-14.17339 91.59296-13.79266 91.59296-13.323V13.323C91.59296 13.79266 91.21223 14.17339 90.74257 14.17339ZM50.04854-14.17339" fill="#ffbf80"/>
<path transform="matrix(1,0,0,-1,319.009,48.787004)" stroke-width=".3985" stroke-linecap="butt" stroke-miterlimit="10" stroke-linejoin="miter" fill="none" stroke="#262626" d="M90.74257 14.17339H50.89894C50.42928 14.17339 50.04854 13.79266 50.04854 13.323V-13.323C50.04854-13.79266 50.42928-14.17339 50.89894-14.17339H90.74257C91.21223-14.17339 91.59296-13.79266 91.59296-13.323V13.323C91.59296 13.79266 91.21223 14.17339 90.74257 14.17339ZM50.04854-14.17339"/>
<use data-text="B" xlink:href="#font_1_6" transform="matrix(9.96264,0,0,-9.96264,373.042,52.278)"/>
<use data-text="l" xlink:href="#font_1_19" transform="matrix(9.96264,0,0,-9.96264,379.68708,52.278)"/>
<use data-text="o" xlink:href="#font_1_21" transform="matrix(9.96264,0,0,-9.96264,381.89878,52.278)"/>
<use data-text="c" xlink:href="#font_1_14" transform="matrix(9.96264,0,0,-9.96264,387.438,52.278)"/>
<use data-text="k" xlink:href="#font_1_18" transform="matrix(9.96264,0,0,-9.96264,392.22007,52.278)"/>
<use data-text="B" xlink:href="#font_1_6" transform="matrix(9.96264,0,0,-9.96264,399.971,52.278)"/>
<path transform="matrix(1,0,0,-1,319.009,48.787004)" stroke-width=".79701" stroke-linecap="butt" stroke-miterlimit="10" stroke-linejoin="miter" fill="none" stroke="var(--color)" d="M41.54442 0H48.6311 45.38606"/>
<path transform="matrix(1,0,0,-1,364.39506,48.787004)" d="M4.66248 0C3.28098 .25902 1.0361 1.0361-.51805 1.94269V-1.94269C1.0361-1.0361 3.28098-.25902 4.66248 0" fill="var(--color)"/>
<path transform="matrix(1,0,0,-1,.199,48.787004)" stroke-width=".79701" stroke-linecap="butt" stroke-miterlimit="10" stroke-linejoin="miter" fill="none" stroke="var(--color)" d="M304.44123 0H311.52793 313.95213"/>
<path transform="matrix(1,0,0,-1,314.15113,48.787004)" d="M4.66248 0C3.28098 .25902 1.0361 1.0361-.51805 1.94269V-1.94269C1.0361-1.0361 3.28098-.25902 4.66248 0" fill="var(--color)"/>
<path transform="matrix(1,0,0,-1,.199,48.787004)" d="M311.52793 17.2073V31.3807H413.44075V17.2073ZM413.44075 31.3807" fill="#ffbf80"/>
<path transform="matrix(1,0,0,-1,.199,48.787004)" stroke-width=".79701" stroke-linecap="butt" stroke-miterlimit="10" stroke-linejoin="miter" fill="none" stroke="#ff8000" d="M311.52793 17.2073V31.3807H413.44075V17.2073ZM413.44075 31.3807"/>
<use data-text="S" xlink:href="#font_1_11" transform="matrix(9.96264,0,0,-9.96264,350.613,28.055)"/>
<use data-text="e" xlink:href="#font_1_16" transform="matrix(9.96264,0,0,-9.96264,357.2581,28.055)"/>
<use data-text="r" xlink:href="#font_1_23" transform="matrix(9.96264,0,0,-9.96264,362.7973,28.055)"/>
<use data-text="i" xlink:href="#font_1_17" transform="matrix(9.96264,0,0,-9.96264,366.2643,28.055)"/>
<use data-text="e" xlink:href="#font_1_16" transform="matrix(9.96264,0,0,-9.96264,368.476,28.055)"/>
<use data-text="s" xlink:href="#font_1_24" transform="matrix(9.96264,0,0,-9.96264,374.01524,28.055)"/>
<path transform="matrix(1,0,0,-1,.199,48.787004)" d="M449.62287 14.17339H425.62989C425.1602 14.17339 424.77946 13.79266 424.77946 13.323V-13.323C424.77946-13.79266 425.1602-14.17339 425.62989-14.17339H449.62287C450.0925-14.17339 450.47325-13.79266 450.47325-13.323V13.323C450.47325 13.79266 450.0925 14.17339 449.62287 14.17339ZM424.77946-14.17339" fill="#80ff80"/>
<path transform="matrix(1,0,0,-1,.199,48.787004)" stroke-width=".3985" stroke-linecap="butt" stroke-miterlimit="10" stroke-linejoin="miter" fill="none" stroke="#262626" d="M449.62287 14.17339H425.62989C425.1602 14.17339 424.77946 13.79266 424.77946 13.323V-13.323C424.77946-13.79266 425.1602-14.17339 425.62989-14.17339H449.62287C450.0925-14.17339 450.47325-13.79266 450.47325-13.323V13.323C450.47325 13.79266 450.0925 14.17339 449.62287 14.17339ZM424.77946-14.17339"/>
<use data-text="E" xlink:href="#font_1_7" transform="matrix(9.96264,0,0,-9.96264,428.958,52.278)"/>
<use data-text="n" xlink:href="#font_1_20" transform="matrix(9.96264,0,0,-9.96264,435.6031,52.278)"/>
<use data-text="d" xlink:href="#font_1_15" transform="matrix(9.96264,0,0,-9.96264,441.1423,52.278)"/>
<path transform="matrix(1,0,0,-1,.199,48.787004)" stroke-width=".79701" stroke-linecap="butt" stroke-miterlimit="10" stroke-linejoin="miter" fill="none" stroke="var(--color)" d="M410.60606 0H417.69276 420.117"/>
<path transform="matrix(1,0,0,-1,420.316,48.787004)" d="M4.66248 0C3.28098 .25902 1.0361 1.0361-.51805 1.94269V-1.94269C1.0361-1.0361 3.28098-.25902 4.66248 0" fill="var(--color)"/>
</svg>
