<?xml version="1.0" encoding="utf-8" ?>
<svg baseProfile="tiny" height="447" version="1.2" viewBox="0,0,1303,441" width="1309" xmlns="http://www.w3.org/2000/svg" xmlns:ev="http://www.w3.org/2001/xml-events" xmlns:xlink="http://www.w3.org/1999/xlink"><defs /><polyline fill="none" points="695,120 695,96 1052,96 1052,120" stroke="black" stroke-width="1" /><polyline fill="none" points="692,110 695,105 697,110" stroke="black" stroke-width="1" /><polyline fill="none" points="870,98 876,96 870,93" stroke="black" stroke-width="1" /><polyline fill="none" points="1049,104 1052,110 1054,104" stroke="black" stroke-width="1" /><polyline fill="none" points="518,121 518,80 1100,80 1100,122" stroke="black" stroke-width="1" /><polyline fill="none" points="515,102 518,97 520,102" stroke="black" stroke-width="1" /><polyline fill="none" points="805,82 811,80 805,77" stroke="black" stroke-width="1" /><polyline fill="none" points="1097,97 1100,103 1102,97" stroke="black" stroke-width="1" /><polyline fill="none" points="106,122 106,68 1131,68 1131,122" stroke="black" stroke-width="1" /><polyline fill="none" points="103,97 106,92 108,97" stroke="black" stroke-width="1" /><polyline fill="none" points="615,70 621,68 615,65" stroke="black" stroke-width="1" /><polyline fill="none" points="1128,91 1131,97 1133,91" stroke="black" stroke-width="1" /><polyline fill="none" points="133,122 133,173 487,173 487,122" stroke="black" stroke-width="1" /><polyline fill="none" points="130,144 133,150 135,144" stroke="black" stroke-width="1" /><polyline fill="none" points="306,175 312,173 306,170" stroke="black" stroke-width="1" /><polyline fill="none" points="484,149 487,144 489,149" stroke="black" stroke-width="1" /><polyline fill="none" points="29,122 1198,122" stroke="black" stroke-width="1" /><polyline fill="none" points="610,124 616,122 610,119" stroke="black" stroke-width="1" /><line fill="none" stroke="black" stroke-width="2" x1="28" x2="28" y1="129" y2="115" /><line fill="none" stroke="black" stroke-width="2" x1="23" x2="23" y1="129" y2="115" /><line fill="none" stroke="black" stroke-width="2" x1="1197" x2="1197" y1="129" y2="115" /><line fill="none" stroke="black" stroke-width="2" x1="1202" x2="1202" y1="129" y2="115" /><rect fill="white" height="28" stroke="black" stroke-width="1" width="126" x="722" y="107" /><text font-family="monospace" font-size="17px" font-weight="bold" x="760.0" y="127">query</text><rect fill="white" height="30" stroke="black" stroke-width="1" width="131" x="883" y="107" /><text font-family="monospace" font-size="17px" font-weight="bold" x="907.5" y="128">fragment</text><rect fill="white" height="25" stroke="black" stroke-width="1" width="106" x="158" y="105" /><text font-family="monospace" font-size="17px" font-weight="bold" x="181.0" y="124">scheme</text><rect fill="white" height="25" stroke="black" stroke-width="1" width="132" x="239" y="155" /><text font-family="monospace" font-size="17px" font-weight="bold" x="269.0" y="174">discard</text><rect fill="white" height="25" stroke="black" stroke-width="1" width="162" x="302" y="105" /><text font-family="monospace" font-size="17px" font-weight="bold" x="337.0" y="124">authority</text><rect fill="white" height="27" stroke="black" stroke-width="1" width="97" x="558" y="106" /><text font-family="monospace" font-size="17px" font-weight="bold" x="586.5" y="126">path</text></svg>