<svg class="main-svg" xmlns="http://www.w3.org/2000/svg" xmlns:xlink="http://www.w3.org/1999/xlink" width="700" height="500" style="" viewBox="0 0 700 500"><rect x="0" y="0" width="700" height="500" style="fill: rgb(255, 255, 255); fill-opacity: 1;"/><defs id="defs-e35cde"><g class="clips"><clipPath id="clipe35cdexyplot" class="plotclip"><rect width="399" height="217.59999999999997"/></clipPath><clipPath id="clipe35cdex2y2plot" class="plotclip"><rect width="399" height="54.400000000000006"/></clipPath><clipPath class="axesclip" id="clipe35cdex"><rect x="94" y="0" width="399" height="500"/></clipPath><clipPath class="axesclip" id="clipe35cdey"><rect x="0" y="100" width="700" height="217.59999999999997"/></clipPath><clipPath class="axesclip" id="clipe35cdexy"><rect x="94" y="100" width="399" height="217.59999999999997"/></clipPath><clipPath class="axesclip" id="clipe35cdey2"><rect x="0" y="365.59999999999997" width="700" height="54.400000000000006"/></clipPath><clipPath class="axesclip" id="clipe35cdexy2"><rect x="94" y="365.59999999999997" width="399" height="54.400000000000006"/></clipPath><clipPath class="axesclip" id="clipe35cdex2"><rect x="94" y="0" width="399" height="500"/></clipPath><clipPath class="axesclip" id="clipe35cdex2y"><rect x="94" y="100" width="399" height="217.59999999999997"/></clipPath><clipPath class="axesclip" id="clipe35cdex2y2"><rect x="94" y="365.59999999999997" width="399" height="54.400000000000006"/></clipPath></g><g class="gradients"/><g class="patterns"/></defs><g class="bglayer"/><g class="layer-below"><g class="imagelayer"/><g class="shapelayer"/></g><g class="cartesianlayer"><g class="subplot xy"><g class="layer-subplot"><g class="shapelayer"/><g class="imagelayer"/></g><g class="minor-gridlayer"><g class="x"/><g class="y"/></g><g class="gridlayer"><g class="x"><path class="xgrid crisp" transform="translate(151,0)" d="M0,100v217.59999999999997" style="stroke: rgb(226, 226, 226); stroke-opacity: 1; stroke-width: 1px;"/><path class="xgrid crisp" transform="translate(208,0)" d="M0,100v217.59999999999997" style="stroke: rgb(226, 226, 226); stroke-opacity: 1; stroke-width: 1px;"/><path class="xgrid crisp" transform="translate(265,0)" d="M0,100v217.59999999999997" style="stroke: rgb(226, 226, 226); stroke-opacity: 1; stroke-width: 1px;"/><path class="xgrid crisp" transform="translate(322,0)" d="M0,100v217.59999999999997" style="stroke: rgb(226, 226, 226); stroke-opacity: 1; stroke-width: 1px;"/><path class="xgrid crisp" transform="translate(379,0)" d="M0,100v217.59999999999997" style="stroke: rgb(226, 226, 226); stroke-opacity: 1; stroke-width: 1px;"/><path class="xgrid crisp" transform="translate(436,0)" d="M0,100v217.59999999999997" style="stroke: rgb(226, 226, 226); stroke-opacity: 1; stroke-width: 1px;"/></g><g class="y"><path class="ygrid crisp" transform="translate(0,295.84000000000003)" d="M94,0h399" style="stroke: rgb(226, 226, 226); stroke-opacity: 1; stroke-width: 1px;"/><path class="ygrid crisp" transform="translate(0,274.08000000000004)" d="M94,0h399" style="stroke: rgb(226, 226, 226); stroke-opacity: 1; stroke-width: 1px;"/><path class="ygrid crisp" transform="translate(0,252.32)" d="M94,0h399" style="stroke: rgb(226, 226, 226); stroke-opacity: 1; stroke-width: 1px;"/><path class="ygrid crisp" transform="translate(0,230.56)" d="M94,0h399" style="stroke: rgb(226, 226, 226); stroke-opacity: 1; stroke-width: 1px;"/><path class="ygrid crisp" transform="translate(0,208.8)" d="M94,0h399" style="stroke: rgb(226, 226, 226); stroke-opacity: 1; stroke-width: 1px;"/><path class="ygrid crisp" transform="translate(0,187.04000000000002)" d="M94,0h399" style="stroke: rgb(226, 226, 226); stroke-opacity: 1; stroke-width: 1px;"/><path class="ygrid crisp" transform="translate(0,165.28)" d="M94,0h399" style="stroke: rgb(226, 226, 226); stroke-opacity: 1; stroke-width: 1px;"/><path class="ygrid crisp" transform="translate(0,143.52)" d="M94,0h399" style="stroke: rgb(226, 226, 226); stroke-opacity: 1; stroke-width: 1px;"/><path class="ygrid crisp" transform="translate(0,121.76)" d="M94,0h399" style="stroke: rgb(226, 226, 226); stroke-opacity: 1; stroke-width: 1px;"/></g></g><g class="zerolinelayer"><path class="xzl zl crisp" transform="translate(94,0)" d="M0,100v217.59999999999997" style="stroke: rgb(167, 167, 167); stroke-opacity: 1; stroke-width: 1px;"/><path class="yzl zl crisp" transform="translate(0,317.6)" d="M94,0h399" style="stroke: rgb(167, 167, 167); stroke-opacity: 1; stroke-width: 1px;"/></g><g class="layer-between"><g class="shapelayer"/><g class="imagelayer"/></g><path class="xlines-below"/><path class="ylines-below"/><g class="overlines-below"/><g class="xaxislayer-below"/><g class="yaxislayer-below"/><g class="overaxes-below"/><g class="overplot"><g class="xy" transform="translate(94,100)" clip-path="url(#clipe35cdexyplot)"><g class="scatterlayer mlayer"><g class="trace scatter trace5d7f96" style="stroke-miterlimit: 2; opacity: 1;"><g class="fills"/><g class="errorbars"/><g class="lines"/><g class="points"><path class="point" transform="translate(200.07,0)" d="M3,0A3,3 0 1,1 0,-3A3,3 0 0,1 3,0Z" style="opacity: 1; stroke-width: 0px; fill: rgb(0, 0, 0); fill-opacity: 0;"/></g><g class="text"/></g><g class="trace scatter trace11140d" style="stroke-miterlimit: 2; opacity: 1;"><g class="fills"/><g class="errorbars"/><g class="lines"><path class="js-line" d="M1.14,0L58.14,0L59.28,1.08L88.92,1.01L90.06,2.01L94.62,2.01L95.76,4.03L111.72,4.03L112.86,5.04L115.14,5.04L116.28,8.06L118.56,10.07L119.7,10.07L121.98,12.09L123.12,12.09L124.26,14.1L125.4,14.1L127.68,16.12L128.82,16.12L129.96,18.13L131.1,18.13L133.38,18.13L134.52,20.15L135.66,20.15L136.8,21.16L140.22,21.16L141.36,22.16L143.64,26.19L144.78,31.23L147.06,33.24L148.2,33.24L149.34,34.25L150.48,36.27L152.76,39.29L153.9,40.3L157.32,45.33L158.46,46.34L160.74,49.36L161.88,51.38L164.16,55.41L165.3,55.41L166.44,58.43L167.58,58.43L174.42,71.53L175.56,71.53L177.84,75.56L178.98,76.56L181.26,83.61L182.4,86.64L183.54,90.67L184.68,90.67L186.96,93.69L188.1,97.72L191.52,101.75L192.66,104.77L193.8,107.79L194.94,107.79L202.92,127.94L204.06,128.95L207.48,136L208.62,136L210.9,139.02L212.04,144.06L213.18,145.07L214.32,148.09L217.74,151.11L218.88,154.13L220.02,155.14L221.16,157.16L225.72,164.21L226.86,164.21L228,164.21L229.14,168.24L231.42,168.24L232.56,169.24L237.12,177.3L238.26,177.3L239.4,178.31L240.54,183.35L241.68,183.35L242.82,186.37L247.38,190.4L248.52,194.43L249.66,194.43L250.8,195.44L251.94,195.44L253.08,196.44L254.22,196.44L255.36,197.45L257.64,197.45L258.78,200.47L262.2,206.52L263.34,206.52L264.48,207.53L265.62,207.53L266.76,207.53L267.9,208.53L269.04,208.53L270.18,209.54L271.32,209.54L272.46,210.55L273.6,210.55L274.74,211.56L275.88,212.56L277.02,212.56L278.16,212.56L279.3,213.57L289.56,213.57L290.7,214.58L294.12,214.58L295.26,215.59L305.52,215.59L306.66,216.59L307.8,217.6L308.94,217.6L399,217.6" style="vector-effect: none; fill: none; stroke: rgb(65, 124, 255); stroke-opacity: 1; stroke-width: 2px; opacity: 1;"/></g><g class="points"/><g class="text"/></g><g class="trace scatter trace733b09" style="stroke-miterlimit: 2; opacity: 1;"><g class="fills"/><g class="errorbars"/><g class="lines"><path class="js-line" d="M1.14,217.6L88.92,217.6L90.06,216.59L94.62,216.59L95.76,214.58L115.14,214.58L116.28,212.56L117.42,211.56L118.56,211.56L120.84,211.56L121.98,210.55L125.4,210.55L126.54,209.54L128.82,209.54L129.96,208.53L133.38,208.53L134.52,207.53L140.22,207.53L141.36,206.52L145.92,199.47L147.06,199.47L150.48,199.47L151.62,198.46L156.18,193.42L157.32,193.42L158.46,193.42L159.6,192.41L160.74,192.41L161.88,191.41L164.16,188.39L165.3,188.39L166.44,187.38L167.58,187.38L168.72,187.38L169.86,186.37L172.14,184.36L173.28,182.34L174.42,181.33L175.56,181.33L176.7,178.31L177.84,178.31L181.26,174.28L182.4,174.28L184.68,170.25L185.82,168.24L186.96,168.24L188.1,166.22L194.94,154.13L196.08,151.11L204.06,137.01L205.2,133.99L206.34,131.97L207.48,127.94L213.18,121.9L214.32,119.88L216.6,116.86L217.74,116.86L218.88,114.84L220.02,114.84L221.16,112.83L222.3,112.83L224.58,109.81L225.72,108.8L228,106.79L229.14,102.76L230.28,101.75L231.42,101.75L233.7,99.73L234.84,99.73L239.4,92.68L240.54,85.63L241.68,84.62L242.82,81.6L247.38,73.54L248.52,70.52L249.66,69.51L250.8,69.51L253.08,66.49L254.22,65.48L255.36,65.48L256.5,64.47L258.78,59.44L259.92,56.41L261.06,55.41L262.2,49.36L263.34,48.36L264.48,48.36L265.62,48.36L266.76,47.35L270.18,47.35L271.32,45.33L273.6,42.31L274.74,41.3L277.02,38.28L278.16,38.28L279.3,37.27L280.44,37.27L282.72,35.26L283.86,35.26L285,35.26L286.14,34.25L287.28,34.25L288.42,32.24L289.56,31.23L290.7,29.21L294.12,24.18L295.26,23.17L297.54,23.17L298.68,21.16L299.82,20.15L300.96,20.15L302.1,19.14L303.24,19.14L305.52,17.13L306.66,14.1L308.94,11.08L310.08,11.08L313.5,11.08L314.64,10.07L316.92,10.07L318.06,9.07L321.48,9.07L322.62,8.06L328.32,8.06L329.46,7.05L330.6,7.05L331.74,6.04L342,6.04L343.14,5.04L346.56,5.04L347.7,4.03L348.84,3.02L349.98,3.02L364.8,3.02L365.94,2.01L373.92,2.01L375.06,1.01L399,1.01" style="vector-effect: none; fill: none; stroke: rgb(183, 210, 75); stroke-opacity: 1; stroke-width: 2px; opacity: 1;"/></g><g class="points"/><g class="text"/></g><g class="trace scatter trace536cb3" style="stroke-miterlimit: 2; opacity: 1;"><g class="fills"/><g class="errorbars"/><g class="lines"><path class="js-line" d="M1.14,217.6L58.14,217.6L59.28,216.52L111.72,216.59L112.86,215.59L115.14,215.59L116.28,214.58L117.42,214.58L118.56,213.57L119.7,213.57L120.84,212.56L123.12,212.56L124.26,210.55L126.54,210.55L127.68,209.54L128.82,209.54L129.96,208.53L133.38,208.53L134.52,207.53L135.66,207.53L136.8,206.52L142.5,206.52L143.64,205.51L144.78,203.5L145.92,203.5L147.06,202.49L148.2,202.49L151.62,198.46L152.76,198.46L155.04,198.46L156.18,197.45L158.46,195.44L159.6,195.44L161.88,192.41L163.02,192.41L164.16,191.41L165.3,191.41L166.44,189.39L167.58,189.39L169.86,186.37L171,185.36L172.14,184.36L173.28,184.36L174.42,182.34L175.56,182.34L176.7,182.34L177.84,181.33L178.98,181.33L180.12,178.31L181.26,177.3L182.4,174.28L183.54,173.27L184.68,174.28L185.82,174.28L186.96,173.27L188.1,171.26L189.24,172.27L192.66,172.27L193.8,171.26L194.94,173.27L196.08,173.27L197.22,171.26L198.36,171.26L200.64,168.24L201.78,169.24L202.92,168.24L204.06,169.24L205.2,169.24L206.34,170.25L209.76,173.27L210.9,172.27L212.04,168.24L213.18,168.24L214.32,167.23L215.46,167.23L216.6,168.24L217.74,167.23L220.02,165.21L221.16,165.21L222.3,163.2L223.44,164.21L224.58,162.19L225.72,162.19L228,164.21L229.14,164.21L230.28,165.21L231.42,165.21L232.56,165.21L233.7,164.21L234.84,162.19L235.98,162.19L237.12,162.19L238.26,164.21L239.4,164.21L240.54,166.22L241.68,167.23L242.82,167.23L243.96,168.24L245.1,168.24L246.24,169.24L247.38,171.26L248.52,170.25L249.66,171.26L250.8,170.25L251.94,172.27L253.08,172.27L254.22,173.27L255.36,172.27L256.5,173.27L257.64,175.29L258.78,175.29L259.92,176.3L261.06,176.3L263.34,180.33L264.48,179.32L265.62,179.32L266.76,180.33L267.9,179.32L269.04,179.32L270.18,178.31L271.32,180.33L273.6,182.34L274.74,182.34L277.02,184.36L278.16,184.36L280.44,184.36L281.58,185.36L282.72,186.37L283.86,186.37L285,186.37L286.14,187.38L287.28,187.38L288.42,189.39L291.84,193.42L292.98,195.44L294.12,196.44L295.26,196.44L297.54,196.44L298.68,198.46L299.82,199.47L300.96,199.47L302.1,200.47L303.24,200.47L308.94,206.52L310.08,206.52L313.5,206.52L314.64,207.53L316.92,207.53L318.06,208.53L321.48,208.53L322.62,209.54L328.32,209.54L329.46,210.55L330.6,210.55L331.74,211.56L342,211.56L343.14,212.56L346.56,212.56L347.7,213.57L348.84,214.58L349.98,214.58L364.8,214.58L365.94,215.59L373.92,215.59L375.06,216.59L399,216.59" style="vector-effect: none; fill: none; stroke: rgb(255, 86, 87); stroke-opacity: 1; stroke-width: 2px; opacity: 1;"/></g><g class="points"/><g class="text"/></g><g class="trace scatter traceb18283" style="stroke-miterlimit: 2; opacity: 1;"><g class="fills"/><g class="errorbars"/><g class="lines"/><g class="points"><path class="point" transform="translate(200.07,0)" d="M3,0A3,3 0 1,1 0,-3A3,3 0 0,1 3,0Z" style="opacity: 1; stroke-width: 0px; fill: rgb(0, 0, 0); fill-opacity: 0;"/></g><g class="text"/></g></g></g></g><g class="zerolinelayer-above"/><path class="xlines-above crisp" d="" style="fill: none; stroke-width: 1px; stroke: rgb(0, 0, 0); stroke-opacity: 0;"/><path class="ylines-above crisp" d="M0,0" style="fill: none;"/><g class="overlines-above"/><g class="xaxislayer-above"><path class="xtick ticks crisp" d="M0,318.59999999999997v5" transform="translate(94,0)" style="stroke: rgb(167, 167, 167); stroke-opacity: 1; stroke-width: 1px;"/><path class="xtick ticks crisp" d="M0,318.59999999999997v5" transform="translate(151,0)" style="stroke: rgb(167, 167, 167); stroke-opacity: 1; stroke-width: 1px;"/><path class="xtick ticks crisp" d="M0,318.59999999999997v5" transform="translate(208,0)" style="stroke: rgb(167, 167, 167); stroke-opacity: 1; stroke-width: 1px;"/><path class="xtick ticks crisp" d="M0,318.59999999999997v5" transform="translate(265,0)" style="stroke: rgb(167, 167, 167); stroke-opacity: 1; stroke-width: 1px;"/><path class="xtick ticks crisp" d="M0,318.59999999999997v5" transform="translate(322,0)" style="stroke: rgb(167, 167, 167); stroke-opacity: 1; stroke-width: 1px;"/><path class="xtick ticks crisp" d="M0,318.59999999999997v5" transform="translate(379,0)" style="stroke: rgb(167, 167, 167); stroke-opacity: 1; stroke-width: 1px;"/><path class="xtick ticks crisp" d="M0,318.59999999999997v5" transform="translate(436,0)" style="stroke: rgb(167, 167, 167); stroke-opacity: 1; stroke-width: 1px;"/><path class="xtick ticks crisp" d="M0,318.59999999999997v5" transform="translate(493,0)" style="stroke: rgb(167, 167, 167); stroke-opacity: 1; stroke-width: 1px;"/><g class="xtick"><text text-anchor="middle" x="0" y="337.99999999999994" transform="translate(94,0)" style="font-family: 'Barlow SemiBold', sans-serif; font-size: 12px; fill: rgb(167, 167, 167); fill-opacity: 1; white-space: pre;">0</text></g><g class="xtick"><text text-anchor="middle" x="0" y="337.99999999999994" style="font-family: 'Barlow SemiBold', sans-serif; font-size: 12px; fill: rgb(167, 167, 167); fill-opacity: 1; white-space: pre;" transform="translate(151,0)">50</text></g><g class="xtick"><text text-anchor="middle" x="0" y="337.99999999999994" style="font-family: 'Barlow SemiBold', sans-serif; font-size: 12px; fill: rgb(167, 167, 167); fill-opacity: 1; white-space: pre;" transform="translate(208,0)">100</text></g><g class="xtick"><text text-anchor="middle" x="0" y="337.99999999999994" style="font-family: 'Barlow SemiBold', sans-serif; font-size: 12px; fill: rgb(167, 167, 167); fill-opacity: 1; white-space: pre;" transform="translate(265,0)">150</text></g><g class="xtick"><text text-anchor="middle" x="0" y="337.99999999999994" style="font-family: 'Barlow SemiBold', sans-serif; font-size: 12px; fill: rgb(167, 167, 167); fill-opacity: 1; white-space: pre;" transform="translate(322,0)">200</text></g><g class="xtick"><text text-anchor="middle" x="0" y="337.99999999999994" style="font-family: 'Barlow SemiBold', sans-serif; font-size: 12px; fill: rgb(167, 167, 167); fill-opacity: 1; white-space: pre;" transform="translate(379,0)">250</text></g><g class="xtick"><text text-anchor="middle" x="0" y="337.99999999999994" style="font-family: 'Barlow SemiBold', sans-serif; font-size: 12px; fill: rgb(167, 167, 167); fill-opacity: 1; white-space: pre;" transform="translate(436,0)">300</text></g><g class="xtick"><text text-anchor="middle" x="0" y="337.99999999999994" style="font-family: 'Barlow SemiBold', sans-serif; font-size: 12px; fill: rgb(167, 167, 167); fill-opacity: 1; white-space: pre;" transform="translate(493,0)">350</text></g></g><g class="yaxislayer-above"><g class="ytick"><text text-anchor="end" x="93" y="4.199999999999999" transform="translate(0,317.6)" style="font-family: 'Barlow SemiBold', sans-serif; font-size: 12px; fill: rgb(167, 167, 167); fill-opacity: 1; white-space: pre;">0%</text></g><g class="ytick"><text text-anchor="end" x="93" y="4.199999999999999" style="font-family: 'Barlow SemiBold', sans-serif; font-size: 12px; fill: rgb(167, 167, 167); fill-opacity: 1; white-space: pre;" transform="translate(0,295.84000000000003)">10%</text></g><g class="ytick"><text text-anchor="end" x="93" y="4.199999999999999" style="font-family: 'Barlow SemiBold', sans-serif; font-size: 12px; fill: rgb(167, 167, 167); fill-opacity: 1; white-space: pre;" transform="translate(0,274.08000000000004)">20%</text></g><g class="ytick"><text text-anchor="end" x="93" y="4.199999999999999" style="font-family: 'Barlow SemiBold', sans-serif; font-size: 12px; fill: rgb(167, 167, 167); fill-opacity: 1; white-space: pre;" transform="translate(0,252.32)">30%</text></g><g class="ytick"><text text-anchor="end" x="93" y="4.199999999999999" style="font-family: 'Barlow SemiBold', sans-serif; font-size: 12px; fill: rgb(167, 167, 167); fill-opacity: 1; white-space: pre;" transform="translate(0,230.56)">40%</text></g><g class="ytick"><text text-anchor="end" x="93" y="4.199999999999999" style="font-family: 'Barlow SemiBold', sans-serif; font-size: 12px; fill: rgb(167, 167, 167); fill-opacity: 1; white-space: pre;" transform="translate(0,208.8)">50%</text></g><g class="ytick"><text text-anchor="end" x="93" y="4.199999999999999" style="font-family: 'Barlow SemiBold', sans-serif; font-size: 12px; fill: rgb(167, 167, 167); fill-opacity: 1; white-space: pre;" transform="translate(0,187.04000000000002)">60%</text></g><g class="ytick"><text text-anchor="end" x="93" y="4.199999999999999" style="font-family: 'Barlow SemiBold', sans-serif; font-size: 12px; fill: rgb(167, 167, 167); fill-opacity: 1; white-space: pre;" transform="translate(0,165.28)">70%</text></g><g class="ytick"><text text-anchor="end" x="93" y="4.199999999999999" style="font-family: 'Barlow SemiBold', sans-serif; font-size: 12px; fill: rgb(167, 167, 167); fill-opacity: 1; white-space: pre;" transform="translate(0,143.52)">80%</text></g><g class="ytick"><text text-anchor="end" x="93" y="4.199999999999999" style="font-family: 'Barlow SemiBold', sans-serif; font-size: 12px; fill: rgb(167, 167, 167); fill-opacity: 1; white-space: pre;" transform="translate(0,121.76)">90%</text></g><g class="ytick"><text text-anchor="end" x="93" y="4.199999999999999" style="font-family: 'Barlow SemiBold', sans-serif; font-size: 12px; fill: rgb(167, 167, 167); fill-opacity: 1; white-space: pre;" transform="translate(0,100)">100%</text></g></g><g class="overaxes-above"/></g><g class="subplot x2y2"><g class="layer-subplot"><g class="shapelayer"/><g class="imagelayer"/></g><g class="minor-gridlayer"><g class="x2"/><g class="y2"/></g><g class="gridlayer"><g class="x2"><path class="x2grid crisp" transform="translate(151,0)" d="M0,365.59999999999997v54.400000000000006" style="stroke: rgb(226, 226, 226); stroke-opacity: 1; stroke-width: 1px;"/><path class="x2grid crisp" transform="translate(208,0)" d="M0,365.59999999999997v54.400000000000006" style="stroke: rgb(226, 226, 226); stroke-opacity: 1; stroke-width: 1px;"/><path class="x2grid crisp" transform="translate(265,0)" d="M0,365.59999999999997v54.400000000000006" style="stroke: rgb(226, 226, 226); stroke-opacity: 1; stroke-width: 1px;"/><path class="x2grid crisp" transform="translate(322,0)" d="M0,365.59999999999997v54.400000000000006" style="stroke: rgb(226, 226, 226); stroke-opacity: 1; stroke-width: 1px;"/><path class="x2grid crisp" transform="translate(379,0)" d="M0,365.59999999999997v54.400000000000006" style="stroke: rgb(226, 226, 226); stroke-opacity: 1; stroke-width: 1px;"/><path class="x2grid crisp" transform="translate(436,0)" d="M0,365.59999999999997v54.400000000000006" style="stroke: rgb(226, 226, 226); stroke-opacity: 1; stroke-width: 1px;"/></g><g class="y2"><path class="y2grid crisp" transform="translate(0,406.4)" d="M94,0h399" style="stroke: rgb(226, 226, 226); stroke-opacity: 1; stroke-width: 1px;"/><path class="y2grid crisp" transform="translate(0,392.79999999999995)" d="M94,0h399" style="stroke: rgb(226, 226, 226); stroke-opacity: 1; stroke-width: 1px;"/><path class="y2grid crisp" transform="translate(0,379.2)" d="M94,0h399" style="stroke: rgb(226, 226, 226); stroke-opacity: 1; stroke-width: 1px;"/></g></g><g class="zerolinelayer"><path class="x2zl zl crisp" transform="translate(94,0)" d="M0,365.59999999999997v54.400000000000006" style="stroke: rgb(167, 167, 167); stroke-opacity: 1; stroke-width: 1px;"/><path class="y2zl zl crisp" transform="translate(0,419.99999999999994)" d="M94,0h399" style="stroke: rgb(167, 167, 167); stroke-opacity: 1; stroke-width: 1px;"/></g><g class="layer-between"><g class="shapelayer"/><g class="imagelayer"/></g><path class="xlines-below"/><path class="ylines-below"/><g class="overlines-below"/><g class="xaxislayer-below"/><g class="yaxislayer-below"/><g class="overaxes-below"/><g class="overplot"><g class="x2y2" transform="translate(94,365.59999999999997)" clip-path="url(#clipe35cdex2y2plot)"><g class="scatterlayer mlayer"><g class="trace scatter trace79e4d4" style="stroke-miterlimit: 2; opacity: 1;"><g class="fills"/><g class="errorbars"/><g class="lines"><path class="js-line" d="M0,54.4L2.28,53.39L3.42,53.39L6.84,52.64L7.98,52.39L10.26,51.88L11.4,51.63L14.82,49.36L15.96,49.11L27.36,41.3L28.5,40.04L31.92,37.02L33.06,34.25L42.18,22.41L43.32,18.89L45.6,15.36L46.74,14.61L49.02,11.84L50.16,10.83L54.72,6.3L55.86,6.3L60.42,3.02L61.56,3.02L64.98,2.27L66.12,2.27L68.4,1.01L69.54,0.76L78.66,0.25L79.8,0L399,0" style="vector-effect: none; fill: none; stroke: rgb(148, 145, 173); stroke-opacity: 1; stroke-dasharray: 9px, 9px; stroke-width: 2px; opacity: 1;"/></g><g class="points"/><g class="text"/></g></g></g></g><g class="zerolinelayer-above"/><path class="xlines-above crisp" d="" style="fill: none; stroke-width: 1px; stroke: rgb(0, 0, 0); stroke-opacity: 0;"/><path class="ylines-above crisp" d="M0,0" style="fill: none;"/><g class="overlines-above"/><g class="xaxislayer-above"><path class="x2tick ticks crisp" d="M0,421v5" transform="translate(94,0)" style="stroke: rgb(167, 167, 167); stroke-opacity: 1; stroke-width: 1px;"/><path class="x2tick ticks crisp" d="M0,421v5" transform="translate(151,0)" style="stroke: rgb(167, 167, 167); stroke-opacity: 1; stroke-width: 1px;"/><path class="x2tick ticks crisp" d="M0,421v5" transform="translate(208,0)" style="stroke: rgb(167, 167, 167); stroke-opacity: 1; stroke-width: 1px;"/><path class="x2tick ticks crisp" d="M0,421v5" transform="translate(265,0)" style="stroke: rgb(167, 167, 167); stroke-opacity: 1; stroke-width: 1px;"/><path class="x2tick ticks crisp" d="M0,421v5" transform="translate(322,0)" style="stroke: rgb(167, 167, 167); stroke-opacity: 1; stroke-width: 1px;"/><path class="x2tick ticks crisp" d="M0,421v5" transform="translate(379,0)" style="stroke: rgb(167, 167, 167); stroke-opacity: 1; stroke-width: 1px;"/><path class="x2tick ticks crisp" d="M0,421v5" transform="translate(436,0)" style="stroke: rgb(167, 167, 167); stroke-opacity: 1; stroke-width: 1px;"/><path class="x2tick ticks crisp" d="M0,421v5" transform="translate(493,0)" style="stroke: rgb(167, 167, 167); stroke-opacity: 1; stroke-width: 1px;"/><g class="x2tick"><text text-anchor="middle" x="0" y="440.4" transform="translate(94,0)" style="font-family: 'Barlow SemiBold', sans-serif; font-size: 12px; fill: rgb(167, 167, 167); fill-opacity: 1; white-space: pre;">0</text></g><g class="x2tick"><text text-anchor="middle" x="0" y="440.4" style="font-family: 'Barlow SemiBold', sans-serif; font-size: 12px; fill: rgb(167, 167, 167); fill-opacity: 1; white-space: pre;" transform="translate(151,0)">50</text></g><g class="x2tick"><text text-anchor="middle" x="0" y="440.4" style="font-family: 'Barlow SemiBold', sans-serif; font-size: 12px; fill: rgb(167, 167, 167); fill-opacity: 1; white-space: pre;" transform="translate(208,0)">100</text></g><g class="x2tick"><text text-anchor="middle" x="0" y="440.4" style="font-family: 'Barlow SemiBold', sans-serif; font-size: 12px; fill: rgb(167, 167, 167); fill-opacity: 1; white-space: pre;" transform="translate(265,0)">150</text></g><g class="x2tick"><text text-anchor="middle" x="0" y="440.4" style="font-family: 'Barlow SemiBold', sans-serif; font-size: 12px; fill: rgb(167, 167, 167); fill-opacity: 1; white-space: pre;" transform="translate(322,0)">200</text></g><g class="x2tick"><text text-anchor="middle" x="0" y="440.4" style="font-family: 'Barlow SemiBold', sans-serif; font-size: 12px; fill: rgb(167, 167, 167); fill-opacity: 1; white-space: pre;" transform="translate(379,0)">250</text></g><g class="x2tick"><text text-anchor="middle" x="0" y="440.4" style="font-family: 'Barlow SemiBold', sans-serif; font-size: 12px; fill: rgb(167, 167, 167); fill-opacity: 1; white-space: pre;" transform="translate(436,0)">300</text></g><g class="x2tick"><text text-anchor="middle" x="0" y="440.4" style="font-family: 'Barlow SemiBold', sans-serif; font-size: 12px; fill: rgb(167, 167, 167); fill-opacity: 1; white-space: pre;" transform="translate(493,0)">350</text></g></g><g class="yaxislayer-above"><g class="y2tick"><text text-anchor="end" x="93" y="4.199999999999999" transform="translate(0,419.99999999999994)" style="font-family: 'Barlow SemiBold', sans-serif; font-size: 12px; fill: rgb(167, 167, 167); fill-opacity: 1; white-space: pre;">0%</text></g><g class="y2tick"><text text-anchor="end" x="93" y="4.199999999999999" style="font-family: 'Barlow SemiBold', sans-serif; font-size: 12px; fill: rgb(167, 167, 167); fill-opacity: 1; white-space: pre;" transform="translate(0,406.4)">25%</text></g><g class="y2tick"><text text-anchor="end" x="93" y="4.199999999999999" style="font-family: 'Barlow SemiBold', sans-serif; font-size: 12px; fill: rgb(167, 167, 167); fill-opacity: 1; white-space: pre;" transform="translate(0,392.79999999999995)">50%</text></g><g class="y2tick"><text text-anchor="end" x="93" y="4.199999999999999" style="font-family: 'Barlow SemiBold', sans-serif; font-size: 12px; fill: rgb(167, 167, 167); fill-opacity: 1; white-space: pre;" transform="translate(0,379.2)">75%</text></g><g class="y2tick"><text text-anchor="end" x="93" y="4.199999999999999" style="font-family: 'Barlow SemiBold', sans-serif; font-size: 12px; fill: rgb(167, 167, 167); fill-opacity: 1; white-space: pre;" transform="translate(0,365.59999999999997)">100%</text></g></g><g class="overaxes-above"/></g></g><g class="polarlayer"/><g class="smithlayer"/><g class="ternarylayer"/><g class="geolayer"/><g class="funnelarealayer"/><g class="pielayer"/><g class="iciclelayer"/><g class="treemaplayer"/><g class="sunburstlayer"/><g class="glimages"/><defs id="topdefs-e35cde"><g class="clips"/><clipPath id="legende35cde"><rect width="187" height="233" x="0" y="0"/></clipPath></defs><g class="layer-above"><g class="imagelayer"/><g class="shapelayer"/></g><g class="infolayer"><g class="legend" pointer-events="all" transform="translate(500.98,100)"><rect class="bg" shape-rendering="crispEdges" style="stroke: rgb(68, 68, 68); stroke-opacity: 1; fill: rgb(255, 255, 255); fill-opacity: 1; stroke-width: 0px;" width="187" height="233" x="0" y="0"/><g class="scrollbox" transform="" clip-path="url(#legende35cde)"><g class="groups"><g class="traces" transform="translate(0,29.900000000000002)" style="opacity: 1;"><text class="legendtext" text-anchor="start" x="40" y="-10.92" style="font-family: Montserrat, sans-serif; font-size: 12px; fill: rgb(0, 0, 0); fill-opacity: 1; white-space: pre;"><tspan class="line" dy="0em" x="40" y="-10.92"><tspan style="font-weight:bold"><tspan style="text-decoration: underline;">Top graph :</tspan></tspan></tspan><tspan class="line" dy="1.3em" x="40" y="-10.92"><tspan style="font-weight:bold">Events of the TAK</tspan></tspan><tspan class="line" dy="2.6em" x="40" y="-10.92"></tspan></text><g class="layers" style="opacity: 1;"><g class="legendfill"/><g class="legendlines"/><g class="legendsymbols"><g class="legendpoints"><path class="scatterpts" transform="translate(20,0)" d="M3,0A3,3 0 1,1 0,-3A3,3 0 0,1 3,0Z" style="opacity: 1; stroke-width: 0px; fill: rgb(0, 0, 0); fill-opacity: 0;"/></g></g></g><rect class="legendtoggle" x="0" y="-24.900000000000002" width="181.609375" height="49.800000000000004" style="fill: rgb(0, 0, 0); fill-opacity: 0;"/></g><g class="traces" transform="translate(0,64.30000000000001)" style="opacity: 1;"><text class="legendtext" text-anchor="start" x="40" y="4.680000000000001" style="font-family: Montserrat, sans-serif; font-size: 12px; fill: rgb(0, 0, 0); fill-opacity: 1; white-space: pre;">A</text><g class="layers" style="opacity: 1;"><g class="legendfill"/><g class="legendlines"><path class="js-line" d="M5,0h30" style="fill: none; stroke: rgb(65, 124, 255); stroke-opacity: 1; stroke-width: 2px;"/></g><g class="legendsymbols"><g class="legendpoints"/></g></g><rect class="legendtoggle" x="0" y="-9.5" width="181.609375" height="19" style="fill: rgb(0, 0, 0); fill-opacity: 0;"/></g><g class="traces" transform="translate(0,83.30000000000001)" style="opacity: 1;"><text class="legendtext" text-anchor="start" x="40" y="4.680000000000001" style="font-family: Montserrat, sans-serif; font-size: 12px; fill: rgb(0, 0, 0); fill-opacity: 1; white-space: pre;">C</text><g class="layers" style="opacity: 1;"><g class="legendfill"/><g class="legendlines"><path class="js-line" d="M5,0h30" style="fill: none; stroke: rgb(183, 210, 75); stroke-opacity: 1; stroke-width: 2px;"/></g><g class="legendsymbols"><g class="legendpoints"/></g></g><rect class="legendtoggle" x="0" y="-9.5" width="181.609375" height="19" style="fill: rgb(0, 0, 0); fill-opacity: 0;"/></g><g class="traces" transform="translate(0,102.30000000000001)" style="opacity: 1;"><text class="legendtext" text-anchor="start" x="40" y="4.680000000000001" style="font-family: Montserrat, sans-serif; font-size: 12px; fill: rgb(0, 0, 0); fill-opacity: 1; white-space: pre;">B</text><g class="layers" style="opacity: 1;"><g class="legendfill"/><g class="legendlines"><path class="js-line" d="M5,0h30" style="fill: none; stroke: rgb(255, 86, 87); stroke-opacity: 1; stroke-width: 2px;"/></g><g class="legendsymbols"><g class="legendpoints"/></g></g><rect class="legendtoggle" x="0" y="-9.5" width="181.609375" height="19" style="fill: rgb(0, 0, 0); fill-opacity: 0;"/></g><g class="traces" transform="translate(0,160.10000000000002)" style="opacity: 1;"><text class="legendtext" text-anchor="start" x="40" y="-34.32000000000001" style="font-family: Montserrat, sans-serif; font-size: 12px; fill: rgb(0, 0, 0); fill-opacity: 1; white-space: pre;"><tspan class="line" dy="0em" x="40" y="-34.32000000000001"></tspan><tspan class="line" dy="1.3em" x="40" y="-34.32000000000001"></tspan><tspan class="line" dy="2.6em" x="40" y="-34.32000000000001"><tspan style="font-weight:bold"><tspan style="text-decoration: underline;">Bottom graph :</tspan></tspan></tspan><tspan class="line" dy="3.9000000000000004em" x="40" y="-34.32000000000001"><tspan style="font-weight:bold">% of patients involved </tspan></tspan><tspan class="line" dy="5.2em" x="40" y="-34.32000000000001"><tspan style="font-weight:bold">on top graph</tspan></tspan><tspan class="line" dy="6.5em" x="40" y="-34.32000000000001"></tspan></text><g class="layers" style="opacity: 1;"><g class="legendfill"/><g class="legendlines"/><g class="legendsymbols"><g class="legendpoints"><path class="scatterpts" transform="translate(20,0)" d="M3,0A3,3 0 1,1 0,-3A3,3 0 0,1 3,0Z" style="opacity: 1; stroke-width: 0px; fill: rgb(0, 0, 0); fill-opacity: 0;"/></g></g></g><rect class="legendtoggle" x="0" y="-48.300000000000004" width="181.609375" height="96.60000000000001" style="fill: rgb(0, 0, 0); fill-opacity: 0;"/></g><g class="traces" transform="translate(0,217.90000000000003)" style="opacity: 1;"><text class="legendtext" text-anchor="start" x="40" y="4.680000000000001" style="font-family: Montserrat, sans-serif; font-size: 12px; fill: rgb(0, 0, 0); fill-opacity: 1; white-space: pre;">% patients involved</text><g class="layers" style="opacity: 1;"><g class="legendfill"/><g class="legendlines"><path class="js-line" d="M5,0h30" style="fill: none; stroke: rgb(148, 145, 173); stroke-opacity: 1; stroke-dasharray: 9px, 9px; stroke-width: 2px;"/></g><g class="legendsymbols"><g class="legendpoints"/></g></g><rect class="legendtoggle" x="0" y="-9.5" width="181.609375" height="19" style="fill: rgb(0, 0, 0); fill-opacity: 0;"/></g></g></g><rect class="scrollbar" rx="20" ry="3" width="0" height="0" style="fill: rgb(128, 139, 164); fill-opacity: 1;" x="0" y="0"/></g><g class="g-gtitle"><text class="gtitle" x="350" y="50" text-anchor="middle" dy="0em" style="opacity: 1; font-family: Montserrat, sans-serif; font-size: 17px; fill: rgb(0, 0, 0); fill-opacity: 1; white-space: pre;">Events distribution according to the TAK (216 patients)</text></g><g class="g-xtitle" transform="translate(0,4.699999999999989)"><text class="xtitle" x="293.5" y="349.3" text-anchor="middle" style="opacity: 1; font-family: Montserrat, sans-serif; font-size: 14px; fill: rgb(167, 167, 167); fill-opacity: 1; white-space: pre;">Time (in days)</text></g><g class="g-x2title" transform="translate(0,4.699999999999989)"><text class="x2title" x="293.5" y="451.700390625" text-anchor="middle" style="opacity: 1; font-family: Montserrat, sans-serif; font-size: 14px; fill: rgb(167, 167, 167); fill-opacity: 1; white-space: pre;">Time (in days)</text></g><g class="g-ytitle" transform="translate(-9.7626953125,0)"><text class="ytitle" transform="rotate(-90,56,208.79999999999998)" x="56" y="208.79999999999998" text-anchor="middle" style="opacity: 1; font-family: Montserrat, sans-serif; font-size: 14px; fill: rgb(167, 167, 167); fill-opacity: 1; white-space: pre;"><tspan class="line" dy="0em" x="56" y="208.79999999999998">Percentage of patients </tspan><tspan class="line" dy="1.3em" x="56" y="208.79999999999998"> <tspan style="font-style:italic">(among patients involved)</tspan></tspan></text></g><g class="g-y2title" transform="translate(-31.806640625,0)"><text class="y2title" transform="rotate(-90,56,392.79999999999995)" x="56" y="392.79999999999995" text-anchor="middle" style="opacity: 1; font-family: Montserrat, sans-serif; font-size: 14px; fill: rgb(167, 167, 167); fill-opacity: 1; white-space: pre;"><tspan class="line" dy="0em" x="56" y="392.79999999999995">Percentage of </tspan><tspan class="line" dy="1.3em" x="56" y="392.79999999999995"> patients involved </tspan><tspan class="line" dy="2.6em" x="56" y="392.79999999999995"> <tspan style="font-style:italic">(over the whole cohort)</tspan></tspan></text></g></g></svg>