<?xml version="1.0" encoding="utf-8" ?>
<svg baseProfile="tiny" height="679" version="1.2" viewBox="0,0,800,673" width="806" xmlns="http://www.w3.org/2000/svg" xmlns:ev="http://www.w3.org/2001/xml-events" xmlns:xlink="http://www.w3.org/1999/xlink"><defs /><text font-family="monospace" font-size="17px" font-weight="bold" x="272.0" y="116">'match</text><text font-family="monospace" font-size="17px" font-weight="bold" x="345.85" y="116">key'</text><text font-family="monospace" font-size="17px" font-weight="bold" x="272.0" y="167">'flow</text><text font-family="monospace" font-size="17px" font-weight="bold" x="335.3" y="167">key'</text><text font-family="monospace" font-size="17px" font-weight="bold" x="97.0" y="223">Ignore</text><text font-family="monospace" font-size="17px" font-weight="bold" x="147.0" y="47">packet</text><text font-family="monospace" font-size="17px" font-weight="bold" x="147.0" y="64">header</text><polyline fill="none" points="480,64 480,131" stroke="black" stroke-width="1" /><polyline fill="none" points="477,94 480,100 482,94" stroke="black" stroke-width="1" /><polyline fill="none" points="217,135 429,135" stroke="black" stroke-width="1" /><polyline fill="none" points="319,137 325,135 319,132" stroke="black" stroke-width="1" /><polyline fill="none" points="427,156 213,156" stroke="black" stroke-width="1" /><polyline fill="none" points="322,158 317,156 322,153" stroke="black" stroke-width="1" /><polyline fill="none" points="168,73 168,124" stroke="black" stroke-width="1" /><polyline fill="none" points="165,95 168,101 170,95" stroke="black" stroke-width="1" /><polyline fill="none" points="197,160 197,253" stroke="black" stroke-width="1" /><polyline fill="none" points="194,203 197,209 199,203" stroke="black" stroke-width="1" /><polyline fill="none" points="264,277 264,331" stroke="black" stroke-width="1" /><polyline fill="none" points="261,300 264,306 266,300" stroke="black" stroke-width="1" /><polyline fill="none" points="263,354 263,412" stroke="black" stroke-width="1" /><polyline fill="none" points="260,379 263,385 265,379" stroke="black" stroke-width="1" /><polyline fill="none" points="261,440 261,505" stroke="black" stroke-width="1" /><polyline fill="none" points="258,469 261,475 263,469" stroke="black" stroke-width="1" /><polyline fill="none" points="131,170 131,216" stroke="black" stroke-width="1" /><polyline fill="none" points="128,189 131,195 133,189" stroke="black" stroke-width="1" /><rect fill="white" height="39" stroke="black" stroke-width="1" width="203" x="164" y="242" /><text font-family="monospace" font-size="17px" font-weight="bold" x="192.5" y="268">'Search'</text><text font-family="monospace" font-size="17px" font-weight="bold" x="287.45" y="268">index</text><rect fill="white" height="39" stroke="black" stroke-width="1" width="210" x="157" y="321" /><text font-family="monospace" font-size="17px" font-weight="bold" x="210.0" y="347">Flow</text><text font-family="monospace" font-size="17px" font-weight="bold" x="262.75" y="347">Table</text><rect fill="white" height="43" stroke="black" stroke-width="1" width="210" x="155" y="400" /><text font-family="monospace" font-size="17px" font-weight="bold" x="181.0" y="428">'Collect'</text><text font-family="monospace" font-size="17px" font-weight="bold" x="286.5" y="428">index</text><rect fill="white" height="33" stroke="black" stroke-width="1" width="215" x="383" y="37" /><text font-family="monospace" font-size="17px" font-weight="bold" x="406.5" y="60">Current</text><text font-family="monospace" font-size="17px" font-weight="bold" x="490.9" y="60">Rule</text><text font-family="monospace" font-size="17px" font-weight="bold" x="543.65" y="60">Set</text><rect fill="white" height="45" stroke="black" stroke-width="1" width="142" x="99" y="121" /><text font-family="monospace" font-size="17px" font-weight="bold" x="144.55" y="133">Packet</text><text font-family="monospace" font-size="17px" font-weight="bold" x="123.0" y="150">Processor</text><rect fill="white" height="55" stroke="black" stroke-width="1" width="141" x="418" y="121" /><text font-family="monospace" font-size="17px" font-weight="bold" x="463.05" y="129">Packet</text><text font-family="monospace" font-size="17px" font-weight="bold" x="446.5" y="146">Matching</text><text font-family="monospace" font-size="17px" font-weight="bold" x="463.05" y="163">Engine</text></svg>