<?xml version="1.0" encoding="utf-8" ?>
<svg baseProfile="tiny" height="706" version="1.2" viewBox="0,0,981,700" width="987" xmlns="http://www.w3.org/2000/svg" xmlns:ev="http://www.w3.org/2001/xml-events" xmlns:xlink="http://www.w3.org/1999/xlink"><defs /><text font-family="monospace" font-size="17px" font-weight="bold" x="189.0" y="254">IRI(e)</text><text font-family="monospace" font-size="17px" font-weight="bold" x="195.0" y="402">User</text><text font-family="monospace" font-size="17px" font-weight="bold" x="475.0" y="400">User</text><text font-family="monospace" font-size="17px" font-weight="bold" x="177.0" y="434">content</text><text font-family="monospace" font-size="17px" font-weight="bold" x="458.0" y="434">content</text><text font-family="monospace" font-size="17px" font-weight="bold" x="341.0" y="150">MD</text><text font-family="monospace" font-size="17px" font-weight="bold" x="372.65" y="150">Provisioning</text><text font-family="monospace" font-size="17px" font-weight="bold" x="352.0" y="167">Interface</text><text font-family="monospace" font-size="17px" font-weight="bold" x="457.5" y="167">(b)</text><text font-family="monospace" font-size="17px" font-weight="bold" x="192.55" y="306">Intercept</text><text font-family="monospace" font-size="17px" font-weight="bold" x="176.0" y="323">Request</text><text font-family="monospace" font-size="17px" font-weight="bold" x="260.4" y="323">(d)</text><text font-family="monospace" font-size="17px" font-weight="bold" x="421.0" y="310">Intercepted</text><text font-family="monospace" font-size="17px" font-weight="bold" x="421.0" y="327">Content</text><text font-family="monospace" font-size="17px" font-weight="bold" x="505.4" y="327">(f)</text><text font-family="monospace" font-size="17px" font-weight="bold" x="487.0" y="89">HI1</text><text font-family="monospace" font-size="17px" font-weight="bold" x="529.2" y="89">(a)</text><text font-family="monospace" font-size="17px" font-weight="bold" x="488.0" y="214">HI2</text><text font-family="monospace" font-size="17px" font-weight="bold" x="530.2" y="214">(g)</text><text font-family="monospace" font-size="17px" font-weight="bold" x="488.0" y="267">HI2</text><text font-family="monospace" font-size="17px" font-weight="bold" x="530.2" y="267">(h)</text><text font-family="monospace" font-size="17px" font-weight="bold" x="201.0" y="198">(c)</text><polyline fill="none" points="276,427 376,427" stroke="black" stroke-width="1" /><polyline fill="none" points="322,429 328,427 322,424" stroke="black" stroke-width="1" /><polyline fill="none" points="443,414 543,414" stroke="black" stroke-width="1" /><polyline fill="none" points="489,416 495,414 489,411" stroke="black" stroke-width="1" /><polyline fill="none" points="169,415 269,415" stroke="black" stroke-width="1" /><polyline fill="none" points="215,417 221,415 215,412" stroke="black" stroke-width="1" /><polyline fill="none" points="326,138 326,203" stroke="black" stroke-width="1" /><polyline fill="none" points="323,167 326,173 328,167" stroke="black" stroke-width="1" /><polyline fill="none" points="302,263 302,378" stroke="black" stroke-width="1" /><polyline fill="none" points="299,317 302,323 304,317" stroke="black" stroke-width="1" /><polyline fill="none" points="412,376 412,266" stroke="black" stroke-width="1" /><polyline fill="none" points="409,323 412,318 414,323" stroke="black" stroke-width="1" /><polyline fill="none" points="451,251 594,251" stroke="black" stroke-width="1" /><polyline fill="none" points="519,253 525,251 519,248" stroke="black" stroke-width="1" /><polyline fill="none" points="592,108 453,108" stroke="black" stroke-width="1" /><polyline fill="none" points="524,110 519,108 524,105" stroke="black" stroke-width="1" /><polyline fill="none" points="453,226 599,226" stroke="black" stroke-width="1" /><polyline fill="none" points="522,228 528,226 522,223" stroke="black" stroke-width="1" /><polyline fill="none" points="172,236 267,236" stroke="black" stroke-width="1" /><polyline fill="none" points="216,238 222,236 216,233" stroke="black" stroke-width="1" /><polyline fill="none" points="267,216 172,216" stroke="black" stroke-width="1" /><polyline fill="none" points="221,218 216,216 221,213" stroke="black" stroke-width="1" /><rect fill="white" height="64" stroke="black" stroke-width="1" width="198" x="262" y="201" /><text font-family="monospace" font-size="17px" font-weight="bold" x="319.55" y="222">Mediation</text><text font-family="monospace" font-size="17px" font-weight="bold" x="303.0" y="239">Device</text><text font-family="monospace" font-size="17px" font-weight="bold" x="376.85" y="239">(MD)</text><rect fill="white" height="60" stroke="black" stroke-width="1" width="120" x="54" y="201" /><text font-family="monospace" font-size="17px" font-weight="bold" x="78.0" y="237">IAR</text><text font-family="monospace" font-size="17px" font-weight="bold" x="120.2" y="237">IAP</text><rect fill="white" height="70" stroke="black" stroke-width="1" width="179" x="264" y="374" /><text font-family="monospace" font-size="17px" font-weight="bold" x="317.5" y="398">Content</text><text font-family="monospace" font-size="17px" font-weight="bold" x="348.6" y="415">IAP</text><rect fill="white" height="193" stroke="black" stroke-width="1" width="68" x="589" y="69" /><text font-family="monospace" font-size="17px" font-weight="bold" x="608.0" y="172">LEA</text><rect fill="white" height="68" stroke="black" stroke-width="1" width="231" x="234" y="67" /><text font-family="monospace" font-size="17px" font-weight="bold" x="255.5" y="90">LI</text><text font-family="monospace" font-size="17px" font-weight="bold" x="287.15" y="90">Administration</text><text font-family="monospace" font-size="17px" font-weight="bold" x="344.35" y="107">Function</text></svg>