<?xml version="1.0" encoding="utf-8" ?>
<svg baseProfile="tiny" height="606" version="1.2" viewBox="0,0,800,600" width="806" xmlns="http://www.w3.org/2000/svg" xmlns:ev="http://www.w3.org/2001/xml-events" xmlns:xlink="http://www.w3.org/1999/xlink"><defs /><text font-family="monospace" font-size="17px" font-weight="bold" x="114.0" y="138">Client</text><text font-family="monospace" font-size="17px" font-weight="bold" x="114.0" y="155">Acquisition</text><text font-family="monospace" font-size="17px" font-weight="bold" x="116.0" y="275">Client</text><text font-family="monospace" font-size="17px" font-weight="bold" x="116.0" y="292">Lookup</text><text font-family="monospace" font-size="17px" font-weight="bold" x="461.0" y="280">Server</text><text font-family="monospace" font-size="17px" font-weight="bold" x="461.0" y="297">Lookup</text><text font-family="monospace" font-size="17px" font-weight="bold" x="228.0" y="56">Server</text><text font-family="monospace" font-size="17px" font-weight="bold" x="300.331" y="56">Acquisition</text><text font-family="monospace" font-size="17px" font-weight="bold" x="243.0" y="198">AC</text><text font-family="monospace" font-size="17px" font-weight="bold" x="273.999" y="198">"push"</text><text font-family="monospace" font-size="17px" font-weight="bold" x="222.0" y="235">(part</text><text font-family="monospace" font-size="17px" font-weight="bold" x="283.998" y="235">of</text><text font-family="monospace" font-size="17px" font-weight="bold" x="314.997" y="235">app.</text><text font-family="monospace" font-size="17px" font-weight="bold" x="253.333" y="252">protocol</text><polyline fill="none" points="336,354 423,354 423,242" stroke="black" stroke-width="1" /><polyline fill="none" points="376,356 382,354 376,351" stroke="black" stroke-width="1" /><polyline fill="none" points="420,300 423,295 425,300" stroke="black" stroke-width="1" /><polyline fill="none" points="103,111 103,199" stroke="black" stroke-width="1" /><polyline fill="none" points="100,151 103,157 105,151" stroke="black" stroke-width="1" /><polyline fill="none" points="90,198 90,110" stroke="black" stroke-width="1" /><polyline fill="none" points="87,156 90,151 92,156" stroke="black" stroke-width="1" /><polyline fill="none" points="101,237 101,352 219,352" stroke="black" stroke-width="1" /><polyline fill="none" points="98,291 101,297 103,291" stroke="black" stroke-width="1" /><polyline fill="none" points="156,354 162,352 156,349" stroke="black" stroke-width="1" /><polyline fill="none" points="232,368 87,368 87,225" stroke="black" stroke-width="1" /><polyline fill="none" points="161,370 156,368 161,365" stroke="black" stroke-width="1" /><polyline fill="none" points="84,298 87,293 89,298" stroke="black" stroke-width="1" /><polyline fill="none" points="437,236 437,369 330,369" stroke="black" stroke-width="1" /><polyline fill="none" points="434,299 437,305 439,299" stroke="black" stroke-width="1" /><polyline fill="none" points="385,371 380,369 385,366" stroke="black" stroke-width="1" /><polyline fill="none" points="425,209 425,97 187,97" stroke="black" stroke-width="1" /><polyline fill="none" points="422,155 425,150 427,155" stroke="black" stroke-width="1" /><polyline fill="none" points="308,99 303,97 308,94" stroke="black" stroke-width="1" /><polyline fill="none" points="189,83 439,83 439,228" stroke="black" stroke-width="1" /><polyline fill="none" points="310,85 316,83 310,80" stroke="black" stroke-width="1" /><polyline fill="none" points="436,152 439,158 441,152" stroke="black" stroke-width="1" /><polyline fill="none" points="412,215 171,215" stroke="black" stroke-width="1" /><polyline fill="none" points="293,217 288,215 293,212" stroke="black" stroke-width="1" /><rect fill="white" height="46" stroke="black" stroke-width="1" width="121" x="66" y="192" /><text font-family="monospace" font-size="17px" font-weight="bold" x="96.5" y="221">Client</text><rect fill="white" height="46" stroke="black" stroke-width="1" width="126" x="384" y="192" /><text font-family="monospace" font-size="17px" font-weight="bold" x="417.0" y="221">Server</text><rect fill="white" height="56" stroke="black" stroke-width="1" width="142" x="204" y="330" /><text font-family="monospace" font-size="17px" font-weight="bold" x="224.0" y="364">Repository</text><rect fill="white" height="39" stroke="black" stroke-width="1" width="125" x="64" y="70" /><text font-family="monospace" font-size="17px" font-weight="bold" x="80.5" y="96">AC</text><text font-family="monospace" font-size="17px" font-weight="bold" x="111.499" y="96">issuer</text></svg>