<?xml version="1.0" encoding="utf-8" ?>
<svg baseProfile="tiny" font-family="monospace" font-size="14" font-weight="normal" height="606.0" version="1.2" viewBox="0,0,532,606.0" width="532" xmlns="http://www.w3.org/2000/svg" xmlns:ev="http://www.w3.org/2001/xml-events" xmlns:xlink="http://www.w3.org/1999/xlink"><defs /><text stroke="black" x="59" y="187">Figure</text><text stroke="black" x="115" y="187">1:</text><text stroke="black" x="139" y="187">Network</text><text stroke="black" x="203" y="187">Service</text><text stroke="black" x="267" y="187">Header</text><text stroke="black" x="323" y="187">Encapsulation</text><text stroke="black" x="138" y="426">Figure 2: Network Service Header</text><text stroke="black" x="169" y="590">Figure 3: NSH Base Header</text><polyline fill="none" points="5,48 529,48" stroke="black" stroke-width="1" /><line stroke="black" stroke-width="2" x1="29.0" x2="29.0" y1="45" y2="48" /><line stroke="black" stroke-width="2" x1="45.0" x2="45.0" y1="45" y2="48" /><line stroke="black" stroke-width="2" x1="61.0" x2="61.0" y1="45" y2="48" /><line stroke="black" stroke-width="3" x1="77.0" x2="77.0" y1="45" y2="48" /><line stroke="black" stroke-width="2" x1="93.0" x2="93.0" y1="45" y2="48" /><line stroke="black" stroke-width="2" x1="109.0" x2="109.0" y1="45" y2="48" /><line stroke="black" stroke-width="2" x1="125.0" x2="125.0" y1="45" y2="48" /><line stroke="black" stroke-width="3" x1="141.0" x2="141.0" y1="45" y2="48" /><line stroke="black" stroke-width="2" x1="157.0" x2="157.0" y1="45" y2="48" /><line stroke="black" stroke-width="2" x1="173.0" x2="173.0" y1="45" y2="48" /><line stroke="black" stroke-width="2" x1="189.0" x2="189.0" y1="45" y2="48" /><line stroke="black" stroke-width="3" x1="205.0" x2="205.0" y1="45" y2="48" /><line stroke="black" stroke-width="2" x1="221.0" x2="221.0" y1="45" y2="48" /><line stroke="black" stroke-width="2" x1="237.0" x2="237.0" y1="45" y2="48" /><line stroke="black" stroke-width="2" x1="253.0" x2="253.0" y1="45" y2="48" /><line stroke="black" stroke-width="3" x1="269.0" x2="269.0" y1="45" y2="48" /><line stroke="black" stroke-width="2" x1="285.0" x2="285.0" y1="45" y2="48" /><line stroke="black" stroke-width="2" x1="301.0" x2="301.0" y1="45" y2="48" /><line stroke="black" stroke-width="2" x1="317.0" x2="317.0" y1="45" y2="48" /><line stroke="black" stroke-width="3" x1="333.0" x2="333.0" y1="45" y2="48" /><line stroke="black" stroke-width="2" x1="349.0" x2="349.0" y1="45" y2="48" /><line stroke="black" stroke-width="2" x1="365.0" x2="365.0" y1="45" y2="48" /><line stroke="black" stroke-width="2" x1="381.0" x2="381.0" y1="45" y2="48" /><line stroke="black" stroke-width="3" x1="397.0" x2="397.0" y1="45" y2="48" /><line stroke="black" stroke-width="2" x1="413.0" x2="413.0" y1="45" y2="48" /><line stroke="black" stroke-width="2" x1="429.0" x2="429.0" y1="45" y2="48" /><line stroke="black" stroke-width="2" x1="445.0" x2="445.0" y1="45" y2="48" /><line stroke="black" stroke-width="3" x1="461.0" x2="461.0" y1="45" y2="48" /><line stroke="black" stroke-width="2" x1="477.0" x2="477.0" y1="45" y2="48" /><line stroke="black" stroke-width="2" x1="493.0" x2="493.0" y1="45" y2="48" /><line stroke="black" stroke-width="2" x1="509.0" x2="509.0" y1="45" y2="48" /><polyline fill="none" points="5,48 5,84 529,84 529,48" stroke="black" stroke-width="1" /><line stroke="black" stroke-width="2" x1="29.0" x2="29.0" y1="81" y2="84" /><line stroke="black" stroke-width="2" x1="45.0" x2="45.0" y1="81" y2="84" /><line stroke="black" stroke-width="2" x1="61.0" x2="61.0" y1="81" y2="84" /><line stroke="black" stroke-width="3" x1="77.0" x2="77.0" y1="81" y2="84" /><line stroke="black" stroke-width="2" x1="93.0" x2="93.0" y1="81" y2="84" /><line stroke="black" stroke-width="2" x1="109.0" x2="109.0" y1="81" y2="84" /><line stroke="black" stroke-width="2" x1="125.0" x2="125.0" y1="81" y2="84" /><line stroke="black" stroke-width="3" x1="141.0" x2="141.0" y1="81" y2="84" /><line stroke="black" stroke-width="2" x1="157.0" x2="157.0" y1="81" y2="84" /><line stroke="black" stroke-width="2" x1="173.0" x2="173.0" y1="81" y2="84" /><line stroke="black" stroke-width="2" x1="189.0" x2="189.0" y1="81" y2="84" /><line stroke="black" stroke-width="3" x1="205.0" x2="205.0" y1="81" y2="84" /><line stroke="black" stroke-width="2" x1="221.0" x2="221.0" y1="81" y2="84" /><line stroke="black" stroke-width="2" x1="237.0" x2="237.0" y1="81" y2="84" /><line stroke="black" stroke-width="2" x1="253.0" x2="253.0" y1="81" y2="84" /><line stroke="black" stroke-width="3" x1="269.0" x2="269.0" y1="81" y2="84" /><line stroke="black" stroke-width="2" x1="285.0" x2="285.0" y1="81" y2="84" /><line stroke="black" stroke-width="2" x1="301.0" x2="301.0" y1="81" y2="84" /><line stroke="black" stroke-width="2" x1="317.0" x2="317.0" y1="81" y2="84" /><line stroke="black" stroke-width="3" x1="333.0" x2="333.0" y1="81" y2="84" /><line stroke="black" stroke-width="2" x1="349.0" x2="349.0" y1="81" y2="84" /><line stroke="black" stroke-width="2" x1="365.0" x2="365.0" y1="81" y2="84" /><line stroke="black" stroke-width="2" x1="381.0" x2="381.0" y1="81" y2="84" /><line stroke="black" stroke-width="3" x1="397.0" x2="397.0" y1="81" y2="84" /><line stroke="black" stroke-width="2" x1="413.0" x2="413.0" y1="81" y2="84" /><line stroke="black" stroke-width="2" x1="429.0" x2="429.0" y1="81" y2="84" /><line stroke="black" stroke-width="2" x1="445.0" x2="445.0" y1="81" y2="84" /><line stroke="black" stroke-width="3" x1="461.0" x2="461.0" y1="81" y2="84" /><line stroke="black" stroke-width="2" x1="477.0" x2="477.0" y1="81" y2="84" /><line stroke="black" stroke-width="2" x1="493.0" x2="493.0" y1="81" y2="84" /><line stroke="black" stroke-width="2" x1="509.0" x2="509.0" y1="81" y2="84" /><polyline fill="none" points="5,84 5,120 529,120 529,84" stroke="black" stroke-width="1" /><line stroke="black" stroke-width="2" x1="29.0" x2="29.0" y1="117" y2="120" /><line stroke="black" stroke-width="2" x1="45.0" x2="45.0" y1="117" y2="120" /><line stroke="black" stroke-width="2" x1="61.0" x2="61.0" y1="117" y2="120" /><line stroke="black" stroke-width="3" x1="77.0" x2="77.0" y1="117" y2="120" /><line stroke="black" stroke-width="2" x1="93.0" x2="93.0" y1="117" y2="120" /><line stroke="black" stroke-width="2" x1="109.0" x2="109.0" y1="117" y2="120" /><line stroke="black" stroke-width="2" x1="125.0" x2="125.0" y1="117" y2="120" /><line stroke="black" stroke-width="3" x1="141.0" x2="141.0" y1="117" y2="120" /><line stroke="black" stroke-width="2" x1="157.0" x2="157.0" y1="117" y2="120" /><line stroke="black" stroke-width="2" x1="173.0" x2="173.0" y1="117" y2="120" /><line stroke="black" stroke-width="2" x1="189.0" x2="189.0" y1="117" y2="120" /><line stroke="black" stroke-width="3" x1="205.0" x2="205.0" y1="117" y2="120" /><line stroke="black" stroke-width="2" x1="221.0" x2="221.0" y1="117" y2="120" /><line stroke="black" stroke-width="2" x1="237.0" x2="237.0" y1="117" y2="120" /><line stroke="black" stroke-width="2" x1="253.0" x2="253.0" y1="117" y2="120" /><line stroke="black" stroke-width="3" x1="269.0" x2="269.0" y1="117" y2="120" /><line stroke="black" stroke-width="2" x1="285.0" x2="285.0" y1="117" y2="120" /><line stroke="black" stroke-width="2" x1="301.0" x2="301.0" y1="117" y2="120" /><line stroke="black" stroke-width="2" x1="317.0" x2="317.0" y1="117" y2="120" /><line stroke="black" stroke-width="3" x1="333.0" x2="333.0" y1="117" y2="120" /><line stroke="black" stroke-width="2" x1="349.0" x2="349.0" y1="117" y2="120" /><line stroke="black" stroke-width="2" x1="365.0" x2="365.0" y1="117" y2="120" /><line stroke="black" stroke-width="2" x1="381.0" x2="381.0" y1="117" y2="120" /><line stroke="black" stroke-width="3" x1="397.0" x2="397.0" y1="117" y2="120" /><line stroke="black" stroke-width="2" x1="413.0" x2="413.0" y1="117" y2="120" /><line stroke="black" stroke-width="2" x1="429.0" x2="429.0" y1="117" y2="120" /><line stroke="black" stroke-width="2" x1="445.0" x2="445.0" y1="117" y2="120" /><line stroke="black" stroke-width="3" x1="461.0" x2="461.0" y1="117" y2="120" /><line stroke="black" stroke-width="2" x1="477.0" x2="477.0" y1="117" y2="120" /><line stroke="black" stroke-width="2" x1="493.0" x2="493.0" y1="117" y2="120" /><line stroke="black" stroke-width="2" x1="509.0" x2="509.0" y1="117" y2="120" /><polyline fill="none" points="5,120 5,156 529,156 529,120" stroke="black" stroke-width="1" /><line stroke="black" stroke-width="2" x1="29.0" x2="29.0" y1="153" y2="156" /><line stroke="black" stroke-width="2" x1="45.0" x2="45.0" y1="153" y2="156" /><line stroke="black" stroke-width="2" x1="61.0" x2="61.0" y1="153" y2="156" /><line stroke="black" stroke-width="3" x1="77.0" x2="77.0" y1="153" y2="156" /><line stroke="black" stroke-width="2" x1="93.0" x2="93.0" y1="153" y2="156" /><line stroke="black" stroke-width="2" x1="109.0" x2="109.0" y1="153" y2="156" /><line stroke="black" stroke-width="2" x1="125.0" x2="125.0" y1="153" y2="156" /><line stroke="black" stroke-width="3" x1="141.0" x2="141.0" y1="153" y2="156" /><line stroke="black" stroke-width="2" x1="157.0" x2="157.0" y1="153" y2="156" /><line stroke="black" stroke-width="2" x1="173.0" x2="173.0" y1="153" y2="156" /><line stroke="black" stroke-width="2" x1="189.0" x2="189.0" y1="153" y2="156" /><line stroke="black" stroke-width="3" x1="205.0" x2="205.0" y1="153" y2="156" /><line stroke="black" stroke-width="2" x1="221.0" x2="221.0" y1="153" y2="156" /><line stroke="black" stroke-width="2" x1="237.0" x2="237.0" y1="153" y2="156" /><line stroke="black" stroke-width="2" x1="253.0" x2="253.0" y1="153" y2="156" /><line stroke="black" stroke-width="3" x1="269.0" x2="269.0" y1="153" y2="156" /><line stroke="black" stroke-width="2" x1="285.0" x2="285.0" y1="153" y2="156" /><line stroke="black" stroke-width="2" x1="301.0" x2="301.0" y1="153" y2="156" /><line stroke="black" stroke-width="2" x1="317.0" x2="317.0" y1="153" y2="156" /><line stroke="black" stroke-width="3" x1="333.0" x2="333.0" y1="153" y2="156" /><line stroke="black" stroke-width="2" x1="349.0" x2="349.0" y1="153" y2="156" /><line stroke="black" stroke-width="2" x1="365.0" x2="365.0" y1="153" y2="156" /><line stroke="black" stroke-width="2" x1="381.0" x2="381.0" y1="153" y2="156" /><line stroke="black" stroke-width="3" x1="397.0" x2="397.0" y1="153" y2="156" /><line stroke="black" stroke-width="2" x1="413.0" x2="413.0" y1="153" y2="156" /><line stroke="black" stroke-width="2" x1="429.0" x2="429.0" y1="153" y2="156" /><line stroke="black" stroke-width="2" x1="445.0" x2="445.0" y1="153" y2="156" /><line stroke="black" stroke-width="3" x1="461.0" x2="461.0" y1="153" y2="156" /><line stroke="black" stroke-width="2" x1="477.0" x2="477.0" y1="153" y2="156" /><line stroke="black" stroke-width="2" x1="493.0" x2="493.0" y1="153" y2="156" /><line stroke="black" stroke-width="2" x1="509.0" x2="509.0" y1="153" y2="156" /><polyline fill="none" points="3,280 527,280" stroke="black" stroke-width="1" /><line stroke="black" stroke-width="2" x1="27.0" x2="27.0" y1="277" y2="280" /><line stroke="black" stroke-width="2" x1="43.0" x2="43.0" y1="277" y2="280" /><line stroke="black" stroke-width="2" x1="59.0" x2="59.0" y1="277" y2="280" /><line stroke="black" stroke-width="3" x1="75.0" x2="75.0" y1="277" y2="280" /><line stroke="black" stroke-width="2" x1="91.0" x2="91.0" y1="277" y2="280" /><line stroke="black" stroke-width="2" x1="107.0" x2="107.0" y1="277" y2="280" /><line stroke="black" stroke-width="2" x1="123.0" x2="123.0" y1="277" y2="280" /><line stroke="black" stroke-width="3" x1="139.0" x2="139.0" y1="277" y2="280" /><line stroke="black" stroke-width="2" x1="155.0" x2="155.0" y1="277" y2="280" /><line stroke="black" stroke-width="2" x1="171.0" x2="171.0" y1="277" y2="280" /><line stroke="black" stroke-width="2" x1="187.0" x2="187.0" y1="277" y2="280" /><line stroke="black" stroke-width="3" x1="203.0" x2="203.0" y1="277" y2="280" /><line stroke="black" stroke-width="2" x1="219.0" x2="219.0" y1="277" y2="280" /><line stroke="black" stroke-width="2" x1="235.0" x2="235.0" y1="277" y2="280" /><line stroke="black" stroke-width="2" x1="251.0" x2="251.0" y1="277" y2="280" /><line stroke="black" stroke-width="3" x1="267.0" x2="267.0" y1="277" y2="280" /><line stroke="black" stroke-width="2" x1="283.0" x2="283.0" y1="277" y2="280" /><line stroke="black" stroke-width="2" x1="299.0" x2="299.0" y1="277" y2="280" /><line stroke="black" stroke-width="2" x1="315.0" x2="315.0" y1="277" y2="280" /><line stroke="black" stroke-width="3" x1="331.0" x2="331.0" y1="277" y2="280" /><line stroke="black" stroke-width="2" x1="347.0" x2="347.0" y1="277" y2="280" /><line stroke="black" stroke-width="2" x1="363.0" x2="363.0" y1="277" y2="280" /><line stroke="black" stroke-width="2" x1="379.0" x2="379.0" y1="277" y2="280" /><line stroke="black" stroke-width="3" x1="395.0" x2="395.0" y1="277" y2="280" /><line stroke="black" stroke-width="2" x1="411.0" x2="411.0" y1="277" y2="280" /><line stroke="black" stroke-width="2" x1="427.0" x2="427.0" y1="277" y2="280" /><line stroke="black" stroke-width="2" x1="443.0" x2="443.0" y1="277" y2="280" /><line stroke="black" stroke-width="3" x1="459.0" x2="459.0" y1="277" y2="280" /><line stroke="black" stroke-width="2" x1="475.0" x2="475.0" y1="277" y2="280" /><line stroke="black" stroke-width="2" x1="491.0" x2="491.0" y1="277" y2="280" /><line stroke="black" stroke-width="2" x1="507.0" x2="507.0" y1="277" y2="280" /><polyline fill="none" points="3,280 3,316 527,316 527,280" stroke="black" stroke-width="1" /><line stroke="black" stroke-width="2" x1="27.0" x2="27.0" y1="313" y2="316" /><line stroke="black" stroke-width="2" x1="43.0" x2="43.0" y1="313" y2="316" /><line stroke="black" stroke-width="2" x1="59.0" x2="59.0" y1="313" y2="316" /><line stroke="black" stroke-width="3" x1="75.0" x2="75.0" y1="313" y2="316" /><line stroke="black" stroke-width="2" x1="91.0" x2="91.0" y1="313" y2="316" /><line stroke="black" stroke-width="2" x1="107.0" x2="107.0" y1="313" y2="316" /><line stroke="black" stroke-width="2" x1="123.0" x2="123.0" y1="313" y2="316" /><line stroke="black" stroke-width="3" x1="139.0" x2="139.0" y1="313" y2="316" /><line stroke="black" stroke-width="2" x1="155.0" x2="155.0" y1="313" y2="316" /><line stroke="black" stroke-width="2" x1="171.0" x2="171.0" y1="313" y2="316" /><line stroke="black" stroke-width="2" x1="187.0" x2="187.0" y1="313" y2="316" /><line stroke="black" stroke-width="3" x1="203.0" x2="203.0" y1="313" y2="316" /><line stroke="black" stroke-width="2" x1="219.0" x2="219.0" y1="313" y2="316" /><line stroke="black" stroke-width="2" x1="235.0" x2="235.0" y1="313" y2="316" /><line stroke="black" stroke-width="2" x1="251.0" x2="251.0" y1="313" y2="316" /><line stroke="black" stroke-width="3" x1="267.0" x2="267.0" y1="313" y2="316" /><line stroke="black" stroke-width="2" x1="283.0" x2="283.0" y1="313" y2="316" /><line stroke="black" stroke-width="2" x1="299.0" x2="299.0" y1="313" y2="316" /><line stroke="black" stroke-width="2" x1="315.0" x2="315.0" y1="313" y2="316" /><line stroke="black" stroke-width="3" x1="331.0" x2="331.0" y1="313" y2="316" /><line stroke="black" stroke-width="2" x1="347.0" x2="347.0" y1="313" y2="316" /><line stroke="black" stroke-width="2" x1="363.0" x2="363.0" y1="313" y2="316" /><line stroke="black" stroke-width="2" x1="379.0" x2="379.0" y1="313" y2="316" /><line stroke="black" stroke-width="3" x1="395.0" x2="395.0" y1="313" y2="316" /><line stroke="black" stroke-width="2" x1="411.0" x2="411.0" y1="313" y2="316" /><line stroke="black" stroke-width="2" x1="427.0" x2="427.0" y1="313" y2="316" /><line stroke="black" stroke-width="2" x1="443.0" x2="443.0" y1="313" y2="316" /><line stroke="black" stroke-width="3" x1="459.0" x2="459.0" y1="313" y2="316" /><line stroke="black" stroke-width="2" x1="475.0" x2="475.0" y1="313" y2="316" /><line stroke="black" stroke-width="2" x1="491.0" x2="491.0" y1="313" y2="316" /><line stroke="black" stroke-width="2" x1="507.0" x2="507.0" y1="313" y2="316" /><polyline fill="none" points="3,316 3,352 527,352 527,316" stroke="black" stroke-width="1" /><line stroke="black" stroke-width="2" x1="27.0" x2="27.0" y1="349" y2="352" /><line stroke="black" stroke-width="2" x1="43.0" x2="43.0" y1="349" y2="352" /><line stroke="black" stroke-width="2" x1="59.0" x2="59.0" y1="349" y2="352" /><line stroke="black" stroke-width="3" x1="75.0" x2="75.0" y1="349" y2="352" /><line stroke="black" stroke-width="2" x1="91.0" x2="91.0" y1="349" y2="352" /><line stroke="black" stroke-width="2" x1="107.0" x2="107.0" y1="349" y2="352" /><line stroke="black" stroke-width="2" x1="123.0" x2="123.0" y1="349" y2="352" /><line stroke="black" stroke-width="3" x1="139.0" x2="139.0" y1="349" y2="352" /><line stroke="black" stroke-width="2" x1="155.0" x2="155.0" y1="349" y2="352" /><line stroke="black" stroke-width="2" x1="171.0" x2="171.0" y1="349" y2="352" /><line stroke="black" stroke-width="2" x1="187.0" x2="187.0" y1="349" y2="352" /><line stroke="black" stroke-width="3" x1="203.0" x2="203.0" y1="349" y2="352" /><line stroke="black" stroke-width="2" x1="219.0" x2="219.0" y1="349" y2="352" /><line stroke="black" stroke-width="2" x1="235.0" x2="235.0" y1="349" y2="352" /><line stroke="black" stroke-width="2" x1="251.0" x2="251.0" y1="349" y2="352" /><line stroke="black" stroke-width="3" x1="267.0" x2="267.0" y1="349" y2="352" /><line stroke="black" stroke-width="2" x1="283.0" x2="283.0" y1="349" y2="352" /><line stroke="black" stroke-width="2" x1="299.0" x2="299.0" y1="349" y2="352" /><line stroke="black" stroke-width="2" x1="315.0" x2="315.0" y1="349" y2="352" /><line stroke="black" stroke-width="3" x1="331.0" x2="331.0" y1="349" y2="352" /><line stroke="black" stroke-width="2" x1="347.0" x2="347.0" y1="349" y2="352" /><line stroke="black" stroke-width="2" x1="363.0" x2="363.0" y1="349" y2="352" /><line stroke="black" stroke-width="2" x1="379.0" x2="379.0" y1="349" y2="352" /><line stroke="black" stroke-width="3" x1="395.0" x2="395.0" y1="349" y2="352" /><line stroke="black" stroke-width="2" x1="411.0" x2="411.0" y1="349" y2="352" /><line stroke="black" stroke-width="2" x1="427.0" x2="427.0" y1="349" y2="352" /><line stroke="black" stroke-width="2" x1="443.0" x2="443.0" y1="349" y2="352" /><line stroke="black" stroke-width="3" x1="459.0" x2="459.0" y1="349" y2="352" /><line stroke="black" stroke-width="2" x1="475.0" x2="475.0" y1="349" y2="352" /><line stroke="black" stroke-width="2" x1="491.0" x2="491.0" y1="349" y2="352" /><line stroke="black" stroke-width="2" x1="507.0" x2="507.0" y1="349" y2="352" /><polyline fill="none" points="3,352 3,388 527,388 527,352" stroke="black" stroke-width="1" /><line stroke="black" stroke-width="2" x1="27.0" x2="27.0" y1="385" y2="388" /><line stroke="black" stroke-width="2" x1="43.0" x2="43.0" y1="385" y2="388" /><line stroke="black" stroke-width="2" x1="59.0" x2="59.0" y1="385" y2="388" /><line stroke="black" stroke-width="3" x1="75.0" x2="75.0" y1="385" y2="388" /><line stroke="black" stroke-width="2" x1="91.0" x2="91.0" y1="385" y2="388" /><line stroke="black" stroke-width="2" x1="107.0" x2="107.0" y1="385" y2="388" /><line stroke="black" stroke-width="2" x1="123.0" x2="123.0" y1="385" y2="388" /><line stroke="black" stroke-width="3" x1="139.0" x2="139.0" y1="385" y2="388" /><line stroke="black" stroke-width="2" x1="155.0" x2="155.0" y1="385" y2="388" /><line stroke="black" stroke-width="2" x1="171.0" x2="171.0" y1="385" y2="388" /><line stroke="black" stroke-width="2" x1="187.0" x2="187.0" y1="385" y2="388" /><line stroke="black" stroke-width="3" x1="203.0" x2="203.0" y1="385" y2="388" /><line stroke="black" stroke-width="2" x1="219.0" x2="219.0" y1="385" y2="388" /><line stroke="black" stroke-width="2" x1="235.0" x2="235.0" y1="385" y2="388" /><line stroke="black" stroke-width="2" x1="251.0" x2="251.0" y1="385" y2="388" /><line stroke="black" stroke-width="3" x1="267.0" x2="267.0" y1="385" y2="388" /><line stroke="black" stroke-width="2" x1="283.0" x2="283.0" y1="385" y2="388" /><line stroke="black" stroke-width="2" x1="299.0" x2="299.0" y1="385" y2="388" /><line stroke="black" stroke-width="2" x1="315.0" x2="315.0" y1="385" y2="388" /><line stroke="black" stroke-width="3" x1="331.0" x2="331.0" y1="385" y2="388" /><line stroke="black" stroke-width="2" x1="347.0" x2="347.0" y1="385" y2="388" /><line stroke="black" stroke-width="2" x1="363.0" x2="363.0" y1="385" y2="388" /><line stroke="black" stroke-width="2" x1="379.0" x2="379.0" y1="385" y2="388" /><line stroke="black" stroke-width="3" x1="395.0" x2="395.0" y1="385" y2="388" /><line stroke="black" stroke-width="2" x1="411.0" x2="411.0" y1="385" y2="388" /><line stroke="black" stroke-width="2" x1="427.0" x2="427.0" y1="385" y2="388" /><line stroke="black" stroke-width="2" x1="443.0" x2="443.0" y1="385" y2="388" /><line stroke="black" stroke-width="3" x1="459.0" x2="459.0" y1="385" y2="388" /><line stroke="black" stroke-width="2" x1="475.0" x2="475.0" y1="385" y2="388" /><line stroke="black" stroke-width="2" x1="491.0" x2="491.0" y1="385" y2="388" /><line stroke="black" stroke-width="2" x1="507.0" x2="507.0" y1="385" y2="388" /><polyline fill="none" points="3,520 527,520" stroke="black" stroke-width="1" /><line stroke="black" stroke-width="2" x1="27.0" x2="27.0" y1="517" y2="520" /><line stroke="black" stroke-width="2" x1="43.0" x2="43.0" y1="517" y2="520" /><line stroke="black" stroke-width="2" x1="59.0" x2="59.0" y1="517" y2="520" /><line stroke="black" stroke-width="3" x1="75.0" x2="75.0" y1="517" y2="520" /><line stroke="black" stroke-width="2" x1="91.0" x2="91.0" y1="517" y2="520" /><line stroke="black" stroke-width="2" x1="107.0" x2="107.0" y1="517" y2="520" /><line stroke="black" stroke-width="2" x1="123.0" x2="123.0" y1="517" y2="520" /><line stroke="black" stroke-width="3" x1="139.0" x2="139.0" y1="517" y2="520" /><line stroke="black" stroke-width="2" x1="155.0" x2="155.0" y1="517" y2="520" /><line stroke="black" stroke-width="2" x1="171.0" x2="171.0" y1="517" y2="520" /><line stroke="black" stroke-width="2" x1="187.0" x2="187.0" y1="517" y2="520" /><line stroke="black" stroke-width="3" x1="203.0" x2="203.0" y1="517" y2="520" /><line stroke="black" stroke-width="2" x1="219.0" x2="219.0" y1="517" y2="520" /><line stroke="black" stroke-width="2" x1="235.0" x2="235.0" y1="517" y2="520" /><line stroke="black" stroke-width="2" x1="251.0" x2="251.0" y1="517" y2="520" /><line stroke="black" stroke-width="3" x1="267.0" x2="267.0" y1="517" y2="520" /><line stroke="black" stroke-width="2" x1="283.0" x2="283.0" y1="517" y2="520" /><line stroke="black" stroke-width="2" x1="299.0" x2="299.0" y1="517" y2="520" /><line stroke="black" stroke-width="2" x1="315.0" x2="315.0" y1="517" y2="520" /><line stroke="black" stroke-width="3" x1="331.0" x2="331.0" y1="517" y2="520" /><line stroke="black" stroke-width="2" x1="347.0" x2="347.0" y1="517" y2="520" /><line stroke="black" stroke-width="2" x1="363.0" x2="363.0" y1="517" y2="520" /><line stroke="black" stroke-width="2" x1="379.0" x2="379.0" y1="517" y2="520" /><line stroke="black" stroke-width="3" x1="395.0" x2="395.0" y1="517" y2="520" /><line stroke="black" stroke-width="2" x1="411.0" x2="411.0" y1="517" y2="520" /><line stroke="black" stroke-width="2" x1="427.0" x2="427.0" y1="517" y2="520" /><line stroke="black" stroke-width="2" x1="443.0" x2="443.0" y1="517" y2="520" /><line stroke="black" stroke-width="3" x1="459.0" x2="459.0" y1="517" y2="520" /><line stroke="black" stroke-width="2" x1="475.0" x2="475.0" y1="517" y2="520" /><line stroke="black" stroke-width="2" x1="491.0" x2="491.0" y1="517" y2="520" /><line stroke="black" stroke-width="2" x1="507.0" x2="507.0" y1="517" y2="520" /><polyline fill="none" points="3,520 3,556 527,556 527,520" stroke="black" stroke-width="1" /><line stroke="black" stroke-width="2" x1="27.0" x2="27.0" y1="553" y2="556" /><line stroke="black" stroke-width="2" x1="43.0" x2="43.0" y1="553" y2="556" /><line stroke="black" stroke-width="2" x1="59.0" x2="59.0" y1="553" y2="556" /><line stroke="black" stroke-width="3" x1="75.0" x2="75.0" y1="553" y2="556" /><line stroke="black" stroke-width="2" x1="91.0" x2="91.0" y1="553" y2="556" /><line stroke="black" stroke-width="2" x1="107.0" x2="107.0" y1="553" y2="556" /><line stroke="black" stroke-width="2" x1="123.0" x2="123.0" y1="553" y2="556" /><line stroke="black" stroke-width="3" x1="139.0" x2="139.0" y1="553" y2="556" /><line stroke="black" stroke-width="2" x1="155.0" x2="155.0" y1="553" y2="556" /><line stroke="black" stroke-width="2" x1="171.0" x2="171.0" y1="553" y2="556" /><line stroke="black" stroke-width="2" x1="187.0" x2="187.0" y1="553" y2="556" /><line stroke="black" stroke-width="3" x1="203.0" x2="203.0" y1="553" y2="556" /><line stroke="black" stroke-width="2" x1="219.0" x2="219.0" y1="553" y2="556" /><line stroke="black" stroke-width="2" x1="235.0" x2="235.0" y1="553" y2="556" /><line stroke="black" stroke-width="2" x1="251.0" x2="251.0" y1="553" y2="556" /><line stroke="black" stroke-width="3" x1="267.0" x2="267.0" y1="553" y2="556" /><line stroke="black" stroke-width="2" x1="283.0" x2="283.0" y1="553" y2="556" /><line stroke="black" stroke-width="2" x1="299.0" x2="299.0" y1="553" y2="556" /><line stroke="black" stroke-width="2" x1="315.0" x2="315.0" y1="553" y2="556" /><line stroke="black" stroke-width="3" x1="331.0" x2="331.0" y1="553" y2="556" /><line stroke="black" stroke-width="2" x1="347.0" x2="347.0" y1="553" y2="556" /><line stroke="black" stroke-width="2" x1="363.0" x2="363.0" y1="553" y2="556" /><line stroke="black" stroke-width="2" x1="379.0" x2="379.0" y1="553" y2="556" /><line stroke="black" stroke-width="3" x1="395.0" x2="395.0" y1="553" y2="556" /><line stroke="black" stroke-width="2" x1="411.0" x2="411.0" y1="553" y2="556" /><line stroke="black" stroke-width="2" x1="427.0" x2="427.0" y1="553" y2="556" /><line stroke="black" stroke-width="2" x1="443.0" x2="443.0" y1="553" y2="556" /><line stroke="black" stroke-width="3" x1="459.0" x2="459.0" y1="553" y2="556" /><line stroke="black" stroke-width="2" x1="475.0" x2="475.0" y1="553" y2="556" /><line stroke="black" stroke-width="2" x1="491.0" x2="491.0" y1="553" y2="556" /><line stroke="black" stroke-width="2" x1="507.0" x2="507.0" y1="553" y2="556" /><text stroke="black" x="176" y="68">Transport Encapsulation</text><text stroke="black" x="156" y="104">Network Service Header (NSH)</text><text stroke="black" x="176" y="140">Original Packet / Frame</text><text stroke="black" x="14" y="256">0</text><text stroke="black" x="174" y="256">1</text><text stroke="black" x="334" y="256">2</text><text stroke="black" x="494" y="256">3</text><text stroke="black" x="14" y="270.0">0</text><text stroke="black" x="30" y="270.0">1</text><text stroke="black" x="46" y="270.0">2</text><text stroke="black" x="62" y="270.0">3</text><text stroke="black" x="78" y="270.0">4</text><text stroke="black" x="94" y="270.0">5</text><text stroke="black" x="110" y="270.0">6</text><text stroke="black" x="126" y="270.0">7</text><text stroke="black" x="142" y="270.0">8</text><text stroke="black" x="158" y="270.0">9</text><text stroke="black" x="174" y="270.0">0</text><text stroke="black" x="190" y="270.0">1</text><text stroke="black" x="206" y="270.0">2</text><text stroke="black" x="222" y="270.0">3</text><text stroke="black" x="238" y="270.0">4</text><text stroke="black" x="254" y="270.0">5</text><text stroke="black" x="270" y="270.0">6</text><text stroke="black" x="286" y="270.0">7</text><text stroke="black" x="302" y="270.0">8</text><text stroke="black" x="318" y="270.0">9</text><text stroke="black" x="334" y="270.0">0</text><text stroke="black" x="350" y="270.0">1</text><text stroke="black" x="366" y="270.0">2</text><text stroke="black" x="382" y="270.0">3</text><text stroke="black" x="398" y="270.0">4</text><text stroke="black" x="414" y="270.0">5</text><text stroke="black" x="430" y="270.0">6</text><text stroke="black" x="446" y="270.0">7</text><text stroke="black" x="462" y="270.0">8</text><text stroke="black" x="478" y="270.0">9</text><text stroke="black" x="494" y="270.0">0</text><text stroke="black" x="510" y="270.0">1</text><text stroke="black" x="222" y="300">Base Header</text><text stroke="black" x="190" y="336">Service Path Header</text><text stroke="black" x="198" y="372">Context Header(s)</text><text stroke="black" x="14" y="496">0</text><text stroke="black" x="174" y="496">1</text><text stroke="black" x="334" y="496">2</text><text stroke="black" x="494" y="496">3</text><text stroke="black" x="14" y="510.0">0</text><text stroke="black" x="30" y="510.0">1</text><text stroke="black" x="46" y="510.0">2</text><text stroke="black" x="62" y="510.0">3</text><text stroke="black" x="78" y="510.0">4</text><text stroke="black" x="94" y="510.0">5</text><text stroke="black" x="110" y="510.0">6</text><text stroke="black" x="126" y="510.0">7</text><text stroke="black" x="142" y="510.0">8</text><text stroke="black" x="158" y="510.0">9</text><text stroke="black" x="174" y="510.0">0</text><text stroke="black" x="190" y="510.0">1</text><text stroke="black" x="206" y="510.0">2</text><text stroke="black" x="222" y="510.0">3</text><text stroke="black" x="238" y="510.0">4</text><text stroke="black" x="254" y="510.0">5</text><text stroke="black" x="270" y="510.0">6</text><text stroke="black" x="286" y="510.0">7</text><text stroke="black" x="302" y="510.0">8</text><text stroke="black" x="318" y="510.0">9</text><text stroke="black" x="334" y="510.0">0</text><text stroke="black" x="350" y="510.0">1</text><text stroke="black" x="366" y="510.0">2</text><text stroke="black" x="382" y="510.0">3</text><text stroke="black" x="398" y="510.0">4</text><text stroke="black" x="414" y="510.0">5</text><text stroke="black" x="430" y="510.0">6</text><text stroke="black" x="446" y="510.0">7</text><text stroke="black" x="462" y="510.0">8</text><text stroke="black" x="478" y="510.0">9</text><text stroke="black" x="494" y="510.0">0</text><text stroke="black" x="510" y="510.0">1</text><text stroke="black" x="22" y="540">Ver</text><polyline fill="none" points="59,520 59,553" stroke="black" stroke-width="1" /><text stroke="black" x="62" y="540">O</text><polyline fill="none" points="75,520 75,553" stroke="black" stroke-width="1" /><text stroke="black" x="78" y="540">U</text><polyline fill="none" points="91,520 91,553" stroke="black" stroke-width="1" /><text stroke="black" x="118" y="540">TTL</text><polyline fill="none" points="171,520 171,553" stroke="black" stroke-width="1" /><text stroke="black" x="194" y="540">Length</text><polyline fill="none" points="267,520 267,553" stroke="black" stroke-width="1" /><text stroke="black" x="270" y="540">U</text><polyline fill="none" points="283,520 283,553" stroke="black" stroke-width="1" /><text stroke="black" x="286" y="540">U</text><polyline fill="none" points="299,520 299,553" stroke="black" stroke-width="1" /><text stroke="black" x="302" y="540">U</text><polyline fill="none" points="315,520 315,553" stroke="black" stroke-width="1" /><text stroke="black" x="318" y="540">U</text><polyline fill="none" points="331,520 331,553" stroke="black" stroke-width="1" /><text stroke="black" x="334" y="540">MD Type</text><polyline fill="none" points="395,520 395,553" stroke="black" stroke-width="1" /><text stroke="black" x="406" y="540">Next Protocol</text></svg>