<svg width="762" height="177" viewBox="0 0 762 177" fill="none" xmlns="http://www.w3.org/2000/svg">
<path d="M436.477 137.997C441.131 137.997 444.903 134.237 444.903 129.594C444.903 124.951 441.131 121.192 436.477 121.192C431.822 121.192 428.051 124.951 428.051 129.594C428.051 134.237 431.822 137.997 436.477 137.997Z" fill="black"/>
<path d="M436.477 92.6469C441.131 92.6469 444.903 88.8873 444.903 84.2442C444.903 79.6011 441.131 75.8414 436.477 75.8414C431.822 75.8414 428.051 79.6011 428.051 84.2442C428.051 88.8873 431.822 92.6469 436.477 92.6469Z" fill="black"/>
<path d="M456.694 92.6469C461.349 92.6469 465.12 88.8873 465.12 84.2442C465.12 79.6011 461.349 75.8414 456.694 75.8414C452.039 75.8414 448.268 79.6011 448.268 84.2442C448.268 88.8873 452.039 92.6469 456.694 92.6469Z" fill="black"/>
<path d="M476.923 92.6469C481.578 92.6469 485.349 88.8873 485.349 84.2442C485.349 79.6011 481.578 75.8414 476.923 75.8414C472.268 75.8414 468.497 79.6011 468.497 84.2442C468.497 88.8873 472.268 92.6469 476.923 92.6469Z" fill="black"/>
<path d="M482.831 53.189C487.486 53.189 491.257 49.4293 491.257 44.7862C491.257 40.1431 487.486 36.3835 482.831 36.3835C478.176 36.3835 474.405 40.1431 474.405 44.7862C474.405 49.4293 478.176 53.189 482.831 53.189Z" fill="black"/>
<path d="M460.905 53.189C465.555 53.189 469.331 49.4293 469.331 44.7862C469.331 40.1431 465.555 36.3835 460.905 36.3835C456.254 36.3835 452.479 40.1431 452.479 44.7862C452.479 49.4293 456.25 53.189 460.905 53.189Z" fill="black"/>
<path d="M439.007 53.189C443.662 53.189 447.434 49.4293 447.434 44.7862C447.434 40.1431 443.662 36.3835 439.007 36.3835C434.353 36.3835 430.581 40.1431 430.581 44.7862C430.581 49.4293 434.353 53.189 439.007 53.189Z" fill="black"/>
<path d="M456.694 137.997C461.349 137.997 465.12 134.237 465.12 129.594C465.12 124.951 461.349 121.192 456.694 121.192C452.039 121.192 448.268 124.951 448.268 129.594C448.268 134.237 452.039 137.997 456.694 137.997Z" fill="black"/>
<path d="M476.923 137.997C481.578 137.997 485.349 134.237 485.349 129.594C485.349 124.951 481.578 121.192 476.923 121.192C472.268 121.192 468.497 124.951 468.497 129.594C468.497 134.237 472.268 137.997 476.923 137.997Z" fill="black"/>
<path d="M417.944 126.25C422.599 126.25 426.37 122.49 426.37 117.847C426.37 113.204 422.599 109.444 417.944 109.444C413.289 109.444 409.518 113.204 409.518 117.847C409.518 122.49 413.289 126.25 417.944 126.25Z" fill="black"/>
<path d="M417.944 104.411C422.599 104.411 426.37 100.651 426.37 96.008C426.37 91.3649 422.599 87.6053 417.944 87.6053C413.289 87.6053 409.518 91.3649 409.518 96.008C409.518 100.651 413.289 104.411 417.944 104.411Z" fill="black"/>
<path d="M497.978 137.997C502.633 137.997 506.404 134.237 506.404 129.594C506.404 124.951 502.633 121.192 497.978 121.192C493.324 121.192 489.552 124.951 489.552 129.594C489.552 134.237 493.324 137.997 497.978 137.997Z" fill="black"/>
<path d="M497.978 115.324C502.633 115.324 506.404 111.564 506.404 106.921C506.404 102.278 502.633 98.5186 497.978 98.5186C493.324 98.5186 489.552 102.278 489.552 106.921C489.552 111.564 493.324 115.324 497.978 115.324Z" fill="black"/>
<path d="M497.978 92.6469C502.633 92.6469 506.404 88.8873 506.404 84.2442C506.404 79.6011 502.633 75.8414 497.978 75.8414C493.324 75.8414 489.552 79.6011 489.552 84.2442C489.552 88.8873 493.324 92.6469 497.978 92.6469Z" fill="black"/>
<path d="M497.978 69.9904C502.633 69.9904 506.404 66.2307 506.404 61.5876C506.404 56.9445 502.633 53.1849 497.978 53.1849C493.324 53.1849 489.552 56.9445 489.552 61.5876C489.552 66.2307 493.324 69.9904 497.978 69.9904Z" fill="black"/>
<path d="M120.588 137.997C125.243 137.997 129.018 134.237 129.018 129.594C129.018 124.951 125.243 121.192 120.588 121.192C115.933 121.192 112.158 124.951 112.158 129.594C112.158 134.237 115.929 137.997 120.588 137.997Z" fill="black"/>
<path d="M120.588 117.847C125.243 117.847 129.018 114.087 129.018 109.444C129.018 104.801 125.243 101.041 120.588 101.041C115.933 101.041 112.158 104.801 112.158 109.444C112.158 114.087 115.929 117.847 120.588 117.847Z" fill="black"/>
<path d="M120.588 97.7009C125.243 97.7009 129.018 93.9413 129.018 89.2982C129.018 84.6551 125.243 80.8954 120.588 80.8954C115.933 80.8954 112.158 84.6551 112.158 89.2982C112.158 93.9413 115.929 97.7009 120.588 97.7009Z" fill="black"/>
<path d="M120.588 77.5508C125.243 77.5508 129.018 73.7911 129.018 69.148C129.018 64.505 125.243 60.7453 120.588 60.7453C115.933 60.7453 112.158 64.505 112.158 69.148C112.158 73.7911 115.929 77.5508 120.588 77.5508Z" fill="black"/>
<path d="M120.588 57.3883C125.243 57.3883 129.018 53.6286 129.018 48.9856C129.018 44.3425 125.243 40.5828 120.588 40.5828C115.933 40.5828 112.158 44.3425 112.158 48.9856C112.158 53.6286 115.929 57.3883 120.588 57.3883Z" fill="black"/>
<path d="M120.588 37.2135C125.243 37.2135 129.018 33.4538 129.018 28.8108C129.018 24.1677 125.243 20.408 120.588 20.408C115.933 20.408 112.158 24.1677 112.158 28.8108C112.158 33.4538 115.929 37.2135 120.588 37.2135Z" fill="black"/>
<path d="M120.588 17.0634C125.243 17.0634 129.018 13.3037 129.018 8.66061C129.018 4.01754 125.243 0.257874 120.588 0.257874C115.933 0.257874 112.158 4.01754 112.158 8.66061C112.158 13.3037 115.929 17.0634 120.588 17.0634Z" fill="black"/>
<path d="M49.4237 137.997C54.0784 137.997 57.8539 134.237 57.8539 129.594C57.8539 124.951 54.0825 121.192 49.4237 121.192C44.7648 121.192 40.9934 124.951 40.9934 129.594C40.9934 134.237 44.7689 137.997 49.4237 137.997Z" fill="black"/>
<path d="M69.6366 135.495C74.2913 135.495 78.0669 131.735 78.0669 127.092C78.0669 122.449 74.2954 118.689 69.6366 118.689C64.9778 118.689 61.2063 122.449 61.2063 127.092C61.2063 131.735 64.9819 135.495 69.6366 135.495Z" fill="black"/>
<path d="M29.1943 137.997C33.849 137.997 37.6246 134.237 37.6246 129.594C37.6246 124.951 33.8531 121.192 29.1943 121.192C24.5355 121.192 20.764 124.951 20.764 129.594C20.764 134.237 24.5396 137.997 29.1943 137.997Z" fill="black"/>
<path d="M49.4442 77.5385C54.0989 77.5385 57.8745 73.7788 57.8745 69.1357C57.8745 64.4926 54.0989 60.733 49.4442 60.733C44.7895 60.733 41.0139 64.4926 41.0139 69.1357C41.0139 73.7788 44.7895 77.5385 49.4442 77.5385Z" fill="black"/>
<path d="M69.6859 77.5385C74.3406 77.5385 78.1162 73.7788 78.1162 69.1357C78.1162 64.4926 74.3406 60.733 69.6859 60.733C65.0312 60.733 61.2556 64.4926 61.2556 69.1357C61.2556 73.7788 65.0312 77.5385 69.6859 77.5385Z" fill="black"/>
<path d="M29.2395 77.5385C33.8942 77.5385 37.6698 73.7788 37.6698 69.1357C37.6698 64.4926 33.8942 60.733 29.2395 60.733C24.5847 60.733 20.8092 64.4926 20.8092 69.1357C20.8092 73.7788 24.5847 77.5385 29.2395 77.5385Z" fill="black"/>
<path d="M8.97727 137.997C13.632 137.997 17.4075 134.237 17.4075 129.594C17.4075 124.951 13.632 121.192 8.97727 121.192C4.32254 121.192 0.546997 124.951 0.546997 129.594C0.546997 134.237 4.31843 137.997 8.97727 137.997Z" fill="black"/>
<path d="M8.97727 117.847C13.632 117.847 17.4075 114.087 17.4075 109.444C17.4075 104.801 13.632 101.042 8.97727 101.042C4.32254 101.042 0.546997 104.801 0.546997 109.444C0.546997 114.087 4.31843 117.847 8.97727 117.847Z" fill="black"/>
<path d="M8.97727 97.7009C13.632 97.7009 17.4075 93.9413 17.4075 89.2982C17.4075 84.6551 13.632 80.8954 8.97727 80.8954C4.32254 80.8954 0.546997 84.6551 0.546997 89.2982C0.546997 93.9413 4.31843 97.7009 8.97727 97.7009Z" fill="black"/>
<path d="M8.97727 77.5508C13.632 77.5508 17.4075 73.7911 17.4075 69.148C17.4075 64.505 13.632 60.7453 8.97727 60.7453C4.32254 60.7453 0.546997 64.505 0.546997 69.148C0.546997 73.7911 4.31843 77.5508 8.97727 77.5508Z" fill="black"/>
<path d="M8.97727 57.3883C13.632 57.3883 17.4075 53.6286 17.4075 48.9856C17.4075 44.3425 13.632 40.5828 8.97727 40.5828C4.32254 40.5828 0.546997 44.3425 0.546997 48.9856C0.546997 53.6286 4.31843 57.3883 8.97727 57.3883Z" fill="black"/>
<path d="M8.97727 37.2135C13.632 37.2135 17.4075 33.4538 17.4075 28.8108C17.4075 24.1677 13.632 20.408 8.97727 20.408C4.32254 20.408 0.546997 24.1677 0.546997 28.8108C0.546997 33.4538 4.31843 37.2135 8.97727 37.2135Z" fill="black"/>
<path d="M49.4237 17.0634C54.0784 17.0634 57.8539 13.3037 57.8539 8.66061C57.8539 4.01754 54.0825 0.257874 49.4237 0.257874C44.7648 0.257874 40.9934 4.01754 40.9934 8.66061C40.9934 13.3037 44.7689 17.0634 49.4237 17.0634Z" fill="black"/>
<path d="M69.6366 20.2272C74.2913 20.2272 78.0669 16.4676 78.0669 11.8245C78.0669 7.18142 74.2954 3.42175 69.6366 3.42175C64.9778 3.42175 61.2063 7.18142 61.2063 11.8245C61.2063 16.4676 64.9819 20.2272 69.6366 20.2272Z" fill="black"/>
<path d="M29.1943 17.0634C33.849 17.0634 37.6246 13.3037 37.6246 8.66061C37.6246 4.01754 33.8531 0.257874 29.1943 0.257874C24.5355 0.257874 20.764 4.01754 20.764 8.66061C20.764 13.3037 24.5396 17.0634 29.1943 17.0634Z" fill="black"/>
<path d="M8.97727 17.0634C13.632 17.0634 17.4075 13.3037 17.4075 8.66061C17.4075 4.01754 13.632 0.257874 8.97727 0.257874C4.32254 0.257874 0.546997 4.01754 0.546997 8.66061C0.546997 13.3037 4.31843 17.0634 8.97727 17.0634Z" fill="black"/>
<path d="M81.1152 78.5739C76.4605 78.5739 72.6891 82.3336 72.6891 86.9767C72.6891 91.6197 76.4605 95.3794 81.1152 95.3794C85.77 95.3794 89.5414 91.6197 89.5414 86.9767C89.5414 82.3336 85.77 78.5739 81.1152 78.5739Z" fill="black"/>
<path d="M81.1152 100.409C76.4605 100.409 72.6891 104.168 72.6891 108.811C72.6891 113.455 76.4605 117.214 81.1152 117.214C85.77 117.214 89.5414 113.455 89.5414 108.811C89.5414 104.168 85.77 100.409 81.1152 100.409Z" fill="black"/>
<path d="M81.1152 19.615C76.4605 19.615 72.6891 23.3747 72.6891 28.0177C72.6891 32.6608 76.4605 36.4205 81.1152 36.4205C85.77 36.4205 89.5414 32.6608 89.5414 28.0177C89.5414 23.3747 85.77 19.615 81.1152 19.615Z" fill="black"/>
<path d="M81.1152 41.4498C76.4605 41.4498 72.6891 45.2094 72.6891 49.8525C72.6891 54.4956 76.4605 58.2552 81.1152 58.2552C85.77 58.2552 89.5414 54.4956 89.5414 49.8525C89.5414 45.2094 85.77 41.4498 81.1152 41.4498Z" fill="black"/>
<path d="M203.946 121.196C199.291 121.196 195.516 124.955 195.516 129.598C195.516 134.242 199.291 138.001 203.946 138.001C208.601 138.001 212.376 134.242 212.376 129.598C212.376 124.955 208.601 121.196 203.946 121.196Z" fill="black"/>
<path d="M218.198 123.817C218.181 128.456 221.944 132.228 226.599 132.245C231.254 132.261 235.038 128.51 235.054 123.871C235.07 119.232 231.307 115.46 226.652 115.443C221.998 115.427 218.214 119.178 218.198 123.817Z" fill="black"/>
<path d="M181.49 115.168C176.835 115.168 173.059 118.928 173.059 123.571C173.059 128.214 176.835 131.973 181.49 131.973C186.144 131.973 189.92 128.214 189.92 123.571C189.92 118.928 186.144 115.168 181.49 115.168Z" fill="black"/>
<path d="M248.874 77.37C244.22 77.37 240.444 81.1297 240.444 85.7727C240.444 90.4158 244.216 94.1755 248.874 94.1755C253.533 94.1755 257.305 90.4158 257.305 85.7727C257.305 81.1297 253.529 77.37 248.874 77.37Z" fill="black"/>
<path d="M243.369 99.2335C238.714 99.2335 234.939 102.993 234.939 107.636C234.939 112.279 238.71 116.039 243.369 116.039C248.028 116.039 251.799 112.279 251.799 107.636C251.799 102.993 248.024 99.2335 243.369 99.2335Z" fill="black"/>
<path d="M160.102 77.37C155.447 77.37 151.672 81.1297 151.672 85.7727C151.672 90.4158 155.447 94.1755 160.102 94.1755C164.757 94.1755 168.532 90.4158 168.532 85.7727C168.532 81.1297 164.757 77.37 160.102 77.37Z" fill="black"/>
<path d="M165.796 99.2335C161.141 99.2335 157.366 102.993 157.366 107.636C157.366 112.279 161.141 116.039 165.796 116.039C170.451 116.039 174.226 112.279 174.226 107.636C174.226 102.993 170.451 99.2335 165.796 99.2335Z" fill="black"/>
<path d="M204.583 49.2321C209.237 49.2321 213.013 45.4725 213.013 40.8294C213.013 36.1863 209.237 32.4266 204.583 32.4266C199.928 32.4266 196.152 36.1863 196.152 40.8294C196.152 45.4725 199.928 49.2321 204.583 49.2321Z" fill="black"/>
<path d="M190.331 46.6106C190.347 41.9716 186.584 38.1997 181.929 38.1832C177.275 38.1668 173.491 41.9182 173.474 46.5572C173.458 51.1962 177.221 54.9682 181.876 54.9846C186.531 55.001 190.314 51.2496 190.331 46.6106Z" fill="black"/>
<path d="M227.043 55.2599C231.697 55.2599 235.473 51.5002 235.473 46.8571C235.473 42.2141 231.697 38.4544 227.043 38.4544C222.388 38.4544 218.612 42.2141 218.612 46.8571C218.612 51.5002 222.388 55.2599 227.043 55.2599Z" fill="black"/>
<path d="M165.159 71.1943C169.814 71.1943 173.589 67.4346 173.589 62.7915C173.589 58.1485 169.818 54.3888 165.159 54.3888C160.5 54.3888 156.729 58.1485 156.729 62.7915C156.729 67.4346 160.504 71.1943 165.159 71.1943Z" fill="black"/>
<path d="M242.737 71.1943C247.391 71.1943 251.167 67.4346 251.167 62.7915C251.167 58.1485 247.391 54.3888 242.737 54.3888C238.082 54.3888 234.306 58.1485 234.306 62.7915C234.306 67.4346 238.082 71.1943 242.737 71.1943Z" fill="black"/>
<path d="M753.023 77.37C748.368 77.37 744.592 81.1297 744.592 85.7727C744.592 90.4158 748.364 94.1755 753.023 94.1755C757.682 94.1755 761.453 90.4158 761.453 85.7727C761.453 81.1297 757.677 77.37 753.023 77.37Z" fill="black"/>
<path d="M666.912 77.37C662.258 77.37 658.482 81.1297 658.482 85.7727C658.482 90.4158 662.258 94.1755 666.912 94.1755C671.567 94.1755 675.343 90.4158 675.343 85.7727C675.343 81.1297 671.567 77.37 666.912 77.37Z" fill="black"/>
<path d="M688.44 77.37C683.785 77.37 680.01 81.1297 680.01 85.7727C680.01 90.4158 683.785 94.1755 688.44 94.1755C693.095 94.1755 696.87 90.4158 696.87 85.7727C696.87 81.1297 693.095 77.37 688.44 77.37Z" fill="black"/>
<path d="M709.968 77.37C705.313 77.37 701.537 81.1297 701.537 85.7727C701.537 90.4158 705.313 94.1755 709.968 94.1755C714.622 94.1755 718.398 90.4158 718.398 85.7727C718.398 81.1297 714.622 77.37 709.968 77.37Z" fill="black"/>
<path d="M731.495 77.37C726.841 77.37 723.065 81.1297 723.065 85.7727C723.065 90.4158 726.841 94.1755 731.495 94.1755C736.15 94.1755 739.925 90.4158 739.925 85.7727C739.925 81.1297 736.15 77.37 731.495 77.37Z" fill="black"/>
<path d="M711.393 49.2321C716.048 49.2321 719.823 45.4725 719.823 40.8294C719.823 36.1863 716.048 32.4266 711.393 32.4266C706.738 32.4266 702.963 36.1863 702.963 40.8294C702.963 45.4725 706.738 49.2321 711.393 49.2321Z" fill="black"/>
<path d="M697.141 46.6106C697.158 41.9716 693.395 38.1997 688.74 38.1832C684.085 38.1668 680.301 41.9182 680.285 46.5572C680.269 51.1962 684.032 54.9682 688.686 54.9846C693.341 55.001 697.125 51.2496 697.141 46.6106Z" fill="black"/>
<path d="M733.853 55.2599C738.508 55.2599 742.284 51.5002 742.284 46.8571C742.284 42.2141 738.508 38.4544 733.853 38.4544C729.199 38.4544 725.423 42.2141 725.423 46.8571C725.423 51.5002 729.199 55.2599 733.853 55.2599Z" fill="black"/>
<path d="M671.97 71.1943C676.625 71.1943 680.4 67.4346 680.4 62.7915C680.4 58.1485 676.629 54.3888 671.97 54.3888C667.311 54.3888 663.539 58.1485 663.539 62.7915C663.539 67.4346 667.315 71.1943 671.97 71.1943Z" fill="black"/>
<path d="M711.393 121.812C716.048 121.812 719.823 125.572 719.823 130.215C719.823 134.858 716.048 138.618 711.393 138.618C706.738 138.618 702.963 134.858 702.963 130.215C702.963 125.572 706.738 121.812 711.393 121.812Z" fill="black"/>
<path d="M697.141 124.438C697.158 129.077 693.395 132.849 688.74 132.865C684.085 132.881 680.301 129.13 680.285 124.491C680.269 119.852 684.032 116.08 688.686 116.064C693.341 116.047 697.125 119.799 697.141 124.438Z" fill="black"/>
<path d="M733.853 115.784C738.508 115.784 742.284 119.544 742.284 124.187C742.284 128.83 738.508 132.59 733.853 132.59C729.199 132.59 725.423 128.83 725.423 124.187C725.423 119.544 729.199 115.784 733.853 115.784Z" fill="black"/>
<path d="M671.97 99.854C676.625 99.854 680.4 103.614 680.4 108.257C680.4 112.9 676.629 116.659 671.97 116.659C667.311 116.659 663.539 112.9 663.539 108.257C663.539 103.614 667.315 99.854 671.97 99.854Z" fill="black"/>
<path d="M749.662 71.6503C754.317 71.6503 758.092 67.8907 758.092 63.2476C758.092 58.6045 754.317 54.8448 749.662 54.8448C745.007 54.8448 741.232 58.6045 741.232 63.2476C741.232 67.8907 745.007 71.6503 749.662 71.6503Z" fill="black"/>
<path d="M377.995 176.161C382.649 176.161 386.425 172.401 386.425 167.758C386.425 163.115 382.649 159.355 377.995 159.355C373.34 159.355 369.565 163.115 369.565 167.758C369.565 172.401 373.336 176.161 377.995 176.161Z" fill="black"/>
<path d="M377.995 156.015C382.649 156.015 386.425 152.255 386.425 147.612C386.425 142.969 382.649 139.209 377.995 139.209C373.34 139.209 369.565 142.969 369.565 147.612C369.565 152.255 373.336 156.015 377.995 156.015Z" fill="black"/>
<path d="M377.995 135.865C382.649 135.865 386.425 132.105 386.425 127.462C386.425 122.819 382.649 119.059 377.995 119.059C373.34 119.059 369.565 122.819 369.565 127.462C369.565 132.105 373.336 135.865 377.995 135.865Z" fill="black"/>
<path d="M377.995 115.719C382.649 115.719 386.425 111.959 386.425 107.316C386.425 102.673 382.649 98.9131 377.995 98.9131C373.34 98.9131 369.565 102.673 369.565 107.316C369.565 111.959 373.336 115.719 377.995 115.719Z" fill="black"/>
<path d="M377.995 95.5561C382.649 95.5561 386.425 91.7964 386.425 87.1534C386.425 82.5103 382.649 78.7506 377.995 78.7506C373.34 78.7506 369.565 82.5103 369.565 87.1534C369.565 91.7964 373.336 95.5561 377.995 95.5561Z" fill="black"/>
<path d="M377.995 75.3772C382.649 75.3772 386.425 71.6175 386.425 66.9745C386.425 62.3314 382.649 58.5717 377.995 58.5717C373.34 58.5717 369.565 62.3314 369.565 66.9745C369.565 71.6175 373.336 75.3772 377.995 75.3772Z" fill="black"/>
<path d="M377.995 55.2311C382.65 55.2311 386.425 51.4715 386.425 46.8284C386.425 42.1853 382.65 38.4257 377.995 38.4257C373.34 38.4257 369.565 42.1853 369.565 46.8284C369.565 51.4715 373.336 55.2311 377.995 55.2311Z" fill="black"/>
<path d="M314.912 38.4257C319.566 38.4257 323.338 42.1853 323.338 46.8284C323.338 51.4715 319.566 55.2311 314.912 55.2311C310.257 55.2311 306.485 51.4715 306.485 46.8284C306.485 42.1853 310.257 38.4257 314.912 38.4257Z" fill="black"/>
<path d="M335.564 38.4257C340.219 38.4257 343.99 42.1853 343.99 46.8284C343.99 51.4715 340.219 55.2311 335.564 55.2311C330.909 55.2311 327.138 51.4715 327.138 46.8284C327.138 42.1853 330.909 38.4257 335.564 38.4257Z" fill="black"/>
<path d="M356.677 38.4257C361.331 38.4257 365.103 42.1853 365.103 46.8284C365.103 51.4715 361.331 55.2311 356.677 55.2311C352.022 55.2311 348.251 51.4715 348.251 46.8284C348.251 42.1853 352.022 38.4257 356.677 38.4257Z" fill="black"/>
<path d="M297.209 50.7647C301.863 50.7647 305.635 54.5244 305.635 59.1675C305.635 63.8105 301.863 67.5702 297.209 67.5702C292.554 67.5702 288.783 63.8105 288.783 59.1675C288.783 54.5244 292.554 50.7647 297.209 50.7647Z" fill="black"/>
<path d="M288.569 71.2354C293.224 71.2354 296.995 74.995 296.995 79.6381C296.995 84.2812 293.224 88.0408 288.569 88.0408C283.914 88.0408 280.143 84.2812 280.143 79.6381C280.143 74.995 283.914 71.2354 288.569 71.2354Z" fill="black"/>
<path d="M297.209 91.328C301.863 91.328 305.635 95.0877 305.635 99.7308C305.635 104.374 301.863 108.133 297.209 108.133C292.554 108.133 288.783 104.374 288.783 99.7308C288.783 95.0877 292.554 91.328 297.209 91.328Z" fill="black"/>
<path d="M356.677 106.432C361.331 106.432 365.103 110.192 365.103 114.835C365.103 119.478 361.331 123.238 356.677 123.238C352.022 123.238 348.251 119.478 348.251 114.835C348.251 110.192 352.022 106.432 356.677 106.432Z" fill="black"/>
<path d="M335.564 106.432C340.215 106.432 343.99 110.192 343.99 114.835C343.99 119.478 340.215 123.238 335.564 123.238C330.913 123.238 327.138 119.478 327.138 114.835C327.138 110.192 330.909 106.432 335.564 106.432Z" fill="black"/>
<path d="M314.912 104.029C319.566 104.029 323.338 107.788 323.338 112.431C323.338 117.075 319.566 120.834 314.912 120.834C310.257 120.834 306.485 117.075 306.485 112.431C306.485 107.788 310.257 104.029 314.912 104.029Z" fill="black"/>
<path d="M627.14 0.261963C631.794 0.261963 635.57 4.02162 635.57 8.6647C635.57 13.3078 631.794 17.0674 627.14 17.0674C622.485 17.0674 618.709 13.3078 618.709 8.6647C618.709 4.02162 622.481 0.261963 627.14 0.261963Z" fill="black"/>
<path d="M627.14 20.4121C631.794 20.4121 635.57 24.1718 635.57 28.8149C635.57 33.4579 631.794 37.2176 627.14 37.2176C622.485 37.2176 618.709 33.4579 618.709 28.8149C618.709 24.1718 622.481 20.4121 627.14 20.4121Z" fill="black"/>
<path d="M627.14 40.5582C631.794 40.5582 635.57 44.3178 635.57 48.9609C635.57 53.604 631.794 57.3637 627.14 57.3637C622.485 57.3637 618.709 53.604 618.709 48.9609C618.709 44.3178 622.481 40.5582 627.14 40.5582Z" fill="black"/>
<path d="M627.14 60.7042C631.794 60.7042 635.57 64.4638 635.57 69.1069C635.57 73.75 631.794 77.5096 627.14 77.5096C622.485 77.5096 618.709 73.75 618.709 69.1069C618.709 64.4638 622.481 60.7042 627.14 60.7042Z" fill="black"/>
<path d="M627.14 80.8666C631.794 80.8666 635.57 84.6263 635.57 89.2694C635.57 93.9125 631.794 97.6721 627.14 97.6721C622.485 97.6721 618.709 93.9125 618.709 89.2694C618.709 84.6263 622.481 80.8666 627.14 80.8666Z" fill="black"/>
<path d="M627.14 101.046C631.794 101.046 635.57 104.805 635.57 109.448C635.57 114.091 631.794 117.851 627.14 117.851C622.485 117.851 618.709 114.091 618.709 109.448C618.709 104.805 622.481 101.046 627.14 101.046Z" fill="black"/>
<path d="M627.14 121.196C631.794 121.196 635.57 124.955 635.57 129.598C635.57 134.242 631.794 138.001 627.14 138.001C622.485 138.001 618.709 134.242 618.709 129.598C618.709 124.955 622.481 121.196 627.14 121.196Z" fill="black"/>
<path d="M564.056 137.997C568.711 137.997 572.483 134.237 572.483 129.594C572.483 124.951 568.711 121.192 564.056 121.192C559.402 121.192 555.63 124.951 555.63 129.594C555.63 134.237 559.402 137.997 564.056 137.997Z" fill="black"/>
<path d="M584.709 137.997C589.364 137.997 593.135 134.237 593.135 129.594C593.135 124.951 589.364 121.192 584.709 121.192C580.054 121.192 576.283 124.951 576.283 129.594C576.283 134.237 580.054 137.997 584.709 137.997Z" fill="black"/>
<path d="M605.826 137.997C610.48 137.997 614.252 134.237 614.252 129.594C614.252 124.951 610.48 121.192 605.826 121.192C601.171 121.192 597.4 124.951 597.4 129.594C597.4 134.237 601.171 137.997 605.826 137.997Z" fill="black"/>
<path d="M546.358 125.658C551.013 125.658 554.784 121.898 554.784 117.255C554.784 112.612 551.013 108.853 546.358 108.853C541.703 108.853 537.932 112.612 537.932 117.255C537.932 121.898 541.703 125.658 546.358 125.658Z" fill="black"/>
<path d="M537.714 105.187C542.369 105.187 546.14 101.428 546.14 96.7846C546.14 92.1416 542.369 88.3819 537.714 88.3819C533.059 88.3819 529.288 92.1416 529.288 96.7846C529.288 101.428 533.059 105.187 537.714 105.187Z" fill="black"/>
<path d="M546.358 85.0947C551.013 85.0947 554.784 81.3351 554.784 76.692C554.784 72.0489 551.013 68.2892 546.358 68.2892C541.703 68.2892 537.932 72.0489 537.932 76.692C537.932 81.3351 541.703 85.0947 546.358 85.0947Z" fill="black"/>
<path d="M605.826 69.9904C610.48 69.9904 614.252 66.2307 614.252 61.5876C614.252 56.9445 610.48 53.1849 605.826 53.1849C601.171 53.1849 597.4 56.9445 597.4 61.5876C597.4 66.2307 601.171 69.9904 605.826 69.9904Z" fill="black"/>
<path d="M584.709 69.9904C589.36 69.9904 593.135 66.2307 593.135 61.5876C593.135 56.9445 589.36 53.1849 584.709 53.1849C580.058 53.1849 576.283 56.9445 576.283 61.5876C576.283 66.2307 580.054 69.9904 584.709 69.9904Z" fill="black"/>
<path d="M564.056 72.3941C568.711 72.3941 572.483 68.6344 572.483 63.9914C572.483 59.3483 568.711 55.5886 564.056 55.5886C559.402 55.5886 555.63 59.3483 555.63 63.9914C555.63 68.6344 559.402 72.3941 564.056 72.3941Z" fill="black"/>
</svg>
