<svg width="88" height="130" viewBox="0 0 88 130" fill="none" xmlns="http://www.w3.org/2000/svg">
<path d="M9.57324 112.391C14.3861 112.391 18.288 116.292 18.2881 121.104C18.2881 125.917 14.3861 129.818 9.57324 129.818C4.76124 129.818 0.859375 125.917 0.859375 121.104C0.859482 116.292 4.76131 112.391 9.57324 112.391ZM27.0029 98.4531C31.8159 98.4531 35.7168 102.355 35.7168 107.167C35.7166 111.98 31.8158 115.882 27.0029 115.882C22.1901 115.882 18.2892 111.98 18.2891 107.167C18.2891 102.355 22.19 98.4532 27.0029 98.4531ZM44.3936 85.3789C49.2056 85.3789 53.1084 89.2804 53.1084 94.0928C53.1084 98.9057 49.2055 102.807 44.3936 102.807C39.5808 102.806 35.6797 98.9056 35.6797 94.0928C35.6797 89.2805 39.5808 85.3791 44.3936 85.3789ZM61.8633 70.5703C66.6751 70.5705 70.577 74.4717 70.5771 79.2842C70.5771 84.0967 66.6751 87.9979 61.8633 87.998C57.0503 87.998 53.1484 84.0968 53.1484 79.2842C53.1486 74.4716 57.0504 70.5703 61.8633 70.5703ZM79.292 55.7539C84.1049 55.7539 88.0057 59.6552 88.0059 64.4678C88.0059 69.2804 84.105 73.1816 79.292 73.1816C74.48 73.1816 70.5781 69.2804 70.5781 64.4678C70.5783 59.6552 74.4801 55.7539 79.292 55.7539ZM61.8633 41.8242C66.6751 41.8244 70.577 45.7256 70.5771 50.5381C70.5771 55.3506 66.6751 59.2518 61.8633 59.252C57.0503 59.252 53.1484 55.3507 53.1484 50.5381C53.1486 45.7255 57.0504 41.8242 61.8633 41.8242ZM44.3936 27C49.2055 27 53.1083 30.9013 53.1084 35.7139C53.1084 40.5265 49.2056 44.4277 44.3936 44.4277C39.5808 44.4275 35.6797 40.5263 35.6797 35.7139C35.6798 30.9014 39.5808 27.0002 44.3936 27ZM27.0029 13.0684C31.8159 13.0684 35.7167 16.9697 35.7168 21.7822C35.7168 26.5949 31.8159 30.4961 27.0029 30.4961C22.19 30.4961 18.2891 26.5949 18.2891 21.7822C18.2892 16.9697 22.19 13.0684 27.0029 13.0684ZM9.57324 0C14.3861 0.000131932 18.288 3.90136 18.2881 8.71387C18.2881 13.5264 14.3861 17.4276 9.57324 17.4277C4.76124 17.4277 0.859375 13.5265 0.859375 8.71387C0.859501 3.90127 4.76132 0 9.57324 0Z" fill="black"/>
</svg>
