<svg width="780" height="143" viewBox="0 0 780 143" fill="none" xmlns="http://www.w3.org/2000/svg">
<path d="M115.573 125.453C120.386 125.453 124.288 129.355 124.288 134.167C124.288 138.98 120.386 142.881 115.573 142.881C110.761 142.881 106.859 138.98 106.859 134.167C106.859 129.355 110.761 125.453 115.573 125.453ZM137.331 125.453C142.144 125.453 146.045 129.355 146.045 134.167C146.045 138.98 142.144 142.881 137.331 142.881C132.519 142.881 128.617 138.98 128.617 134.167C128.617 129.355 132.519 125.453 137.331 125.453ZM170.488 125.453C175.3 125.453 179.202 129.355 179.202 134.167C179.202 138.98 175.3 142.881 170.488 142.881C165.675 142.881 161.773 138.98 161.773 134.167C161.773 129.355 165.675 125.453 170.488 125.453ZM246.503 125.453C251.316 125.453 255.217 129.355 255.217 134.167C255.217 138.98 251.316 142.881 246.503 142.881C241.691 142.881 237.789 138.98 237.789 134.167C237.789 129.355 241.691 125.453 246.503 125.453ZM290.097 125.453C294.91 125.453 298.811 129.355 298.811 134.167C298.811 138.98 294.91 142.881 290.097 142.881C285.284 142.881 281.383 138.98 281.383 134.167C281.383 129.355 285.284 125.453 290.097 125.453ZM331.363 125.453C336.175 125.453 340.077 129.355 340.077 134.167C340.077 138.98 336.175 142.881 331.363 142.881C326.55 142.881 322.648 138.98 322.648 134.167C322.648 129.355 326.55 125.453 331.363 125.453ZM352.253 125.453C357.066 125.453 360.967 129.355 360.967 134.167C360.967 138.98 357.066 142.881 352.253 142.881C347.44 142.881 343.539 138.98 343.539 134.167C343.539 129.355 347.44 125.453 352.253 125.453ZM373.183 125.453C377.996 125.453 381.897 129.355 381.897 134.167C381.897 138.98 377.996 142.881 373.183 142.881C368.37 142.881 364.469 138.98 364.469 134.167C364.469 129.355 368.37 125.453 373.183 125.453ZM394.081 125.453C398.894 125.453 402.795 129.355 402.795 134.167C402.795 138.98 398.894 142.881 394.081 142.881C389.269 142.881 385.367 138.98 385.367 134.167C385.367 129.355 389.269 125.453 394.081 125.453ZM414.972 125.453C419.785 125.453 423.686 129.355 423.686 134.167C423.686 138.98 419.785 142.881 414.972 142.881C410.159 142.881 406.258 138.98 406.258 134.167C406.258 129.355 410.159 125.453 414.972 125.453ZM456.191 125.453C461.003 125.453 464.905 129.355 464.905 134.167C464.905 138.98 461.003 142.881 456.191 142.881C451.378 142.881 447.477 138.98 447.477 134.167C447.477 129.355 451.378 125.453 456.191 125.453ZM586.214 125.453C591.027 125.453 594.928 129.355 594.928 134.167C594.928 138.98 591.027 142.881 586.214 142.881C581.401 142.881 577.5 138.98 577.5 134.167C577.5 129.355 581.401 125.453 586.214 125.453ZM607.12 125.453C611.933 125.453 615.834 129.355 615.834 134.167C615.834 138.98 611.933 142.881 607.12 142.881C602.308 142.881 598.406 138.98 598.406 134.167C598.406 129.355 602.308 125.453 607.12 125.453ZM628.042 125.453C632.855 125.453 636.756 129.355 636.756 134.167C636.756 138.98 632.855 142.881 628.042 142.881C623.23 142.881 619.328 138.98 619.328 134.167C619.328 129.355 623.23 125.453 628.042 125.453ZM649.8 125.453C654.613 125.453 658.514 129.355 658.514 134.167C658.514 138.98 654.613 142.881 649.8 142.881C644.987 142.881 641.086 138.98 641.086 134.167C641.086 129.355 644.987 125.453 649.8 125.453ZM8.71387 125.34C13.5265 125.34 17.4277 129.242 17.4277 134.054C17.4277 138.867 13.5265 142.768 8.71387 142.768C3.9013 142.767 0 138.867 0 134.054C8.24774e-06 129.242 3.90131 125.34 8.71387 125.34ZM93.8232 125.174C98.6359 125.189 102.525 129.102 102.51 133.915C102.495 138.728 98.5811 142.617 93.7686 142.602C88.9561 142.585 85.067 138.673 85.082 133.86C85.0971 129.048 89.0108 125.158 93.8232 125.174ZM223.042 123.703C227.855 123.703 231.756 127.605 231.756 132.417C231.756 137.23 227.855 141.131 223.042 141.131C218.23 141.131 214.328 137.23 214.328 132.417C214.328 127.605 218.23 123.703 223.042 123.703ZM701.573 119.391C706.386 119.391 710.288 123.292 710.288 128.104C710.288 132.917 706.386 136.818 701.573 136.818C696.761 136.818 692.859 132.917 692.859 128.104C692.859 123.292 696.761 119.391 701.573 119.391ZM268.331 117.6C273.144 117.6 277.045 121.501 277.045 126.314C277.045 131.126 273.144 135.028 268.331 135.028C263.519 135.028 259.617 131.126 259.617 126.314C259.617 121.501 263.519 117.6 268.331 117.6ZM567.058 113.256C571.871 113.256 575.772 117.157 575.772 121.97C575.772 126.783 571.871 130.684 567.058 130.684C562.245 130.683 558.344 126.783 558.344 121.97C558.344 117.157 562.245 113.256 567.058 113.256ZM155.683 110.65C160.496 110.65 164.397 114.552 164.397 119.364C164.397 124.177 160.496 128.079 155.683 128.079C150.87 128.079 146.969 124.177 146.969 119.364C146.969 114.552 150.87 110.651 155.683 110.65ZM76.3701 110.643C81.1827 110.643 85.085 114.544 85.085 119.357C85.0847 124.169 81.1826 128.071 76.3701 128.071C71.5577 128.071 67.6565 124.169 67.6562 119.357C67.6562 114.545 71.5575 110.643 76.3701 110.643ZM719.003 105.453C723.816 105.453 727.717 109.355 727.717 114.167C727.717 118.98 723.816 122.882 719.003 122.882C714.19 122.882 710.289 118.98 710.289 114.167C710.289 109.355 714.19 105.453 719.003 105.453ZM331.363 104.547C336.175 104.547 340.077 108.448 340.077 113.261C340.077 118.074 336.175 121.974 331.363 121.975C326.55 121.975 322.648 118.074 322.648 113.261C322.649 108.448 326.55 104.547 331.363 104.547ZM456.191 104.541C461.003 104.541 464.905 108.442 464.905 113.255C464.905 118.068 461.003 121.969 456.191 121.969C451.378 121.969 447.477 118.068 447.477 113.255C447.477 108.442 451.378 104.541 456.191 104.541ZM211.691 103.67C216.503 103.67 220.405 107.571 220.405 112.384C220.405 117.197 216.503 121.097 211.691 121.098C206.878 121.098 202.977 117.197 202.977 112.384C202.977 107.571 206.878 103.67 211.691 103.67ZM290.097 103.67C294.91 103.67 298.81 107.571 298.811 112.384C298.811 117.197 294.91 121.098 290.097 121.098C285.284 121.097 281.383 117.197 281.383 112.384C281.383 107.571 285.284 103.67 290.097 103.67ZM649.8 101.92C654.613 101.92 658.514 105.821 658.514 110.634C658.514 115.447 654.613 119.348 649.8 119.348C644.987 119.348 641.086 115.447 641.086 110.634C641.086 105.821 644.987 101.92 649.8 101.92ZM8.71387 100.465C13.5265 100.465 17.4277 104.367 17.4277 109.179C17.4277 113.992 13.5265 117.893 8.71387 117.893C3.9013 117.892 0 113.992 0 109.179C4.12387e-06 104.367 3.90131 100.465 8.71387 100.465ZM134.73 97.5762C139.542 97.5764 143.444 101.478 143.444 106.29C143.444 111.103 139.542 115.004 134.73 115.004C129.917 115.004 126.016 111.103 126.016 106.29C126.016 101.478 129.917 97.5762 134.73 97.5762ZM736.394 92.3789C741.206 92.3789 745.108 96.2804 745.108 101.093C745.108 105.906 741.206 109.807 736.394 109.807C731.581 109.806 727.68 105.906 727.68 101.093C727.68 96.2805 731.581 92.3791 736.394 92.3789ZM567.058 90.6035C571.871 90.6035 575.772 94.5048 575.772 99.3174C575.772 104.13 571.871 108.032 567.058 108.032C562.245 108.032 558.344 104.13 558.344 99.3174C558.344 94.5049 562.245 90.6037 567.058 90.6035ZM76.3701 88.8613C81.1826 88.8613 85.0848 92.7627 85.085 97.5752C85.085 102.388 81.1827 106.289 76.3701 106.289C71.5575 106.289 67.6562 102.388 67.6562 97.5752C67.6564 92.7628 71.5576 88.8615 76.3701 88.8613ZM155.683 88.8613C160.496 88.8613 164.397 92.7627 164.397 97.5752C164.397 102.388 160.496 106.289 155.683 106.289C150.87 106.289 146.969 102.388 146.969 97.5752C146.969 92.7628 150.87 88.8615 155.683 88.8613ZM118.191 84.5C123.003 84.5002 126.905 88.4014 126.905 93.2139C126.905 98.0263 123.003 101.928 118.191 101.928C113.378 101.928 109.477 98.0265 109.477 93.2139C109.477 88.4013 113.378 84.5 118.191 84.5ZM331.363 83.6367C336.175 83.6369 340.077 87.5381 340.077 92.3506C340.077 97.1631 336.175 101.065 331.363 101.065C326.55 101.065 322.648 97.1632 322.648 92.3506C322.649 87.538 326.55 83.6367 331.363 83.6367ZM456.191 83.6289C461.003 83.6291 464.905 87.5303 464.905 92.3428C464.905 97.1552 461.003 101.056 456.191 101.057C451.378 101.057 447.477 97.1554 447.477 92.3428C447.477 87.5302 451.378 83.6289 456.191 83.6289ZM211.691 81.8828C216.503 81.883 220.405 85.7842 220.405 90.5967C220.405 95.4091 216.503 99.3103 211.691 99.3105C206.878 99.3105 202.977 95.4093 202.977 90.5967C202.977 85.7841 206.878 81.8828 211.691 81.8828ZM290.097 81.8828C294.91 81.8828 298.81 85.7841 298.811 90.5967C298.811 95.4093 294.91 99.3105 290.097 99.3105C285.284 99.3104 281.383 95.4092 281.383 90.5967C281.383 85.7842 285.284 81.883 290.097 81.8828ZM586.214 78.3965C591.027 78.3965 594.928 82.2978 594.928 87.1104C594.928 91.923 591.027 95.8242 586.214 95.8242C581.401 95.8242 577.5 91.9229 577.5 87.1104C577.5 82.2978 581.401 78.3966 586.214 78.3965ZM607.12 78.3965C611.933 78.3966 615.834 82.2978 615.834 87.1104C615.834 91.9229 611.933 95.8242 607.12 95.8242C602.308 95.8242 598.406 91.923 598.406 87.1104C598.406 82.2978 602.308 78.3965 607.12 78.3965ZM628.042 78.3965C632.855 78.3965 636.756 82.2978 636.756 87.1104C636.756 91.923 632.855 95.8242 628.042 95.8242C623.23 95.8242 619.328 91.923 619.328 87.1104C619.328 82.2978 623.23 78.3965 628.042 78.3965ZM649.8 78.3965C654.613 78.3965 658.514 82.2978 658.514 87.1104C658.514 91.923 654.613 95.8242 649.8 95.8242C644.987 95.8241 641.086 91.9229 641.086 87.1104C641.086 82.2978 644.987 78.3966 649.8 78.3965ZM753.863 77.5703C758.675 77.5705 762.577 81.4717 762.577 86.2842C762.577 91.0967 758.675 94.9979 753.863 94.998C749.05 94.998 745.148 91.0968 745.148 86.2842C745.149 81.4716 749.05 77.5703 753.863 77.5703ZM8.71387 75.5957C13.5265 75.5957 17.4276 79.497 17.4277 84.3096C17.4277 89.1222 13.5265 93.0234 8.71387 93.0234C3.9013 93.0233 0 89.1221 0 84.3096C0.000127818 79.4971 3.90138 75.5958 8.71387 75.5957ZM76.3701 67.0723C81.1827 67.0723 85.0849 70.9736 85.085 75.7861C85.085 80.5988 81.1827 84.5 76.3701 84.5C71.5575 84.4999 67.6562 80.5987 67.6562 75.7861C67.6563 70.9737 71.5576 67.0724 76.3701 67.0723ZM155.683 67.0723C160.496 67.0723 164.397 70.9736 164.397 75.7861C164.397 80.5988 160.496 84.5 155.683 84.5C150.87 84.4998 146.969 80.5987 146.969 75.7861C146.969 70.9737 150.87 67.0725 155.683 67.0723ZM477.081 63.5918C481.894 63.5918 485.795 67.4931 485.795 72.3057C485.795 77.1182 481.894 81.0195 477.081 81.0195C472.269 81.0195 468.367 77.1183 468.367 72.3057C468.367 67.4931 472.269 63.5918 477.081 63.5918ZM536.363 63.5918C541.175 63.592 545.077 67.4932 545.077 72.3057C545.077 77.1182 541.175 81.0194 536.363 81.0195C531.55 81.0195 527.648 77.1183 527.648 72.3057C527.649 67.4931 531.55 63.5918 536.363 63.5918ZM771.292 62.7539C776.105 62.7539 780.006 66.6552 780.006 71.4678C780.006 76.2804 776.105 80.1816 771.292 80.1816C766.48 80.1816 762.578 76.2804 762.578 71.4678C762.578 66.6552 766.48 62.7539 771.292 62.7539ZM331.363 62.7344C336.175 62.7345 340.077 66.6358 340.077 71.4482C340.077 76.2608 336.175 80.162 331.363 80.1621C326.55 80.1621 322.648 76.2608 322.648 71.4482C322.649 66.6357 326.55 62.7344 331.363 62.7344ZM352.308 62.7266C357.121 62.7266 361.022 66.6279 361.022 71.4404C361.022 76.2531 357.121 80.1543 352.308 80.1543C347.495 80.1541 343.594 76.253 343.594 71.4404C343.594 66.628 347.495 62.7268 352.308 62.7266ZM373.199 62.7266C378.011 62.7267 381.913 66.628 381.913 71.4404C381.913 76.2531 378.011 80.1542 373.199 80.1543C368.386 80.1543 364.484 76.2531 364.484 71.4404C364.484 66.6279 368.386 62.7266 373.199 62.7266ZM394.136 62.7266C398.949 62.7266 402.85 66.6279 402.85 71.4404C402.85 76.2531 398.949 80.1543 394.136 80.1543C389.323 80.1542 385.422 76.253 385.422 71.4404C385.422 66.628 389.323 62.7267 394.136 62.7266ZM456.191 62.7109C461.003 62.7112 464.905 66.6124 464.905 71.4248C464.905 76.2374 461.003 80.1385 456.191 80.1387C451.378 80.1387 447.477 76.2375 447.477 71.4248C447.477 66.6123 451.378 62.7109 456.191 62.7109ZM211.691 60.1055C216.503 60.1057 220.405 64.007 220.405 68.8193C220.405 73.6319 216.503 77.533 211.691 77.5332C206.878 77.5332 202.977 73.632 202.977 68.8193C202.977 64.0068 206.878 60.1055 211.691 60.1055ZM290.097 60.1055C294.91 60.1055 298.81 64.0068 298.811 68.8193C298.811 73.632 294.91 77.5332 290.097 77.5332C285.284 77.533 281.383 73.6319 281.383 68.8193C281.383 64.0069 285.284 60.1056 290.097 60.1055ZM649.8 54.8906C654.613 54.8906 658.514 58.792 658.514 63.6045C658.514 68.4172 654.613 72.3184 649.8 72.3184C644.987 72.3183 641.086 68.4171 641.086 63.6045C641.086 58.792 644.987 54.8907 649.8 54.8906ZM495.37 54.0059C500.183 54.0059 504.084 57.9072 504.084 62.7197C504.084 67.5324 500.183 71.4335 495.37 71.4336C490.558 71.4336 486.656 67.5324 486.656 62.7197C486.656 57.9072 490.558 54.0059 495.37 54.0059ZM517.152 54.0059C521.964 54.0061 525.866 57.9073 525.866 62.7197C525.866 67.5323 521.964 71.4334 517.152 71.4336C512.339 71.4336 508.438 67.5324 508.438 62.7197C508.439 57.9072 512.339 54.0059 517.152 54.0059ZM8.71387 50.7402C13.5265 50.7402 17.4276 54.6415 17.4277 59.4541C17.4277 64.2667 13.5265 68.168 8.71387 68.168C3.9013 68.1678 0 64.2666 0 59.4541C0.000125756 54.6416 3.90138 50.7404 8.71387 50.7402ZM753.863 48.8242C758.675 48.8244 762.577 52.7256 762.577 57.5381C762.577 62.3506 758.675 66.2518 753.863 66.252C749.05 66.252 745.148 62.3507 745.148 57.5381C745.149 52.7255 749.05 48.8242 753.863 48.8242ZM76.3701 45.3066C81.1826 45.3066 85.0849 49.208 85.085 54.0205C85.085 58.8332 81.1827 62.7344 76.3701 62.7344C71.5575 62.7342 67.6562 58.8331 67.6562 54.0205C67.6564 49.2081 71.5576 45.3068 76.3701 45.3066ZM155.683 45.3066C160.496 45.3066 164.397 49.208 164.397 54.0205C164.397 58.8332 160.496 62.7344 155.683 62.7344C150.87 62.7342 146.969 58.8331 146.969 54.0205C146.969 49.2081 150.87 45.3068 155.683 45.3066ZM331.363 41.8223C336.175 41.8224 340.077 45.7237 340.077 50.5361C340.077 55.3487 336.175 59.2499 331.363 59.25C326.55 59.25 322.648 55.3488 322.648 50.5361C322.649 45.7236 326.55 41.8223 331.363 41.8223ZM456.191 41.8086C461.003 41.8088 464.905 45.71 464.905 50.5225C464.905 55.3349 461.003 59.2361 456.191 59.2363C451.378 59.2363 447.477 55.3351 447.477 50.5225C447.477 45.7099 451.378 41.8086 456.191 41.8086ZM211.691 38.3262C216.503 38.3264 220.405 42.2277 220.405 47.04C220.405 51.8526 216.503 55.7537 211.691 55.7539C206.878 55.7539 202.977 51.8527 202.977 47.04C202.977 42.2275 206.878 38.3262 211.691 38.3262ZM290.097 38.3262C294.91 38.3262 298.81 42.2275 298.811 47.04C298.811 51.8527 294.91 55.7539 290.097 55.7539C285.284 55.7537 281.383 51.8526 281.383 47.04C281.383 42.2276 285.284 38.3263 290.097 38.3262ZM588.839 37.4609C593.652 37.4609 597.553 41.3623 597.553 46.1748C597.553 50.9875 593.652 54.8887 588.839 54.8887C584.026 54.8886 580.125 50.9875 580.125 46.1748C580.125 41.3623 584.026 37.461 588.839 37.4609ZM611.48 37.4609C616.292 37.4612 620.194 41.3625 620.194 46.1748C620.194 50.9873 616.292 54.8884 611.48 54.8887C606.667 54.8887 602.766 50.9875 602.766 46.1748C602.766 41.3623 606.668 37.4609 611.48 37.4609ZM634.144 37.4609C638.955 37.4609 642.858 41.3623 642.858 46.1748C642.858 50.9875 638.956 54.8887 634.144 54.8887C629.331 54.8884 625.43 50.9874 625.43 46.1748C625.43 41.3624 629.331 37.4612 634.144 37.4609ZM736.394 34C741.205 34 745.108 37.9013 745.108 42.7139C745.108 47.5265 741.206 51.4277 736.394 51.4277C731.581 51.4275 727.68 47.5263 727.68 42.7139C727.68 37.9014 731.581 34.0002 736.394 34ZM8.71387 25.8633C13.5265 25.8633 17.4276 29.7646 17.4277 34.5771C17.4277 39.3898 13.5265 43.291 8.71387 43.291C3.9013 43.2909 0 39.3898 0 34.5771C8.86505e-05 29.7647 3.90136 25.8634 8.71387 25.8633ZM76.3701 23.5254C81.1826 23.5254 85.0848 27.4267 85.085 32.2393C85.085 37.0519 81.1827 40.9531 76.3701 40.9531C71.5575 40.953 67.6562 37.0518 67.6562 32.2393C67.6564 27.4268 71.5576 23.5255 76.3701 23.5254ZM155.683 23.5254C160.496 23.5254 164.397 27.4267 164.397 32.2393C164.397 37.0519 160.496 40.9531 155.683 40.9531C150.87 40.9529 146.969 37.0517 146.969 32.2393C146.969 27.4268 150.87 23.5256 155.683 23.5254ZM331.363 20.9043C336.175 20.9044 340.077 24.8057 340.077 29.6182C340.077 34.4307 336.175 38.3319 331.363 38.332C326.55 38.332 322.648 34.4308 322.648 29.6182C322.649 24.8056 326.55 20.9043 331.363 20.9043ZM719.003 20.0684C723.816 20.0684 727.717 23.9697 727.717 28.7822C727.717 33.5949 723.816 37.4961 719.003 37.4961C714.19 37.4961 710.289 33.5949 710.289 28.7822C710.289 23.9697 714.19 20.0684 719.003 20.0684ZM701.573 7C706.386 7.00013 710.288 10.9014 710.288 15.7139C710.288 20.5264 706.386 24.4276 701.573 24.4277C696.761 24.4277 692.859 20.5265 692.859 15.7139C692.86 10.9013 696.761 7 701.573 7ZM90.3311 6.09961C95.1438 6.11473 99.0328 10.0282 99.0176 14.8408C99.0024 19.6534 95.0889 23.5424 90.2764 23.5273C85.4638 23.5121 81.5748 19.5986 81.5898 14.7861C81.6049 9.97355 85.5186 6.08462 90.3311 6.09961ZM113.823 6.09375C118.636 6.09388 122.538 9.99516 122.538 14.8076C122.538 19.6202 118.636 23.5214 113.823 23.5215C109.011 23.5215 105.109 19.6203 105.109 14.8076C105.109 9.99508 109.011 6.09375 113.823 6.09375ZM137.331 6.09375C142.144 6.09378 146.045 9.9951 146.045 14.8076C146.045 19.6203 142.144 23.5215 137.331 23.5215C132.519 23.5215 128.617 19.6203 128.617 14.8076C128.617 9.99508 132.519 6.09375 137.331 6.09375ZM8.71387 1C13.5265 1 17.4276 4.90131 17.4277 9.71387C17.4277 14.5265 13.5265 18.4277 8.71387 18.4277C3.9013 18.4276 0 14.5264 0 9.71387C0.000114935 4.9014 3.90137 1.00014 8.71387 1ZM331.363 0C336.175 0.000148455 340.077 3.90141 340.077 8.71387C340.077 13.5264 336.175 17.4276 331.363 17.4277C326.55 17.4277 322.648 13.5265 322.648 8.71387C322.649 3.90131 326.55 0 331.363 0ZM352.253 0C357.066 0 360.967 3.90131 360.967 8.71387C360.967 13.5265 357.066 17.4277 352.253 17.4277C347.44 17.4277 343.539 13.5265 343.539 8.71387C343.539 3.90134 347.44 3.29829e-05 352.253 0ZM373.183 0C377.996 0 381.897 3.90131 381.897 8.71387C381.897 13.5265 377.996 17.4277 373.183 17.4277C368.37 17.4275 364.469 13.5264 364.469 8.71387C364.469 3.90145 368.37 0.000214383 373.183 0ZM394.081 0C398.894 3.29839e-05 402.795 3.90134 402.795 8.71387C402.795 13.5265 398.894 17.4277 394.081 17.4277C389.269 17.4277 385.367 13.5265 385.367 8.71387C385.367 3.90131 389.269 0 394.081 0ZM414.972 0C419.785 0 423.685 3.90131 423.686 8.71387C423.686 13.5265 419.785 17.4277 414.972 17.4277C410.159 17.4276 406.258 13.5264 406.258 8.71387C406.258 3.90142 410.159 0.000164911 414.972 0Z" fill="black"/>
</svg>
