<svg width="180" height="142" viewBox="0 0 180 142" fill="none" xmlns="http://www.w3.org/2000/svg">
<path d="M8.71387 124.34C13.5265 124.34 17.4277 128.242 17.4277 133.054C17.4277 137.867 13.5265 141.768 8.71387 141.768C3.9013 141.767 0 137.867 0 133.054C8.24774e-06 128.242 3.90131 124.34 8.71387 124.34ZM8.71387 99.4648C13.5265 99.4648 17.4277 103.367 17.4277 108.179C17.4277 112.992 13.5265 116.893 8.71387 116.893C3.9013 116.892 0 112.992 0 108.179C4.12387e-06 103.367 3.90131 99.465 8.71387 99.4648ZM8.71387 74.5957C13.5265 74.5957 17.4276 78.497 17.4277 83.3096C17.4277 88.1222 13.5265 92.0234 8.71387 92.0234C3.9013 92.0233 0 88.1221 0 83.3096C0.000127818 78.4971 3.90138 74.5958 8.71387 74.5957ZM8.71387 49.7402C13.5265 49.7402 17.4276 53.6415 17.4277 58.4541C17.4277 63.2667 13.5265 67.168 8.71387 67.168C3.9013 67.1678 0 63.2666 0 58.4541C0.000125756 53.6416 3.90138 49.7404 8.71387 49.7402ZM8.71387 24.8633C13.5265 24.8633 17.4276 28.7646 17.4277 33.5771C17.4277 38.3898 13.5265 42.291 8.71387 42.291C3.9013 42.2909 0 38.3898 0 33.5771C8.86505e-05 28.7647 3.90136 24.8634 8.71387 24.8633ZM8.71387 0C13.5265 0 17.4276 3.90131 17.4277 8.71387C17.4277 13.5265 13.5265 17.4277 8.71387 17.4277C3.9013 17.4276 0 13.5264 0 8.71387C0.000114935 3.9014 3.90137 0.000136577 8.71387 0Z" fill="black"/>
<path d="M115.573 124.453C120.386 124.453 124.288 128.355 124.288 133.167C124.288 137.98 120.386 141.881 115.573 141.881C110.761 141.881 106.859 137.98 106.859 133.167C106.859 128.355 110.761 124.453 115.573 124.453ZM137.331 124.453C142.144 124.453 146.045 128.355 146.045 133.167C146.045 137.98 142.144 141.881 137.331 141.881C132.519 141.881 128.617 137.98 128.617 133.167C128.617 128.355 132.519 124.453 137.331 124.453ZM170.488 124.453C175.3 124.453 179.202 128.355 179.202 133.167C179.202 137.98 175.3 141.881 170.488 141.881C165.675 141.881 161.773 137.98 161.773 133.167C161.773 128.355 165.675 124.453 170.488 124.453ZM93.8232 124.174C98.6359 124.189 102.525 128.102 102.51 132.915C102.495 137.728 98.5811 141.617 93.7686 141.602C88.9561 141.585 85.067 137.673 85.082 132.86C85.0971 128.048 89.0108 124.158 93.8232 124.174ZM155.683 109.65C160.496 109.65 164.397 113.552 164.397 118.364C164.397 123.177 160.496 127.079 155.683 127.079C150.87 127.079 146.969 123.177 146.969 118.364C146.969 113.552 150.87 109.651 155.683 109.65ZM76.3701 109.643C81.1827 109.643 85.085 113.544 85.085 118.357C85.0847 123.169 81.1826 127.071 76.3701 127.071C71.5577 127.071 67.6565 123.169 67.6562 118.357C67.6562 113.545 71.5575 109.643 76.3701 109.643ZM134.73 96.5762C139.542 96.5764 143.444 100.478 143.444 105.29C143.444 110.103 139.542 114.004 134.73 114.004C129.917 114.004 126.016 110.103 126.016 105.29C126.016 100.478 129.917 96.5762 134.73 96.5762ZM76.3701 87.8613C81.1826 87.8613 85.0848 91.7627 85.085 96.5752C85.085 101.388 81.1827 105.289 76.3701 105.289C71.5575 105.289 67.6562 101.388 67.6562 96.5752C67.6564 91.7628 71.5576 87.8615 76.3701 87.8613ZM155.683 87.8613C160.496 87.8613 164.397 91.7627 164.397 96.5752C164.397 101.388 160.496 105.289 155.683 105.289C150.87 105.289 146.969 101.388 146.969 96.5752C146.969 91.7628 150.87 87.8615 155.683 87.8613ZM118.191 83.5C123.003 83.5002 126.905 87.4014 126.905 92.2139C126.905 97.0263 123.003 100.928 118.191 100.928C113.378 100.928 109.477 97.0265 109.477 92.2139C109.477 87.4013 113.378 83.5 118.191 83.5ZM76.3701 66.0723C81.1827 66.0723 85.0849 69.9736 85.085 74.7861C85.085 79.5988 81.1827 83.5 76.3701 83.5C71.5575 83.4999 67.6562 79.5987 67.6562 74.7861C67.6563 69.9737 71.5576 66.0724 76.3701 66.0723ZM155.683 66.0723C160.496 66.0723 164.397 69.9736 164.397 74.7861C164.397 79.5988 160.496 83.5 155.683 83.5C150.87 83.4998 146.969 79.5987 146.969 74.7861C146.969 69.9737 150.87 66.0725 155.683 66.0723ZM76.3701 44.3066C81.1826 44.3066 85.0849 48.208 85.085 53.0205C85.085 57.8332 81.1827 61.7344 76.3701 61.7344C71.5575 61.7342 67.6562 57.8331 67.6562 53.0205C67.6564 48.2081 71.5576 44.3068 76.3701 44.3066ZM155.683 44.3066C160.496 44.3066 164.397 48.208 164.397 53.0205C164.397 57.8332 160.496 61.7344 155.683 61.7344C150.87 61.7342 146.969 57.8331 146.969 53.0205C146.969 48.2081 150.87 44.3068 155.683 44.3066ZM76.3701 22.5254C81.1826 22.5254 85.0848 26.4267 85.085 31.2393C85.085 36.0519 81.1827 39.9531 76.3701 39.9531C71.5575 39.953 67.6562 36.0518 67.6562 31.2393C67.6564 26.4268 71.5576 22.5255 76.3701 22.5254ZM155.683 22.5254C160.496 22.5254 164.397 26.4267 164.397 31.2393C164.397 36.0519 160.496 39.9531 155.683 39.9531C150.87 39.9529 146.969 36.0517 146.969 31.2393C146.969 26.4268 150.87 22.5256 155.683 22.5254ZM90.3311 5.09961C95.1438 5.11473 99.0328 9.02822 99.0176 13.8408C99.0024 18.6534 95.0889 22.5424 90.2764 22.5273C85.4638 22.5121 81.5748 18.5986 81.5898 13.7861C81.6049 8.97355 85.5186 5.08462 90.3311 5.09961ZM113.823 5.09375C118.636 5.09388 122.538 8.99516 122.538 13.8076C122.538 18.6202 118.636 22.5214 113.823 22.5215C109.011 22.5215 105.109 18.6203 105.109 13.8076C105.109 8.99508 109.011 5.09375 113.823 5.09375ZM137.331 5.09375C142.144 5.09378 146.045 8.9951 146.045 13.8076C146.045 18.6203 142.144 22.5215 137.331 22.5215C132.519 22.5215 128.617 18.6203 128.617 13.8076C128.617 8.99508 132.519 5.09375 137.331 5.09375Z" fill="black"/>
</svg>
