<svg width="780" height="143" viewBox="0 0 780 143" fill="none" xmlns="http://www.w3.org/2000/svg">
<path d="M114.917 142.787C119.73 142.787 123.632 138.886 123.632 134.073C123.632 129.261 119.73 125.359 114.917 125.359C110.105 125.359 106.203 129.261 106.203 134.073C106.203 138.886 110.105 142.787 114.917 142.787Z" fill="black"/>
<path d="M136.675 142.787C141.488 142.787 145.389 138.886 145.389 134.073C145.389 129.261 141.488 125.359 136.675 125.359C131.863 125.359 127.961 129.261 127.961 134.073C127.961 138.886 131.863 142.787 136.675 142.787Z" fill="black"/>
<path d="M101.854 133.821C101.869 129.008 97.98 125.095 93.1673 125.08C88.3547 125.064 84.441 128.954 84.4259 133.766C84.4107 138.579 88.2999 142.492 93.1126 142.508C97.9252 142.523 101.839 138.634 101.854 133.821Z" fill="black"/>
<path d="M113.167 23.4282C117.98 23.4282 121.882 19.5268 121.882 14.7141C121.882 9.90143 117.98 6 113.167 6C108.355 6 104.453 9.90143 104.453 14.7141C104.453 19.5268 108.355 23.4282 113.167 23.4282Z" fill="black"/>
<path d="M136.675 23.4282C141.488 23.4282 145.389 19.5268 145.389 14.7141C145.389 9.90143 141.488 6 136.675 6C131.863 6 127.961 9.90143 127.961 14.7141C127.961 19.5268 131.863 23.4282 136.675 23.4282Z" fill="black"/>
<path d="M98.3618 14.7469C98.377 9.93433 94.4878 6.02066 89.6751 6.00554C84.8625 5.99042 80.9488 9.87957 80.9337 14.6922C80.9186 19.5048 84.8077 23.4185 89.6204 23.4336C94.433 23.4487 98.3467 19.5595 98.3618 14.7469Z" fill="black"/>
<path d="M75.7142 127.977C80.5268 127.977 84.4283 124.075 84.4283 119.263C84.4283 114.45 80.5268 110.549 75.7142 110.549C70.9015 110.549 67 114.45 67 119.263C67 124.075 70.9015 127.977 75.7142 127.977Z" fill="black"/>
<path d="M75.7142 106.195C80.5268 106.195 84.4283 102.294 84.4283 97.4817C84.4283 92.6691 80.5268 88.7676 75.7142 88.7676C70.9015 88.7676 67 92.6691 67 97.4817C67 102.294 70.9015 106.195 75.7142 106.195Z" fill="black"/>
<path d="M75.7142 84.4066C80.5268 84.4066 84.4283 80.5052 84.4283 75.6925C84.4283 70.8799 80.5268 66.9785 75.7142 66.9785C70.9015 66.9785 67 70.8799 67 75.6925C67 80.5052 70.9015 84.4066 75.7142 84.4066Z" fill="black"/>
<path d="M75.7142 62.6411C80.5268 62.6411 84.4283 58.7397 84.4283 53.927C84.4283 49.1144 80.5268 45.2129 75.7142 45.2129C70.9015 45.2129 67 49.1144 67 53.927C67 58.7397 70.9015 62.6411 75.7142 62.6411Z" fill="black"/>
<path d="M75.7142 40.8597C80.5268 40.8597 84.4283 36.9583 84.4283 32.1457C84.4283 27.333 80.5268 23.4316 75.7142 23.4316C70.9015 23.4316 67 27.333 67 32.1457C67 36.9583 70.9015 40.8597 75.7142 40.8597Z" fill="black"/>
<path d="M155.027 106.195C159.84 106.195 163.741 102.294 163.741 97.4817C163.741 92.6691 159.84 88.7676 155.027 88.7676C150.214 88.7676 146.313 92.6691 146.313 97.4817C146.313 102.294 150.214 106.195 155.027 106.195Z" fill="black"/>
<path d="M155.027 84.4066C159.84 84.4066 163.741 80.5052 163.741 75.6925C163.741 70.8799 159.84 66.9785 155.027 66.9785C150.214 66.9785 146.313 70.8799 146.313 75.6925C146.313 80.5052 150.214 84.4066 155.027 84.4066Z" fill="black"/>
<path d="M155.027 62.6411C159.84 62.6411 163.741 58.7397 163.741 53.927C163.741 49.1144 159.84 45.2129 155.027 45.2129C150.214 45.2129 146.313 49.1144 146.313 53.927C146.313 58.7397 150.214 62.6411 155.027 62.6411Z" fill="black"/>
<path d="M155.027 40.8597C159.84 40.8597 163.741 36.9583 163.741 32.1457C163.741 27.333 159.84 23.4316 155.027 23.4316C150.214 23.4316 146.313 27.333 146.313 32.1457C146.313 36.9583 150.214 40.8597 155.027 40.8597Z" fill="black"/>
<path d="M169.832 142.787C174.644 142.787 178.546 138.886 178.546 134.073C178.546 129.261 174.644 125.359 169.832 125.359C165.019 125.359 161.117 129.261 161.117 134.073C161.117 138.886 165.019 142.787 169.832 142.787Z" fill="black"/>
<path d="M155.027 127.985C159.84 127.985 163.741 124.083 163.741 119.27C163.741 114.458 159.84 110.556 155.027 110.556C150.214 110.556 146.313 114.458 146.313 119.27C146.313 124.083 150.214 127.985 155.027 127.985Z" fill="black"/>
<path d="M134.074 114.91C138.886 114.91 142.788 111.009 142.788 106.196C142.788 101.384 138.886 97.4824 134.074 97.4824C129.261 97.4824 125.36 101.384 125.36 106.196C125.36 111.009 129.261 114.91 134.074 114.91Z" fill="black"/>
<path d="M117.535 101.834C122.347 101.834 126.249 97.933 126.249 93.1204C126.249 88.3077 122.347 84.4062 117.535 84.4062C112.722 84.4062 108.821 88.3077 108.821 93.1204C108.821 97.933 112.722 101.834 117.535 101.834Z" fill="black"/>
<path d="M8.71412 142.768C13.5268 142.768 17.4282 138.867 17.4282 134.054C17.4282 129.242 13.5268 125.34 8.71412 125.34C3.90144 125.34 0 129.242 0 134.054C0 138.867 3.90144 142.768 8.71412 142.768Z" fill="black"/>
<path d="M8.71412 117.893C13.5268 117.893 17.4282 113.992 17.4282 109.179C17.4282 104.367 13.5268 100.465 8.71412 100.465C3.90144 100.465 0 104.367 0 109.179C0 113.992 3.90144 117.893 8.71412 117.893Z" fill="black"/>
<path d="M8.71412 93.0238C13.5268 93.0238 17.4282 89.1224 17.4282 84.3098C17.4282 79.4971 13.5268 75.5957 8.71412 75.5957C3.90144 75.5957 0 79.4971 0 84.3098C0 89.1224 3.90144 93.0238 8.71412 93.0238Z" fill="black"/>
<path d="M8.71412 68.1684C13.5268 68.1684 17.4282 64.2669 17.4282 59.4543C17.4282 54.6416 13.5268 50.7402 8.71412 50.7402C3.90144 50.7402 0 54.6416 0 59.4543C0 64.2669 3.90144 68.1684 8.71412 68.1684Z" fill="black"/>
<path d="M8.71412 43.2914C13.5268 43.2914 17.4282 39.39 17.4282 34.5773C17.4282 29.7647 13.5268 25.8633 8.71412 25.8633C3.90144 25.8633 0 29.7647 0 34.5773C0 39.39 3.90144 43.2914 8.71412 43.2914Z" fill="black"/>
<path d="M8.71412 18.4281C13.5268 18.4281 17.4282 14.5267 17.4282 9.71408C17.4282 4.90143 13.5268 1 8.71412 1C3.90144 1 0 4.90143 0 9.71408C0 14.5267 3.90144 18.4281 8.71412 18.4281Z" fill="black"/>
<path d="M701.573 24.4282C706.386 24.4282 710.288 20.5267 710.288 15.7141C710.288 10.9014 706.386 7 701.573 7C696.761 7 692.859 10.9014 692.859 15.7141C692.859 20.5267 696.761 24.4282 701.573 24.4282Z" fill="black"/>
<path d="M719.003 37.4965C723.816 37.4965 727.717 33.5951 727.717 28.7824C727.717 23.9698 723.816 20.0684 719.003 20.0684C714.19 20.0684 710.289 23.9698 710.289 28.7824C710.289 33.5951 714.19 37.4965 719.003 37.4965Z" fill="black"/>
<path d="M736.394 51.4282C741.206 51.4282 745.108 47.5267 745.108 42.7141C745.108 37.9014 741.206 34 736.394 34C731.581 34 727.68 37.9014 727.68 42.7141C727.68 47.5267 731.581 51.4282 736.394 51.4282Z" fill="black"/>
<path d="M771.292 80.1821C776.105 80.1821 780.006 76.2806 780.006 71.468C780.006 66.6553 776.105 62.7539 771.292 62.7539C766.48 62.7539 762.578 66.6553 762.578 71.468C762.578 76.2806 766.48 80.1821 771.292 80.1821Z" fill="black"/>
<path d="M736.394 109.807C741.206 109.807 745.108 105.906 745.108 101.093C745.108 96.2803 741.206 92.3789 736.394 92.3789C731.581 92.3789 727.68 96.2803 727.68 101.093C727.68 105.906 731.581 109.807 736.394 109.807Z" fill="black"/>
<path d="M753.863 66.2524C758.675 66.2524 762.577 62.3509 762.577 57.5383C762.577 52.7256 758.675 48.8242 753.863 48.8242C749.05 48.8242 745.148 52.7256 745.148 57.5383C745.148 62.3509 749.05 66.2524 753.863 66.2524Z" fill="black"/>
<path d="M753.863 94.9985C758.675 94.9985 762.577 91.097 762.577 86.2844C762.577 81.4717 758.675 77.5703 753.863 77.5703C749.05 77.5703 745.148 81.4717 745.148 86.2844C745.148 91.097 749.05 94.9985 753.863 94.9985Z" fill="black"/>
<path d="M719.003 122.882C723.816 122.882 727.717 118.98 727.717 114.167C727.717 109.355 723.816 105.453 719.003 105.453C714.19 105.453 710.289 109.355 710.289 114.167C710.289 118.98 714.19 122.882 719.003 122.882Z" fill="black"/>
<path d="M701.573 136.819C706.386 136.819 710.288 132.918 710.288 128.105C710.288 123.292 706.386 119.391 701.573 119.391C696.761 119.391 692.859 123.292 692.859 128.105C692.859 132.918 696.761 136.819 701.573 136.819Z" fill="black"/>
<path d="M290.097 142.881C294.91 142.881 298.811 138.98 298.811 134.167C298.811 129.355 294.91 125.453 290.097 125.453C285.284 125.453 281.383 129.355 281.383 134.167C281.383 138.98 285.284 142.881 290.097 142.881Z" fill="black"/>
<path d="M211.691 121.098C216.503 121.098 220.405 117.197 220.405 112.384C220.405 107.571 216.503 103.67 211.691 103.67C206.878 103.67 202.977 107.571 202.977 112.384C202.977 117.197 206.878 121.098 211.691 121.098Z" fill="black"/>
<path d="M211.691 99.311C216.503 99.311 220.405 95.4095 220.405 90.5969C220.405 85.7842 216.503 81.8828 211.691 81.8828C206.878 81.8828 202.977 85.7842 202.977 90.5969C202.977 95.4095 206.878 99.311 211.691 99.311Z" fill="black"/>
<path d="M268.331 135.028C273.144 135.028 277.045 131.126 277.045 126.314C277.045 121.501 273.144 117.6 268.331 117.6C263.519 117.6 259.617 121.501 259.617 126.314C259.617 131.126 263.519 135.028 268.331 135.028Z" fill="black"/>
<path d="M246.503 142.881C251.316 142.881 255.217 138.98 255.217 134.167C255.217 129.355 251.316 125.453 246.503 125.453C241.691 125.453 237.789 129.355 237.789 134.167C237.789 138.98 241.691 142.881 246.503 142.881Z" fill="black"/>
<path d="M223.042 141.131C227.855 141.131 231.756 137.23 231.756 132.417C231.756 127.605 227.855 123.703 223.042 123.703C218.23 123.703 214.328 127.605 214.328 132.417C214.328 137.23 218.23 141.131 223.042 141.131Z" fill="black"/>
<path d="M211.691 77.5336C216.503 77.5336 220.405 73.6322 220.405 68.8195C220.405 64.0069 216.503 60.1055 211.691 60.1055C206.878 60.1055 202.977 64.0069 202.977 68.8195C202.977 73.6322 206.878 77.5336 211.691 77.5336Z" fill="black"/>
<path d="M211.691 55.7543C216.503 55.7543 220.405 51.8529 220.405 47.0402C220.405 42.2276 216.503 38.3262 211.691 38.3262C206.878 38.3262 202.977 42.2276 202.977 47.0402C202.977 51.8529 206.878 55.7543 211.691 55.7543Z" fill="black"/>
<path d="M290.097 121.098C294.91 121.098 298.811 117.197 298.811 112.384C298.811 107.571 294.91 103.67 290.097 103.67C285.284 103.67 281.383 107.571 281.383 112.384C281.383 117.197 285.284 121.098 290.097 121.098Z" fill="black"/>
<path d="M290.097 99.311C294.91 99.311 298.811 95.4095 298.811 90.5969C298.811 85.7842 294.91 81.8828 290.097 81.8828C285.284 81.8828 281.383 85.7842 281.383 90.5969C281.383 95.4095 285.284 99.311 290.097 99.311Z" fill="black"/>
<path d="M290.097 77.5336C294.91 77.5336 298.811 73.6322 298.811 68.8195C298.811 64.0069 294.91 60.1055 290.097 60.1055C285.284 60.1055 281.383 64.0069 281.383 68.8195C281.383 73.6322 285.284 77.5336 290.097 77.5336Z" fill="black"/>
<path d="M290.097 55.7543C294.91 55.7543 298.811 51.8529 298.811 47.0402C298.811 42.2276 294.91 38.3262 290.097 38.3262C285.284 38.3262 281.383 42.2276 281.383 47.0402C281.383 51.8529 285.284 55.7543 290.097 55.7543Z" fill="black"/>
<path d="M373.183 142.881C377.996 142.881 381.897 138.98 381.897 134.167C381.897 129.355 377.996 125.453 373.183 125.453C368.37 125.453 364.469 129.355 364.469 134.167C364.469 138.98 368.37 142.881 373.183 142.881Z" fill="black"/>
<path d="M394.081 142.881C398.894 142.881 402.795 138.98 402.795 134.167C402.795 129.355 398.894 125.453 394.081 125.453C389.269 125.453 385.367 129.355 385.367 134.167C385.367 138.98 389.269 142.881 394.081 142.881Z" fill="black"/>
<path d="M414.972 142.881C419.785 142.881 423.686 138.98 423.686 134.167C423.686 129.355 419.785 125.453 414.972 125.453C410.159 125.453 406.258 129.355 406.258 134.167C406.258 138.98 410.159 142.881 414.972 142.881Z" fill="black"/>
<path d="M352.253 142.881C357.066 142.881 360.967 138.98 360.967 134.167C360.967 129.355 357.066 125.453 352.253 125.453C347.44 125.453 343.539 129.355 343.539 134.167C343.539 138.98 347.44 142.881 352.253 142.881Z" fill="black"/>
<path d="M373.199 80.1547C378.011 80.1547 381.913 76.2533 381.913 71.4406C381.913 66.628 378.011 62.7266 373.199 62.7266C368.386 62.7266 364.484 66.628 364.484 71.4406C364.484 76.2533 368.386 80.1547 373.199 80.1547Z" fill="black"/>
<path d="M394.136 80.1547C398.949 80.1547 402.85 76.2533 402.85 71.4406C402.85 66.628 398.949 62.7266 394.136 62.7266C389.323 62.7266 385.422 66.628 385.422 71.4406C385.422 76.2533 389.323 80.1547 394.136 80.1547Z" fill="black"/>
<path d="M352.308 80.1547C357.121 80.1547 361.022 76.2533 361.022 71.4406C361.022 66.628 357.121 62.7266 352.308 62.7266C347.495 62.7266 343.594 66.628 343.594 71.4406C343.594 76.2533 347.495 80.1547 352.308 80.1547Z" fill="black"/>
<path d="M331.363 142.881C336.175 142.881 340.077 138.98 340.077 134.167C340.077 129.355 336.175 125.453 331.363 125.453C326.55 125.453 322.648 129.355 322.648 134.167C322.648 138.98 326.55 142.881 331.363 142.881Z" fill="black"/>
<path d="M331.363 121.975C336.175 121.975 340.077 118.074 340.077 113.261C340.077 108.448 336.175 104.547 331.363 104.547C326.55 104.547 322.648 108.448 322.648 113.261C322.648 118.074 326.55 121.975 331.363 121.975Z" fill="black"/>
<path d="M331.363 101.065C336.175 101.065 340.077 97.1634 340.077 92.3508C340.077 87.5381 336.175 83.6367 331.363 83.6367C326.55 83.6367 322.648 87.5381 322.648 92.3508C322.648 97.1634 326.55 101.065 331.363 101.065Z" fill="black"/>
<path d="M331.363 80.1625C336.175 80.1625 340.077 76.2611 340.077 71.4485C340.077 66.6358 336.175 62.7344 331.363 62.7344C326.55 62.7344 322.648 66.6358 322.648 71.4485C322.648 76.2611 326.55 80.1625 331.363 80.1625Z" fill="black"/>
<path d="M331.363 59.2504C336.175 59.2504 340.077 55.349 340.077 50.5363C340.077 45.7237 336.175 41.8223 331.363 41.8223C326.55 41.8223 322.648 45.7237 322.648 50.5363C322.648 55.349 326.55 59.2504 331.363 59.2504Z" fill="black"/>
<path d="M331.363 38.3325C336.175 38.3325 340.077 34.431 340.077 29.6184C340.077 24.8057 336.175 20.9043 331.363 20.9043C326.55 20.9043 322.648 24.8057 322.648 29.6184C322.648 34.431 326.55 38.3325 331.363 38.3325Z" fill="black"/>
<path d="M373.183 17.4282C377.996 17.4282 381.897 13.5267 381.897 8.71408C381.897 3.90143 377.996 0 373.183 0C368.37 0 364.469 3.90143 364.469 8.71408C364.469 13.5267 368.37 17.4282 373.183 17.4282Z" fill="black"/>
<path d="M394.081 17.4282C398.894 17.4282 402.795 13.5267 402.795 8.71408C402.795 3.90143 398.894 0 394.081 0C389.269 0 385.367 3.90143 385.367 8.71408C385.367 13.5267 389.269 17.4282 394.081 17.4282Z" fill="black"/>
<path d="M414.972 17.4282C419.785 17.4282 423.686 13.5267 423.686 8.71408C423.686 3.90143 419.785 0 414.972 0C410.159 0 406.258 3.90143 406.258 8.71408C406.258 13.5267 410.159 17.4282 414.972 17.4282Z" fill="black"/>
<path d="M352.253 17.4282C357.066 17.4282 360.967 13.5267 360.967 8.71408C360.967 3.90143 357.066 0 352.253 0C347.44 0 343.539 3.90143 343.539 8.71408C343.539 13.5267 347.44 17.4282 352.253 17.4282Z" fill="black"/>
<path d="M331.363 17.4282C336.175 17.4282 340.077 13.5267 340.077 8.71408C340.077 3.90143 336.175 0 331.363 0C326.55 0 322.648 3.90143 322.648 8.71408C322.648 13.5267 326.55 17.4282 331.363 17.4282Z" fill="black"/>
<path d="M495.37 71.434C500.183 71.434 504.084 67.5326 504.084 62.7199C504.084 57.9073 500.183 54.0059 495.37 54.0059C490.558 54.0059 486.656 57.9073 486.656 62.7199C486.656 67.5326 490.558 71.434 495.37 71.434Z" fill="black"/>
<path d="M517.152 71.434C521.964 71.434 525.866 67.5326 525.866 62.7199C525.866 57.9073 521.964 54.0059 517.152 54.0059C512.339 54.0059 508.438 57.9073 508.438 62.7199C508.438 67.5326 512.339 71.434 517.152 71.434Z" fill="black"/>
<path d="M477.081 81.02C481.894 81.02 485.795 77.1185 485.795 72.3059C485.795 67.4932 481.894 63.5918 477.081 63.5918C472.269 63.5918 468.367 67.4932 468.367 72.3059C468.367 77.1185 472.269 81.02 477.081 81.02Z" fill="black"/>
<path d="M536.363 81.02C541.175 81.02 545.077 77.1185 545.077 72.3059C545.077 67.4932 541.175 63.5918 536.363 63.5918C531.55 63.5918 527.648 67.4932 527.648 72.3059C527.648 77.1185 531.55 81.02 536.363 81.02Z" fill="black"/>
<path d="M456.191 142.881C461.003 142.881 464.905 138.98 464.905 134.167C464.905 129.355 461.003 125.453 456.191 125.453C451.378 125.453 447.477 129.355 447.477 134.167C447.477 138.98 451.378 142.881 456.191 142.881Z" fill="black"/>
<path d="M456.191 121.969C461.003 121.969 464.905 118.068 464.905 113.255C464.905 108.442 461.003 104.541 456.191 104.541C451.378 104.541 447.477 108.442 447.477 113.255C447.477 118.068 451.378 121.969 456.191 121.969Z" fill="black"/>
<path d="M456.191 101.057C461.003 101.057 464.905 97.1556 464.905 92.343C464.905 87.5303 461.003 83.6289 456.191 83.6289C451.378 83.6289 447.477 87.5303 447.477 92.343C447.477 97.1556 451.378 101.057 456.191 101.057Z" fill="black"/>
<path d="M456.191 80.1391C461.003 80.1391 464.905 76.2377 464.905 71.425C464.905 66.6124 461.003 62.7109 456.191 62.7109C451.378 62.7109 447.477 66.6124 447.477 71.425C447.477 76.2377 451.378 80.1391 456.191 80.1391Z" fill="black"/>
<path d="M456.191 59.2367C461.003 59.2367 464.905 55.3353 464.905 50.5227C464.905 45.71 461.003 41.8086 456.191 41.8086C451.378 41.8086 447.477 45.71 447.477 50.5227C447.477 55.3353 451.378 59.2367 456.191 59.2367Z" fill="black"/>
<path d="M586.214 142.881C591.027 142.881 594.928 138.98 594.928 134.167C594.928 129.355 591.027 125.453 586.214 125.453C581.401 125.453 577.5 129.355 577.5 134.167C577.5 138.98 581.401 142.881 586.214 142.881Z" fill="black"/>
<path d="M586.214 95.8246C591.027 95.8246 594.928 91.9232 594.928 87.1106C594.928 82.2979 591.027 78.3965 586.214 78.3965C581.401 78.3965 577.5 82.2979 577.5 87.1106C577.5 91.9232 581.401 95.8246 586.214 95.8246Z" fill="black"/>
<path d="M607.12 95.8246C611.933 95.8246 615.834 91.9232 615.834 87.1106C615.834 82.2979 611.933 78.3965 607.12 78.3965C602.308 78.3965 598.406 82.2979 598.406 87.1106C598.406 91.9232 602.308 95.8246 607.12 95.8246Z" fill="black"/>
<path d="M628.042 95.8246C632.855 95.8246 636.756 91.9232 636.756 87.1106C636.756 82.2979 632.855 78.3965 628.042 78.3965C623.23 78.3965 619.328 82.2979 619.328 87.1106C619.328 91.9232 623.23 95.8246 628.042 95.8246Z" fill="black"/>
<path d="M634.144 54.8891C638.956 54.8891 642.858 50.9877 642.858 46.175C642.858 41.3624 638.956 37.4609 634.144 37.4609C629.331 37.4609 625.43 41.3624 625.43 46.175C625.43 50.9877 629.331 54.8891 634.144 54.8891Z" fill="black"/>
<path d="M611.48 54.8891C616.292 54.8891 620.194 50.9877 620.194 46.175C620.194 41.3624 616.292 37.4609 611.48 37.4609C606.667 37.4609 602.766 41.3624 602.766 46.175C602.766 50.9877 606.667 54.8891 611.48 54.8891Z" fill="black"/>
<path d="M588.839 54.8891C593.652 54.8891 597.553 50.9877 597.553 46.175C597.553 41.3624 593.652 37.4609 588.839 37.4609C584.026 37.4609 580.125 41.3624 580.125 46.175C580.125 50.9877 584.026 54.8891 588.839 54.8891Z" fill="black"/>
<path d="M607.12 142.881C611.933 142.881 615.834 138.98 615.834 134.167C615.834 129.355 611.933 125.453 607.12 125.453C602.308 125.453 598.406 129.355 598.406 134.167C598.406 138.98 602.308 142.881 607.12 142.881Z" fill="black"/>
<path d="M628.042 142.881C632.855 142.881 636.756 138.98 636.756 134.167C636.756 129.355 632.855 125.453 628.042 125.453C623.23 125.453 619.328 129.355 619.328 134.167C619.328 138.98 623.23 142.881 628.042 142.881Z" fill="black"/>
<path d="M567.058 130.684C571.871 130.684 575.772 126.783 575.772 121.97C575.772 117.157 571.871 113.256 567.058 113.256C562.245 113.256 558.344 117.157 558.344 121.97C558.344 126.783 562.245 130.684 567.058 130.684Z" fill="black"/>
<path d="M567.058 108.032C571.871 108.032 575.772 104.13 575.772 99.3176C575.772 94.5049 571.871 90.6035 567.058 90.6035C562.245 90.6035 558.344 94.5049 558.344 99.3176C558.344 104.13 562.245 108.032 567.058 108.032Z" fill="black"/>
<path d="M649.8 142.881C654.613 142.881 658.514 138.98 658.514 134.167C658.514 129.355 654.613 125.453 649.8 125.453C644.987 125.453 641.086 129.355 641.086 134.167C641.086 138.98 644.987 142.881 649.8 142.881Z" fill="black"/>
<path d="M649.8 119.348C654.613 119.348 658.514 115.447 658.514 110.634C658.514 105.821 654.613 101.92 649.8 101.92C644.987 101.92 641.086 105.821 641.086 110.634C641.086 115.447 644.987 119.348 649.8 119.348Z" fill="black"/>
<path d="M649.8 95.8246C654.613 95.8246 658.514 91.9232 658.514 87.1106C658.514 82.2979 654.613 78.3965 649.8 78.3965C644.987 78.3965 641.086 82.2979 641.086 87.1106C641.086 91.9232 644.987 95.8246 649.8 95.8246Z" fill="black"/>
<path d="M649.8 72.3188C654.613 72.3188 658.514 68.4174 658.514 63.6047C658.514 58.7921 654.613 54.8906 649.8 54.8906C644.987 54.8906 641.086 58.7921 641.086 63.6047C641.086 68.4174 644.987 72.3188 649.8 72.3188Z" fill="black"/>
</svg>
