<?xml version="1.0" encoding="UTF-8"?>
<svg id="Layer_1" xmlns="http://www.w3.org/2000/svg" xmlns:xlink="http://www.w3.org/1999/xlink" version="1.1" viewBox="0 0 799 269.6">
  <!-- Generator: Adobe Illustrator 29.6.1, SVG Export Plug-In . SVG Version: 2.1.1 Build 9)  -->
  <defs>
    <style>
      .st0, .st1 {
        fill: none;
      }

      .st2 {
        fill: url(#linear-gradient);
      }

      .st3 {
        fill: #febc2e;
      }

      .st4 {
        fill: #ff5f57;
      }

      .st5, .st6 {
        isolation: isolate;
      }

      .st6 {
        font-family: Arial-BoldMT, Arial;
        font-size: 18px;
      }

      .st6, .st7 {
        fill: #fff;
        font-weight: 700;
      }

      .st1 {
        stroke: #8be9fd;
        stroke-miterlimit: 10;
        stroke-width: 2px;
      }

      .st7 {
        font-family: MesloLGS-NF-Bold, 'MesloLGS NF';
        font-size: 20px;
      }

      .st8 {
        clip-path: url(#clippath);
      }

      .st9 {
        fill: #28c840;
      }
    </style>
    <clipPath id="clippath">
      <rect class="st0" x="8.6" y="50.2" width="779.8" height="218.6"/>
    </clipPath>
    <linearGradient id="linear-gradient" x1="407.5" y1="100.4" x2="415.5" y2="199.9" gradientUnits="userSpaceOnUse">
      <stop offset="0" stop-color="#f0f"/>
      <stop offset="1" stop-color="aqua"/>
    </linearGradient>
  </defs>
  <rect x="1" y="1" width="797" height="267.6" rx="8" ry="8"/>
  <g class="st5">
    <text class="st6" transform="translate(343 27)"><tspan x="0" y="0">rich-gradient</tspan></text>
  </g>
  <g>
    <circle class="st4" cx="26" cy="22" r="7"/>
    <circle class="st3" cx="48" cy="22" r="7"/>
    <circle class="st9" cx="70" cy="22" r="7"/>
  </g>
  <g class="st8">
    <g>
      <path class="st1" d="M244.6,50.4H27.7c-5.6,0-10.4,4.6-10.4,10.1v173.8s0,10,9.9,10h735.3s19.2,0,19.2-15.8V65.5s0-15.3-15.2-15.3h-221.8"/>
      <path class="st2" d="M86.4,94.5v-2.5h8.7v2.5h-2.9v9.5h2.9v2.5h-8.7v-2.5h2.9v-9.5h-2.9ZM104,94.6v1h3.4v2.2h-3.4v8.7h-2.9v-8.7h-2.7v-2.2h2.7v-.8c0-1.3.3-2.2.8-2.7s1.6-.8,3-.8h2.4v2.2h-2.2c-.4,0-.7,0-.9.2s-.2.4-.2.9ZM127.8,107.7c-.4,1-.8,1.8-1.4,2.3s-1.2.7-2,.7h-2.4v-2.2h1.2c.6,0,1,0,1.3-.3s.6-.7.8-1.4l.2-.6-4.2-10.6h3l2.5,7.1,2.4-7.1h3l-4.5,12.1ZM133.8,101c0-1.8.5-3.2,1.4-4.2s2.1-1.5,3.7-1.5,2.8.5,3.7,1.5,1.4,2.4,1.4,4.2-.5,3.2-1.4,4.2-2.1,1.5-3.7,1.5-2.8-.5-3.7-1.5-1.4-2.4-1.4-4.2ZM138.9,97.6c-.7,0-1.2.3-1.6.9s-.6,1.4-.6,2.5.2,1.9.6,2.5.9.9,1.6.9,1.2-.3,1.6-.9.6-1.4.6-2.5-.2-1.9-.6-2.5-.9-.9-1.6-.9ZM146.5,102.7v-7.1h2.9v6.7c0,.8.1,1.4.3,1.7s.6.5,1.1.5.9-.2,1.2-.7.4-1.1.4-1.9v-6.3h2.9v10.9h-2.9v-1.6c-.2.6-.5,1.1-1,1.4s-1.1.5-1.8.5c-1,0-1.8-.3-2.4-1s-.8-1.7-.8-3.1ZM179.8,100.3v6.2h-2.8v-1.2c-.3.5-.8.9-1.3,1.1s-1.1.4-1.8.4c-1.2,0-2.2-.3-2.9-1s-1-1.6-1-2.8.4-2.2,1.2-2.8,2.1-.9,3.8-.9h2v-.5c0-.5-.2-.8-.5-1s-.8-.4-1.5-.4-1.3,0-2,.3-1.3.4-2,.8v-2.4c.6-.3,1.3-.5,1.9-.6s1.3-.2,2.1-.2c1.8,0,3,.4,3.7,1.1s1.1,2,1.1,3.9ZM175.8,101.4c-1.1,0-1.8.1-2.2.4s-.6.7-.6,1.4.1.9.4,1.2.7.4,1.2.4c.8,0,1.3-.3,1.8-.9s.6-1.4.6-2.4v-.2h-1.1ZM192.3,98.6c-.3-.3-.7-.5-1.1-.6s-.9-.2-1.4-.2-1.1.1-1.6.3-.8.5-1,.9c-.2.2-.3.5-.3.9s0,.9,0,1.6v5h-2.9v-10.9h2.9v1.7c.3-.6.7-1.1,1.3-1.5s1.3-.5,2-.5.8,0,1.1.1.7.2,1.1.4v2.7ZM203.8,106c-.7.3-1.3.5-2,.6s-1.4.2-2.2.2c-1.8,0-3.2-.5-4.2-1.5s-1.5-2.4-1.5-4.2.5-3.2,1.4-4.2,2.2-1.6,3.8-1.6,2.9.5,3.8,1.4,1.3,2.3,1.3,4.1v1.2h-7.4c0,.9.3,1.5.8,1.9s1.2.6,2.2.6,1.3,0,1.9-.3,1.3-.5,2-.9v2.6ZM201.4,99.8c0-.8-.2-1.3-.6-1.7s-.9-.6-1.7-.6-1.2.2-1.6.6-.6,1-.7,1.7h4.5ZM221.5,105v5.7h-2.9v-15.1h2.9v1.6c.3-.6.7-1.1,1.2-1.4s1.1-.5,1.7-.5c1.2,0,2.2.5,2.9,1.5s1,2.4,1,4.2-.4,3.3-1,4.3-1.7,1.5-3,1.5-1.1-.2-1.6-.5-.9-.8-1.2-1.4ZM225.4,101c0-1.1-.2-1.9-.5-2.5s-.8-.9-1.5-.9-1.1.3-1.5.9-.5,1.4-.5,2.5.2,1.9.5,2.5.8.9,1.5.9,1.1-.3,1.5-.9.5-1.4.5-2.5ZM231.3,95.6h5.7v8.7h3.6v2.2h-10v-2.2h3.6v-6.5h-2.8v-2.2ZM234.2,90.2h2.9v3.3h-2.9v-3.3ZM251.6,105.9c-.5.3-1,.5-1.6.6s-1.1.2-1.8.2c-1.7,0-3-.5-4-1.5s-1.4-2.4-1.4-4.2.5-3.2,1.4-4.2,2.3-1.5,4-1.5,1.2,0,1.7.2,1.1.3,1.6.6v2.6c-.4-.4-.9-.6-1.4-.8s-1-.3-1.5-.3c-.9,0-1.6.3-2.1.9s-.8,1.4-.8,2.5.3,1.9.8,2.5,1.2.9,2.1.9,1.1,0,1.6-.3.9-.5,1.4-.8v2.6ZM255,91.3h2.9v8l3.4-3.7h3.5l-4.1,4.1,4.4,6.9h-3.2l-3-5.1-1,.9v4.2h-2.9v-15.2ZM272.3,107.7c-.4,1-.8,1.8-1.4,2.3s-1.2.7-2,.7h-2.4v-2.2h1.2c.6,0,1,0,1.3-.3s.6-.7.8-1.4l.2-.6-4.2-10.6h3l2.5,7.1,2.4-7.1h3l-4.5,12.1ZM300.2,100.3v6.2h-2.8v-1.2c-.3.5-.8.9-1.3,1.1s-1.1.4-1.8.4c-1.2,0-2.2-.3-2.9-1s-1-1.6-1-2.8.4-2.2,1.2-2.8,2.1-.9,3.8-.9h2v-.5c0-.5-.2-.8-.5-1s-.8-.4-1.5-.4-1.3,0-2,.3-1.3.4-2,.8v-2.4c.6-.3,1.3-.5,1.9-.6s1.3-.2,2.1-.2c1.8,0,3,.4,3.7,1.1s1.1,2,1.1,3.9ZM296.2,101.4c-1.1,0-1.8.1-2.2.4s-.6.7-.6,1.4.1.9.4,1.2.7.4,1.2.4c.8,0,1.3-.3,1.8-.9s.6-1.4.6-2.4v-.2h-1.1ZM305.8,97.1c.4-.6.8-1.1,1.2-1.4s1-.5,1.6-.5c1.3,0,2.3.5,3,1.5s1,2.4,1,4.3-.3,3.2-1,4.2-1.7,1.5-2.9,1.5-1.2-.2-1.7-.5-.9-.8-1.2-1.4v1.6h-2.9v-15.2h2.9v5.8ZM309.7,101.1c0-1.1-.2-1.9-.5-2.5s-.8-.9-1.5-.9-1.1.3-1.5.9-.5,1.4-.5,2.5.2,1.9.5,2.5.8.9,1.5.9,1.1-.3,1.5-.9.5-1.4.5-2.5ZM314.4,101c0-1.8.5-3.2,1.4-4.2s2.1-1.5,3.7-1.5,2.8.5,3.7,1.5,1.4,2.4,1.4,4.2-.5,3.2-1.4,4.2-2.1,1.5-3.7,1.5-2.8-.5-3.7-1.5-1.4-2.4-1.4-4.2ZM319.5,97.6c-.7,0-1.2.3-1.6.9s-.6,1.4-.6,2.5.2,1.9.6,2.5.9.9,1.6.9,1.2-.3,1.6-.9.6-1.4.6-2.5-.2-1.9-.6-2.5-.9-.9-1.6-.9ZM327.1,102.7v-7.1h2.9v6.7c0,.8.1,1.4.3,1.7s.6.5,1.1.5.9-.2,1.2-.7.4-1.1.4-1.9v-6.3h2.9v10.9h-2.9v-1.6c-.2.6-.5,1.1-1,1.4s-1.1.5-1.8.5c-1,0-1.8-.3-2.4-1s-.8-1.7-.8-3.1ZM344.3,92.5v3.1h3.7v2.2h-3.7v5.2c0,.5.1.8.4,1s.6.3,1.2.3h2.2v2.2h-2.4c-1.6,0-2.8-.3-3.3-.8s-.9-1.5-.9-2.9v-5h-2.8v-2.2h2.8v-3.1h2.9ZM368.6,107.7c-.4,1-.8,1.8-1.4,2.3s-1.2.7-2,.7h-2.4v-2.2h1.2c.6,0,1,0,1.3-.3s.6-.7.8-1.4l.2-.6-4.2-10.6h3l2.5,7.1,2.4-7.1h3l-4.5,12.1ZM374.6,101c0-1.8.5-3.2,1.4-4.2s2.1-1.5,3.7-1.5,2.8.5,3.7,1.5,1.4,2.4,1.4,4.2-.5,3.2-1.4,4.2-2.1,1.5-3.7,1.5-2.8-.5-3.7-1.5-1.4-2.4-1.4-4.2ZM379.7,97.6c-.7,0-1.2.3-1.6.9s-.6,1.4-.6,2.5.2,1.9.6,2.5.9.9,1.6.9,1.2-.3,1.6-.9.6-1.4.6-2.5-.2-1.9-.6-2.5-.9-.9-1.6-.9ZM387.3,102.7v-7.1h2.9v6.7c0,.8.1,1.4.3,1.7s.6.5,1.1.5.9-.2,1.2-.7.4-1.1.4-1.9v-6.3h2.9v10.9h-2.9v-1.6c-.2.6-.5,1.1-1,1.4s-1.1.5-1.8.5c-1,0-1.8-.3-2.4-1s-.8-1.7-.8-3.1ZM409,98.6c-.3-.3-.7-.5-1.1-.6s-.9-.2-1.4-.2-1.1.1-1.6.3c-.5.2-.8.5-1,.9-.2.2-.3.5-.3.9,0,.4,0,.9,0,1.6v5h-2.9v-10.9h2.9v1.7c.3-.6.7-1.1,1.3-1.5.6-.3,1.3-.5,2-.5s.8,0,1.1.1c.4,0,.7.2,1.1.4v2.7ZM432.2,105.9c-.5.3-1,.5-1.6.6-.6.1-1.1.2-1.8.2-1.7,0-3-.5-4-1.5-1-1-1.4-2.4-1.4-4.2s.5-3.2,1.4-4.2,2.3-1.5,4-1.5,1.2,0,1.7.2c.5.1,1.1.3,1.6.6v2.6c-.4-.4-.9-.6-1.4-.8s-1-.3-1.5-.3c-.9,0-1.6.3-2.1.9-.5.6-.8,1.4-.8,2.5s.2,1.9.8,2.5c.5.6,1.2.9,2.1.9s1.1,0,1.6-.3c.5-.2.9-.5,1.4-.8v2.6ZM434.8,101c0-1.8.5-3.2,1.4-4.2.9-1,2.1-1.5,3.7-1.5s2.8.5,3.7,1.5c.9,1,1.4,2.4,1.4,4.2s-.5,3.2-1.4,4.2c-.9,1-2.1,1.5-3.7,1.5s-2.8-.5-3.7-1.5c-.9-1-1.4-2.4-1.4-4.2ZM439.9,97.6c-.7,0-1.2.3-1.6.9s-.6,1.4-.6,2.5.2,1.9.6,2.5.9.9,1.6.9,1.2-.3,1.6-.9.6-1.4.6-2.5-.2-1.9-.6-2.5-.9-.9-1.6-.9ZM449.7,101.9v-8.4h-2.9v-2.2h5.8v10.6c0,.9.1,1.5.4,1.8.3.4.7.5,1.4.5h2.3v2.2h-3.1c-1.4,0-2.3-.4-2.9-1.1-.6-.7-.9-1.9-.9-3.5ZM458.9,101c0-1.8.5-3.2,1.4-4.2.9-1,2.1-1.5,3.7-1.5s2.8.5,3.7,1.5c.9,1,1.4,2.4,1.4,4.2s-.5,3.2-1.4,4.2c-.9,1-2.1,1.5-3.7,1.5s-2.8-.5-3.7-1.5c-.9-1-1.4-2.4-1.4-4.2ZM464,97.6c-.7,0-1.2.3-1.6.9s-.6,1.4-.6,2.5.2,1.9.6,2.5.9.9,1.6.9,1.2-.3,1.6-.9.6-1.4.6-2.5-.2-1.9-.6-2.5-.9-.9-1.6-.9ZM481.3,98.6c-.3-.3-.7-.5-1.1-.6s-.9-.2-1.4-.2-1.1.1-1.6.3c-.5.2-.8.5-1,.9-.2.2-.3.5-.3.9,0,.4,0,.9,0,1.6v5h-2.9v-10.9h2.9v1.7c.3-.6.7-1.1,1.3-1.5.6-.3,1.3-.5,2-.5s.8,0,1.1.1c.4,0,.7.2,1.1.4v2.7ZM491.7,95.9v2.5c-.5-.3-1.1-.6-1.6-.8-.6-.2-1.1-.3-1.7-.3s-1.1,0-1.4.3c-.3.2-.5.5-.5.8,0,.5.7.9,2.1,1.3h.1s.8.2.8.2c1,.2,1.8.6,2.3,1.2.5.6.7,1.3.7,2.2s-.4,2-1.1,2.5c-.7.6-1.9.8-3.3.8s-1.3,0-2-.2c-.7-.1-1.4-.3-2.1-.5v-2.5c.6.4,1.3.6,1.9.8s1.3.3,1.9.3,1.2,0,1.5-.3c.3-.2.5-.5.5-.8s-.1-.6-.4-.8-.8-.4-1.7-.6l-.8-.2c-1.1-.2-1.9-.6-2.4-1.2-.5-.5-.8-1.2-.8-2.1s.4-1.9,1.1-2.5,1.8-.9,3.2-.9,1.2,0,1.9.2,1.2.3,1.8.5ZM498.6,102.9h3.1v2.6l-1.9,3.7h-2.1l1-3.7v-2.6ZM522.5,97.1c.4-.6.8-1.1,1.2-1.4.5-.3,1-.5,1.6-.5,1.3,0,2.3.5,3,1.5.7,1,1,2.4,1,4.3s-.3,3.2-1,4.2c-.7,1-1.7,1.5-2.9,1.5s-1.2-.2-1.7-.5-.9-.8-1.2-1.4v1.6h-2.9v-15.2h2.9v5.8ZM526.5,101.1c0-1.1-.2-1.9-.5-2.5s-.8-.9-1.5-.9-1.1.3-1.5.9c-.4.6-.5,1.4-.5,2.5s.2,1.9.5,2.5c.4.6.8.9,1.5.9s1.1-.3,1.5-.9.5-1.4.5-2.5ZM531.8,102.7v-7.1h2.9v6.7c0,.8.1,1.4.3,1.7.2.3.6.5,1.1.5s.9-.2,1.2-.7c.3-.5.4-1.1.4-1.9v-6.3h2.9v10.9h-2.9v-1.6c-.2.6-.5,1.1-1,1.4-.5.3-1.1.5-1.8.5-1,0-1.8-.3-2.4-1-.5-.7-.8-1.7-.8-3.1ZM549,92.5v3.1h3.7v2.2h-3.7v5.2c0,.5.1.8.4,1,.2.2.6.3,1.2.3h2.2v2.2h-2.4c-1.6,0-2.8-.3-3.3-.8-.6-.5-.9-1.5-.9-2.9v-5h-2.8v-2.2h2.8v-3.1h2.9ZM570.7,105v5.7h-2.9v-15.1h2.9v1.6c.3-.6.7-1.1,1.2-1.4s1.1-.5,1.7-.5c1.2,0,2.2.5,2.9,1.5.7,1,1,2.4,1,4.2s-.4,3.3-1,4.3c-.7,1-1.7,1.5-3,1.5s-1.1-.2-1.6-.5c-.5-.3-.9-.8-1.2-1.4ZM574.6,101c0-1.1-.2-1.9-.5-2.5s-.8-.9-1.5-.9-1.1.3-1.5.9c-.4.6-.5,1.4-.5,2.5s.2,1.9.5,2.5c.4.6.8.9,1.5.9s1.1-.3,1.5-.9.5-1.4.5-2.5ZM589.6,98.6c-.3-.3-.7-.5-1.1-.6s-.9-.2-1.4-.2-1.1.1-1.6.3c-.5.2-.8.5-1,.9-.2.2-.3.5-.3.9,0,.4,0,.9,0,1.6v5h-2.9v-10.9h2.9v1.7c.3-.6.7-1.1,1.3-1.5.6-.3,1.3-.5,2-.5s.8,0,1.1.1c.4,0,.7.2,1.1.4v2.7ZM601.2,106c-.7.3-1.3.5-2,.6-.7.1-1.4.2-2.2.2-1.8,0-3.2-.5-4.2-1.5s-1.5-2.4-1.5-4.2.5-3.2,1.4-4.2c.9-1,2.2-1.6,3.8-1.6s2.9.5,3.8,1.4c.9,1,1.3,2.3,1.3,4.1v1.2h-7.4c0,.9.3,1.5.8,1.9.5.4,1.2.6,2.2.6s1.3,0,1.9-.3c.6-.2,1.3-.5,2-.9v2.6ZM598.8,99.8c0-.8-.2-1.3-.6-1.7-.4-.4-.9-.6-1.7-.6s-1.2.2-1.6.6-.6,1-.7,1.7h4.5ZM609.7,94.6v1h3.4v2.2h-3.4v8.7h-2.9v-8.7h-2.7v-2.2h2.7v-.8c0-1.3.3-2.2.8-2.7s1.6-.8,3-.8h2.4v2.2h-2.2c-.4,0-.7,0-.9.2-.2.2-.2.4-.2.9ZM625.3,106c-.7.3-1.3.5-2,.6-.7.1-1.4.2-2.2.2-1.8,0-3.2-.5-4.2-1.5s-1.5-2.4-1.5-4.2.5-3.2,1.4-4.2c.9-1,2.2-1.6,3.8-1.6s2.9.5,3.8,1.4c.9,1,1.3,2.3,1.3,4.1v1.2h-7.4c0,.9.3,1.5.8,1.9.5.4,1.2.6,2.2.6s1.3,0,1.9-.3c.6-.2,1.3-.5,2-.9v2.6ZM622.8,99.8c0-.8-.2-1.3-.6-1.7-.4-.4-.9-.6-1.7-.6s-1.2.2-1.6.6-.6,1-.7,1.7h4.5ZM637.8,98.6c-.3-.3-.7-.5-1.1-.6s-.9-.2-1.4-.2-1.1.1-1.6.3c-.5.2-.8.5-1,.9-.2.2-.3.5-.3.9,0,.4,0,.9,0,1.6v5h-2.9v-10.9h2.9v1.7c.3-.6.7-1.1,1.3-1.5.6-.3,1.3-.5,2-.5s.8,0,1.1.1c.4,0,.7.2,1.1.4v2.7ZM660.3,95.9v2.5c-.5-.3-1.1-.6-1.6-.8-.6-.2-1.1-.3-1.7-.3s-1.1,0-1.4.3c-.3.2-.5.5-.5.8,0,.5.7.9,2.1,1.3h.1s.8.2.8.2c1,.2,1.8.6,2.3,1.2.5.6.7,1.3.7,2.2s-.4,2-1.1,2.5c-.7.6-1.9.8-3.3.8s-1.3,0-2-.2c-.7-.1-1.4-.3-2.1-.5v-2.5c.6.4,1.3.6,1.9.8s1.3.3,1.9.3,1.2,0,1.5-.3c.3-.2.5-.5.5-.8s-.1-.6-.4-.8-.8-.4-1.7-.6l-.8-.2c-1.1-.2-1.9-.6-2.4-1.2-.5-.5-.8-1.2-.8-2.1s.4-1.9,1.1-2.5,1.8-.9,3.2-.9,1.2,0,1.9.2,1.2.3,1.8.5ZM664.8,95.6h5.7v8.7h3.6v2.2h-10v-2.2h3.6v-6.5h-2.8v-2.2ZM667.6,90.2h2.9v3.3h-2.9v-3.3ZM681.4,96.7c.2-.5.5-.8.8-1s.7-.3,1.2-.3c.9,0,1.6.3,2,1s.5,2,.5,4.1v6.2h-2.3v-7c0-.8,0-1.4-.2-1.6-.1-.3-.3-.4-.7-.4s-.6.1-.7.4c-.1.3-.2.8-.2,1.6v7h-2.3v-7c0-.8,0-1.3-.2-1.6-.1-.3-.4-.4-.7-.4s-.6.1-.7.4c-.1.3-.2.8-.2,1.6v7h-2.3v-10.9h2.1v1.1c.2-.4.4-.8.8-1,.4-.3.8-.4,1.2-.4s.8.1,1.2.4c.4.3.6.6.7,1ZM691.1,105v5.7h-2.9v-15.1h2.9v1.6c.3-.6.7-1.1,1.2-1.4s1.1-.5,1.7-.5c1.2,0,2.2.5,2.9,1.5.7,1,1,2.4,1,4.2s-.4,3.3-1,4.3c-.7,1-1.7,1.5-3,1.5s-1.1-.2-1.6-.5c-.5-.3-.9-.8-1.2-1.4ZM695,101c0-1.1-.2-1.9-.5-2.5s-.8-.9-1.5-.9-1.1.3-1.5.9c-.4.6-.5,1.4-.5,2.5s.2,1.9.5,2.5c.4.6.8.9,1.5.9s1.1-.3,1.5-.9.5-1.4.5-2.5ZM702.6,101.9v-8.4h-2.9v-2.2h5.8v10.6c0,.9.1,1.5.4,1.8.3.4.7.5,1.4.5h2.3v2.2h-3.1c-1.4,0-2.3-.4-2.9-1.1-.6-.7-.9-1.9-.9-3.5ZM721.6,106c-.7.3-1.3.5-2,.6-.7.1-1.4.2-2.2.2-1.8,0-3.2-.5-4.2-1.5s-1.5-2.4-1.5-4.2.5-3.2,1.4-4.2c.9-1,2.2-1.6,3.8-1.6s2.9.5,3.8,1.4c.9,1,1.3,2.3,1.3,4.1v1.2h-7.4c0,.9.3,1.5.8,1.9.5.4,1.2.6,2.2.6s1.3,0,1.9-.3c.6-.2,1.3-.5,2-.9v2.6ZM719.2,99.8c0-.8-.2-1.3-.6-1.7-.4-.4-.9-.6-1.7-.6s-1.2.2-1.6.6-.6,1-.7,1.7h4.5ZM734.1,98.6c-.3-.3-.7-.5-1.1-.6s-.9-.2-1.4-.2-1.1.1-1.6.3c-.5.2-.8.5-1,.9-.2.2-.3.5-.3.9,0,.4,0,.9,0,1.6v5h-2.9v-10.9h2.9v1.7c.3-.6.7-1.1,1.3-1.5.6-.3,1.3-.5,2-.5s.8,0,1.1.1c.4,0,.7.2,1.1.4v2.7ZM95.4,129.7c0,1.8-.4,3-1.2,3.8-.8.8-2.1,1.2-3.9,1.2s-1.2,0-1.8-.1-1.2-.2-1.8-.4v-2.6c.5.3,1.1.5,1.7.7.6.1,1.1.2,1.7.2s1.4-.2,1.8-.6.6-1,.6-1.8v-1.2c-.3.5-.7.9-1.1,1.2s-1,.4-1.7.4c-1.2,0-2.2-.5-3-1.5-.7-1-1.1-2.3-1.1-4s.4-3.1,1.1-4.1,1.7-1.5,3-1.5,1.2.1,1.7.4.9.7,1.2,1.2v-1.4h2.9v10.1ZM92.5,124.9c0-1-.2-1.8-.6-2.3s-.9-.9-1.5-.9-1.1.3-1.5.9-.6,1.4-.6,2.4.2,1.8.6,2.4.9.9,1.5.9,1.1-.3,1.5-.9.6-1.4.6-2.4ZM108,122.6c-.3-.3-.7-.5-1.1-.6s-.9-.2-1.4-.2-1.1.1-1.6.3-.8.5-1,.9c-.2.2-.3.5-.3.9s0,.9,0,1.6v5h-2.9v-10.9h2.9v1.7c.3-.6.7-1.1,1.3-1.5s1.3-.5,2-.5.8,0,1.1.1.7.2,1.1.4v2.7ZM119.6,124.3v6.2h-2.8v-1.2c-.3.5-.8.9-1.3,1.1-.5.3-1.1.4-1.8.4-1.2,0-2.2-.3-2.9-1-.7-.7-1-1.6-1-2.8s.4-2.2,1.2-2.8,2.1-.9,3.8-.9h2v-.5c0-.5-.2-.8-.5-1s-.8-.4-1.5-.4-1.3,0-2,.3-1.3.4-2,.8v-2.4c.6-.3,1.3-.5,1.9-.6s1.3-.2,2.1-.2c1.8,0,3,.4,3.7,1.1s1.1,2,1.1,3.9ZM115.6,125.4c-1.1,0-1.8.1-2.2.4s-.6.7-.6,1.4.1.9.4,1.2.7.4,1.2.4c.8,0,1.3-.3,1.8-.9s.6-1.4.6-2.4v-.2h-1.1ZM128.5,121.1v-5.8h2.9v15.2h-2.9v-1.6c-.3.6-.7,1.1-1.2,1.4-.5.3-1.1.5-1.7.5-1.2,0-2.2-.5-2.9-1.5-.7-1-1-2.4-1-4.2s.4-3.3,1-4.3,1.7-1.5,3-1.5,1.1.2,1.6.5.9.8,1.2,1.4ZM124.6,125.1c0,1.1.2,1.9.5,2.5s.8.9,1.5.9,1.1-.3,1.5-.9.5-1.4.5-2.5-.2-1.9-.5-2.5-.8-.9-1.5-.9-1.1.3-1.5.9-.5,1.4-.5,2.5ZM135,119.6h5.7v8.7h3.6v2.2h-10v-2.2h3.6v-6.5h-2.8v-2.2ZM137.8,114.2h2.9v3.3h-2.9v-3.3ZM155.7,130c-.7.3-1.3.5-2,.6s-1.4.2-2.2.2c-1.8,0-3.2-.5-4.2-1.5-1-1-1.5-2.4-1.5-4.2s.5-3.2,1.4-4.2,2.2-1.6,3.8-1.6,2.9.5,3.8,1.4,1.3,2.3,1.3,4.1v1.2h-7.4c0,.9.3,1.5.8,1.9s1.2.6,2.2.6,1.3,0,1.9-.3,1.3-.5,2-.9v2.6ZM153.2,123.8c0-.8-.2-1.3-.6-1.7s-.9-.6-1.7-.6-1.2.2-1.6.6-.6,1-.7,1.7h4.5ZM167.4,123.4v7.1h-2.8v-6.7c0-.8-.1-1.4-.3-1.7s-.6-.5-1.1-.5-.9.2-1.2.7-.4,1.1-.4,1.9v6.3h-2.8v-10.9h2.8v1.6c.2-.6.5-1.1,1-1.4s1.1-.5,1.8-.5c1,0,1.8.3,2.3,1s.8,1.7.8,3.1ZM175.7,116.5v3.1h3.7v2.2h-3.7v5.2c0,.5.1.8.4,1s.6.3,1.2.3h2.2v2.2h-2.4c-1.6,0-2.8-.3-3.3-.8-.6-.5-.9-1.5-.9-2.9v-5h-2.8v-2.2h2.8v-3.1h2.9ZM190.7,119.9v2.5c-.5-.3-1.1-.6-1.6-.8s-1.1-.3-1.7-.3-1.1,0-1.4.3-.5.5-.5.8c0,.5.7.9,2.1,1.3h.1s.8.2.8.2c1,.2,1.8.6,2.3,1.2s.7,1.3.7,2.2-.4,2-1.1,2.5c-.7.6-1.9.8-3.3.8s-1.3,0-2-.2c-.7-.1-1.4-.3-2.1-.5v-2.5c.6.4,1.3.6,1.9.8s1.3.3,1.9.3,1.2,0,1.5-.3.5-.5.5-.8-.1-.6-.4-.8-.8-.4-1.7-.6l-.8-.2c-1.1-.2-1.9-.6-2.4-1.2s-.8-1.2-.8-2.1.4-1.9,1.1-2.5,1.8-.9,3.2-.9,1.2,0,1.9.2,1.2.3,1.8.5ZM197.6,126.9h3.1v2.6l-1.9,3.7h-2.1l1-3.7v-2.6ZM224.6,130.5h-2.9v-12.1h-3.7v-2.5h10.3v2.5h-3.7v12.1ZM240,130c-.7.3-1.3.5-2,.6s-1.4.2-2.2.2c-1.8,0-3.2-.5-4.2-1.5-1-1-1.5-2.4-1.5-4.2s.5-3.2,1.4-4.2,2.2-1.6,3.8-1.6,2.9.5,3.8,1.4,1.3,2.3,1.3,4.1v1.2h-7.4c0,.9.3,1.5.8,1.9s1.2.6,2.2.6,1.3,0,1.9-.3,1.3-.5,2-.9v2.6ZM237.5,123.8c0-.8-.2-1.3-.6-1.7s-.9-.6-1.7-.6-1.2.2-1.6.6-.6,1-.7,1.7h4.5ZM252.4,119.6l-3.7,5.2,4,5.7h-3.3l-2.1-3.7-2.1,3.7h-3.3l4-5.7-3.7-5.2h3.3l1.8,3.3,1.8-3.3h3.3ZM260,116.5v3.1h3.7v2.2h-3.7v5.2c0,.5.1.8.4,1s.6.3,1.2.3h2.2v2.2h-2.4c-1.6,0-2.8-.3-3.3-.8-.6-.5-.9-1.5-.9-2.9v-5h-2.8v-2.2h2.8v-3.1h2.9ZM277.4,119.6h2.4l1.3,8.4,1.2-5.5h2.3l1.2,5.5,1.3-8.4h2.4l-2,10.9h-2.7l-1.3-5.7-1.3,5.7h-2.7l-2-10.9ZM291.6,119.6h5.7v8.7h3.6v2.2h-10v-2.2h3.6v-6.5h-2.8v-2.2ZM294.4,114.2h2.9v3.3h-2.9v-3.3ZM305.2,125.9v-8.4h-2.9v-2.2h5.8v10.6c0,.9.1,1.5.4,1.8s.7.5,1.4.5h2.3v2.2h-3.1c-1.4,0-2.3-.4-2.9-1.1-.6-.7-.9-1.9-.9-3.5ZM317.3,125.9v-8.4h-2.9v-2.2h5.8v10.6c0,.9.1,1.5.4,1.8s.7.5,1.4.5h2.3v2.2h-3.1c-1.4,0-2.3-.4-2.9-1.1-.6-.7-.9-1.9-.9-3.5ZM347.2,119.9v2.5c-.5-.3-1.1-.6-1.6-.8s-1.1-.3-1.7-.3-1.1,0-1.4.3-.5.5-.5.8c0,.5.7.9,2.1,1.3h.1s.8.2.8.2c1,.2,1.8.6,2.3,1.2s.7,1.3.7,2.2-.4,2-1.1,2.5c-.7.6-1.9.8-3.3.8s-1.3,0-2-.2c-.7-.1-1.4-.3-2.1-.5v-2.5c.6.4,1.3.6,1.9.8s1.3.3,1.9.3,1.2,0,1.5-.3.5-.5.5-.8-.1-.6-.4-.8-.8-.4-1.7-.6l-.8-.2c-1.1-.2-1.9-.6-2.4-1.2s-.8-1.2-.8-2.1.4-1.9,1.1-2.5,1.8-.9,3.2-.9,1.2,0,1.9.2,1.2.3,1.8.5ZM356.3,120.7c.2-.5.5-.8.8-1s.7-.3,1.2-.3c.9,0,1.6.3,2,1s.5,2,.5,4.1v6.2h-2.3v-7c0-.8,0-1.4-.2-1.6s-.3-.4-.7-.4-.6.1-.7.4-.2.8-.2,1.6v7h-2.3v-7c0-.8,0-1.3-.2-1.6s-.4-.4-.7-.4-.6.1-.7.4-.2.8-.2,1.6v7h-2.3v-10.9h2.1v1.1c.2-.4.4-.8.8-1s.8-.4,1.2-.4.8.1,1.2.4.6.6.7,1ZM362.6,125c0-1.8.5-3.2,1.4-4.2s2.1-1.5,3.7-1.5,2.8.5,3.7,1.5,1.4,2.4,1.4,4.2-.5,3.2-1.4,4.2c-.9,1-2.1,1.5-3.7,1.5s-2.8-.5-3.7-1.5c-.9-1-1.4-2.4-1.4-4.2ZM367.7,121.6c-.7,0-1.2.3-1.6.9s-.6,1.4-.6,2.5.2,1.9.6,2.5.9.9,1.6.9,1.2-.3,1.6-.9.6-1.4.6-2.5-.2-1.9-.6-2.5-.9-.9-1.6-.9ZM374.6,125c0-1.8.5-3.2,1.4-4.2s2.1-1.5,3.7-1.5,2.8.5,3.7,1.5,1.4,2.4,1.4,4.2-.5,3.2-1.4,4.2c-.9,1-2.1,1.5-3.7,1.5s-2.8-.5-3.7-1.5c-.9-1-1.4-2.4-1.4-4.2ZM379.7,121.6c-.7,0-1.2.3-1.6.9s-.6,1.4-.6,2.5.2,1.9.6,2.5.9.9,1.6.9,1.2-.3,1.6-.9.6-1.4.6-2.5-.2-1.9-.6-2.5-.9-.9-1.6-.9ZM392.5,116.5v3.1h3.7v2.2h-3.7v5.2c0,.5.1.8.4,1s.6.3,1.2.3h2.2v2.2h-2.4c-1.6,0-2.8-.3-3.3-.8-.6-.5-.9-1.5-.9-2.9v-5h-2.8v-2.2h2.8v-3.1h2.9ZM408.2,123.4v7.1h-2.8v-6.7c0-.8-.1-1.4-.3-1.7s-.6-.5-1.1-.5-.9.2-1.2.7-.4,1.1-.4,1.9v6.3h-2.8v-15.2h2.8v5.9c.2-.6.5-1.1,1-1.4s1.1-.5,1.8-.5c1,0,1.8.3,2.3,1s.8,1.7.8,3.1ZM413.6,125.9v-8.4h-2.9v-2.2h5.8v10.6c0,.9.1,1.5.4,1.8.3.4.7.5,1.4.5h2.3v2.2h-3.1c-1.4,0-2.3-.4-2.9-1.1-.6-.7-.9-1.9-.9-3.5ZM428.8,131.7c-.4,1-.8,1.8-1.4,2.3-.5.5-1.2.7-2,.7h-2.4v-2.2h1.2c.6,0,1,0,1.3-.3.3-.2.5-.7.8-1.4l.2-.6-4.2-10.6h3l2.5,7.1,2.4-7.1h3l-4.5,12.1ZM448.1,119.6h5.7v8.7h3.6v2.2h-10v-2.2h3.6v-6.5h-2.8v-2.2ZM450.9,114.2h2.9v3.3h-2.9v-3.3ZM468.4,123.4v7.1h-2.8v-6.7c0-.8-.1-1.4-.3-1.7s-.6-.5-1.1-.5-.9.2-1.2.7c-.3.5-.4,1.1-.4,1.9v6.3h-2.8v-10.9h2.8v1.6c.2-.6.5-1.1,1-1.4s1.1-.5,1.8-.5c1,0,1.8.3,2.3,1s.8,1.7.8,3.1ZM476.7,116.5v3.1h3.7v2.2h-3.7v5.2c0,.5.1.8.4,1,.2.2.6.3,1.2.3h2.2v2.2h-2.4c-1.6,0-2.8-.3-3.3-.8-.6-.5-.9-1.5-.9-2.9v-5h-2.8v-2.2h2.8v-3.1h2.9ZM492.8,130c-.7.3-1.3.5-2,.6-.7.1-1.4.2-2.2.2-1.8,0-3.2-.5-4.2-1.5-1-1-1.5-2.4-1.5-4.2s.5-3.2,1.4-4.2c.9-1,2.2-1.6,3.8-1.6s2.9.5,3.8,1.4c.9,1,1.3,2.3,1.3,4.1v1.2h-7.4c0,.9.3,1.5.8,1.9.5.4,1.2.6,2.2.6s1.3,0,1.9-.3c.6-.2,1.3-.5,2-.9v2.6ZM490.4,123.8c0-.8-.2-1.3-.6-1.7-.4-.4-.9-.6-1.7-.6s-1.2.2-1.6.6-.6,1-.7,1.7h4.5ZM505.3,122.6c-.3-.3-.7-.5-1.1-.6s-.9-.2-1.4-.2-1.1.1-1.6.3c-.5.2-.8.5-1,.9-.2.2-.3.5-.3.9,0,.4,0,.9,0,1.6v5h-2.9v-10.9h2.9v1.7c.3-.6.7-1.1,1.3-1.5.6-.3,1.3-.5,2-.5s.8,0,1.1.1c.4,0,.7.2,1.1.4v2.7ZM510.4,129v5.7h-2.9v-15.1h2.9v1.6c.3-.6.7-1.1,1.2-1.4s1.1-.5,1.7-.5c1.2,0,2.2.5,2.9,1.5.7,1,1,2.4,1,4.2s-.4,3.3-1,4.3c-.7,1-1.7,1.5-3,1.5s-1.1-.2-1.6-.5c-.5-.3-.9-.8-1.2-1.4ZM514.4,125c0-1.1-.2-1.9-.5-2.5s-.8-.9-1.5-.9-1.1.3-1.5.9c-.4.6-.5,1.4-.5,2.5s.2,1.9.5,2.5c.4.6.8.9,1.5.9s1.1-.3,1.5-.9.5-1.4.5-2.5ZM519.1,125c0-1.8.5-3.2,1.4-4.2.9-1,2.1-1.5,3.7-1.5s2.8.5,3.7,1.5c.9,1,1.4,2.4,1.4,4.2s-.5,3.2-1.4,4.2c-.9,1-2.1,1.5-3.7,1.5s-2.8-.5-3.7-1.5c-.9-1-1.4-2.4-1.4-4.2ZM524.2,121.6c-.7,0-1.2.3-1.6.9s-.6,1.4-.6,2.5.2,1.9.6,2.5.9.9,1.6.9,1.2-.3,1.6-.9.6-1.4.6-2.5-.2-1.9-.6-2.5-.9-.9-1.6-.9ZM534,125.9v-8.4h-2.9v-2.2h5.8v10.6c0,.9.1,1.5.4,1.8.3.4.7.5,1.4.5h2.3v2.2h-3.1c-1.4,0-2.3-.4-2.9-1.1-.6-.7-.9-1.9-.9-3.5ZM553.1,124.3v6.2h-2.8v-1.2c-.3.5-.8.9-1.3,1.1-.5.3-1.1.4-1.8.4-1.2,0-2.2-.3-2.9-1-.7-.7-1-1.6-1-2.8s.4-2.2,1.2-2.8c.8-.6,2.1-.9,3.8-.9h2v-.5c0-.5-.2-.8-.5-1-.3-.2-.8-.4-1.5-.4s-1.3,0-2,.3c-.6.2-1.3.4-2,.8v-2.4c.6-.3,1.3-.5,1.9-.6.7-.1,1.3-.2,2.1-.2,1.8,0,3,.4,3.7,1.1.7.7,1.1,2,1.1,3.9ZM549.1,125.4c-1.1,0-1.8.1-2.2.4-.4.3-.6.7-.6,1.4s.1.9.4,1.2.7.4,1.2.4c.8,0,1.3-.3,1.8-.9.4-.6.6-1.4.6-2.4v-.2h-1.1ZM561,116.5v3.1h3.7v2.2h-3.7v5.2c0,.5.1.8.4,1,.2.2.6.3,1.2.3h2.2v2.2h-2.4c-1.6,0-2.8-.3-3.3-.8-.6-.5-.9-1.5-.9-2.9v-5h-2.8v-2.2h2.8v-3.1h2.9ZM577.1,130c-.7.3-1.3.5-2,.6-.7.1-1.4.2-2.2.2-1.8,0-3.2-.5-4.2-1.5-1-1-1.5-2.4-1.5-4.2s.5-3.2,1.4-4.2c.9-1,2.2-1.6,3.8-1.6s2.9.5,3.8,1.4c.9,1,1.3,2.3,1.3,4.1v1.2h-7.4c0,.9.3,1.5.8,1.9.5.4,1.2.6,2.2.6s1.3,0,1.9-.3c.6-.2,1.3-.5,2-.9v2.6ZM574.7,123.8c0-.8-.2-1.3-.6-1.7-.4-.4-.9-.6-1.7-.6s-1.2.2-1.6.6-.6,1-.7,1.7h4.5ZM594.7,121.1c.4-.6.8-1.1,1.2-1.4.5-.3,1-.5,1.6-.5,1.3,0,2.3.5,3,1.5.7,1,1,2.4,1,4.3s-.3,3.2-1,4.2c-.7,1-1.7,1.5-2.9,1.5s-1.2-.2-1.7-.5c-.5-.3-.9-.8-1.2-1.4v1.6h-2.9v-15.2h2.9v5.8ZM598.7,125.1c0-1.1-.2-1.9-.5-2.5s-.8-.9-1.5-.9-1.1.3-1.5.9c-.4.6-.5,1.4-.5,2.5s.2,1.9.5,2.5c.4.6.8.9,1.5.9s1.1-.3,1.5-.9.5-1.4.5-2.5ZM613.2,130c-.7.3-1.3.5-2,.6-.7.1-1.4.2-2.2.2-1.8,0-3.2-.5-4.2-1.5-1-1-1.5-2.4-1.5-4.2s.5-3.2,1.4-4.2c.9-1,2.2-1.6,3.8-1.6s2.9.5,3.8,1.4c.9,1,1.3,2.3,1.3,4.1v1.2h-7.4c0,.9.3,1.5.8,1.9.5.4,1.2.6,2.2.6s1.3,0,1.9-.3c.6-.2,1.3-.5,2-.9v2.6ZM610.8,123.8c0-.8-.2-1.3-.6-1.7-.4-.4-.9-.6-1.7-.6s-1.2.2-1.6.6-.6,1-.7,1.7h4.5ZM621.2,116.5v3.1h3.7v2.2h-3.7v5.2c0,.5.1.8.4,1,.2.2.6.3,1.2.3h2.2v2.2h-2.4c-1.6,0-2.8-.3-3.3-.8-.6-.5-.9-1.5-.9-2.9v-5h-2.8v-2.2h2.8v-3.1h2.9ZM626.5,119.6h2.4l1.3,8.4,1.2-5.5h2.3l1.2,5.5,1.3-8.4h2.4l-2,10.9h-2.7l-1.3-5.7-1.3,5.7h-2.7l-2-10.9ZM649.3,130c-.7.3-1.3.5-2,.6-.7.1-1.4.2-2.2.2-1.8,0-3.2-.5-4.2-1.5-1-1-1.5-2.4-1.5-4.2s.5-3.2,1.4-4.2c.9-1,2.2-1.6,3.8-1.6s2.9.5,3.8,1.4c.9,1,1.3,2.3,1.3,4.1v1.2h-7.4c0,.9.3,1.5.8,1.9.5.4,1.2.6,2.2.6s1.3,0,1.9-.3c.6-.2,1.3-.5,2-.9v2.6ZM646.9,123.8c0-.8-.2-1.3-.6-1.7-.4-.4-.9-.6-1.7-.6s-1.2.2-1.6.6-.6,1-.7,1.7h4.5ZM661.4,130c-.7.3-1.3.5-2,.6-.7.1-1.4.2-2.2.2-1.8,0-3.2-.5-4.2-1.5-1-1-1.5-2.4-1.5-4.2s.5-3.2,1.4-4.2c.9-1,2.2-1.6,3.8-1.6s2.9.5,3.8,1.4c.9,1,1.3,2.3,1.3,4.1v1.2h-7.4c0,.9.3,1.5.8,1.9.5.4,1.2.6,2.2.6s1.3,0,1.9-.3c.6-.2,1.3-.5,2-.9v2.6ZM659,123.8c0-.8-.2-1.3-.6-1.7-.4-.4-.9-.6-1.7-.6s-1.2.2-1.6.6-.6,1-.7,1.7h4.5ZM673.1,123.4v7.1h-2.8v-6.7c0-.8-.1-1.4-.3-1.7s-.6-.5-1.1-.5-.9.2-1.2.7c-.3.5-.4,1.1-.4,1.9v6.3h-2.8v-10.9h2.8v1.6c.2-.6.5-1.1,1-1.4s1.1-.5,1.8-.5c1,0,1.8.3,2.3,1s.8,1.7.8,3.1ZM693.5,116.5v3.1h3.7v2.2h-3.7v5.2c0,.5.1.8.4,1,.2.2.6.3,1.2.3h2.2v2.2h-2.4c-1.6,0-2.8-.3-3.3-.8-.6-.5-.9-1.5-.9-2.9v-5h-2.8v-2.2h2.8v-3.1h2.9ZM698.8,119.6h2.4l1.3,8.4,1.2-5.5h2.3l1.2,5.5,1.3-8.4h2.4l-2,10.9h-2.7l-1.3-5.7-1.3,5.7h-2.7l-2-10.9ZM711.8,125c0-1.8.5-3.2,1.4-4.2.9-1,2.1-1.5,3.7-1.5s2.8.5,3.7,1.5c.9,1,1.4,2.4,1.4,4.2s-.5,3.2-1.4,4.2c-.9,1-2.1,1.5-3.7,1.5s-2.8-.5-3.7-1.5c-.9-1-1.4-2.4-1.4-4.2ZM716.8,121.6c-.7,0-1.2.3-1.6.9s-.6,1.4-.6,2.5.2,1.9.6,2.5.9.9,1.6.9,1.2-.3,1.6-.9.6-1.4.6-2.5-.2-1.9-.6-2.5-.9-.9-1.6-.9ZM91.7,149c0-1.8.5-3.2,1.4-4.2.9-1,2.1-1.5,3.7-1.5s2.8.5,3.7,1.5c.9,1,1.4,2.4,1.4,4.2s-.5,3.2-1.4,4.2-2.1,1.5-3.7,1.5-2.8-.5-3.7-1.5-1.4-2.4-1.4-4.2ZM96.7,145.6c-.7,0-1.2.3-1.6.9-.4.6-.6,1.4-.6,2.5s.2,1.9.6,2.5.9.9,1.6.9,1.2-.3,1.6-.9.6-1.4.6-2.5-.2-1.9-.6-2.5c-.4-.6-.9-.9-1.6-.9ZM114,146.6c-.3-.3-.7-.5-1.1-.6-.4-.1-.9-.2-1.4-.2s-1.1.1-1.6.3c-.5.2-.8.5-1,.9-.2.2-.3.5-.3.9s0,.9,0,1.6v5h-2.9v-10.9h2.9v1.7c.3-.6.7-1.1,1.3-1.5s1.3-.5,2-.5.8,0,1.1.1c.4,0,.7.2,1.1.4v2.7ZM133.6,144.7c.2-.5.5-.8.8-1,.3-.2.7-.3,1.2-.3.9,0,1.6.3,2,1,.4.7.5,2,.5,4.1v6.2h-2.3v-7c0-.8,0-1.4-.2-1.6s-.3-.4-.7-.4-.6.1-.7.4c-.1.3-.2.8-.2,1.6v7h-2.3v-7c0-.8,0-1.3-.2-1.6-.1-.3-.4-.4-.7-.4s-.6.1-.7.4-.2.8-.2,1.6v7h-2.3v-10.9h2.1v1.1c.2-.4.4-.8.8-1,.4-.2.8-.4,1.2-.4s.8.1,1.2.4.6.6.7,1ZM139.8,149c0-1.8.5-3.2,1.4-4.2.9-1,2.1-1.5,3.7-1.5s2.8.5,3.7,1.5c.9,1,1.4,2.4,1.4,4.2s-.5,3.2-1.4,4.2-2.1,1.5-3.7,1.5-2.8-.5-3.7-1.5-1.4-2.4-1.4-4.2ZM144.9,145.6c-.7,0-1.2.3-1.6.9-.4.6-.6,1.4-.6,2.5s.2,1.9.6,2.5.9.9,1.6.9,1.2-.3,1.6-.9.6-1.4.6-2.5-.2-1.9-.6-2.5c-.4-.6-.9-.9-1.6-.9ZM162.2,146.6c-.3-.3-.7-.5-1.1-.6-.4-.1-.9-.2-1.4-.2s-1.1.1-1.6.3c-.5.2-.8.5-1,.9-.2.2-.3.5-.3.9s0,.9,0,1.6v5h-2.9v-10.9h2.9v1.7c.3-.6.7-1.1,1.3-1.5s1.3-.5,2-.5.8,0,1.1.1c.4,0,.7.2,1.1.4v2.7ZM173.7,154c-.7.3-1.3.5-2,.6s-1.4.2-2.2.2c-1.8,0-3.2-.5-4.2-1.5s-1.5-2.4-1.5-4.2.5-3.2,1.4-4.2,2.2-1.6,3.8-1.6,2.9.5,3.8,1.4c.9,1,1.3,2.3,1.3,4.1v1.2h-7.4c0,.9.3,1.5.8,1.9s1.2.6,2.2.6,1.3,0,1.9-.3,1.3-.5,2-.9v2.6ZM171.3,147.8c0-.8-.2-1.3-.6-1.7-.4-.4-.9-.6-1.7-.6s-1.2.2-1.6.6-.6,1-.7,1.7h4.5ZM197.4,153.9c-.5.3-1,.5-1.6.6s-1.1.2-1.8.2c-1.7,0-3-.5-4-1.5s-1.4-2.4-1.4-4.2.5-3.2,1.4-4.2c1-1,2.3-1.5,4-1.5s1.2,0,1.7.2,1.1.3,1.6.6v2.6c-.4-.4-.9-.6-1.4-.8-.5-.2-1-.3-1.5-.3-.9,0-1.6.3-2.1.9-.5.6-.8,1.4-.8,2.5s.3,1.9.8,2.5,1.2.9,2.1.9,1.1,0,1.6-.3.9-.5,1.4-.8v2.6ZM200,149c0-1.8.5-3.2,1.4-4.2.9-1,2.1-1.5,3.7-1.5s2.8.5,3.7,1.5c.9,1,1.4,2.4,1.4,4.2s-.5,3.2-1.4,4.2-2.1,1.5-3.7,1.5-2.8-.5-3.7-1.5-1.4-2.4-1.4-4.2ZM205.1,145.6c-.7,0-1.2.3-1.6.9-.4.6-.6,1.4-.6,2.5s.2,1.9.6,2.5.9.9,1.6.9,1.2-.3,1.6-.9.6-1.4.6-2.5-.2-1.9-.6-2.5c-.4-.6-.9-.9-1.6-.9ZM214.9,149.9v-8.4h-2.9v-2.2h5.8v10.6c0,.9.1,1.5.4,1.8s.7.5,1.4.5h2.3v2.2h-3.1c-1.4,0-2.3-.4-2.9-1.1s-.9-1.9-.9-3.5ZM224.1,149c0-1.8.5-3.2,1.4-4.2.9-1,2.1-1.5,3.7-1.5s2.8.5,3.7,1.5c.9,1,1.4,2.4,1.4,4.2s-.5,3.2-1.4,4.2-2.1,1.5-3.7,1.5-2.8-.5-3.7-1.5-1.4-2.4-1.4-4.2ZM229.2,145.6c-.7,0-1.2.3-1.6.9-.4.6-.6,1.4-.6,2.5s.2,1.9.6,2.5.9.9,1.6.9,1.2-.3,1.6-.9.6-1.4.6-2.5-.2-1.9-.6-2.5c-.4-.6-.9-.9-1.6-.9ZM246.5,146.6c-.3-.3-.7-.5-1.1-.6-.4-.1-.9-.2-1.4-.2s-1.1.1-1.6.3c-.5.2-.8.5-1,.9-.2.2-.3.5-.3.9s0,.9,0,1.6v5h-2.9v-10.9h2.9v1.7c.3-.6.7-1.1,1.3-1.5s1.3-.5,2-.5.8,0,1.1.1c.4,0,.7.2,1.1.4v2.7ZM256.9,143.9v2.5c-.5-.3-1.1-.6-1.6-.8-.6-.2-1.1-.3-1.7-.3s-1.1,0-1.4.3-.5.5-.5.8c0,.5.7.9,2.1,1.3h.1s.8.2.8.2c1,.2,1.8.6,2.3,1.2.5.6.7,1.3.7,2.2s-.4,2-1.1,2.5-1.9.8-3.3.8-1.3,0-2-.2-1.4-.3-2.1-.5v-2.5c.6.4,1.3.6,1.9.8s1.3.3,1.9.3,1.2,0,1.5-.3.5-.5.5-.8-.1-.6-.4-.8-.8-.4-1.7-.6l-.8-.2c-1.1-.2-1.9-.6-2.4-1.2s-.8-1.2-.8-2.1.4-1.9,1.1-2.5,1.8-.9,3.2-.9,1.2,0,1.9.2c.6.1,1.2.3,1.8.5ZM263.7,150.9h3.3v3.6h-3.3v-3.6ZM290.8,154.5h-2.9v-12.1h-3.7v-2.5h10.3v2.5h-3.7v12.1ZM305.9,147.4v7.1h-2.8v-6.7c0-.8-.1-1.4-.3-1.7-.2-.3-.6-.5-1.1-.5s-.9.2-1.2.7-.4,1.1-.4,1.9v6.3h-2.8v-15.2h2.8v5.9c.2-.6.5-1.1,1-1.4s1.1-.5,1.8-.5c1,0,1.8.3,2.3,1,.5.7.8,1.7.8,3.1ZM309.6,143.6h5.7v8.7h3.6v2.2h-10v-2.2h3.6v-6.5h-2.8v-2.2ZM312.4,138.2h2.9v3.3h-2.9v-3.3ZM329.2,143.9v2.5c-.5-.3-1.1-.6-1.6-.8-.6-.2-1.1-.3-1.7-.3s-1.1,0-1.4.3-.5.5-.5.8c0,.5.7.9,2.1,1.3h.1s.8.2.8.2c1,.2,1.8.6,2.3,1.2.5.6.7,1.3.7,2.2s-.4,2-1.1,2.5-1.9.8-3.3.8-1.3,0-2-.2-1.4-.3-2.1-.5v-2.5c.6.4,1.3.6,1.9.8s1.3.3,1.9.3,1.2,0,1.5-.3.5-.5.5-.8-.1-.6-.4-.8-.8-.4-1.7-.6l-.8-.2c-1.1-.2-1.9-.6-2.4-1.2s-.8-1.2-.8-2.1.4-1.9,1.1-2.5,1.8-.9,3.2-.9,1.2,0,1.9.2c.6.1,1.2.3,1.8.5ZM350.3,144.7c.2-.5.5-.8.8-1,.3-.2.7-.3,1.2-.3.9,0,1.6.3,2,1,.4.7.5,2,.5,4.1v6.2h-2.3v-7c0-.8,0-1.4-.2-1.6s-.3-.4-.7-.4-.6.1-.7.4c-.1.3-.2.8-.2,1.6v7h-2.3v-7c0-.8,0-1.3-.2-1.6-.1-.3-.4-.4-.7-.4s-.6.1-.7.4-.2.8-.2,1.6v7h-2.3v-10.9h2.1v1.1c.2-.4.4-.8.8-1,.4-.2.8-.4,1.2-.4s.8.1,1.2.4.6.6.7,1ZM366.4,154c-.7.3-1.3.5-2,.6s-1.4.2-2.2.2c-1.8,0-3.2-.5-4.2-1.5s-1.5-2.4-1.5-4.2.5-3.2,1.4-4.2,2.2-1.6,3.8-1.6,2.9.5,3.8,1.4c.9,1,1.3,2.3,1.3,4.1v1.2h-7.4c0,.9.3,1.5.8,1.9s1.2.6,2.2.6,1.3,0,1.9-.3,1.3-.5,2-.9v2.6ZM364,147.8c0-.8-.2-1.3-.6-1.7-.4-.4-.9-.6-1.7-.6s-1.2.2-1.6.6-.6,1-.7,1.7h4.5ZM378.5,148.3v6.2h-2.8v-1.2c-.3.5-.8.9-1.3,1.1s-1.1.4-1.8.4c-1.2,0-2.2-.3-2.9-1s-1-1.6-1-2.8.4-2.2,1.2-2.8c.8-.6,2.1-.9,3.8-.9h2v-.5c0-.5-.2-.8-.5-1-.3-.2-.8-.4-1.5-.4s-1.3,0-2,.3c-.6.2-1.3.4-2,.8v-2.4c.6-.3,1.3-.5,1.9-.6.7-.1,1.3-.2,2.1-.2,1.8,0,3,.4,3.7,1.1s1.1,2,1.1,3.9ZM374.5,149.4c-1.1,0-1.8.1-2.2.4s-.6.7-.6,1.4.1.9.4,1.2.7.4,1.2.4c.8,0,1.3-.3,1.8-.9s.6-1.4.6-2.4v-.2h-1.1ZM390.2,147.4v7.1h-2.8v-6.7c0-.8-.1-1.4-.3-1.7s-.6-.5-1.1-.5-.9.2-1.2.7c-.3.5-.4,1.1-.4,1.9v6.3h-2.8v-10.9h2.8v1.6c.2-.6.5-1.1,1-1.4s1.1-.5,1.8-.5c1,0,1.8.3,2.3,1,.5.7.8,1.7.8,3.1ZM401.4,143.9v2.5c-.5-.3-1.1-.6-1.6-.8-.6-.2-1.1-.3-1.7-.3s-1.1,0-1.4.3-.5.5-.5.8c0,.5.7.9,2.1,1.3h.1s.8.2.8.2c1,.2,1.8.6,2.3,1.2.5.6.7,1.3.7,2.2s-.4,2-1.1,2.5-1.9.8-3.3.8-1.3,0-2-.2-1.4-.3-2.1-.5v-2.5c.6.4,1.3.6,1.9.8s1.3.3,1.9.3,1.2,0,1.5-.3.5-.5.5-.8-.1-.6-.4-.8-.8-.4-1.7-.6l-.8-.2c-1.1-.2-1.9-.6-2.4-1.2s-.8-1.2-.8-2.1.4-1.9,1.1-2.5,1.8-.9,3.2-.9,1.2,0,1.9.2c.6.1,1.2.3,1.8.5ZM422.8,155.7c-.4,1-.8,1.8-1.4,2.3s-1.2.7-2,.7h-2.4v-2.2h1.2c.6,0,1,0,1.3-.3s.5-.7.8-1.4l.2-.6-4.2-10.6h3l2.5,7.1,2.4-7.1h3l-4.5,12.1ZM428.8,149c0-1.8.5-3.2,1.4-4.2.9-1,2.1-1.5,3.7-1.5s2.8.5,3.7,1.5c.9,1,1.4,2.4,1.4,4.2s-.5,3.2-1.4,4.2c-.9,1-2.1,1.5-3.7,1.5s-2.8-.5-3.7-1.5c-.9-1-1.4-2.4-1.4-4.2ZM433.9,145.6c-.7,0-1.2.3-1.6.9-.4.6-.6,1.4-.6,2.5s.2,1.9.6,2.5.9.9,1.6.9,1.2-.3,1.6-.9.6-1.4.6-2.5-.2-1.9-.6-2.5c-.4-.6-.9-.9-1.6-.9ZM441.5,150.7v-7.1h2.9v6.7c0,.8.1,1.4.3,1.7.2.3.6.5,1.1.5s.9-.2,1.2-.7c.3-.5.4-1.1.4-1.9v-6.3h2.9v10.9h-2.9v-1.6c-.2.6-.5,1.1-1,1.4-.5.3-1.1.5-1.8.5-1,0-1.8-.3-2.4-1-.5-.7-.8-1.7-.8-3.1ZM474.4,153.9c-.5.3-1,.5-1.6.6-.6.1-1.1.2-1.8.2-1.7,0-3-.5-4-1.5-1-1-1.4-2.4-1.4-4.2s.5-3.2,1.4-4.2c1-1,2.3-1.5,4-1.5s1.2,0,1.7.2c.5.1,1.1.3,1.6.6v2.6c-.4-.4-.9-.6-1.4-.8-.5-.2-1-.3-1.5-.3-.9,0-1.6.3-2.1.9-.5.6-.8,1.4-.8,2.5s.2,1.9.8,2.5c.5.6,1.2.9,2.1.9s1.1,0,1.6-.3c.5-.2.9-.5,1.4-.8v2.6ZM486.9,148.3v6.2h-2.8v-1.2c-.3.5-.8.9-1.3,1.1-.5.3-1.1.4-1.8.4-1.2,0-2.2-.3-2.9-1s-1-1.6-1-2.8.4-2.2,1.2-2.8c.8-.6,2.1-.9,3.8-.9h2v-.5c0-.5-.2-.8-.5-1-.3-.2-.8-.4-1.5-.4s-1.3,0-2,.3c-.6.2-1.3.4-2,.8v-2.4c.6-.3,1.3-.5,1.9-.6.7-.1,1.3-.2,2.1-.2,1.8,0,3,.4,3.7,1.1.7.7,1.1,2,1.1,3.9ZM482.9,149.4c-1.1,0-1.8.1-2.2.4-.4.3-.6.7-.6,1.4s.1.9.4,1.2.7.4,1.2.4c.8,0,1.3-.3,1.8-.9.4-.6.6-1.4.6-2.4v-.2h-1.1ZM498.5,147.4v7.1h-2.8v-6.7c0-.8-.1-1.4-.3-1.7s-.6-.5-1.1-.5-.9.2-1.2.7c-.3.5-.4,1.1-.4,1.9v6.3h-2.8v-10.9h2.8v1.6c.2-.6.5-1.1,1-1.4s1.1-.5,1.8-.5c1,0,1.8.3,2.3,1,.5.7.8,1.7.8,3.1ZM521.8,143.9v2.5c-.5-.3-1.1-.6-1.6-.8-.6-.2-1.1-.3-1.7-.3s-1.1,0-1.4.3c-.3.2-.5.5-.5.8,0,.5.7.9,2.1,1.3h.1s.8.2.8.2c1,.2,1.8.6,2.3,1.2.5.6.7,1.3.7,2.2s-.4,2-1.1,2.5c-.7.6-1.9.8-3.3.8s-1.3,0-2-.2c-.7-.1-1.4-.3-2.1-.5v-2.5c.6.4,1.3.6,1.9.8s1.3.3,1.9.3,1.2,0,1.5-.3c.3-.2.5-.5.5-.8s-.1-.6-.4-.8-.8-.4-1.7-.6l-.8-.2c-1.1-.2-1.9-.6-2.4-1.2-.5-.5-.8-1.2-.8-2.1s.4-1.9,1.1-2.5,1.8-.9,3.2-.9,1.2,0,1.9.2c.6.1,1.2.3,1.8.5ZM528.5,153v5.7h-2.9v-15.1h2.9v1.6c.3-.6.7-1.1,1.2-1.4.5-.3,1.1-.5,1.7-.5,1.2,0,2.2.5,2.9,1.5.7,1,1,2.4,1,4.2s-.4,3.3-1,4.3c-.7,1-1.7,1.5-3,1.5s-1.1-.2-1.6-.5c-.5-.3-.9-.8-1.2-1.4ZM532.5,149c0-1.1-.2-1.9-.5-2.5-.4-.6-.8-.9-1.5-.9s-1.1.3-1.5.9c-.4.6-.5,1.4-.5,2.5s.2,1.9.5,2.5c.4.6.8.9,1.5.9s1.1-.3,1.5-.9.5-1.4.5-2.5ZM547,154c-.7.3-1.3.5-2,.6-.7.1-1.4.2-2.2.2-1.8,0-3.2-.5-4.2-1.5s-1.5-2.4-1.5-4.2.5-3.2,1.4-4.2c.9-1,2.2-1.6,3.8-1.6s2.9.5,3.8,1.4c.9,1,1.3,2.3,1.3,4.1v1.2h-7.4c0,.9.3,1.5.8,1.9.5.4,1.2.6,2.2.6s1.3,0,1.9-.3c.6-.2,1.3-.5,2-.9v2.6ZM544.6,147.8c0-.8-.2-1.3-.6-1.7-.4-.4-.9-.6-1.7-.6s-1.2.2-1.6.6-.6,1-.7,1.7h4.5ZM558.6,153.9c-.5.3-1,.5-1.6.6-.6.1-1.1.2-1.8.2-1.7,0-3-.5-4-1.5-1-1-1.4-2.4-1.4-4.2s.5-3.2,1.4-4.2c1-1,2.3-1.5,4-1.5s1.2,0,1.7.2c.5.1,1.1.3,1.6.6v2.6c-.4-.4-.9-.6-1.4-.8-.5-.2-1-.3-1.5-.3-.9,0-1.6.3-2.1.9-.5.6-.8,1.4-.8,2.5s.2,1.9.8,2.5c.5.6,1.2.9,2.1.9s1.1,0,1.6-.3c.5-.2.9-.5,1.4-.8v2.6ZM562.5,143.6h5.7v8.7h3.6v2.2h-10v-2.2h3.6v-6.5h-2.8v-2.2ZM565.3,138.2h2.9v3.3h-2.9v-3.3ZM579.6,142.6v1h3.4v2.2h-3.4v8.7h-2.9v-8.7h-2.7v-2.2h2.7v-.8c0-1.3.3-2.2.8-2.7s1.6-.8,3-.8h2.4v2.2h-2.2c-.4,0-.7,0-.9.2-.2.2-.2.4-.2.9ZM591.3,155.7c-.4,1-.8,1.8-1.4,2.3s-1.2.7-2,.7h-2.4v-2.2h1.2c.6,0,1,0,1.3-.3s.5-.7.8-1.4l.2-.6-4.2-10.6h3l2.5,7.1,2.4-7.1h3l-4.5,12.1ZM619.3,148.3v6.2h-2.8v-1.2c-.3.5-.8.9-1.3,1.1-.5.3-1.1.4-1.8.4-1.2,0-2.2-.3-2.9-1s-1-1.6-1-2.8.4-2.2,1.2-2.8c.8-.6,2.1-.9,3.8-.9h2v-.5c0-.5-.2-.8-.5-1-.3-.2-.8-.4-1.5-.4s-1.3,0-2,.3c-.6.2-1.3.4-2,.8v-2.4c.6-.3,1.3-.5,1.9-.6.7-.1,1.3-.2,2.1-.2,1.8,0,3,.4,3.7,1.1.7.7,1.1,2,1.1,3.9ZM615.3,149.4c-1.1,0-1.8.1-2.2.4-.4.3-.6.7-.6,1.4s.1.9.4,1.2.7.4,1.2.4c.8,0,1.3-.3,1.8-.9.4-.6.6-1.4.6-2.4v-.2h-1.1ZM636.3,149.9v-8.4h-2.9v-2.2h5.8v10.6c0,.9.1,1.5.4,1.8.3.4.7.5,1.4.5h2.3v2.2h-3.1c-1.4,0-2.3-.4-2.9-1.1-.6-.7-.9-1.9-.9-3.5ZM646.8,143.6h5.7v8.7h3.6v2.2h-10v-2.2h3.6v-6.5h-2.8v-2.2ZM649.6,138.2h2.9v3.3h-2.9v-3.3ZM666.3,143.9v2.5c-.5-.3-1.1-.6-1.6-.8-.6-.2-1.1-.3-1.7-.3s-1.1,0-1.4.3c-.3.2-.5.5-.5.8,0,.5.7.9,2.1,1.3h.1s.8.2.8.2c1,.2,1.8.6,2.3,1.2.5.6.7,1.3.7,2.2s-.4,2-1.1,2.5c-.7.6-1.9.8-3.3.8s-1.3,0-2-.2c-.7-.1-1.4-.3-2.1-.5v-2.5c.6.4,1.3.6,1.9.8s1.3.3,1.9.3,1.2,0,1.5-.3c.3-.2.5-.5.5-.8s-.1-.6-.4-.8-.8-.4-1.7-.6l-.8-.2c-1.1-.2-1.9-.6-2.4-1.2-.5-.5-.8-1.2-.8-2.1s.4-1.9,1.1-2.5,1.8-.9,3.2-.9,1.2,0,1.9.2c.6.1,1.2.3,1.8.5ZM675.4,140.5v3.1h3.7v2.2h-3.7v5.2c0,.5.1.8.4,1,.2.2.6.3,1.2.3h2.2v2.2h-2.4c-1.6,0-2.8-.3-3.3-.8-.6-.5-.9-1.5-.9-2.9v-5h-2.8v-2.2h2.8v-3.1h2.9ZM693.7,149c0-1.8.5-3.2,1.4-4.2.9-1,2.1-1.5,3.7-1.5s2.8.5,3.7,1.5c.9,1,1.4,2.4,1.4,4.2s-.5,3.2-1.4,4.2c-.9,1-2.1,1.5-3.7,1.5s-2.8-.5-3.7-1.5c-.9-1-1.4-2.4-1.4-4.2ZM698.8,145.6c-.7,0-1.2.3-1.6.9-.4.6-.6,1.4-.6,2.5s.2,1.9.6,2.5.9.9,1.6.9,1.2-.3,1.6-.9.6-1.4.6-2.5-.2-1.9-.6-2.5c-.4-.6-.9-.9-1.6-.9ZM712,142.6v1h3.4v2.2h-3.4v8.7h-2.9v-8.7h-2.7v-2.2h2.7v-.8c0-1.3.3-2.2.8-2.7s1.6-.8,3-.8h2.4v2.2h-2.2c-.4,0-.7,0-.9.2-.2.2-.2.4-.2.9ZM95.1,177.9c-.5.3-1,.5-1.6.6s-1.1.2-1.8.2c-1.7,0-3-.5-4-1.5s-1.4-2.4-1.4-4.2.5-3.2,1.4-4.2,2.3-1.5,4-1.5,1.2,0,1.7.2,1.1.3,1.6.6v2.6c-.4-.4-.9-.6-1.4-.8s-1-.3-1.5-.3c-.9,0-1.6.3-2.1.9s-.8,1.4-.8,2.5.3,1.9.8,2.5,1.2.9,2.1.9,1.1,0,1.6-.3.9-.5,1.4-.8v2.6ZM97.7,173c0-1.8.5-3.2,1.4-4.2s2.1-1.5,3.7-1.5,2.8.5,3.7,1.5,1.4,2.4,1.4,4.2-.5,3.2-1.4,4.2-2.1,1.5-3.7,1.5-2.8-.5-3.7-1.5-1.4-2.4-1.4-4.2ZM102.8,169.6c-.7,0-1.2.3-1.6.9s-.6,1.4-.6,2.5.2,1.9.6,2.5.9.9,1.6.9,1.2-.3,1.6-.9.6-1.4.6-2.5-.2-1.9-.6-2.5-.9-.9-1.6-.9ZM112.6,173.9v-8.4h-2.9v-2.2h5.8v10.6c0,.9.1,1.5.4,1.8s.7.5,1.4.5h2.3v2.2h-3.1c-1.4,0-2.3-.4-2.9-1.1s-.9-1.9-.9-3.5ZM121.8,173c0-1.8.5-3.2,1.4-4.2s2.1-1.5,3.7-1.5,2.8.5,3.7,1.5,1.4,2.4,1.4,4.2-.5,3.2-1.4,4.2-2.1,1.5-3.7,1.5-2.8-.5-3.7-1.5-1.4-2.4-1.4-4.2ZM126.8,169.6c-.7,0-1.2.3-1.6.9s-.6,1.4-.6,2.5.2,1.9.6,2.5.9.9,1.6.9,1.2-.3,1.6-.9.6-1.4.6-2.5-.2-1.9-.6-2.5-.9-.9-1.6-.9ZM144.1,170.6c-.3-.3-.7-.5-1.1-.6s-.9-.2-1.4-.2-1.1.1-1.6.3-.8.5-1,.9c-.2.2-.3.5-.3.9s0,.9,0,1.6v5h-2.9v-10.9h2.9v1.7c.3-.6.7-1.1,1.3-1.5s1.3-.5,2-.5.8,0,1.1.1.7.2,1.1.4v2.7ZM154.6,167.9v2.5c-.5-.3-1.1-.6-1.6-.8s-1.1-.3-1.7-.3-1.1,0-1.4.3-.5.5-.5.8c0,.5.7.9,2.1,1.3h.1s.8.2.8.2c1,.2,1.8.6,2.3,1.2s.7,1.3.7,2.2-.4,2-1.1,2.5-1.9.8-3.3.8-1.3,0-2-.2-1.4-.3-2.1-.5v-2.5c.6.4,1.3.6,1.9.8s1.3.3,1.9.3,1.2,0,1.5-.3.5-.5.5-.8-.1-.6-.4-.8-.8-.4-1.7-.6l-.8-.2c-1.1-.2-1.9-.6-2.4-1.2s-.8-1.2-.8-2.1.4-1.9,1.1-2.5,1.8-.9,3.2-.9,1.2,0,1.9.2,1.2.3,1.8.5ZM161.4,174.9h3.1v2.6l-1.9,3.7h-2.1l1-3.7v-2.6ZM182,173c0-1.8.5-3.2,1.4-4.2s2.1-1.5,3.7-1.5,2.8.5,3.7,1.5,1.4,2.4,1.4,4.2-.5,3.2-1.4,4.2-2.1,1.5-3.7,1.5-2.8-.5-3.7-1.5-1.4-2.4-1.4-4.2ZM187,169.6c-.7,0-1.2.3-1.6.9s-.6,1.4-.6,2.5.2,1.9.6,2.5.9.9,1.6.9,1.2-.3,1.6-.9.6-1.4.6-2.5-.2-1.9-.6-2.5-.9-.9-1.6-.9ZM204.3,170.6c-.3-.3-.7-.5-1.1-.6s-.9-.2-1.4-.2-1.1.1-1.6.3-.8.5-1,.9c-.2.2-.3.5-.3.9s0,.9,0,1.6v5h-2.9v-10.9h2.9v1.7c.3-.6.7-1.1,1.3-1.5s1.3-.5,2-.5.8,0,1.1.1.7.2,1.1.4v2.7ZM227.9,178c-.7.3-1.3.5-2,.6s-1.4.2-2.2.2c-1.8,0-3.2-.5-4.2-1.5s-1.5-2.4-1.5-4.2.5-3.2,1.4-4.2,2.2-1.6,3.8-1.6,2.9.5,3.8,1.4,1.3,2.3,1.3,4.1v1.2h-7.4c0,.9.3,1.5.8,1.9s1.2.6,2.2.6,1.3,0,1.9-.3,1.3-.5,2-.9v2.6ZM225.5,171.8c0-.8-.2-1.3-.6-1.7s-.9-.6-1.7-.6-1.2.2-1.6.6-.6,1-.7,1.7h4.5ZM240.4,167.6l-3.5,10.9h-3.5l-3.5-10.9h2.9l2.3,8.5,2.3-8.5h2.9ZM252,178c-.7.3-1.3.5-2,.6s-1.4.2-2.2.2c-1.8,0-3.2-.5-4.2-1.5s-1.5-2.4-1.5-4.2.5-3.2,1.4-4.2,2.2-1.6,3.8-1.6,2.9.5,3.8,1.4,1.3,2.3,1.3,4.1v1.2h-7.4c0,.9.3,1.5.8,1.9s1.2.6,2.2.6,1.3,0,1.9-.3,1.3-.5,2-.9v2.6ZM249.6,171.8c0-.8-.2-1.3-.6-1.7s-.9-.6-1.7-.6-1.2.2-1.6.6-.6,1-.7,1.7h4.5ZM263.7,171.4v7.1h-2.8v-6.7c0-.8-.1-1.4-.3-1.7s-.6-.5-1.1-.5-.9.2-1.2.7-.4,1.1-.4,1.9v6.3h-2.8v-10.9h2.8v1.6c.2-.6.5-1.1,1-1.4s1.1-.5,1.8-.5c1,0,1.8.3,2.3,1s.8,1.7.8,3.1ZM285.7,178.1c0,1.6-.3,2.8-.9,3.5s-1.6,1-2.9,1h-3.1v-2.2h2.3c.6,0,1.1-.2,1.4-.5s.4-1,.4-1.8v-8.3h-2.9v-2.2h5.8v10.5ZM285.7,165.6h-2.9v-3.3h2.9v3.3ZM291,174.7v-7.1h2.9v6.7c0,.8.1,1.4.3,1.7s.6.5,1.1.5.9-.2,1.2-.7.4-1.1.4-1.9v-6.3h2.9v10.9h-2.9v-1.6c-.2.6-.5,1.1-1,1.4s-1.1.5-1.8.5c-1,0-1.8-.3-2.4-1s-.8-1.7-.8-3.1ZM311.1,167.9v2.5c-.5-.3-1.1-.6-1.6-.8s-1.1-.3-1.7-.3-1.1,0-1.4.3-.5.5-.5.8c0,.5.7.9,2.1,1.3h.1s.8.2.8.2c1,.2,1.8.6,2.3,1.2s.7,1.3.7,2.2-.4,2-1.1,2.5-1.9.8-3.3.8-1.3,0-2-.2-1.4-.3-2.1-.5v-2.5c.6.4,1.3.6,1.9.8s1.3.3,1.9.3,1.2,0,1.5-.3.5-.5.5-.8-.1-.6-.4-.8-.8-.4-1.7-.6l-.8-.2c-1.1-.2-1.9-.6-2.4-1.2s-.8-1.2-.8-2.1.4-1.9,1.1-2.5,1.8-.9,3.2-.9,1.2,0,1.9.2,1.2.3,1.8.5ZM320.2,164.5v3.1h3.7v2.2h-3.7v5.2c0,.5.1.8.4,1s.6.3,1.2.3h2.2v2.2h-2.4c-1.6,0-2.8-.3-3.3-.8s-.9-1.5-.9-2.9v-5h-2.8v-2.2h2.8v-3.1h2.9ZM344.3,164.5v3.1h3.7v2.2h-3.7v5.2c0,.5.1.8.4,1s.6.3,1.2.3h2.2v2.2h-2.4c-1.6,0-2.8-.3-3.3-.8s-.9-1.5-.9-2.9v-5h-2.8v-2.2h2.8v-3.1h2.9ZM349.6,167.6h2.4l1.3,8.4,1.2-5.5h2.3l1.2,5.5,1.3-8.4h2.4l-2,10.9h-2.7l-1.3-5.7-1.3,5.7h-2.7l-2-10.9ZM362.6,173c0-1.8.5-3.2,1.4-4.2s2.1-1.5,3.7-1.5,2.8.5,3.7,1.5,1.4,2.4,1.4,4.2-.5,3.2-1.4,4.2-2.1,1.5-3.7,1.5-2.8-.5-3.7-1.5-1.4-2.4-1.4-4.2ZM367.7,169.6c-.7,0-1.2.3-1.6.9s-.6,1.4-.6,2.5.2,1.9.6,2.5.9.9,1.6.9,1.2-.3,1.6-.9.6-1.4.6-2.5-.2-1.9-.6-2.5-.9-.9-1.6-.9ZM396.1,177.9c-.5.3-1,.5-1.6.6s-1.1.2-1.8.2c-1.7,0-3-.5-4-1.5s-1.4-2.4-1.4-4.2.5-3.2,1.4-4.2,2.3-1.5,4-1.5,1.2,0,1.7.2,1.1.3,1.6.6v2.6c-.4-.4-.9-.6-1.4-.8s-1-.3-1.5-.3c-.9,0-1.6.3-2.1.9s-.8,1.4-.8,2.5.3,1.9.8,2.5,1.2.9,2.1.9,1.1,0,1.6-.3.9-.5,1.4-.8v2.6ZM398.7,173c0-1.8.5-3.2,1.4-4.2s2.1-1.5,3.7-1.5,2.8.5,3.7,1.5c.9,1,1.4,2.4,1.4,4.2s-.5,3.2-1.4,4.2c-.9,1-2.1,1.5-3.7,1.5s-2.8-.5-3.7-1.5-1.4-2.4-1.4-4.2ZM403.8,169.6c-.7,0-1.2.3-1.6.9s-.6,1.4-.6,2.5.2,1.9.6,2.5.9.9,1.6.9,1.2-.3,1.6-.9.6-1.4.6-2.5-.2-1.9-.6-2.5-.9-.9-1.6-.9ZM413.6,173.9v-8.4h-2.9v-2.2h5.8v10.6c0,.9.1,1.5.4,1.8.3.4.7.5,1.4.5h2.3v2.2h-3.1c-1.4,0-2.3-.4-2.9-1.1-.6-.7-.9-1.9-.9-3.5ZM422.8,173c0-1.8.5-3.2,1.4-4.2.9-1,2.1-1.5,3.7-1.5s2.8.5,3.7,1.5c.9,1,1.4,2.4,1.4,4.2s-.5,3.2-1.4,4.2c-.9,1-2.1,1.5-3.7,1.5s-2.8-.5-3.7-1.5c-.9-1-1.4-2.4-1.4-4.2ZM427.9,169.6c-.7,0-1.2.3-1.6.9s-.6,1.4-.6,2.5.2,1.9.6,2.5.9.9,1.6.9,1.2-.3,1.6-.9.6-1.4.6-2.5-.2-1.9-.6-2.5-.9-.9-1.6-.9ZM445.1,170.6c-.3-.3-.7-.5-1.1-.6s-.9-.2-1.4-.2-1.1.1-1.6.3c-.5.2-.8.5-1,.9-.2.2-.3.5-.3.9,0,.4,0,.9,0,1.6v5h-2.9v-10.9h2.9v1.7c.3-.6.7-1.1,1.3-1.5.6-.3,1.3-.5,2-.5s.8,0,1.1.1c.4,0,.7.2,1.1.4v2.7ZM455.6,167.9v2.5c-.5-.3-1.1-.6-1.6-.8-.6-.2-1.1-.3-1.7-.3s-1.1,0-1.4.3c-.3.2-.5.5-.5.8,0,.5.7.9,2.1,1.3h.1s.8.2.8.2c1,.2,1.8.6,2.3,1.2.5.5.7,1.3.7,2.2s-.4,2-1.1,2.5c-.7.6-1.9.8-3.3.8s-1.3,0-2-.2c-.7-.1-1.4-.3-2.1-.5v-2.5c.6.4,1.3.6,1.9.8s1.3.3,1.9.3,1.2,0,1.5-.3c.3-.2.5-.5.5-.8s-.1-.6-.4-.8-.8-.4-1.7-.6l-.8-.2c-1.1-.2-1.9-.6-2.4-1.2-.5-.5-.8-1.2-.8-2.1s.4-1.9,1.1-2.5,1.8-.9,3.2-.9,1.2,0,1.9.2,1.2.3,1.8.5ZM480.8,172.3v6.2h-2.8v-1.2c-.3.5-.8.9-1.3,1.1-.5.3-1.1.4-1.8.4-1.2,0-2.2-.3-2.9-1s-1-1.6-1-2.8.4-2.2,1.2-2.8c.8-.6,2.1-.9,3.8-.9h2v-.5c0-.5-.2-.8-.5-1-.3-.2-.8-.4-1.5-.4s-1.3,0-2,.3c-.6.2-1.3.4-2,.8v-2.4c.6-.3,1.3-.5,1.9-.6.7-.1,1.3-.2,2.1-.2,1.8,0,3,.4,3.7,1.1.7.7,1.1,2,1.1,3.9ZM476.8,173.4c-1.1,0-1.8.1-2.2.4-.4.3-.6.7-.6,1.4s.1.9.4,1.2.7.4,1.2.4c.8,0,1.3-.3,1.8-.9.4-.6.6-1.4.6-2.4v-.2h-1.1ZM492.5,171.4v7.1h-2.8v-6.7c0-.8-.1-1.4-.3-1.7s-.6-.5-1.1-.5-.9.2-1.2.7c-.3.5-.4,1.1-.4,1.9v6.3h-2.8v-10.9h2.8v1.6c.2-.6.5-1.1,1-1.4s1.1-.5,1.8-.5c1,0,1.8.3,2.3,1s.8,1.7.8,3.1ZM501.8,169.1v-5.8h2.9v15.2h-2.9v-1.6c-.3.6-.7,1.1-1.2,1.4-.5.3-1.1.5-1.7.5-1.2,0-2.2-.5-2.9-1.5-.7-1-1-2.4-1-4.2s.3-3.3,1-4.3c.7-1,1.7-1.5,3-1.5s1.1.2,1.6.5c.5.3.9.8,1.2,1.4ZM497.8,173.1c0,1.1.2,1.9.5,2.5s.8.9,1.5.9,1.1-.3,1.5-.9c.4-.6.5-1.4.5-2.5s-.2-1.9-.5-2.5c-.4-.6-.8-.9-1.5-.9s-1.1.3-1.5.9-.5,1.4-.5,2.5ZM525.6,178.5h-2.9v-12.1h-3.7v-2.5h10.3v2.5h-3.7v12.1ZM541,178c-.7.3-1.3.5-2,.6-.7.1-1.4.2-2.2.2-1.8,0-3.2-.5-4.2-1.5s-1.5-2.4-1.5-4.2.5-3.2,1.4-4.2c.9-1,2.2-1.6,3.8-1.6s2.9.5,3.8,1.4c.9,1,1.3,2.3,1.3,4.1v1.2h-7.4c0,.9.3,1.5.8,1.9.5.4,1.2.6,2.2.6s1.3,0,1.9-.3c.6-.2,1.3-.5,2-.9v2.6ZM538.6,171.8c0-.8-.2-1.3-.6-1.7-.4-.4-.9-.6-1.7-.6s-1.2.2-1.6.6-.6,1-.7,1.7h4.5ZM553.4,167.6l-3.7,5.2,4,5.7h-3.3l-2.1-3.7-2.1,3.7h-3.3l4-5.7-3.7-5.2h3.3l1.8,3.3,1.8-3.3h3.3ZM561,164.5v3.1h3.7v2.2h-3.7v5.2c0,.5.1.8.4,1,.2.2.6.3,1.2.3h2.2v2.2h-2.4c-1.6,0-2.8-.3-3.3-.8-.6-.5-.9-1.5-.9-2.9v-5h-2.8v-2.2h2.8v-3.1h2.9ZM578.4,167.6h2.4l1.3,8.4,1.2-5.5h2.3l1.2,5.5,1.3-8.4h2.4l-2,10.9h-2.7l-1.3-5.7-1.3,5.7h-2.7l-2-10.9ZM592.6,167.6h5.7v8.7h3.6v2.2h-10v-2.2h3.6v-6.5h-2.8v-2.2ZM595.4,162.2h2.9v3.3h-2.9v-3.3ZM606.2,173.9v-8.4h-2.9v-2.2h5.8v10.6c0,.9.1,1.5.4,1.8.3.4.7.5,1.4.5h2.3v2.2h-3.1c-1.4,0-2.3-.4-2.9-1.1-.6-.7-.9-1.9-.9-3.5ZM618.3,173.9v-8.4h-2.9v-2.2h5.8v10.6c0,.9.1,1.5.4,1.8.3.4.7.5,1.4.5h2.3v2.2h-3.1c-1.4,0-2.3-.4-2.9-1.1-.6-.7-.9-1.9-.9-3.5ZM649.3,177.7c0,1.8-.4,3-1.2,3.8s-2.1,1.2-3.9,1.2-1.2,0-1.8-.1-1.2-.2-1.8-.4v-2.6c.5.3,1.1.5,1.7.7.6.1,1.1.2,1.7.2s1.4-.2,1.8-.6c.4-.4.6-1,.6-1.8v-1.2c-.3.5-.7.9-1.1,1.2-.5.3-1,.4-1.7.4-1.2,0-2.2-.5-3-1.5-.7-1-1.1-2.3-1.1-4s.4-3.1,1.1-4.1c.7-1,1.7-1.5,3-1.5s1.2.1,1.7.4.9.7,1.2,1.2v-1.4h2.9v10.1ZM646.4,172.9c0-1-.2-1.8-.6-2.3s-.9-.9-1.5-.9-1.1.3-1.5.9c-.4.6-.6,1.4-.6,2.4s.2,1.8.6,2.4c.4.6.9.9,1.5.9s1.1-.3,1.5-.9.6-1.4.6-2.4ZM661.4,178c-.7.3-1.3.5-2,.6-.7.1-1.4.2-2.2.2-1.8,0-3.2-.5-4.2-1.5s-1.5-2.4-1.5-4.2.5-3.2,1.4-4.2c.9-1,2.2-1.6,3.8-1.6s2.9.5,3.8,1.4c.9,1,1.3,2.3,1.3,4.1v1.2h-7.4c0,.9.3,1.5.8,1.9.5.4,1.2.6,2.2.6s1.3,0,1.9-.3c.6-.2,1.3-.5,2-.9v2.6ZM659,171.8c0-.8-.2-1.3-.6-1.7-.4-.4-.9-.6-1.7-.6s-1.2.2-1.6.6-.6,1-.7,1.7h4.5ZM673.1,171.4v7.1h-2.8v-6.7c0-.8-.1-1.4-.3-1.7s-.6-.5-1.1-.5-.9.2-1.2.7c-.3.5-.4,1.1-.4,1.9v6.3h-2.8v-10.9h2.8v1.6c.2-.6.5-1.1,1-1.4s1.1-.5,1.8-.5c1,0,1.8.3,2.3,1s.8,1.7.8,3.1ZM685.5,178c-.7.3-1.3.5-2,.6-.7.1-1.4.2-2.2.2-1.8,0-3.2-.5-4.2-1.5s-1.5-2.4-1.5-4.2.5-3.2,1.4-4.2c.9-1,2.2-1.6,3.8-1.6s2.9.5,3.8,1.4c.9,1,1.3,2.3,1.3,4.1v1.2h-7.4c0,.9.3,1.5.8,1.9.5.4,1.2.6,2.2.6s1.3,0,1.9-.3c.6-.2,1.3-.5,2-.9v2.6ZM683,171.8c0-.8-.2-1.3-.6-1.7-.4-.4-.9-.6-1.7-.6s-1.2.2-1.6.6-.6,1-.7,1.7h4.5ZM698,170.6c-.3-.3-.7-.5-1.1-.6s-.9-.2-1.4-.2-1.1.1-1.6.3c-.5.2-.8.5-1,.9-.2.2-.3.5-.3.9,0,.4,0,.9,0,1.6v5h-2.9v-10.9h2.9v1.7c.3-.6.7-1.1,1.3-1.5.6-.3,1.3-.5,2-.5s.8,0,1.1.1c.4,0,.7.2,1.1.4v2.7ZM709.6,172.3v6.2h-2.8v-1.2c-.3.5-.8.9-1.3,1.1-.5.3-1.1.4-1.8.4-1.2,0-2.2-.3-2.9-1s-1-1.6-1-2.8.4-2.2,1.2-2.8c.8-.6,2.1-.9,3.8-.9h2v-.5c0-.5-.2-.8-.5-1-.3-.2-.8-.4-1.5-.4s-1.3,0-2,.3c-.6.2-1.3.4-2,.8v-2.4c.6-.3,1.3-.5,1.9-.6.7-.1,1.3-.2,2.1-.2,1.8,0,3,.4,3.7,1.1.7.7,1.1,2,1.1,3.9ZM705.6,173.4c-1.1,0-1.8.1-2.2.4-.4.3-.6.7-.6,1.4s.1.9.4,1.2.7.4,1.2.4c.8,0,1.3-.3,1.8-.9.4-.6.6-1.4.6-2.4v-.2h-1.1ZM717.6,164.5v3.1h3.7v2.2h-3.7v5.2c0,.5.1.8.4,1,.2.2.6.3,1.2.3h2.2v2.2h-2.4c-1.6,0-2.8-.3-3.3-.8-.6-.5-.9-1.5-.9-2.9v-5h-2.8v-2.2h2.8v-3.1h2.9ZM733.6,178c-.7.3-1.3.5-2,.6-.7.1-1.4.2-2.2.2-1.8,0-3.2-.5-4.2-1.5s-1.5-2.4-1.5-4.2.5-3.2,1.4-4.2c.9-1,2.2-1.6,3.8-1.6s2.9.5,3.8,1.4c.9,1,1.3,2.3,1.3,4.1v1.2h-7.4c0,.9.3,1.5.8,1.9.5.4,1.2.6,2.2.6s1.3,0,1.9-.3c.6-.2,1.3-.5,2-.9v2.6ZM731.2,171.8c0-.8-.2-1.3-.6-1.7-.4-.4-.9-.6-1.7-.6s-1.2.2-1.6.6-.6,1-.7,1.7h4.5ZM258.1,196.3v6.2h-2.8v-1.2c-.3.5-.8.9-1.3,1.1s-1.1.4-1.8.4c-1.2,0-2.2-.3-2.9-1s-1-1.6-1-2.8.4-2.2,1.2-2.8,2.1-.9,3.8-.9h2v-.5c0-.5-.2-.8-.5-1s-.8-.4-1.5-.4-1.3,0-2,.3-1.3.4-2,.8v-2.4c.6-.3,1.3-.5,1.9-.6s1.3-.2,2.1-.2c1.8,0,3,.4,3.7,1.1s1.1,2,1.1,3.9ZM254.1,197.4c-1.1,0-1.8.1-2.2.4s-.6.7-.6,1.4.1.9.4,1.2.7.4,1.2.4c.8,0,1.3-.3,1.8-.9s.6-1.4.6-2.4v-.2h-1.1ZM281,191.9v2.5c-.5-.3-1.1-.6-1.6-.8s-1.1-.3-1.7-.3-1.1,0-1.4.3-.5.5-.5.8c0,.5.7.9,2.1,1.3h.1s.8.2.8.2c1,.2,1.8.6,2.3,1.2s.7,1.3.7,2.2-.4,2-1.1,2.5-1.9.8-3.3.8-1.3,0-2-.2-1.4-.3-2.1-.5v-2.5c.6.4,1.3.6,1.9.8s1.3.3,1.9.3,1.2,0,1.5-.3.5-.5.5-.8-.1-.6-.4-.8-.8-.4-1.7-.6l-.8-.2c-1.1-.2-1.9-.6-2.4-1.2s-.8-1.2-.8-2.1.4-1.9,1.1-2.5,1.8-.9,3.2-.9,1.2,0,1.9.2,1.2.3,1.8.5ZM290.1,192.7c.2-.5.5-.8.8-1s.7-.3,1.2-.3c.9,0,1.6.3,2,1s.5,2,.5,4.1v6.2h-2.3v-7c0-.8,0-1.4-.2-1.6s-.3-.4-.7-.4-.6.1-.7.4-.2.8-.2,1.6v7h-2.3v-7c0-.8,0-1.3-.2-1.6s-.4-.4-.7-.4-.6.1-.7.4-.2.8-.2,1.6v7h-2.3v-10.9h2.1v1.1c.2-.4.4-.8.8-1s.8-.4,1.2-.4.8.1,1.2.4.6.6.7,1ZM296.4,197c0-1.8.5-3.2,1.4-4.2s2.1-1.5,3.7-1.5,2.8.5,3.7,1.5,1.4,2.4,1.4,4.2-.5,3.2-1.4,4.2-2.1,1.5-3.7,1.5-2.8-.5-3.7-1.5-1.4-2.4-1.4-4.2ZM301.4,193.6c-.7,0-1.2.3-1.6.9s-.6,1.4-.6,2.5.2,1.9.6,2.5.9.9,1.6.9,1.2-.3,1.6-.9.6-1.4.6-2.5-.2-1.9-.6-2.5-.9-.9-1.6-.9ZM308.4,197c0-1.8.5-3.2,1.4-4.2s2.1-1.5,3.7-1.5,2.8.5,3.7,1.5,1.4,2.4,1.4,4.2-.5,3.2-1.4,4.2-2.1,1.5-3.7,1.5-2.8-.5-3.7-1.5-1.4-2.4-1.4-4.2ZM313.5,193.6c-.7,0-1.2.3-1.6.9s-.6,1.4-.6,2.5.2,1.9.6,2.5.9.9,1.6.9,1.2-.3,1.6-.9.6-1.4.6-2.5-.2-1.9-.6-2.5-.9-.9-1.6-.9ZM326.2,188.5v3.1h3.7v2.2h-3.7v5.2c0,.5.1.8.4,1s.6.3,1.2.3h2.2v2.2h-2.4c-1.6,0-2.8-.3-3.3-.8s-.9-1.5-.9-2.9v-5h-2.8v-2.2h2.8v-3.1h2.9ZM342,195.4v7.1h-2.8v-6.7c0-.8-.1-1.4-.3-1.7s-.6-.5-1.1-.5-.9.2-1.2.7-.4,1.1-.4,1.9v6.3h-2.8v-15.2h2.8v5.9c.2-.6.5-1.1,1-1.4s1.1-.5,1.8-.5c1,0,1.8.3,2.3,1s.8,1.7.8,3.1ZM366.3,201.7c0,1.8-.4,3-1.2,3.8s-2.1,1.2-3.9,1.2-1.2,0-1.8-.1-1.2-.2-1.8-.4v-2.6c.5.3,1.1.5,1.7.7s1.1.2,1.7.2,1.4-.2,1.8-.6.6-1,.6-1.8v-1.2c-.3.5-.7.9-1.1,1.2s-1,.4-1.7.4c-1.2,0-2.2-.5-3-1.5s-1.1-2.3-1.1-4,.4-3.1,1.1-4.1,1.7-1.5,3-1.5,1.2.1,1.7.4.9.7,1.2,1.2v-1.4h2.9v10.1ZM363.5,196.9c0-1-.2-1.8-.6-2.3s-.9-.9-1.5-.9-1.1.3-1.5.9-.6,1.4-.6,2.4.2,1.8.6,2.4.9.9,1.5.9,1.1-.3,1.5-.9.6-1.4.6-2.4ZM378.9,194.6c-.3-.3-.7-.5-1.1-.6s-.9-.2-1.4-.2-1.1.1-1.6.3-.8.5-1,.9c-.2.2-.3.5-.3.9s0,.9,0,1.6v5h-2.9v-10.9h2.9v1.7c.3-.6.7-1.1,1.3-1.5s1.3-.5,2-.5.8,0,1.1.1.7.2,1.1.4v2.7ZM390.5,196.3v6.2h-2.8v-1.2c-.3.5-.8.9-1.3,1.1s-1.1.4-1.8.4c-1.2,0-2.2-.3-2.9-1s-1-1.6-1-2.8.4-2.2,1.2-2.8,2.1-.9,3.8-.9h2v-.5c0-.5-.2-.8-.5-1s-.8-.4-1.5-.4-1.3,0-2,.3-1.3.4-2,.8v-2.4c.6-.3,1.3-.5,1.9-.6s1.3-.2,2.1-.2c1.8,0,3,.4,3.7,1.1s1.1,2,1.1,3.9ZM386.5,197.4c-1.1,0-1.8.1-2.2.4s-.6.7-.6,1.4.1.9.4,1.2.7.4,1.2.4c.8,0,1.3-.3,1.8-.9s.6-1.4.6-2.4v-.2h-1.1ZM399.5,193.1v-5.8h2.9v15.2h-2.9v-1.6c-.3.6-.7,1.1-1.2,1.4s-1.1.5-1.7.5c-1.2,0-2.2-.5-2.9-1.5s-1-2.4-1-4.2.4-3.3,1-4.3,1.7-1.5,3-1.5,1.1.2,1.6.5.9.8,1.2,1.4ZM395.5,197.1c0,1.1.2,1.9.5,2.5s.8.9,1.5.9,1.1-.3,1.5-.9.5-1.4.5-2.5-.2-1.9-.5-2.5-.8-.9-1.5-.9-1.1.3-1.5.9-.5,1.4-.5,2.5ZM405.9,191.6h5.7v8.7h3.6v2.2h-10v-2.2h3.6v-6.5h-2.8v-2.2ZM408.7,186.2h2.9v3.3h-2.9v-3.3ZM426.6,202c-.7.3-1.3.5-2,.6-.7.1-1.4.2-2.2.2-1.8,0-3.2-.5-4.2-1.5s-1.5-2.4-1.5-4.2.5-3.2,1.4-4.2c.9-1,2.2-1.6,3.8-1.6s2.9.5,3.8,1.4c.9,1,1.3,2.3,1.3,4.1v1.2h-7.4c0,.9.3,1.5.8,1.9.5.4,1.2.6,2.2.6s1.3,0,1.9-.3c.6-.2,1.3-.5,2-.9v2.6ZM424.2,195.8c0-.8-.2-1.3-.6-1.7-.4-.4-.9-.6-1.7-.6s-1.2.2-1.6.6-.6,1-.7,1.7h4.5ZM438.3,195.4v7.1h-2.8v-6.7c0-.8-.1-1.4-.3-1.7s-.6-.5-1.1-.5-.9.2-1.2.7c-.3.5-.4,1.1-.4,1.9v6.3h-2.8v-10.9h2.8v1.6c.2-.6.5-1.1,1-1.4s1.1-.5,1.8-.5c1,0,1.8.3,2.3,1s.8,1.7.8,3.1ZM446.6,188.5v3.1h3.7v2.2h-3.7v5.2c0,.5.1.8.4,1,.2.2.6.3,1.2.3h2.2v2.2h-2.4c-1.6,0-2.8-.3-3.3-.8-.6-.5-.9-1.5-.9-2.9v-5h-2.8v-2.2h2.8v-3.1h2.9ZM468.3,193.1c.4-.6.8-1.1,1.2-1.4.5-.3,1-.5,1.6-.5,1.3,0,2.3.5,3,1.5.7,1,1,2.4,1,4.3s-.3,3.2-1,4.2c-.7,1-1.7,1.5-2.9,1.5s-1.2-.2-1.7-.5-.9-.8-1.2-1.4v1.6h-2.9v-15.2h2.9v5.8ZM472.3,197.1c0-1.1-.2-1.9-.5-2.5s-.8-.9-1.5-.9-1.1.3-1.5.9c-.4.6-.5,1.4-.5,2.5s.2,1.9.5,2.5c.4.6.8.9,1.5.9s1.1-.3,1.5-.9.5-1.4.5-2.5ZM486.8,202c-.7.3-1.3.5-2,.6-.7.1-1.4.2-2.2.2-1.8,0-3.2-.5-4.2-1.5s-1.5-2.4-1.5-4.2.5-3.2,1.4-4.2c.9-1,2.2-1.6,3.8-1.6s2.9.5,3.8,1.4c.9,1,1.3,2.3,1.3,4.1v1.2h-7.4c0,.9.3,1.5.8,1.9.5.4,1.2.6,2.2.6s1.3,0,1.9-.3c.6-.2,1.3-.5,2-.9v2.6ZM484.4,195.8c0-.8-.2-1.3-.6-1.7-.4-.4-.9-.6-1.7-.6s-1.2.2-1.6.6-.6,1-.7,1.7h4.5ZM494.8,188.5v3.1h3.7v2.2h-3.7v5.2c0,.5.1.8.4,1,.2.2.6.3,1.2.3h2.2v2.2h-2.4c-1.6,0-2.8-.3-3.3-.8-.6-.5-.9-1.5-.9-2.9v-5h-2.8v-2.2h2.8v-3.1h2.9ZM500.1,191.6h2.4l1.3,8.4,1.2-5.5h2.3l1.2,5.5,1.3-8.4h2.4l-2,10.9h-2.7l-1.3-5.7-1.3,5.7h-2.7l-2-10.9ZM522.9,202c-.7.3-1.3.5-2,.6-.7.1-1.4.2-2.2.2-1.8,0-3.2-.5-4.2-1.5s-1.5-2.4-1.5-4.2.5-3.2,1.4-4.2c.9-1,2.2-1.6,3.8-1.6s2.9.5,3.8,1.4c.9,1,1.3,2.3,1.3,4.1v1.2h-7.4c0,.9.3,1.5.8,1.9.5.4,1.2.6,2.2.6s1.3,0,1.9-.3c.6-.2,1.3-.5,2-.9v2.6ZM520.5,195.8c0-.8-.2-1.3-.6-1.7-.4-.4-.9-.6-1.7-.6s-1.2.2-1.6.6-.6,1-.7,1.7h4.5ZM535,202c-.7.3-1.3.5-2,.6-.7.1-1.4.2-2.2.2-1.8,0-3.2-.5-4.2-1.5s-1.5-2.4-1.5-4.2.5-3.2,1.4-4.2c.9-1,2.2-1.6,3.8-1.6s2.9.5,3.8,1.4c.9,1,1.3,2.3,1.3,4.1v1.2h-7.4c0,.9.3,1.5.8,1.9.5.4,1.2.6,2.2.6s1.3,0,1.9-.3c.6-.2,1.3-.5,2-.9v2.6ZM532.5,195.8c0-.8-.2-1.3-.6-1.7-.4-.4-.9-.6-1.7-.6s-1.2.2-1.6.6-.6,1-.7,1.7h4.5ZM546.7,195.4v7.1h-2.8v-6.7c0-.8-.1-1.4-.3-1.7s-.6-.5-1.1-.5-.9.2-1.2.7c-.3.5-.4,1.1-.4,1.9v6.3h-2.8v-10.9h2.8v1.6c.2-.6.5-1.1,1-1.4s1.1-.5,1.8-.5c1,0,1.8.3,2.3,1s.8,1.7.8,3.1ZM567.1,188.5v3.1h3.7v2.2h-3.7v5.2c0,.5.1.8.4,1,.2.2.6.3,1.2.3h2.2v2.2h-2.4c-1.6,0-2.8-.3-3.3-.8-.6-.5-.9-1.5-.9-2.9v-5h-2.8v-2.2h2.8v-3.1h2.9ZM582.8,195.4v7.1h-2.8v-6.7c0-.8-.1-1.4-.3-1.7s-.6-.5-1.1-.5-.9.2-1.2.7-.4,1.1-.4,1.9v6.3h-2.8v-15.2h2.8v5.9c.2-.6.5-1.1,1-1.4s1.1-.5,1.8-.5c1,0,1.8.3,2.3,1s.8,1.7.8,3.1ZM595.2,202c-.7.3-1.3.5-2,.6-.7.1-1.4.2-2.2.2-1.8,0-3.2-.5-4.2-1.5s-1.5-2.4-1.5-4.2.5-3.2,1.4-4.2c.9-1,2.2-1.6,3.8-1.6s2.9.5,3.8,1.4c.9,1,1.3,2.3,1.3,4.1v1.2h-7.4c0,.9.3,1.5.8,1.9.5.4,1.2.6,2.2.6s1.3,0,1.9-.3c.6-.2,1.3-.5,2-.9v2.6ZM592.7,195.8c0-.8-.2-1.3-.6-1.7-.4-.4-.9-.6-1.7-.6s-1.2.2-1.6.6-.6,1-.7,1.7h4.5ZM603.2,192.7c.2-.5.5-.8.8-1s.7-.3,1.2-.3c.9,0,1.6.3,2,1s.5,2,.5,4.1v6.2h-2.3v-7c0-.8,0-1.4-.2-1.6-.1-.3-.3-.4-.7-.4s-.6.1-.7.4c-.1.3-.2.8-.2,1.6v7h-2.3v-7c0-.8,0-1.3-.2-1.6-.1-.3-.4-.4-.7-.4s-.6.1-.7.4c-.1.3-.2.8-.2,1.6v7h-2.3v-10.9h2.1v1.1c.2-.4.4-.8.8-1,.4-.3.8-.4,1.2-.4s.8.1,1.2.4c.4.3.6.6.7,1ZM612.9,198.9h3.3v3.6h-3.3v-3.6Z"/>
    </g>
  </g>
  <text class="st7" transform="translate(253.4 57.8)"><tspan x="0" y="0">Two Color Gradient Text</tspan></text>
</svg>