<?xml version="1.0" encoding="UTF-8"?>
<svg id="Layer_1" data-name="Layer 1" xmlns="http://www.w3.org/2000/svg" xmlns:xlink="http://www.w3.org/1999/xlink" viewBox="0 0 340.01 261.56">
  <defs>
    <style>
      .cls-1 {
        fill: url(#linear-gradient);
      }

      .cls-2 {
        fill: #febc2e;
      }

      .cls-3 {
        fill: #ff5f57;
      }

      .cls-4 {
        letter-spacing: -.07em;
      }

      .cls-5 {
        fill: #fff;
        font-family: Arial-BoldMT, Arial;
        font-size: 7.67px;
        font-weight: 700;
        isolation: isolate;
      }

      .cls-6 {
        fill: #28c840;
      }
    </style>
    <linearGradient id="linear-gradient" x1="43.92" y1="130.78" x2="295.48" y2="130.78" gradientUnits="userSpaceOnUse">
      <stop offset="0" stop-color="#ffc800"/>
      <stop offset=".25" stop-color="#a2ff00"/>
      <stop offset=".48" stop-color="#22ff1d"/>
      <stop offset=".68" stop-color="#00ff7a"/>
      <stop offset=".83" stop-color="#00fffa"/>
      <stop offset="1" stop-color="#00a8ff"/>
    </linearGradient>
  </defs>
  <path d="M331.39,0H8C3.58,0,0,3.24,0,7.23v247.11c0,3.99,3.58,7.23,8,7.23h323.39c4.42,0,8-3.24,8-7.23V7.23c0-3.99-3.58-7.23-8-7.23Z"/>
  <path class="cls-1" d="M204.21,47.08l2.62-3.7-2.41-3.39h2.16l1.18,2.11,1.18-2.11h2.16l-2.39,3.39,2.6,3.7h-2.16l-1.39-2.39-1.39,2.39h-2.16ZM233.37,73.32c-.5,0-.94.11-1.32.33-.38.22-.65.53-.84.94v-1.1h-1.85v7.09h1.85v-3.27c0-.46.02-.81.06-1.04.04-.23.11-.42.21-.58.16-.26.39-.46.68-.6.29-.14.64-.21,1.03-.21.32,0,.62.05.9.14s.51.23.71.42v-1.77c-.22-.12-.45-.21-.69-.27s-.49-.09-.74-.09ZM223.96,77.06h1.28v1.8c-.09.07-.2.13-.35.16-.14.04-.31.05-.51.05-.65,0-1.14-.27-1.47-.82s-.51-1.35-.51-2.4.18-1.89.53-2.43.88-.8,1.59-.8c.4,0,.78.09,1.12.26.34.17.64.42.9.76v-2.07c-.32-.2-.66-.36-1.03-.47s-.74-.16-1.12-.16c-1.27,0-2.24.42-2.91,1.26-.67.84-1.01,2.05-1.01,3.65s.33,2.77,1,3.62c.67.85,1.61,1.28,2.84,1.28.49,0,.96-.08,1.39-.24.43-.16.83-.39,1.19-.7v-4.33h-2.91v1.57ZM248.13,70.73h1.85v9.85h-1.85v-1.05c-.2.41-.45.72-.77.92-.31.21-.68.31-1.11.31-.81,0-1.44-.32-1.89-.97-.45-.65-.67-1.57-.67-2.75s.23-2.12.68-2.76c.45-.64,1.1-.96,1.94-.96.38,0,.72.1,1.02.29.3.2.57.49.79.88v-3.77ZM248.13,77.05c0-.68-.12-1.22-.35-1.61-.23-.39-.55-.58-.95-.58s-.71.19-.94.58-.34.92-.34,1.61.11,1.22.34,1.61c.23.39.54.58.94.58s.72-.19.95-.58c.23-.39.35-.92.35-1.61ZM212.93,46.62c-.45-.43-.67-1.02-.67-1.78,0-.83.27-1.44.8-1.83s1.36-.59,2.49-.59h1.28v-.31c0-.3-.11-.53-.33-.68-.22-.15-.54-.23-.96-.23-.44,0-.87.06-1.29.17-.42.11-.85.29-1.3.53v-1.58c.41-.17.82-.29,1.25-.37.42-.08.87-.12,1.34-.12,1.15,0,1.96.23,2.43.7.47.47.7,1.31.7,2.51v4.04h-1.84v-.79c-.22.31-.51.55-.86.72-.35.17-.74.25-1.16.25-.81,0-1.43-.21-1.88-.64ZM214.23,44.92c0,.32.1.58.29.77.19.19.45.28.77.28.49,0,.87-.18,1.14-.55.27-.37.4-.88.4-1.55v-.13h-.74c-.69,0-1.18.09-1.45.27-.27.18-.41.48-.41.91ZM241.64,74.02c.47.47.7,1.31.7,2.51v4.04h-1.84v-.79c-.22.31-.51.55-.86.72-.35.17-.74.25-1.16.25-.81,0-1.43-.21-1.88-.64-.45-.43-.67-1.02-.67-1.78,0-.83.27-1.44.8-1.83s1.37-.59,2.49-.59h1.28v-.31c0-.3-.11-.53-.33-.68-.22-.15-.54-.23-.96-.23-.44,0-.87.06-1.29.17s-.85.29-1.3.53v-1.58c.41-.17.82-.29,1.25-.37.42-.08.87-.12,1.34-.12,1.15,0,1.96.23,2.43.7ZM240.49,77.25h-.74c-.69,0-1.17.09-1.45.27-.27.18-.41.48-.41.91,0,.32.09.58.28.77.19.19.45.28.77.28.49,0,.87-.18,1.14-.55.27-.37.4-.88.4-1.55v-.13ZM256,73.49h-3.67v1.42h1.82v4.24h-2.31v1.42h6.47v-1.42h-2.3v-5.66ZM212.63,81.78h1.4l4.97-10.65h-1.4l-4.97,10.65ZM278.71,71.48h-1.85v2.01h-1.81v1.42h1.81v3.27c0,.92.19,1.55.56,1.89.38.34,1.09.51,2.16.51h1.56v-1.42h-1.42c-.36,0-.62-.07-.77-.21-.15-.14-.23-.36-.23-.68v-3.35h2.42v-1.42h-2.42v-2.01ZM237.52,44.12c0,1.06.19,1.82.58,2.27.38.46,1.02.68,1.9.68h2v-1.42h-1.48c-.41,0-.71-.12-.88-.35-.17-.23-.26-.63-.26-1.18v-6.89h-3.73v1.42h1.88v5.47ZM62.96,76.99l1.71,3.4h-2.05l-1.14-2.39c-.03-.07-.08-.16-.13-.28-.33-.71-.73-1.07-1.18-1.07h-.6v3.73h-1.87v-9.45h2.7c1.21,0,2.09.22,2.62.65s.79,1.13.79,2.1c0,.65-.16,1.17-.47,1.55s-.77.61-1.37.69c.19.04.35.13.48.26s.3.4.5.8ZM61.89,73.8c0-.46-.11-.79-.33-.99-.22-.2-.59-.3-1.1-.3h-.88v2.58h.88c.51,0,.88-.1,1.1-.3.22-.2.33-.53.33-.99ZM136.14,44.68c0,.92.19,1.55.56,1.89.38.34,1.09.51,2.16.51h1.56v-1.42h-1.42c-.36,0-.61-.07-.77-.21s-.23-.36-.23-.68v-3.35h2.42v-1.42h-2.42v-2.01h-1.85v2.01h-1.81v1.42h1.81v3.27ZM230.07,49.77h-1.85v-9.78h1.85v1.06c.19-.41.45-.72.77-.92.32-.21.69-.31,1.11-.31.81,0,1.44.32,1.89.97.45.65.67,1.57.67,2.75s-.23,2.12-.68,2.76c-.45.64-1.1.96-1.94.96-.38,0-.72-.1-1.02-.29-.3-.2-.57-.49-.79-.89v3.7ZM230.07,43.53c0,.68.12,1.22.35,1.61.23.39.55.58.95.58s.71-.19.94-.58c.23-.39.34-.92.34-1.61s-.11-1.22-.34-1.61c-.23-.39-.54-.58-.94-.58s-.72.19-.95.58c-.23.39-.35.92-.35,1.61ZM221.51,42.53c0-.53.04-.88.12-1.06.08-.18.23-.27.44-.27s.36.09.44.27.13.53.13,1.05v4.55h1.5v-4.55c0-.52.04-.87.13-1.05s.23-.27.44-.27.36.09.44.27c.08.18.12.53.12,1.06v4.55h1.52v-3.99c0-1.33-.12-2.21-.35-2.63s-.66-.63-1.27-.63c-.31,0-.58.07-.79.22-.21.14-.39.36-.53.66-.05-.24-.19-.45-.43-.62-.24-.17-.5-.26-.79-.26s-.55.08-.78.24c-.23.16-.4.38-.51.66v-.73h-1.35v7.09h1.52v-4.55ZM271.28,73.32c-.45,0-.83.11-1.15.32-.32.21-.54.52-.67.91v-1.06h-1.84v7.09h1.84v-4.06c0-.53.1-.95.29-1.25.19-.3.46-.45.79-.45s.57.11.71.33c.15.22.22.59.22,1.1v4.32h1.84v-4.6c0-.88-.17-1.55-.51-1.99s-.85-.67-1.52-.67ZM265.14,74.25c.58.62.87,1.5.87,2.63v.75h-4.8c0,.56.17.97.49,1.25.33.27.81.41,1.46.41.43,0,.85-.06,1.26-.18s.85-.32,1.3-.58v1.7c-.43.18-.87.31-1.32.4-.45.09-.92.13-1.42.13-1.19,0-2.09-.32-2.72-.95-.63-.63-.94-1.55-.94-2.74s.3-2.07.9-2.74,1.43-1.01,2.47-1.01,1.87.31,2.45.93ZM264.14,76.24c0-.49-.13-.86-.38-1.11-.24-.25-.6-.38-1.07-.38-.43,0-.77.13-1.02.39-.25.26-.4.63-.45,1.1h2.92ZM244.4,46.31c-.63-.63-.94-1.55-.94-2.74s.3-2.07.91-2.74c.6-.67,1.43-1.01,2.47-1.01s1.87.31,2.45.93c.58.62.87,1.5.87,2.63v.75h-4.8c0,.56.17.97.49,1.25.32.27.81.41,1.46.41.43,0,.85-.06,1.26-.18s.85-.32,1.3-.58v1.7c-.43.18-.87.31-1.32.4-.45.09-.92.13-1.42.13-1.19,0-2.09-.32-2.72-.95ZM245.37,42.75h2.92c0-.5-.13-.87-.38-1.12-.24-.25-.6-.38-1.07-.38-.43,0-.77.13-1.02.39-.25.26-.4.63-.45,1.1ZM117.6,45.65h-2.3v-5.66h-3.67v1.42h1.82v4.24h-2.31v1.42h6.47v-1.42ZM115.29,36.54h-1.85v2.16h1.85v-2.16ZM103.66,46.28c-.45-.65-.67-1.57-.67-2.75s.23-2.12.68-2.76c.45-.64,1.1-.96,1.94-.96.38,0,.72.1,1.02.29.3.2.57.49.79.88v-3.77h1.85v9.85h-1.85v-1.05c-.2.41-.45.72-.77.92-.31.21-.68.31-1.11.31-.81,0-1.44-.32-1.89-.97ZM104.84,43.55c0,.68.11,1.22.34,1.61.23.39.54.58.94.58s.72-.19.95-.58c.23-.39.35-.92.35-1.61s-.12-1.22-.35-1.61-.55-.58-.95-.58-.71.19-.94.58c-.23.39-.34.92-.34,1.61ZM209.74,78.06l-.95-4.49h-1.55l-.82,4.49-.68-6.94h-1.63l1.16,9.45h1.73l1.01-4.96,1.08,4.96h1.74l1.09-9.45h-1.65l-.53,6.94ZM167.64,47.08h-1.85v-9.85h1.85v3.77c.23-.39.49-.69.79-.88.3-.2.64-.29,1.02-.29.84,0,1.49.32,1.94.96.45.64.68,1.56.68,2.76s-.22,2.1-.67,2.75c-.45.65-1.08.97-1.89.97-.43,0-.8-.1-1.11-.31s-.57-.51-.77-.92v1.05ZM167.64,43.55c0,.68.12,1.22.35,1.61.23.39.55.58.95.58s.72-.19.94-.58c.23-.39.34-.92.34-1.61s-.11-1.22-.34-1.61c-.23-.39-.54-.58-.94-.58s-.72.19-.95.58c-.23.39-.35.92-.35,1.61ZM152.21,47.08h1.87v-7.82h2.4v-1.63h-6.66v1.63h2.4v7.82ZM128.76,43.02c0-.53.1-.95.29-1.25.19-.3.45-.45.79-.45s.57.11.71.33c.15.22.22.59.22,1.1v4.32h1.84v-4.6c0-.88-.17-1.55-.51-1.99-.34-.45-.85-.67-1.52-.67-.45,0-.83.11-1.15.32-.32.21-.54.52-.67.91v-1.06h-1.84v7.09h1.84v-4.06ZM90.51,43.81c0-.46.02-.81.06-1.04.04-.23.11-.42.21-.58.16-.26.39-.46.68-.6.29-.14.64-.21,1.03-.21.32,0,.62.05.9.14s.51.23.71.42v-1.77c-.22-.12-.45-.21-.69-.27s-.49-.09-.74-.09c-.5,0-.94.11-1.32.33-.38.22-.65.53-.84.94v-1.1h-1.85v7.09h1.85v-3.27ZM119.55,46.31c-.63-.63-.94-1.55-.94-2.74s.3-2.07.91-2.74c.6-.67,1.43-1.01,2.47-1.01s1.87.31,2.45.93c.58.62.87,1.5.87,2.63v.75h-4.8c0,.56.17.97.49,1.25.32.27.81.41,1.46.41.43,0,.85-.06,1.26-.18s.85-.32,1.3-.58v1.7c-.43.18-.87.31-1.32.4s-.92.13-1.42.13c-1.19,0-2.09-.32-2.72-.95ZM120.51,42.75h2.92c0-.5-.13-.87-.38-1.12-.24-.25-.6-.38-1.07-.38-.43,0-.77.13-1.02.39-.25.26-.4.63-.45,1.1ZM158.31,46.62c-.45-.43-.67-1.02-.67-1.78,0-.83.27-1.44.8-1.83s1.37-.59,2.49-.59h1.28v-.31c0-.3-.11-.53-.33-.68-.22-.15-.54-.23-.96-.23-.44,0-.87.06-1.29.17-.42.11-.85.29-1.3.53v-1.58c.41-.17.82-.29,1.25-.37.42-.08.87-.12,1.34-.12,1.15,0,1.96.23,2.43.7.47.47.7,1.31.7,2.51v4.04h-1.84v-.79c-.22.31-.51.55-.86.72s-.74.25-1.16.25c-.81,0-1.43-.21-1.88-.64ZM159.61,44.92c0,.32.1.58.28.77.19.19.45.28.77.28.49,0,.87-.18,1.14-.55.27-.37.4-.88.4-1.55v-.13h-.74c-.69,0-1.18.09-1.45.27-.27.18-.41.48-.41.91ZM95.88,46.62c-.45-.43-.67-1.02-.67-1.78,0-.83.27-1.44.8-1.83s1.37-.59,2.49-.59h1.28v-.31c0-.3-.11-.53-.33-.68-.22-.15-.54-.23-.96-.23-.44,0-.87.06-1.29.17-.42.11-.85.29-1.3.53v-1.58c.41-.17.82-.29,1.25-.37.42-.08.87-.12,1.34-.12,1.15,0,1.96.23,2.43.7.47.47.7,1.31.7,2.51v4.04h-1.84v-.79c-.22.31-.51.55-.86.72s-.74.25-1.16.25c-.81,0-1.43-.21-1.88-.64ZM97.18,44.92c0,.32.1.58.28.77.19.19.45.28.77.28.49,0,.87-.18,1.14-.55.27-.37.4-.88.4-1.55v-.13h-.74c-.69,0-1.18.09-1.45.27-.27.18-.41.48-.41.91ZM188.13,73.49h-2.25l-2.23,2.41v-5.17h-1.85v9.85h1.85v-2.71l.63-.61,1.94,3.32h2.05l-2.84-4.44,2.68-2.65ZM178.75,73.32c-.5,0-.94.11-1.32.33-.38.22-.65.53-.84.94v-1.1h-1.85v7.09h1.85v-3.27c0-.46.02-.81.06-1.04.04-.23.11-.42.21-.58.16-.26.39-.46.68-.6s.64-.21,1.03-.21c.33,0,.62.05.9.14s.51.23.71.42v-1.77c-.22-.12-.45-.21-.69-.27s-.49-.09-.74-.09ZM193.3,76.35l-.53-.13-.07-.02c-.9-.21-1.36-.49-1.36-.82,0-.24.11-.41.32-.53.21-.12.52-.18.94-.18.37,0,.74.06,1.11.17s.72.28,1.07.5v-1.62c-.38-.13-.76-.23-1.16-.29s-.8-.1-1.2-.1c-.89,0-1.59.19-2.08.57-.49.38-.74.91-.74,1.59,0,.57.16,1.03.49,1.37.32.34.84.59,1.55.75l.51.11c.6.14.97.28,1.13.4.16.13.24.31.24.54s-.11.42-.34.55c-.22.13-.55.19-.99.19-.4,0-.81-.06-1.23-.18s-.84-.3-1.25-.53v1.62c.46.15.91.26,1.36.33.45.07.88.11,1.31.11.96,0,1.68-.18,2.16-.55.48-.36.72-.91.72-1.64,0-.61-.16-1.09-.47-1.45-.31-.36-.81-.61-1.48-.78ZM203.01,45.43h-4.02v-2.47h3.64v-1.65h-3.64v-2.04h4.02v-1.65h-5.89v9.45h5.89v-1.65ZM171.39,74.32c.59.67.89,1.58.89,2.72s-.3,2.05-.89,2.72c-.59.67-1.39,1-2.4,1s-1.8-.33-2.39-1c-.59-.67-.89-1.57-.89-2.72s.3-2.05.89-2.72c.59-.67,1.39-1,2.39-1s1.8.33,2.4,1ZM170.42,77.04c0-.7-.13-1.24-.38-1.63-.25-.39-.6-.59-1.05-.59s-.79.19-1.04.59c-.25.39-.38.93-.38,1.63s.13,1.24.38,1.63.6.59,1.04.59.8-.19,1.05-.59.38-.93.38-1.63ZM83.58,47.26c.49,0,.96-.08,1.39-.24.43-.16.83-.39,1.19-.7v-4.33h-2.91v1.57h1.28v1.8c-.09.07-.2.13-.35.16-.14.04-.31.05-.51.05-.65,0-1.14-.27-1.48-.82s-.51-1.35-.51-2.4.17-1.89.52-2.43c.35-.53.88-.8,1.59-.8.4,0,.78.09,1.12.26.34.17.64.42.9.76v-2.07c-.32-.2-.66-.36-1.03-.47s-.74-.16-1.12-.16c-1.27,0-2.24.42-2.91,1.26-.67.84-1.01,2.05-1.01,3.65s.33,2.77,1,3.62c.67.85,1.61,1.28,2.84,1.28ZM256,70.04h-1.85v2.16h1.85v-2.16ZM181.97,46.31c-.63-.63-.94-1.55-.94-2.74s.3-2.07.9-2.74,1.43-1.01,2.47-1.01,1.87.31,2.45.93c.58.62.87,1.5.87,2.63v.75h-4.8c0,.56.17.97.49,1.25.33.27.81.41,1.46.41.43,0,.85-.06,1.26-.18s.85-.32,1.3-.58v1.7c-.43.18-.87.31-1.32.4-.45.09-.92.13-1.42.13-1.19,0-2.09-.32-2.72-.95ZM182.94,42.75h2.92c0-.5-.13-.87-.38-1.12-.24-.25-.6-.38-1.07-.38-.43,0-.77.13-1.02.39-.25.26-.4.63-.45,1.1ZM162.92,78.06l-.95-4.49h-1.55l-.82,4.49-.68-6.94h-1.63l1.16,9.45h1.73l1.01-4.96,1.08,4.96h1.74l1.09-9.45h-1.65l-.53,6.94ZM175.1,44.12c0,1.06.19,1.82.58,2.27.38.46,1.02.68,1.9.68h2v-1.42h-1.48c-.41,0-.71-.12-.88-.35-.17-.23-.26-.63-.26-1.18v-6.89h-3.73v1.42h1.88v5.47ZM125.52,123.34c.58.62.87,1.5.87,2.63v.75h-4.8c0,.56.17.97.49,1.25.32.27.81.41,1.46.41.43,0,.85-.06,1.26-.18s.85-.32,1.3-.58v1.7c-.43.18-.87.31-1.32.4s-.92.13-1.42.13c-1.19,0-2.09-.32-2.72-.95-.63-.63-.94-1.55-.94-2.74s.3-2.07.91-2.74c.6-.67,1.43-1.01,2.47-1.01s1.87.31,2.45.93ZM124.53,125.33c0-.49-.13-.86-.38-1.11-.24-.25-.6-.38-1.07-.38-.43,0-.77.13-1.02.39-.25.26-.4.63-.45,1.1h2.92ZM129.44,110.7c0,.92.19,1.55.56,1.89.38.34,1.09.51,2.16.51h1.56v-1.42h-1.42c-.36,0-.61-.07-.77-.21s-.23-.36-.23-.68v-3.35h2.42v-1.42h-2.42v-2.01h-1.85v2.01h-1.81v1.42h1.81v3.27ZM71.07,74.07c.58.62.87,1.5.87,2.63v.75h-4.8c0,.56.17.97.49,1.25.32.27.81.41,1.46.41.43,0,.85-.06,1.26-.18s.85-.32,1.3-.58v1.7c-.43.18-.87.31-1.32.4s-.92.13-1.42.13c-1.19,0-2.09-.32-2.72-.95-.63-.63-.94-1.55-.94-2.74s.3-2.07.91-2.74c.6-.67,1.43-1.01,2.47-1.01s1.87.31,2.45.93ZM70.08,76.06c0-.49-.13-.86-.38-1.11-.24-.25-.6-.38-1.07-.38-.43,0-.77.13-1.02.39-.25.26-.4.63-.45,1.1h2.92ZM123.62,178.97l2.23-7.55h-1.86l-1.51,5.89-1.5-5.89h-1.86l2.23,7.55h2.26ZM113.37,143.51c0,.98.19,1.65.56,2.01s1.09.54,2.14.54h1.54v-1.52h-1.41c-.36,0-.61-.07-.76-.22s-.23-.39-.23-.72v-3.57h2.4v-1.52h-2.4v-2.14h-1.84v2.14h-1.79v1.52h1.79v3.48ZM112.84,112.33c-.63-.63-.94-1.55-.94-2.74s.3-2.07.91-2.74c.6-.67,1.43-1.01,2.47-1.01s1.87.31,2.45.93c.58.62.87,1.5.87,2.63v.75h-4.8c0,.56.17.97.49,1.25.32.27.81.41,1.46.41.43,0,.85-.06,1.26-.18s.85-.32,1.3-.58v1.7c-.43.18-.87.31-1.32.4s-.92.13-1.42.13c-1.19,0-2.09-.32-2.72-.95ZM113.81,108.77h2.92c0-.5-.13-.87-.38-1.12-.24-.25-.6-.38-1.07-.38-.43,0-.77.13-1.02.39-.25.26-.4.63-.45,1.1ZM121.64,212.09l.85-3.92.85,3.92h1.74l1.27-7.55h-1.53l-.85,5.78-.75-3.81h-1.49l-.76,3.81-.83-5.78h-1.53l1.27,7.55h1.74ZM129.38,126.71c0,1.06.19,1.82.58,2.27.38.46,1.02.68,1.9.68h2v-1.42h-1.48c-.41,0-.71-.12-.88-.35-.17-.23-.26-.63-.26-1.18v-6.89h-3.73v1.42h1.88v5.47ZM128.85,146.06l1.37-2.54,1.38,2.54h2.15l-2.57-3.94,2.37-3.61h-2.15l-1.17,2.25-1.17-2.25h-2.15l2.39,3.61-2.6,3.94h2.15ZM119.88,145.58c-.45-.45-.67-1.09-.67-1.9,0-.88.27-1.53.8-1.95.53-.42,1.35-.63,2.47-.63h1.27v-.33c0-.32-.11-.56-.32-.72-.22-.16-.53-.25-.95-.25-.44,0-.86.06-1.28.18-.41.12-.84.31-1.29.57v-1.69c.41-.18.82-.31,1.24-.4.42-.09.86-.13,1.33-.13,1.14,0,1.94.25,2.41.75.46.5.69,1.39.69,2.68v4.31h-1.83v-.84c-.22.33-.51.59-.85.77-.35.18-.73.27-1.15.27-.8,0-1.42-.23-1.87-.68ZM121.17,143.77c0,.34.09.61.28.82.19.2.44.3.77.3.49,0,.86-.2,1.13-.59.27-.39.4-.94.4-1.65v-.13h-.73c-.69,0-1.16.09-1.44.28-.27.19-.41.51-.41.97ZM121.05,159.26c0,1.13.19,1.93.57,2.42.38.49,1.01.73,1.88.73h1.98v-1.52h-1.47c-.41,0-.7-.12-.87-.37-.17-.25-.26-.67-.26-1.26v-7.34h-3.7v1.52h1.86v5.82ZM121.64,113.1l1.39-2.39,1.39,2.39h2.16l-2.59-3.7,2.39-3.39h-2.16l-1.18,2.11-1.18-2.11h-2.16l2.41,3.39-2.62,3.7h2.16ZM112.38,194.66c-.59-.71-.88-1.68-.88-2.9s.29-2.18.88-2.89c.59-.71,1.38-1.07,2.37-1.07s1.79.36,2.37,1.07.88,1.68.88,2.89-.29,2.18-.88,2.9-1.38,1.07-2.37,1.07-1.78-.36-2.37-1.07ZM113.34,191.76c0,.74.13,1.32.38,1.74.25.42.6.62,1.04.62s.79-.21,1.04-.62c.25-.42.38-.99.38-1.74s-.13-1.32-.38-1.74c-.25-.42-.6-.62-1.04-.62s-.78.21-1.04.62c-.25.42-.38.99-.38,1.74ZM85.07,207.13v-.33c0-.32-.11-.56-.32-.72-.22-.16-.53-.25-.95-.25-.44,0-.86.06-1.28.18-.41.12-.84.31-1.29.57v-1.69c.41-.18.82-.31,1.24-.4.42-.09.86-.13,1.33-.13,1.14,0,1.94.25,2.41.75.46.5.69,1.39.69,2.68v4.31h-1.83v-.84c-.22.33-.51.59-.85.77-.35.18-.73.27-1.15.27-.8,0-1.42-.23-1.87-.68-.45-.45-.67-1.09-.67-1.9,0-.88.27-1.53.8-1.95.53-.42,1.35-.63,2.47-.63h1.27ZM85.07,208.55h-.73c-.69,0-1.16.09-1.44.28-.27.19-.41.51-.41.97,0,.34.09.61.28.82.19.2.44.3.77.3.49,0,.86-.2,1.13-.59.27-.39.4-.94.4-1.65v-.13ZM90.88,141.65l.91.37c.32.13.56.31.73.54.17.23.25.49.25.79,0,.4-.13.71-.38.93-.25.22-.6.33-1.06.33s-.91-.09-1.37-.28c-.46-.18-.94-.47-1.43-.84v2.06c.44.23.89.41,1.35.53.47.12.93.18,1.4.18,1.13,0,1.97-.25,2.53-.75.56-.5.84-1.26.84-2.27,0-.75-.18-1.36-.53-1.85-.36-.49-.91-.88-1.66-1.18l-.8-.32c-.55-.22-.92-.42-1.09-.6-.17-.18-.26-.41-.26-.69,0-.36.12-.64.36-.83.24-.19.58-.29,1.03-.29.4,0,.81.08,1.22.24.41.16.81.39,1.21.69v-1.94c-.42-.21-.85-.36-1.28-.47-.43-.11-.86-.16-1.29-.16-.95,0-1.7.26-2.24.78-.54.52-.82,1.24-.82,2.15,0,.71.16,1.28.5,1.7s.96.82,1.9,1.2ZM74.34,204.03l1,4.4h1.47l.99-4.4v8.06h1.59v-10.06h-2.22l-1.11,4.41-1.12-4.41h-2.21v10.06h1.59v-8.06ZM93.47,204.36c-.5,0-.93.12-1.3.35-.37.24-.65.57-.83,1v-1.17h-1.84v7.55h1.84v-3.48c0-.49.02-.86.06-1.11.04-.24.11-.45.21-.62.16-.28.38-.49.67-.64.29-.15.63-.22,1.02-.22.32,0,.62.05.89.15.27.1.51.25.71.45v-1.88c-.22-.13-.45-.22-.69-.29-.24-.07-.49-.1-.74-.1ZM295.48,57.5v36.28h-.97v131.24H44.89V93.79h-.97v-36.28h251.56ZM147.8,90.87h144.76v-30.46h-144.76v30.46ZM46.83,90.87h98.06v-30.46H46.83v30.46ZM145.86,93.79H45.86v130.27h100V93.79ZM293.53,93.79h-146.7v130.27h146.7V93.79ZM98.32,146.26c-.18.5-.36.82-.53.95-.18.14-.45.2-.83.2h-.75v1.5h1.52c.49,0,.91-.16,1.26-.49.35-.33.64-.84.89-1.55l2.92-8.36h-1.93l-1.54,4.9-1.61-4.9h-1.93l2.67,7.34-.14.4ZM112.38,211.22c-.59-.71-.88-1.68-.88-2.9s.29-2.18.88-2.89c.59-.71,1.38-1.07,2.37-1.07s1.79.36,2.37,1.07.88,1.68.88,2.89-.29,2.18-.88,2.9-1.38,1.07-2.37,1.07-1.78-.36-2.37-1.07ZM113.34,208.33c0,.74.13,1.32.38,1.74.25.42.6.62,1.04.62s.79-.21,1.04-.62c.25-.42.38-.99.38-1.74s-.13-1.32-.38-1.74c-.25-.42-.6-.62-1.04-.62s-.78.21-1.04.62c-.25.42-.38.99-.38,1.74ZM106.48,113.1h1.87v-7.82h2.4v-1.63h-6.66v1.63h2.4v7.82ZM104.41,161.92c-.45-.45-.67-1.09-.67-1.9,0-.88.27-1.53.8-1.95.53-.42,1.35-.63,2.47-.63h1.27v-.33c0-.32-.11-.56-.32-.72-.22-.16-.53-.25-.95-.25-.44,0-.86.06-1.28.18-.41.12-.84.31-1.29.57v-1.69c.41-.18.82-.31,1.24-.4.42-.09.86-.13,1.33-.13,1.14,0,1.94.25,2.41.75.46.5.69,1.39.69,2.68v4.31h-1.83v-.84c-.22.33-.51.59-.85.77-.35.18-.73.27-1.15.27-.8,0-1.42-.23-1.87-.68ZM105.7,160.12c0,.34.09.61.28.82.19.2.44.3.77.3.49,0,.86-.2,1.13-.59.27-.39.4-.94.4-1.65v-.13h-.73c-.69,0-1.16.09-1.44.28-.27.19-.41.51-.41.97ZM98.6,129.67h-1.87v-9.45h2.56c1.3,0,2.24.23,2.81.7.57.46.86,1.22.86,2.26s-.29,1.8-.86,2.26c-.57.46-1.51.7-2.81.7h-.7v3.54ZM98.6,124.56h.77c.61,0,1.04-.1,1.29-.31.25-.21.37-.57.37-1.08s-.12-.87-.37-1.08c-.25-.21-.68-.31-1.29-.31h-.77v2.77ZM104.38,211.25c-.44-.69-.67-1.67-.67-2.93s.22-2.25.67-2.94c.45-.68,1.09-1.02,1.92-1.02.38,0,.71.1,1.01.31.3.21.56.52.79.94v-4.01h1.83v10.49h-1.83v-1.12c-.2.44-.45.76-.76.98s-.68.33-1.1.33c-.8,0-1.43-.35-1.87-1.04ZM105.55,208.34c0,.73.11,1.3.34,1.71.23.41.54.62.93.62s.71-.21.94-.62.35-.98.35-1.71-.12-1.3-.35-1.71c-.23-.41-.54-.62-.94-.62s-.71.21-.93.62c-.23.41-.34.98-.34,1.71ZM125.28,195.53v-7.55h-1.84v4.33c0,.57-.09,1.01-.28,1.32-.19.31-.44.47-.77.47s-.57-.12-.71-.35-.21-.62-.21-1.17v-4.61h-1.84v4.91c0,.93.17,1.64.51,2.12s.85.71,1.51.71c.44,0,.81-.11,1.13-.34.31-.23.53-.55.66-.97v1.12h1.84ZM133.5,74.07c.58.62.87,1.5.87,2.63v.75h-4.8c0,.56.17.97.49,1.25.32.27.81.41,1.46.41.43,0,.85-.06,1.26-.18s.85-.32,1.3-.58v1.7c-.43.18-.87.31-1.32.4s-.92.13-1.42.13c-1.19,0-2.09-.32-2.72-.95-.63-.63-.94-1.55-.94-2.74s.3-2.07.91-2.74c.6-.67,1.43-1.01,2.47-1.01s1.87.31,2.45.93ZM132.5,76.06c0-.49-.13-.86-.38-1.11-.24-.25-.6-.38-1.07-.38-.43,0-.77.13-1.02.39-.25.26-.4.63-.45,1.1h2.92ZM123.86,78.62c-.17-.23-.26-.63-.26-1.18v-6.89h-3.73v1.42h1.88v5.47c0,1.06.19,1.82.58,2.27.38.46,1.02.68,1.9.68h2v-1.42h-1.48c-.41,0-.71-.12-.88-.35ZM99.95,195.73c.49,0,.95-.08,1.38-.25.43-.17.82-.42,1.18-.75v-4.61h-2.89v1.67h1.27v1.92c-.09.08-.2.13-.35.17-.14.04-.31.06-.5.06-.64,0-1.13-.29-1.46-.88s-.5-1.44-.5-2.55.17-2.02.52-2.58c.35-.57.87-.85,1.58-.85.4,0,.77.09,1.11.27s.63.45.89.81v-2.2c-.32-.22-.66-.38-1.02-.49-.36-.11-.73-.17-1.11-.17-1.26,0-2.22.45-2.89,1.34s-1,2.19-1,3.88.33,2.95.99,3.86,1.6,1.36,2.81,1.36ZM100.21,162.41v-8.32h2.38v-1.74h-6.61v1.74h2.38v8.32h1.85ZM118.05,74.1c.45.64.68,1.56.68,2.76s-.22,2.1-.67,2.75c-.45.65-1.08.97-1.89.97-.43,0-.8-.1-1.11-.31s-.57-.51-.77-.92v1.05h-1.85v-9.85h1.85v3.77c.23-.39.49-.69.79-.88.3-.2.64-.29,1.02-.29.84,0,1.49.32,1.94.96ZM116.87,76.87c0-.68-.11-1.22-.34-1.61-.23-.39-.54-.58-.94-.58s-.72.19-.95.58c-.23.39-.35.92-.35,1.61s.12,1.22.35,1.61c.23.39.55.58.95.58s.72-.19.94-.58c.23-.39.34-.92.34-1.61ZM110,73.84c.47.47.7,1.31.7,2.51v4.04h-1.84v-.79c-.22.31-.51.55-.86.72s-.74.25-1.16.25c-.81,0-1.43-.21-1.88-.64-.45-.43-.67-1.02-.67-1.78,0-.83.27-1.44.8-1.83s1.37-.59,2.49-.59h1.28v-.31c0-.3-.11-.53-.33-.68-.22-.15-.54-.23-.96-.23-.44,0-.87.06-1.29.17-.42.11-.85.29-1.3.53v-1.58c.41-.17.82-.29,1.25-.37.42-.08.87-.12,1.34-.12,1.15,0,1.96.23,2.43.7ZM108.86,77.06h-.74c-.69,0-1.18.09-1.45.27-.27.18-.41.48-.41.91,0,.32.1.58.28.77.19.19.45.28.77.28.49,0,.87-.18,1.14-.55.27-.37.4-.88.4-1.55v-.13ZM85.28,70.55h1.85v9.85h-1.85v-1.05c-.2.41-.45.72-.77.92-.31.21-.68.31-1.11.31-.81,0-1.44-.32-1.89-.97-.45-.65-.67-1.57-.67-2.75s.23-2.12.68-2.76c.45-.64,1.1-.96,1.94-.96.38,0,.72.1,1.02.29.3.2.57.49.79.88v-3.77ZM85.28,76.87c0-.68-.12-1.22-.35-1.61s-.55-.58-.95-.58-.71.19-.94.58c-.23.39-.34.92-.34,1.61s.11,1.22.34,1.61c.23.39.54.58.94.58s.72-.19.95-.58c.23-.39.35-.92.35-1.61ZM102.78,204.55h-2.23l-2.21,2.57v-5.51h-1.84v10.49h1.84v-2.88l.63-.65,1.93,3.53h2.03l-2.81-4.73,2.66-2.82ZM77.22,73.13c-.45,0-.83.11-1.15.32-.32.21-.54.52-.67.91v-1.06h-1.84v7.09h1.84v-4.06c0-.53.1-.95.29-1.25.19-.3.45-.45.79-.45s.57.11.71.33c.15.22.22.59.22,1.1v4.32h1.84v-4.6c0-.88-.17-1.55-.51-1.99-.34-.45-.85-.67-1.52-.67ZM94.48,74.07c.58.62.87,1.5.87,2.63v.75h-4.8c0,.56.17.97.49,1.25.32.27.81.41,1.46.41.43,0,.85-.06,1.26-.18s.85-.32,1.3-.58v1.7c-.43.18-.87.31-1.32.4s-.92.13-1.42.13c-1.19,0-2.09-.32-2.72-.95-.63-.63-.94-1.55-.94-2.74s.3-2.07.91-2.74c.6-.67,1.43-1.01,2.47-1.01s1.87.31,2.45.93ZM93.49,76.06c0-.49-.13-.86-.38-1.11-.24-.25-.6-.38-1.07-.38-.43,0-.77.13-1.02.39-.25.26-.4.63-.45,1.1h2.92ZM101.73,73.13c-.5,0-.94.11-1.32.33-.38.22-.65.53-.84.94v-1.1h-1.85v7.09h1.85v-3.27c0-.46.02-.81.06-1.04.04-.23.11-.42.21-.58.16-.26.39-.46.68-.6.29-.14.64-.21,1.03-.21.32,0,.62.05.9.14s.51.23.71.42v-1.77c-.22-.12-.45-.21-.69-.27s-.49-.09-.74-.09ZM114.07,170.05h1.84v-2.31h-1.84v2.31ZM132.7,155.67c.58.66.86,1.6.86,2.8v.8h-4.76c0,.59.17,1.04.49,1.33.32.29.8.44,1.44.44.42,0,.84-.06,1.25-.2.41-.13.84-.34,1.29-.62v1.81c-.43.19-.86.33-1.31.42-.44.09-.91.14-1.41.14-1.18,0-2.07-.34-2.69-1.01-.62-.68-.93-1.65-.93-2.92s.3-2.2.9-2.92c.6-.71,1.41-1.07,2.45-1.07s1.85.33,2.42.99ZM131.71,157.79c0-.52-.13-.92-.37-1.18-.24-.27-.6-.4-1.06-.4-.42,0-.76.14-1.01.41s-.4.67-.45,1.18h2.89ZM131.06,204.36c-.44,0-.82.11-1.14.34-.31.23-.54.55-.67.97v-1.13h-1.83v7.55h1.83v-4.32c0-.57.09-1.01.29-1.33.19-.32.45-.48.78-.48s.56.12.71.35.22.63.22,1.18v4.6h1.83v-4.9c0-.94-.17-1.65-.51-2.12-.34-.47-.84-.71-1.51-.71ZM132.7,172.23c.58.66.86,1.6.86,2.8v.8h-4.76c0,.59.17,1.04.49,1.33.32.29.8.44,1.44.44.42,0,.84-.06,1.25-.2.41-.13.84-.34,1.29-.62v1.81c-.43.19-.86.33-1.31.42-.44.09-.91.14-1.41.14-1.18,0-2.07-.34-2.69-1.01-.62-.68-.93-1.65-.93-2.92s.3-2.2.9-2.92c.6-.71,1.41-1.07,2.45-1.07s1.85.33,2.42.99ZM131.71,174.35c0-.52-.13-.92-.37-1.18-.24-.27-.6-.4-1.06-.4-.42,0-.76.14-1.01.41s-.4.67-.45,1.18h2.89ZM118.1,129.67v-4.6c0-.88-.17-1.55-.51-1.99-.34-.45-.85-.67-1.52-.67-.45,0-.83.11-1.15.32-.32.21-.54.52-.67.91v-1.06h-1.84v7.09h1.84v-4.06c0-.53.1-.95.29-1.25.19-.3.45-.45.79-.45s.57.11.71.33c.15.22.22.59.22,1.1v4.32h1.84ZM132.86,188.84c.44.69.67,1.67.67,2.92s-.22,2.26-.67,2.94c-.45.68-1.09,1.02-1.92,1.02-.38,0-.71-.1-1.01-.31-.3-.21-.56-.52-.79-.95v3.94h-1.83v-10.42h1.83v1.13c.19-.44.45-.76.76-.98s.68-.33,1.1-.33c.8,0,1.43.35,1.87,1.04ZM131.69,191.75c0-.73-.11-1.3-.34-1.71-.23-.41-.54-.62-.93-.62s-.71.21-.94.62c-.23.41-.35.98-.35,1.71s.11,1.3.35,1.71c.23.41.54.62.94.62s.71-.21.93-.62c.23-.41.34-.98.34-1.71ZM108.95,187.8c-.5,0-.93.12-1.3.35-.37.24-.65.57-.83,1v-1.17h-1.84v7.55h1.84v-3.48c0-.49.02-.86.06-1.11.04-.24.11-.45.21-.62.16-.28.38-.49.67-.64.29-.15.63-.22,1.02-.22.32,0,.62.05.89.15.27.1.51.25.71.45v-1.88c-.22-.13-.45-.22-.69-.29-.24-.07-.49-.1-.74-.1ZM106.41,168.91h-1.85v10.06h5.81v-1.75h-3.96v-8.31ZM109.83,123.11c.47.47.7,1.31.7,2.51v4.04h-1.84v-.79c-.22.31-.51.55-.86.72s-.74.25-1.16.25c-.81,0-1.43-.21-1.88-.64-.45-.43-.67-1.02-.67-1.78,0-.83.27-1.44.8-1.83s1.37-.59,2.49-.59h1.28v-.31c0-.3-.11-.53-.33-.68-.22-.15-.54-.23-.96-.23-.44,0-.87.06-1.29.17-.42.11-.85.29-1.3.53v-1.58c.41-.17.82-.29,1.25-.37.42-.08.87-.12,1.34-.12,1.15,0,1.96.23,2.43.7ZM108.69,126.34h-.74c-.69,0-1.18.09-1.45.27-.27.18-.41.48-.41.91,0,.32.1.58.28.77.19.19.45.28.77.28.49,0,.87-.18,1.14-.55.27-.37.4-.88.4-1.55v-.13ZM109.87,146.06v-4.9c0-.94-.17-1.65-.51-2.12-.34-.47-.84-.71-1.51-.71-.44,0-.82.11-1.14.34-.31.23-.54.55-.67.97v-1.13h-1.83v7.55h1.83v-4.32c0-.57.09-1.01.29-1.33.19-.32.45-.48.78-.48s.56.12.71.35.22.63.22,1.18v4.6h1.83ZM113.66,151.92v4.01c.23-.42.49-.73.79-.94.3-.21.64-.31,1.01-.31.83,0,1.47.34,1.92,1.02.45.68.67,1.66.67,2.94s-.22,2.23-.67,2.93c-.44.69-1.07,1.04-1.87,1.04-.42,0-.79-.11-1.1-.33s-.57-.55-.76-.98v1.12h-1.83v-10.49h1.83ZM113.66,158.65c0,.73.11,1.3.35,1.71.23.41.54.62.94.62s.71-.21.93-.62c.23-.41.34-.98.34-1.71s-.11-1.3-.34-1.71c-.23-.41-.54-.62-.93-.62s-.71.21-.94.62c-.23.41-.35.98-.35,1.71ZM115.91,171.42h-3.64v1.52h1.8v4.51h-2.29v1.52h6.41v-1.52h-2.28v-6.03ZM165.43,104.38l-5.44,5.11-2.63-.81,2.67,4.31,5.4-8.6ZM165.43,120.8l-5.44,5.11-2.63-.81,2.67,4.31,5.4-8.6ZM165.43,137.23l-5.44,5.11-2.63-.81,2.67,4.31,5.4-8.6ZM165.43,153.65l-5.44,5.11-2.63-.81,2.67,4.31,5.4-8.6ZM165.43,170.07l-5.44,5.11-2.63-.81,2.67,4.31,5.4-8.6ZM165.43,186.5l-5.44,5.11-2.63-.81,2.67,4.31,5.4-8.6ZM165.43,202.92l-5.44,5.11-2.63-.81,2.67,4.31,5.4-8.6Z"/>
  <text class="cls-5" transform="translate(125.28 11.48)"><tspan x="0" y="0">Gradient </tspan><tspan class="cls-4" x="33.65" y="0">T</tspan><tspan x="37.76" y="0">able Example</tspan></text>
  <g>
    <circle class="cls-3" cx="9.93" cy="9.35" r="2.98"/>
    <circle class="cls-2" cx="19.29" cy="9.35" r="2.98"/>
    <circle class="cls-6" cx="28.66" cy="9.35" r="2.98"/>
  </g>
</svg>