<?xml version="1.0" encoding="UTF-8"?>
<svg id="Layer_1" data-name="Layer 1" xmlns="http://www.w3.org/2000/svg" viewBox="0 0 376 115.11">
  <defs>
    <linearGradient id='a' gradientUnits='objectBoundingBox' x1='0' y1='0' x2='1' y2='1'>
      <stop offset='0' stop-color='#ff00ff'>
         <animate attributeName="stop-color"
            values="#ff00ff;#af00ff;#5f00ff;#3000ff;#0099ff;#00ffff;#00ff00;#99ff00;#ffff00;#ff9900;#ff0000;#ff00ff;"
            dur="20s" repeatCount="indefinite">
         </animate>
      </stop>
      <stop offset='.5' stop-color='#af00ff'>
         <animate attributeName="stop-color"
            values="#af00ff;#5f00ff;#3000ff;#0099ff;#00ffff;#00ff00;#99ff00;#ffcf00;#ff9900;#ff0000;#ff00af;#ff00ff;"
            dur="20s" repeatCount="indefinite">
         </animate>
      </stop>
      <stop offset='1' stop-color="#3300ff;">
         <animate attributeName="stop-color"
            values="#3300ff;#0099ff;#00ffff;#00ff00;#99ff00;#ffcf00;#ff9900;#ff0000;#ff00af;#ff00ff;#af00ff;#3000ff;"
            dur="20s" repeatCount="indefinite">
         </animate>
      </stop>
      <animateTransform attributeName="gradientTransform" type="rotate" from="0 .5 .5"
         to="360 .5 .5" dur="20s" repeatCount="indefinite" />
   </linearGradient>
   <linearGradient id='b' gradientUnits='objectBoundingBox' x1='0' y1='1' x2='1' y2='1'>
      <stop offset='0' stop-color='#ff00ff'>
         <animate attributeName="stop-color"
            values="#ff00ff;#af00ff;#5f00ff;#3000ff;#0099ff;#00ffff;#00ff00;#99ff00;#ffcf00;#ff9900;#ff0000;#ff00af;"
            dur="30s" repeatCount="indefinite">
         </animate>
      </stop>
      <stop offset='1' stop-color='#af00ff' stop-opacity="0">
         <animate attributeName="stop-color"
            values="#99ff00;#ffcf00;#ff9900;#ff0000;#ff00af;#ff00ff;#af00ff;#5f00ff;#3300ff;#0099ff;#00ffff;#00ff99;#00ff00;"
            dur="25s" repeatCount="indefinite">
         </animate>
      </stop>
      <animateTransform attributeName="gradientTransform" type="rotate"
         values="360 .5 .5; 0 .5 .5" class="ignore" dur="10s" repeatCount="indefinite" />
   </linearGradient>
    <style>
      .cls-1 {
        fill: #000;
      }

      .cls-1, .cls-2, .cls-3, .cls-4, .cls-5, .cls-6 {
        stroke-width: 0px;
      }

      .cls-7 {
        stroke-width: .75px;
      }

      .cls-7, .cls-8 {
        fill: #ffffff;
        stroke: #000;
        stroke-miterlimit: 10;
      }

      .cls-9 {
        fill: #6e400c;
        stroke: #6e400c;
        stroke-miterlimit: 3.26;
        stroke-width: .67px;
      }

      .cls-2 {
        fill: #fae742;
      }

      .cls-3 {
        fill: #0084ff;
      }

      .cls-8 {
        stroke-width: 2px;
        fill: url(#a);
        fill: url(#b);
      }

      .cls-4 {
        fill: #ffcb37;
      }

      .cls-5 {
        fill: #8d8d8d;
      }

      .cls-6 {
        fill: #925711;
      }
    </style>
  </defs>
  <g>
    <path class="cls-4" d="M44.05,48.61c1.47-.18,5.35-.27,6.65,0,.26.05.46.1.62.17-.15-.03-.29-.05-.45-.06-.22-.02-.45-.03-.69,0-.02,0-.04,0-.06,0,.09.01.17.03.26.06.1.02.19.04.28.07.31.12.7.35.94.61.23.25.4.57.49.89.09.33.09.69.07,1.05-.03.38-.11.84-.26,1.18-.04.08-.08.16-.13.24.07-.04.14-.08.21-.12-.12,1.08.38,3.48.12,4.68-.21.96-.64,1.84-1.19,2.23-.5.35-1.06.18-1.87.21-1.15.04-3.49-.19-4.57-.1-.71.05-1.07.42-1.56.31-.5-.11-1.05-.44-1.4-.99-.47-.72-.7-2.23-.83-3.32-.13-1.05-.09-2.23,0-3.12.08-.73.17-1.29.42-1.87.25-.58.6-1.26,1.09-1.61.49-.35.97-.41,1.87-.52Z"/>
    <path class="cls-5" d="M27.76,26.3c.63-.15,1.2-.05,1.65.14.42.18.81.49,1.03.9.25.46.38,1.28.28,1.79-.09.46-.35.81-.76,1.17-.54.48-2.06,1.06-2.41,1.31-.14.1-.11.09-.21.21-.17.2-.69.64-.76,1.03-.07.41.45.83.41,1.38-.05.71-.42,2.06-1.03,2.55-.61.48-1.88.59-2.62.41-.68-.17-1.39-.72-1.72-1.31-.35-.61-.38-1.52-.28-2.34.12-.92.55-1.99,1.1-2.89.59-.96,1.51-1.96,2.41-2.69.87-.71,2.06-1.45,2.89-1.65ZM63.6,25.99c.48-.03,1.3,0,2.07.41,1.1.6,2.84,2.14,3.79,3.51.95,1.36,1.98,3.53,1.93,4.69-.04.83-.56,1.49-1.17,1.86-.69.41-2.08.4-2.89.28-.68-.1-1.34-.31-1.72-.76-.4-.47-.6-1.47-.55-2.07.05-.53.84-.84.69-1.38-.23-.83-2.87-2.19-3.45-3.03-.36-.53-.48-.89-.41-1.38.07-.58.69-1.53,1.03-1.86.23-.22.37-.26.69-.28ZM23.07,52.64c.51.03,1.78.33,2.31.94.59.68.77,2.2.88,3.13.09.79-.22,1.18-.13,2.13.14,1.45,1.14,4.25,1.38,6,.2,1.46.16,2.77.13,3.88-.03.92-.48,1.75-.25,2.38.21.58.65,1.03,1.44,1.31,1.24.45,3.68.25,6,.25,2.85,0,6.95-.39,10.01-.38,2.72.01,4.76.34,7.51.38,3.11.04,8.43-.68,10.26-.25.2.05.37.1.52.16.09-.39.28-.8.55-1.09.24-.26.66-.49,1.08-.66,0-.14.02-.28.04-.4.2-.92.9-1.73,1.13-2.88.27-1.39-.07-3.38.13-5,.19-1.59.85-3.25,1-4.63.13-1.16-.22-2.26,0-3.13.19-.74.72-1.5,1.06-1.81.21-.2.35-.21.63-.25.4-.05,1.19-.05,1.63.13.39.16.73.33.94.81.33.76.35,2.52.25,3.88-.11,1.47-.79,2.94-1,4.63-.23,1.87.06,4.51-.25,6.13-.24,1.25-.95,2.09-1.13,3-.15.77.23,1.36,0,2.13-.29.97-1.31,2.58-1.94,3.19-.42.41-.7.51-1.25.63-.73.16-2.16.18-2.88,0-.13-.03-.25-.07-.37-.11-1.18.39-3.36.18-4.89.16-1.56-.03-2.92-.35-4.5-.38-1.7-.03-3.25.26-5.38.25-2.68-.01-6.87-.51-9.63-.5-2.26,0-3.94.38-5.88.38-1.9,0-4.47,0-5.63-.38-.7-.22-.99-.62-1.31-.94-.27-.26-.3-.52-.56-.81-.33-.37-.97-.73-1.31-1.19-.34-.44-.63-.99-.75-1.5-.12-.49-.02-.8,0-1.5.03-1.14.41-3.4.25-5-.15-1.56-.84-2.79-1.13-4.5-.33-2.01-.93-5.52-.63-6.88.18-.79.74-1.17,1.06-1.44.22-.18.32-.27.63-.25Z"/>
    <path class="cls-6" d="M28.2,52.25c1.52-.14,7.65.59,9.31.58.78,0,.95-.25,1.38-.15.43.1.92.46,1.2.76.24.26.36.56.44.87.07.32.06.69,0,1.02-.06.33-.33.67-.36.95-.03.22.09.36.07.58-.03.27-.33.59-.29.95.05.45.2,1.19.8,1.56.94.59,3.61.6,5.27.73,1.54.12,3.26.21,4.37.07.8-.1,1.46-.06,1.86-.55.48-.6.56-2.44.44-3.2-.09-.54-.55-.79-.65-1.16-.09-.33-.07-.63,0-.95.08-.35.2-.77.51-1.05.37-.34,1.06-.6,1.71-.73.74-.15,1.42-.06,2.55,0,1.67.09,5.44.77,6.84.65.78-.06,1.03-.53,1.53-.51.5.02,1.14.33,1.49.65.33.3.5.99.62,1.16.05.07.06.03.11.11.01.02.02.04.04.07-.06.1-.12.21-.17.33-.19.46-.24,1.14-.29,1.75-.04.44-.07.98-.05,1.44-.06.02-.12.07-.18.2-.49,1.12-.78,8.83-1.31,10.84-.27,1.02-.54,1.35-.87,1.82-.28.4-.56.68-.91.91-.34.22-.47.33-1.16.44-1.54.23-6.45.18-9.17.07-2.34-.09-3.94-.51-6.26-.58-2.66-.09-5.99.23-8.88.22-2.8-.01-6.81-.08-8.22-.29-.64-.1-.78-.18-1.09-.36-.3-.17-.56-.43-.76-.69-.2-.26-.34-.53-.44-.87-.11-.39-.13-1.16-.15-1.38,0-.09,0-.09,0-.15.01-.06.08-.15.07-.22,0-.06-.06-.1-.07-.15-.01-.05,0-.06,0-.15-.02-.18-.16-.81-.15-1.02,0-.11.08-.15.07-.22,0-.06-.06-.1-.07-.15-.01-.05,0-.05,0-.15,0-.28-.08-1.22-.07-2.11.01-1.23.36-3.51.22-4.73-.1-.9-.56-1.53-.65-2.11-.07-.44-.04-.9,0-1.09.02-.09.09-.07.07-.15-.03-.15-.46-.41-.58-.73-.15-.38-.26-1-.15-1.46.12-.48.55-1.06.91-1.35.32-.25.43-.3,1.09-.36Z"/>
    <path class="cls-9" d="M23.72,35.84c.34-.05.78-.03,1.14.06.36.1.61.42,1.01.51.48.1,1.03-.08,1.71-.06.85.02,2.13.28,3.04.25.78-.02,1.3-.26,2.09-.32.91-.07,1.76-.05,3.1,0,1.93.07,5.72.49,7.72.51,1.44.01,2.3-.2,3.42-.19,1.08.01,2.15.26,3.16.25.96,0,1.42-.19,2.78-.25,2.35-.12,8.36-.28,10.94-.19,1.67.06,2.77.42,3.67.38.62-.03.93-.36,1.39-.32.48.05,1.1.33,1.42.63.28.26.41.64.51.98.02.08.04.17.06.25-.29.38-.56.99-.67,1.12-.04.05-.03.02-.07.07-.12.13-.6.62-.77.91-.12.21-.19.37-.22.58-.16.05-.31.11-.45.19-.45.27-1.06.57-1.23.98-.17.39.17.95.13,1.39-.04.42-.2.9-.38,1.2-.15.25-.32.39-.54.54-.24.16-.59.32-.89.38-.29.06-.56.11-.89,0-.09-.03-.2-.08-.31-.13.03-.07.05-.14.07-.21.09-.31.06-.59,0-.89-.06-.3-.16-.62-.38-.89-.25-.3-.68-.65-1.11-.79-.32-.11-.69-.15-1.06-.13-.1-.02-.2-.04-.3-.07-.45-.12-1.01-.22-1.52-.19-.52.03-.94.31-1.58.38-.82.09-1.9.09-3.04,0-1.34-.11-3.61-.41-4.55-.7-.56-.17-.67-.52-1.08-.57-.45-.06-1.04.39-1.52.32-.42-.06-.72-.47-1.17-.66.02-.06.04-.11.06-.16.1-.32.07-.58,0-.89-.08-.33-.25-.74-.51-1.01-.27-.29-.65-.54-1.11-.66-.54-.15-1.4-.17-1.96-.06-.49.09-.94.28-1.26.57-.32.29-.56.8-.66,1.17-.09.31-.07.59,0,.89,0,.03.02.07.03.11-.04-.02-.05-.06-.11-.04-.18.05-.54.56-.89.7-.35.14-.8.22-1.2.13-.24-.05-.54-.21-.8-.37-.06-.41-.24-.86-.43-1.14-.22-.34-.53-.58-.92-.73-.45-.17-1.17-.12-1.71-.13-.49,0-.98-.04-1.39.06-.38.1-.73.23-1.01.51-.14.14-.29.33-.41.54-.07,0-.09,0-.14.06-.05.06-.06.18-.06.33-.05.13-.09.25-.12.37-.04.19-.04.41-.01.61-.33.83-1.43,2.61-1.99,3.18-.02.02-.04.04-.06.06-.16.43-.51.93-.8,1.19-.27.24-.58.32-.89.38-.29.06-.57.09-.89,0-.38-.11-.9-.4-1.23-.73-.34-.33-.62-.86-.76-1.26-.05-.14-.09-.27-.12-.41-.48-.73-1.19-2.16-1.61-2.65-.27-.32-.43-.26-.7-.54-.39-.4-1.11-1.2-1.39-1.83-.25-.57-.42-1.23-.32-1.77.1-.54.58-1.19.92-1.49.26-.22.52-.27.82-.32Z"/>
    <path class="cls-6" d="M43.07,28.13c4.82-.04,15.2-.6,18.56.31,1.8.48,1.71,1.67,2.45,2.43.62.64.96,1.42,1.19,2.08.2.58.36,1.11.24,1.67-.13.61-.54,1.47-1.13,1.85-.19.12-.42.2-.67.26-1.12-.06-2.36-.06-3.07,0-.88-.14-1.82-.4-3.17-.5-2.77-.21-7.12-.27-11.43-.24-5.09.04-14.64,1.14-17.38.59-1.19-.24-1.51-.63-1.84-1.13-.31-.45-.31-1.02-.24-1.67.08-.81.5-2.09.95-2.86.39-.68.96-1.17,1.49-1.61.49-.4,1-.8,1.55-.95.53-.15,1.1-.06,1.67,0,.58.06.85.32,1.79.36,1.78.08,5.37-.56,9.05-.6Z"/>
  </g>
  <path fill="url(#a)" d="M96.47,56.24c.69.2,1.35.51,1.98.93v3.3c-.7-.54-1.4-.93-2.12-1.18-.71-.25-1.5-.37-2.35-.37-2.02,0-3.56.63-4.63,1.9-1.07,1.27-1.61,3.09-1.62,5.48l-.04,9.79h-3.25l.08-19.69h3.25l-.02,3.85c.54-1.39,1.38-2.46,2.5-3.21,1.12-.74,2.45-1.12,3.99-1.12.8,0,1.54.1,2.23.3ZM113.66,56.49h-8.28v2.51s5.03,0,5.03,0l-.06,14.59h-6.42v2.51s16.06,0,16.06,0v-2.51s-6.41,0-6.41,0l.07-17.1ZM113.7,48.84h-3.23l-.02,4.08h3.23l.02-4.08ZM134.66,55.94c-3.05,0-5.43.91-7.16,2.74-1.72,1.83-2.59,4.36-2.61,7.59-.01,3.23.83,5.77,2.54,7.59s4.09,2.74,7.13,2.74c.96,0,1.9-.13,2.82-.38s1.82-.63,2.69-1.13v-3.36c-.75.73-1.58,1.26-2.47,1.61-.89.35-1.9.52-3.03.52-2.02,0-3.57-.66-4.66-1.98-1.09-1.32-1.63-3.19-1.62-5.62.01-2.44.56-4.31,1.66-5.62,1.1-1.31,2.66-1.97,4.68-1.97,1.09,0,2.06.17,2.92.51.86.34,1.72.89,2.57,1.65v-3.39c-.9-.52-1.8-.9-2.71-1.14s-1.83-.37-2.78-.37ZM155.68,55.94c-1.35,0-2.52.29-3.5.87-.99.58-1.77,1.43-2.35,2.56l.04-10.62h-3.23l-.11,27.35h3.23l.05-11.13c0-2,.42-3.54,1.24-4.61.82-1.07,1.98-1.61,3.5-1.61,1.32,0,2.29.42,2.91,1.25.62.83.92,2.13.92,3.9l-.05,12.2h3.25l.05-12.2c.01-2.67-.48-4.67-1.46-5.98s-2.48-1.98-4.48-1.98ZM164.74,82.43h21.52v-2.99s-21.5,0-21.5,0v2.99ZM201.61,56.49h3.23l-.08,18.35c-.01,2.95-.72,5.19-2.12,6.71-1.4,1.52-3.46,2.29-6.16,2.29-.89,0-1.82-.08-2.79-.25-.97-.16-1.94-.4-2.92-.72v-3.2c1.16.54,2.2.94,3.14,1.2s1.8.39,2.58.39c1.75,0,3.02-.47,3.82-1.42s1.21-2.46,1.21-4.52v-2.34c-.51,1.1-1.22,1.92-2.11,2.46-.89.54-1.98.81-3.25.81-2.3,0-4.13-.92-5.49-2.76s-2.04-4.3-2.03-7.38c.01-3.09.71-5.56,2.09-7.4,1.38-1.84,3.22-2.76,5.51-2.76,1.27,0,2.34.25,3.21.76s1.59,1.28,2.13,2.34v-2.55ZM201.57,66.1c.01-2.43-.38-4.27-1.16-5.53-.79-1.26-1.93-1.89-3.45-1.89s-2.79.63-3.63,1.89c-.84,1.26-1.26,3.1-1.27,5.53,0,2.43.4,4.27,1.23,5.55.83,1.27,2.04,1.91,3.64,1.91,1.49,0,2.63-.64,3.43-1.92.8-1.28,1.2-3.12,1.21-5.54ZM224.29,55.94c-1.54,0-2.86.37-3.99,1.12s-1.96,1.81-2.5,3.21l.02-3.85h-3.25l-.08,19.69h3.25l.04-9.79c0-2.39.55-4.22,1.62-5.48,1.07-1.27,2.62-1.9,4.63-1.9.86,0,1.64.12,2.35.37s1.42.64,2.1,1.18v-3.3c-.62-.42-1.28-.73-1.97-.93s-1.43-.3-2.23-.3ZM248.19,61c.18.86.27,2.15.26,3.88l-.05,11.23h-3.25v-2.92c-.68,1.17-1.56,2.04-2.61,2.59s-2.33.83-3.83.83c-2,0-3.6-.57-4.79-1.7-1.19-1.13-1.78-2.65-1.77-4.54,0-2.19.75-3.86,2.23-4.99s3.64-1.71,6.49-1.71h4.34v-.51c0-1.57-.4-2.71-1.18-3.42-.78-.71-2.03-1.06-3.76-1.06-1.1,0-2.22.16-3.34.47-1.13.32-2.22.78-3.29,1.39v-3.23c1.21-.46,2.36-.8,3.45-1.03s2.16-.34,3.19-.34c1.63,0,3.02.24,4.17.72,1.15.48,2.08,1.2,2.79,2.16.44.59.76,1.31.94,2.17ZM245.2,66.21h-4.1c-1.89,0-3.31.33-4.27.99-.96.66-1.44,1.65-1.44,2.96,0,1.18.35,2.1,1.06,2.76s1.7.98,2.97.98c1.78,0,3.18-.62,4.21-1.85s1.55-2.94,1.57-5.12v-.72ZM266.66,48.76h3.23l-.11,27.35h-3.23v-2.48c-.53.97-1.25,1.71-2.15,2.22-.9.51-1.93.76-3.11.76-2.38,0-4.25-.92-5.6-2.77s-2.03-4.39-2.02-7.64c.01-3.2.71-5.71,2.09-7.53,1.38-1.82,3.25-2.73,5.62-2.73,1.18,0,2.22.25,3.12.76s1.61,1.25,2.12,2.22l.04-10.18ZM266.59,66.28c.01-2.5-.39-4.39-1.2-5.67-.81-1.28-1.99-1.92-3.55-1.92s-2.74.64-3.54,1.92c-.8,1.28-1.21,3.17-1.22,5.68,0,2.51.38,4.4,1.17,5.68.79,1.28,1.97,1.92,3.53,1.92s2.75-.64,3.57-1.93c.82-1.29,1.24-3.18,1.25-5.66ZM287.09,48.84h-3.23l-.02,4.08h3.23l.02-4.08ZM287.05,56.49h-8.28v2.51s5.04,0,5.04,0l-.06,14.59h-6.42v2.51s16.06,0,16.06,0v-2.51s-6.41,0-6.41,0l.07-17.1ZM312.26,58.49c1.44,1.7,2.2,3.75,2.29,6.15v1.58h-14.02v.11c-.11,2.68.4,4.61,1.51,5.78s2.69,1.76,4.73,1.76c1.03,0,2.11-.16,3.24-.49,1.13-.33,2.33-.83,3.61-1.49v3.22c-1.25.5-2.43.88-3.58,1.13s-2.25.38-3.32.38c-3.06,0-5.45-.92-7.16-2.75s-2.57-4.36-2.55-7.58c.01-3.14.87-5.65,2.56-7.52,1.7-1.88,3.95-2.81,6.76-2.81,2.51,0,4.48.85,5.92,2.55ZM311.32,63.7c-.13-1.36-.62-2.53-1.47-3.52-.85-.99-2.07-1.48-3.66-1.48s-2.84.52-3.86,1.55c-1.01,1.03-1.57,2.19-1.67,3.48l10.65-.02ZM329.07,55.94c-1.35,0-2.52.29-3.5.87-.99.58-1.77,1.43-2.35,2.56v-2.95s-3.22,0-3.22,0l-.08,19.69h3.23l.05-11.13c0-2,.42-3.54,1.24-4.61.82-1.07,1.98-1.61,3.5-1.61,1.32,0,2.29.42,2.91,1.25.62.83.92,2.13.92,3.9l-.05,12.2h3.25l.05-12.2c.01-2.67-.48-4.67-1.46-5.98s-2.48-1.98-4.48-1.98ZM356.37,58.93v-2.51s-7.34,0-7.34,0l.02-5.59h-3.23l-.02,5.59h-5.26v2.51s5.25,0,5.25,0l-.04,10.69c0,2.38.48,4.05,1.47,5.03s2.7,1.46,5.13,1.46h3.96v-2.58s-3.63,0-3.63,0c-1.37,0-2.33-.29-2.88-.86-.55-.57-.82-1.59-.81-3.04l.04-10.69h7.35Z"/>
  <path fill="url(#b)" d="M96.47,56.24c.69.2,1.35.51,1.98.93v3.3c-.7-.54-1.4-.93-2.12-1.18-.71-.25-1.5-.37-2.35-.37-2.02,0-3.56.63-4.63,1.9-1.07,1.27-1.61,3.09-1.62,5.48l-.04,9.79h-3.25l.08-19.69h3.25l-.02,3.85c.54-1.39,1.38-2.46,2.5-3.21,1.12-.74,2.45-1.12,3.99-1.12.8,0,1.54.1,2.23.3ZM113.66,56.49h-8.28v2.51s5.03,0,5.03,0l-.06,14.59h-6.42v2.51s16.06,0,16.06,0v-2.51s-6.41,0-6.41,0l.07-17.1ZM113.7,48.84h-3.23l-.02,4.08h3.23l.02-4.08ZM134.66,55.94c-3.05,0-5.43.91-7.16,2.74-1.72,1.83-2.59,4.36-2.61,7.59-.01,3.23.83,5.77,2.54,7.59s4.09,2.74,7.13,2.74c.96,0,1.9-.13,2.82-.38s1.82-.63,2.69-1.13v-3.36c-.75.73-1.58,1.26-2.47,1.61-.89.35-1.9.52-3.03.52-2.02,0-3.57-.66-4.66-1.98-1.09-1.32-1.63-3.19-1.62-5.62.01-2.44.56-4.31,1.66-5.62,1.1-1.31,2.66-1.97,4.68-1.97,1.09,0,2.06.17,2.92.51.86.34,1.72.89,2.57,1.65v-3.39c-.9-.52-1.8-.9-2.71-1.14s-1.83-.37-2.78-.37ZM155.68,55.94c-1.35,0-2.52.29-3.5.87-.99.58-1.77,1.43-2.35,2.56l.04-10.62h-3.23l-.11,27.35h3.23l.05-11.13c0-2,.42-3.54,1.24-4.61.82-1.07,1.98-1.61,3.5-1.61,1.32,0,2.29.42,2.91,1.25.62.83.92,2.13.92,3.9l-.05,12.2h3.25l.05-12.2c.01-2.67-.48-4.67-1.46-5.98s-2.48-1.98-4.48-1.98ZM164.74,82.43h21.52v-2.99s-21.5,0-21.5,0v2.99ZM201.61,56.49h3.23l-.08,18.35c-.01,2.95-.72,5.19-2.12,6.71-1.4,1.52-3.46,2.29-6.16,2.29-.89,0-1.82-.08-2.79-.25-.97-.16-1.94-.4-2.92-.72v-3.2c1.16.54,2.2.94,3.14,1.2s1.8.39,2.58.39c1.75,0,3.02-.47,3.82-1.42s1.21-2.46,1.21-4.52v-2.34c-.51,1.1-1.22,1.92-2.11,2.46-.89.54-1.98.81-3.25.81-2.3,0-4.13-.92-5.49-2.76s-2.04-4.3-2.03-7.38c.01-3.09.71-5.56,2.09-7.4,1.38-1.84,3.22-2.76,5.51-2.76,1.27,0,2.34.25,3.21.76s1.59,1.28,2.13,2.34v-2.55ZM201.57,66.1c.01-2.43-.38-4.27-1.16-5.53-.79-1.26-1.93-1.89-3.45-1.89s-2.79.63-3.63,1.89c-.84,1.26-1.26,3.1-1.27,5.53,0,2.43.4,4.27,1.23,5.55.83,1.27,2.04,1.91,3.64,1.91,1.49,0,2.63-.64,3.43-1.92.8-1.28,1.2-3.12,1.21-5.54ZM224.29,55.94c-1.54,0-2.86.37-3.99,1.12s-1.96,1.81-2.5,3.21l.02-3.85h-3.25l-.08,19.69h3.25l.04-9.79c0-2.39.55-4.22,1.62-5.48,1.07-1.27,2.62-1.9,4.63-1.9.86,0,1.64.12,2.35.37s1.42.64,2.1,1.18v-3.3c-.62-.42-1.28-.73-1.97-.93s-1.43-.3-2.23-.3ZM248.19,61c.18.86.27,2.15.26,3.88l-.05,11.23h-3.25v-2.92c-.68,1.17-1.56,2.04-2.61,2.59s-2.33.83-3.83.83c-2,0-3.6-.57-4.79-1.7-1.19-1.13-1.78-2.65-1.77-4.54,0-2.19.75-3.86,2.23-4.99s3.64-1.71,6.49-1.71h4.34v-.51c0-1.57-.4-2.71-1.18-3.42-.78-.71-2.03-1.06-3.76-1.06-1.1,0-2.22.16-3.34.47-1.13.32-2.22.78-3.29,1.39v-3.23c1.21-.46,2.36-.8,3.45-1.03s2.16-.34,3.19-.34c1.63,0,3.02.24,4.17.72,1.15.48,2.08,1.2,2.79,2.16.44.59.76,1.31.94,2.17ZM245.2,66.21h-4.1c-1.89,0-3.31.33-4.27.99-.96.66-1.44,1.65-1.44,2.96,0,1.18.35,2.1,1.06,2.76s1.7.98,2.97.98c1.78,0,3.18-.62,4.21-1.85s1.55-2.94,1.57-5.12v-.72ZM266.66,48.76h3.23l-.11,27.35h-3.23v-2.48c-.53.97-1.25,1.71-2.15,2.22-.9.51-1.93.76-3.11.76-2.38,0-4.25-.92-5.6-2.77s-2.03-4.39-2.02-7.64c.01-3.2.71-5.71,2.09-7.53,1.38-1.82,3.25-2.73,5.62-2.73,1.18,0,2.22.25,3.12.76s1.61,1.25,2.12,2.22l.04-10.18ZM266.59,66.28c.01-2.5-.39-4.39-1.2-5.67-.81-1.28-1.99-1.92-3.55-1.92s-2.74.64-3.54,1.92c-.8,1.28-1.21,3.17-1.22,5.68,0,2.51.38,4.4,1.17,5.68.79,1.28,1.97,1.92,3.53,1.92s2.75-.64,3.57-1.93c.82-1.29,1.24-3.18,1.25-5.66ZM287.09,48.84h-3.23l-.02,4.08h3.23l.02-4.08ZM287.05,56.49h-8.28v2.51s5.04,0,5.04,0l-.06,14.59h-6.42v2.51s16.06,0,16.06,0v-2.51s-6.41,0-6.41,0l.07-17.1ZM312.26,58.49c1.44,1.7,2.2,3.75,2.29,6.15v1.58h-14.02v.11c-.11,2.68.4,4.61,1.51,5.78s2.69,1.76,4.73,1.76c1.03,0,2.11-.16,3.24-.49,1.13-.33,2.33-.83,3.61-1.49v3.22c-1.25.5-2.43.88-3.58,1.13s-2.25.38-3.32.38c-3.06,0-5.45-.92-7.16-2.75s-2.57-4.36-2.55-7.58c.01-3.14.87-5.65,2.56-7.52,1.7-1.88,3.95-2.81,6.76-2.81,2.51,0,4.48.85,5.92,2.55ZM311.32,63.7c-.13-1.36-.62-2.53-1.47-3.52-.85-.99-2.07-1.48-3.66-1.48s-2.84.52-3.86,1.55c-1.01,1.03-1.57,2.19-1.67,3.48l10.65-.02ZM329.07,55.94c-1.35,0-2.52.29-3.5.87-.99.58-1.77,1.43-2.35,2.56v-2.95s-3.22,0-3.22,0l-.08,19.69h3.23l.05-11.13c0-2,.42-3.54,1.24-4.61.82-1.07,1.98-1.61,3.5-1.61,1.32,0,2.29.42,2.91,1.25.62.83.92,2.13.92,3.9l-.05,12.2h3.25l.05-12.2c.01-2.67-.48-4.67-1.46-5.98s-2.48-1.98-4.48-1.98ZM356.37,58.93v-2.51s-7.34,0-7.34,0l.02-5.59h-3.23l-.02,5.59h-5.26v2.51s5.25,0,5.25,0l-.04,10.69c0,2.38.48,4.05,1.47,5.03s2.7,1.46,5.13,1.46h3.96v-2.58s-3.63,0-3.63,0c-1.37,0-2.33-.29-2.88-.86-.55-.57-.82-1.59-.81-3.04l.04-10.69h7.35Z"/>
  <g>
    <rect class="cls-1" x="26.06" y="73.05" width="1.63" height="1.63"/>
    <rect class="cls-1" x="65.28" y="73.05" width="1.63" height="1.63"/>
    <rect class="cls-1" x="68.55" y="54.26" width="1.63" height="1.63"/>
    <rect class="cls-1" x="22.79" y="55.07" width="1.63" height="1.63"/>
    <rect class="cls-1" x="36.68" y="55.89" width="1.63" height="1.63"/>
    <rect class="cls-1" x="45.67" y="52.62" width="1.63" height="3.27"/>
    <path class="cls-1" d="M43.22,58.34h6.54c.45,0,.82-.37.82-.82v-6.54c0-.45-.37-.82-.82-.82h-6.54c-.45,0-.82.37-.82.82v6.54c0,.45.37.82.82.82ZM44.03,51.81h4.9v4.9h-4.9v-4.9Z"/>
    <rect class="cls-1" x="57.92" y="71.42" width="1.63" height="1.63"/>
    <path class="cls-1" d="M72.38,52.04l-3.26-3.26-1.16,1.16,1.87,1.87h-16.82v-1.63c0-1.35-1.1-2.45-2.45-2.45h-8.17c-1.35,0-2.45,1.1-2.45,2.45v1.63h-16.82l4.9-4.9-.28-1.34.3-.13-5.39-8.34h39.35v-1.63h-12.26v-3.27c2.97,0,6.92,0,9.81,0-.15.07-.31.14-.46.22-.29.14-.51.39-.6.7-.05.24-.02.5.1.71.16.24.4.41.68.48.56.15,1.13.22,1.71.22h.23c1.81.08,2.36.11,3.98.11.03.26.06.53.07.82h-1.61v1.63h6.7l-4.75,7.73,1.39.86,5.53-8.99h0c.07-.13.13-.26.13-.41,0-6.06-3.86-10.62-8.99-10.62h-.2c-1.03,0-1.88.69-2.16,1.63h-29.61c-.27-.94-1.13-1.63-2.16-1.63h-.2c-5.12,0-8.99,4.57-8.99,10.62,0,.16.06.3.13.42h-.01s5.81,9.51,5.81,9.51l.24-.1-5.94,5.94h0c-.17.18-.27.41-.24.66l2.01,20.1c.29,2.93,2.75,5.16,5.69,5.15h36.88c2.94.01,5.41-2.22,5.7-5.15l2.01-20.1s0-.06,0-.09c0-.23-.1-.44-.25-.58ZM27.78,34.65c2.11,0,3.84-.04,5.85-.15.6,0,1.2-.11,1.76-.31.28-.1.52-.31.65-.58.21-.5.01-1.08-.46-1.36-.3-.21-.61-.4-.93-.57-.18-.1-.36-.2-.53-.3h.19c2.66,0,5.96,0,8.89,0v4.09h-15.5c.02-.29.04-.56.07-.82ZM63.45,27.29h.2c3.97,0,7.01,3.46,7.33,8.17h-4.08c-.23-4.7-2.37-6.38-3.68-6.98-.23-.1-.39-.32-.39-.57,0-.34.28-.62.62-.62ZM64.86,33.01c-1.18,0-1.78-.03-3.02-.08.35-.2.6-.55.67-.94.03-.67-.46-1.24-1.12-1.34-.32-.07-.65-.1-.97-.08h-.14c-2.92,0-7.3,0-10.53,0v-1.63h11.71c.23.45.59.83,1.08,1.05.71.32,1.75,1.11,2.32,3.04ZM48.12,28.93v6.54h-3.27v-6.54h3.27ZM31.5,28.93h11.71v.82c-2.93,0-6.23,0-8.89,0h-.14c-.35-.02-.7.02-1.04.12-.64.18-1.08.78-1.06,1.45.06.41.27.78.59,1.03.23.2.48.37.75.52-1.82.1-3.43.13-5.33.14.57-1.92,1.61-2.71,2.32-3.03.48-.22.84-.6,1.08-1.05ZM29.32,27.29h.2c.34,0,.62.28.62.62,0,.25-.16.48-.39.57-1.31.59-3.45,2.28-3.68,6.98h-4.08c.32-4.71,3.36-8.17,7.33-8.17ZM41.58,50.17c0-.45.37-.82.82-.82h8.17c.45,0,.82.37.82.82v8.17c0,.45-.37.82-.82.82h-8.17c-.45,0-.82-.37-.82-.82v-8.17ZM39.95,53.44v4.9c0,1.35,1.1,2.45,2.45,2.45h8.17c1.35,0,2.45-1.1,2.45-2.45v-4.9h13l-.2,2.45h-11.16v1.63h11.03l-.21,2.47c-3.46.04-6.9.37-10.3,1.01-.06,0-.11,0-.16.02-.77.13-1.29.85-1.16,1.62v.08c.03.79-.79,1.49-1.15,1.75-1.71,1.09-3.66,1.74-5.68,1.88-.49.06-.98.12-1.47.17-1.71.13-3.4.44-5.05.91-2.42.79-4.26,2.23-5.16,3.99h-5.4c-.85,0-1.55-.65-1.63-1.5l-.23-2.78c3.24-.53,6.42-1.36,9.49-2.53.7-.25,1.36-.61,1.94-1.08.18-.14.32-.34.38-.56.17-.58-.16-1.2-.74-1.37-2.12-.85-4.37-1.33-6.65-1.43-1.72-.1-3.42-.4-5.07-.88l-.15-1.76h7.76v-1.63h-7.89l-.2-2.45h13ZM27.95,65.5l-.37-4.48c1.56.42,3.15.68,4.77.78,1.82.1,3.62.43,5.36.97-.23.12-.48.22-.74.32-2.92,1.1-5.94,1.9-9.02,2.41ZM68.99,72.64c-.2,2.09-1.96,3.68-4.07,3.68H28.04c-2.1,0-3.86-1.59-4.07-3.68l-1.92-19.2h3.25l1.39,16.61c.15,1.69,1.56,2.99,3.26,3h26.34v-1.63h-19.01c1.1-1.42,2.89-2.16,3.73-2.43,1.54-.44,3.12-.72,4.72-.84.5-.05,1-.11,1.5-.17,2.3-.18,4.51-.93,6.44-2.19,1.09-.67,1.77-1.84,1.81-3.12v-.06c3.25-.61,6.55-.93,9.85-.97l-.2,2.45c-3.51.1-6.15.73-8.69,2.1-.57.29-.94.86-.97,1.5-.05.99.71,1.83,1.7,1.88,2.72.21,4.88.22,7.49.22v.14c-.09.84-.79,1.49-1.64,1.5h-1.83v1.63h1.83c1.7,0,3.11-1.31,3.26-3l1.38-16.61h3.25l-1.92,19.2ZM65,65.72l-.2,2.43c-2.63,0-4.8-.01-7.53-.22-.08,0-.15-.05-.16-.12-.02-.11.06-.16.14-.2,2.23-1.2,4.6-1.78,7.75-1.89Z"/>
  </g>
  <g>
    <path class="cls-3" d="M39.65,65.14c.17-.02.31,0,.47.07.18.08.4.23.52.41.13.18.11.49.22.68.09.17.17.27.34.41.23.2.8.36.99.63.17.24.22.61.18.86-.04.24-.19.48-.38.63-.2.15-.51.27-.79.25-.32-.02-.75-.27-1.04-.43-.26-.15-.45-.26-.66-.48-.26-.28-.61-.77-.75-1.15-.12-.34-.17-.72-.11-1.01.05-.25.2-.48.38-.63.17-.14.45-.23.65-.25ZM36.77,73.09c.3-.06.91-.09,1.26,0,.3.08.5.36.75.43.24.06.44.02.72,0,.36-.03.85-.18,1.29-.22.45-.04,1.03-.04,1.4,0,.28.03.48.08.68.18.2.09.4.23.52.38.11.14.18.3.22.47.04.16.06.31,0,.5-.08.25-.24.62-.52.84-.35.28-.99.47-1.54.57-.59.12-1.4.1-1.9.07-.37-.02-.61-.03-.9-.14-.31-.12-.8-.48-.92-.57-.04-.04-.02-.04-.05-.07-.06-.06-.2-.23-.36-.29-.19-.07-.54.04-.75-.04-.19-.06-.36-.18-.48-.34-.14-.19-.27-.5-.25-.75.02-.27.25-.64.41-.81.13-.13.23-.17.43-.22ZM51.25,76.13c.36-.02.98,0,1.51.22.62.25,1.64.89,1.96,1.31.2.27.22.54.18.79-.05.27-.27.61-.48.77-.2.14-.51.18-.72.18-.17,0-.19-.08-.43-.11-.52-.06-2.36.05-2.94-.04-.32-.05-.45-.12-.61-.22-.13-.08-.22-.19-.31-.31-.08-.12-.15-.25-.18-.4-.03-.15-.04-.32,0-.5.05-.21.13-.44.32-.66.25-.29.85-.69,1.17-.86.22-.12.3-.16.54-.18ZM62.9,81.07c.42-.08.88-.07,1.18,0,.24.05.41.13.56.29.16.18.31.57.32.81.02.2-.06.38-.14.54-.08.15-.25.32-.34.38-.05.03-.11,0-.13.04-.02.04.06.12.04.23-.04.19-.12.58-.41.84-.44.4-1.68.89-2.41,1.08-.6.15-1.22.2-1.65.11-.34-.08-.64-.27-.81-.48-.15-.2-.23-.48-.18-.75.06-.33.33-.73.66-1.1.42-.46,1.21-1.03,1.8-1.36.51-.29,1.03-.52,1.51-.61ZM37.36,81.3c.28-.03.4-.03.65.07.35.14.96.55,1.24.84.22.23.35.45.43.72.08.29.07.69.04.97-.03.25-.12.48-.22.65-.08.15-.15.26-.31.34-.2.11-.63.19-.86.18-.19,0-.24-.12-.47-.14-.36-.03-1.15.17-1.58.11-.34-.05-.59-.18-.83-.32-.22-.13-.38-.29-.56-.48-.2-.22-.45-.7-.56-.81-.04-.04-.05-.02-.09-.05-.07-.07-.2-.28-.25-.43-.05-.16-.08-.32-.04-.5.05-.22.25-.55.41-.7.14-.13.31-.18.47-.22.14-.03.29-.03.43,0,.15.03.24.21.47.22.36.02,1.21-.39,1.62-.43Z"/>
    <path class="cls-2" d="M52.7,50.41c.25-.06.46-.07.72,0,.31.09.76.36.99.57.17.16.2.5.33.51.14,0,.28-.39.48-.54.21-.16.51-.3.78-.36.27-.06.52-.08.84,0,.42.1,1.09.43,1.5.72.36.25.61.54.87.87.27.35.59.75.72,1.2.14.48.16,1.07.06,1.62-.1.59-.39,1.23-.72,1.8-.34.58-.75,1.17-1.29,1.65-.58.52-1.43,1.1-2.1,1.32-.56.18-1.15.12-1.62.06-.41-.06-.75-.17-1.08-.36-.34-.2-.59-.4-.93-.81-.49-.59-1.36-2-1.68-2.64-.19-.39-.25-.55-.3-.9-.07-.42-.16-.92,0-1.5.22-.77,1.04-2.22,1.53-2.73.31-.32.61-.4.9-.48ZM53.68,60.02c.39-.03.96.31,1.38.3.37-.01.66-.33,1.02-.3.39.03.94.26,1.23.57.28.3.44.88.48,1.26.03.33-.14.46-.18.9-.06.76-.02,2.2,0,3.53.03,1.58.4,4.35.18,5.39-.12.58-.31.79-.63,1.05-.35.29-.94.45-1.44.54-.26.05-.53.08-.8.08.63.15.85.5,1.3.59.45.1,1-.05,1.38,0,.31.04.5.1.78.24.34.17.83.45,1.11.75.26.28.44.6.54.96.11.38.17.84.06,1.26-.13.46-.53,1.07-.87,1.35-.28.24-.58.29-.96.36-.44.08-1.09.07-1.56,0-.42-.06-.84-.18-1.14-.36-.25-.15-.41-.34-.57-.57-.17-.25-.23-.67-.42-.87-.17-.17-.29-.22-.63-.3-.65-.15-2.42-.36-3.36-.24-.77.1-1.59.36-1.95.72-.27.28-.15.78-.3,1.05-.13.23-.28.38-.51.51-.28.16-.77.31-1.14.3-.35-.01-.57-.39-1.02-.36-.68.05-1.9,1-2.82,1.2-.84.19-1.6.14-2.46.06-.93-.08-2.02-.29-2.94-.6-.89-.3-2.16-.98-2.49-1.23-.13-.09-.09-.14-.15-.21-.06-.07-.13-.1-.21-.21-.13-.17-.4-.5-.48-.78-.08-.27-.06-.56,0-.84.07-.29.22-.65.42-.87.18-.2.42-.34.69-.42.29-.09.67-.16,1.02-.06.42.12.87.68,1.32.9.41.21.7.3,1.26.42.8.17,2.36.48,3.24.36.7-.1,1.32-.43,1.71-.75.3-.25.39-.68.57-.87.13-.14.26-.15.39-.27.15-.14.24-.42.45-.57.24-.17.59-.3.96-.36.42-.07,1.04-.01,1.44,0,.31.01.46.12.78.06.46-.08.95-.61,1.74-.72.84-.11,2.44,0,3.65.16-.41-.15-.84-.37-1.06-.63-.26-.29-.27-.42-.36-1.08-.22-1.57-.5-8.18-.18-9.83.15-.75.4-.96.69-1.23.24-.22.51-.33.84-.36ZM33.37,63.85c.45-.07,2.06-.18,2.82,0,.61.15,1.15.4,1.47.81.32.42.2,1.05.42,1.68.26.75.7,2.05,1.14,2.55.3.35.6.39.99.54.44.17,1.12.17,1.56.36.39.17.76.36.99.69.25.35.44,1.03.42,1.38-.02.25-.11.43-.3.57-.25.18-.68.26-1.23.3-.82.06-2.77.02-3.42-.18-.36-.11-.45-.25-.63-.45-.19-.21-.38-.42-.48-.78-.13-.48.11-1.31-.06-1.98-.19-.74-.94-1.68-1.14-2.28-.14-.41.11-.79-.15-.99-.37-.28-1.88.09-2.4-.06-.33-.1-.49-.24-.63-.45-.14-.22-.23-.58-.18-.84.05-.27.35-.61.51-.75.1-.09.11-.09.3-.12ZM61.37,79.66c.41-.03.62-.03.84.06.19.08.34.22.45.39.11.19.22.47.18.72-.04.28-.28.66-.51.87-.21.19-.41.26-.78.36-.55.16-1.82-.01-2.37.36-.49.34-.73,1.41-.87,1.62-.05.07-.04.04-.09.09-.09.1-.25.37-.45.51-.22.16-.48.29-.84.36-.49.09-1.48.04-1.92,0-.27-.02-.42-.17-.57-.12-.15.05-.11.32-.33.42-.41.18-1.3.13-2.34.12-1.55-.02-4.44-.34-6.35-.42-1.67-.07-3.72.14-4.55-.06-.43-.1-.53-.2-.75-.45-.15-.17-.29-.51-.42-.82.14-.03.28-.07.37-.12.15-.08.23-.18.32-.32.09-.15.19-.35.19-.56,0-.24-.09-.55-.3-.82-.28-.35-.95-.85-1.44-1.03-.44-.16-1-.14-1.34-.07-.26.05-.46.15-.62.3-.15.15-.27.36-.3.58-.02.13,0,.31.04.47-.16,0-.32.02-.49.02-.64.02-1.75-.06-2.13.12-.23.11-.25.41-.33.48-.04.03-.1,0-.09.03.03.08.94.37,1.14.66.17.25.18.64.12.9-.06.24-.22.49-.45.63-.28.16-.85.21-1.2.18-.3-.03-.51-.27-.78-.3-.27-.03-.59.18-.84.12-.24-.06-.45-.21-.63-.45-.23-.32-.45-1.02-.54-1.44-.08-.34-.16-.55-.06-.9.13-.48.63-1.37,1.05-1.71.34-.27.91-.34,1.14-.36.12,0,.06.05.24.06.6.03,3.92-.32,5.09-.24.75.05,1.18.35,1.62.36.34,0,.45-.16.84-.18.61-.03,2.16.32,2.64.24.24-.04.17-.19.42-.24.52-.11,1.54-.01,3,0,2.49.02,8.89.35,11.5.18,1.63-.11,2.74-.55,3.47-.6Z"/>
    <path class="cls-1" d="M62.09,78.43h-1.08c.39-.62.62-1.35.62-2.14,0-1.72-1.09-3.18-2.6-3.76v-13.62l1.42-1.94c.57-.77.87-1.69.87-2.65v-.59c0-2.48-2.03-4.5-4.51-4.5h-3.59c-2.49,0-4.51,2.02-4.51,4.5v.59c0,.96.3,1.87.87,2.65l1.41,1.94v13.36h-6.5v-.45c0-2.81-1.26-5.44-3.45-7.2-1.65-1.33-3.72-2.06-5.84-2.06h-1.88c-1.26,0-2.29,1.02-2.29,2.28s1.03,2.28,2.29,2.28c.66,0,1.31.23,1.83.64l.09.07c.76.61,1.2,1.52,1.2,2.5v1.99c-1.9.32-3.36,1.97-3.36,3.96,0,.79.23,1.52.62,2.14h-1.08c-2.22,0-4.02,1.8-4.02,4.02s1.8,4.02,4.02,4.02h29.49c2.22,0,4.02-1.8,4.02-4.02s-1.8-4.02-4.02-4.02ZM50.57,54.33v-.59c0-1.14.74-2.12,1.77-2.47v.76c0,.37.3.67.67.67s.67-.3.67-.67v-.91h.65v1.73c0,.37.3.67.67.67s.67-.3.67-.67v-1.73h.65v.91c0,.37.3.67.67.67s.67-.3.67-.67v-.76c1.03.36,1.77,1.33,1.77,2.47v.59c0,.56-.17,1.09-.5,1.54l-1.8,2.46c-.5.68-1.29,1.08-2.13,1.08s-1.64-.4-2.13-1.08l-1.8-2.46c-.33-.45-.5-.98-.5-1.54ZM53.51,65.18c.13.12.29.17.44.17.18,0,.37-.08.5-.23l.54-.61.54.61c.13.15.32.23.5.23.16,0,.32-.06.44-.17.28-.24.3-.67.06-.94l-.87-.98v-2.01c.52-.08,1.02-.25,1.48-.5v11.53h-4.31v-11.53c.46.25.96.42,1.48.5v2.01l-.87.98c-.25.28-.22.7.05.94ZM39.84,66.09c.9.72,1.59,1.62,2.07,2.63l-.33-.05c-1.27-.2-2.26-1.22-2.42-2.48l-.08-.62c.26.16.51.33.75.53ZM36.38,66.38l-.09-.07c-.85-.68-1.91-1.06-3-1.06-.23,0-.41-.18-.41-.4s.18-.4.41-.4h1.88c.84,0,1.68.15,2.47.42l.18,1.48c.23,1.86,1.69,3.36,3.54,3.64l1.03.16c.13.54.19,1.11.19,1.68v.45h-4.31v-1.93c0-1.55-.69-2.99-1.9-3.96ZM37.07,74.15h6.44c-1.19,1.7-3.48,2.25-5.33,1.25l-1.96-1.07c.26-.11.55-.18.85-.18ZM35.18,75.29l2.36,1.29c.83.45,1.72.66,2.61.66,1.83,0,3.61-.92,4.64-2.58l.32-.51h12.5c1.18,0,2.14.96,2.14,2.14s-.96,2.14-2.14,2.14h-1.52c-.24-1.04-.9-1.95-1.85-2.49l-.5-.29c-.98-.56-2.15-.66-3.21-.29-1.36.48-2.33,1.67-2.54,3.07h-10.92c-1.18,0-2.14-.96-2.14-2.14,0-.36.09-.7.25-1ZM54.69,78.43h-5.34c.19-.82.8-1.51,1.62-1.8.69-.24,1.46-.18,2.1.19l.5.29c.53.3.91.77,1.11,1.33ZM39.41,83.96l-.24.64h-3.18l-1.08-1c-.15-.14-.24-.34-.24-.55,0-.37.28-.69.65-.74l2.5-.35c.46-.06.93.09,1.26.42.41.41.54,1.03.34,1.57ZM57.52,84.59h-16.93l.06-.16c.39-1.04.14-2.21-.65-2.99-.62-.62-1.52-.92-2.39-.8l-2.5.34c-1.03.14-1.81,1.03-1.81,2.07,0,.58.25,1.14.67,1.53h.02s-1.41.01-1.41.01c-1.18,0-2.14-.96-2.14-2.14s.96-2.14,2.14-2.14h29.49c.28,0,.55.06.8.16l-.15.03c-2.29.51-4.19,2.02-5.21,4.09ZM62.09,84.59h-3.03c.89-1.4,2.3-2.41,3.97-2.78l1.02-.23c.12.27.18.56.18.87,0,1.18-.96,2.14-2.14,2.14Z"/>
    <path class="cls-1" d="M53.5,55.12c0,.42-.34.76-.77.76s-.77-.34-.77-.76.34-.76.77-.76.77.34.77.76Z"/>
    <path class="cls-1" d="M57.73,55.15c0,.42-.34.76-.77.76s-.77-.34-.77-.76.34-.76.77-.76.77.34.77.76Z"/>
  </g>
  <path fill="url(#a)" d="M28.56,46.05s2.22.15,2.81,0,1.7-1.11,1.04-2-.42-1.98.31-2.07-2.38-.23-1.35-1.49,2.07-1.63,2.81-1.48,2.59.07,2.96.07,2,.72,2,1.64c0,.96-.54,1.61-.54,1.61l1,.23s.39.04,1.28.04c.83,0,1.39-.69,1.39-1.11s-.4-.69-.4-1.4.11-1.68,2.52-1.68,2.98,1.25,2.98,1.68.11,1.01-.38,1.06c-.22.16.89,1.33,1.56.96l.67-.37s.37-1.11.67-.52,1.85,2,3.19,2.07,4.41.08,4.41-.31c0-.78-.93-.93-.93-1.84s.95-.96,2.37-.96,3.48.19,3.48,1.26-.86,1.83-.96,2.07,4.39.03,5.21,1.76c.56,1.18,1.42,2.9,1.76,3.5.37.65,1.85,2.63,1.85,2.63.22.3.02.73-.35.75l-8.83-.34s-.89-2.15-3.56-2.37-4.52-.15-4.52-.15c0,0-.07-1.56-1.56-1.56h-8.74s-2.15.15-2.15,2c0,1.21-.04,2.41-.04,2.41,0,0-18.85.04-18.56.04s5.26-6,5.26-6l1.33-.15Z"/>
  <path fill="url(#b)" class="cls-8" d="M28.56,46.05s2.22.15,2.81,0,1.7-1.11,1.04-2-.42-1.98.31-2.07-2.38-.23-1.35-1.49,2.07-1.63,2.81-1.48,2.59.07,2.96.07,2,.72,2,1.64c0,.96-.54,1.61-.54,1.61l1,.23s.39.04,1.28.04c.83,0,1.39-.69,1.39-1.11s-.4-.69-.4-1.4.11-1.68,2.52-1.68,2.98,1.25,2.98,1.68.11,1.01-.38,1.06c-.22.16.89,1.33,1.56.96l.67-.37s.37-1.11.67-.52,1.85,2,3.19,2.07,4.41.08,4.41-.31c0-.78-.93-.93-.93-1.84s.95-.96,2.37-.96,3.48.19,3.48,1.26-.86,1.83-.96,2.07,4.39.03,5.21,1.76c.56,1.18,1.42,2.9,1.76,3.5.37.65,1.85,2.63,1.85,2.63.22.3.02.73-.35.75l-8.83-.34s-.89-2.15-3.56-2.37-4.52-.15-4.52-.15c0,0-.07-1.56-1.56-1.56h-8.74s-2.15.15-2.15,2c0,1.21-.04,2.41-.04,2.41,0,0-18.85.04-18.56.04s5.26-6,5.26-6l1.33-.15Z"/>
</svg>