<?xml version="1.0" encoding="UTF-8"?>
<svg id="Layer_1" data-name="Layer 1" xmlns="http://www.w3.org/2000/svg" version="1.1" viewBox="0 0 808.91 167.13">
  <defs>
    <style>
      .cls-1 {
        fill: #fff;
        stroke-width: 0px;
      }
    </style>
  </defs>
  <g>
    <polygon class="cls-1" points="125.3 69.93 128.46 64.46 143.61 38.2 151.89 23.88 149.23 23.88 132.31 23.88 102.37 23.88 84.88 23.88 84.88 38.2 102.37 38.2 127.07 38.2 96.75 90.71 96.73 90.67 88.46 105 88.48 105.04 82.97 114.59 82.94 114.55 74.67 128.88 82.97 143.25 85.73 138.47 96.75 119.37 125.3 69.93"/>
    <polygon class="cls-1" points="84.88 0 84.88 14.33 102.37 14.33 168.43 14.33 136.36 69.87 88.48 152.8 96.75 167.12 184.97 14.33 193.24 0 84.88 0"/>
    <polygon class="cls-1" points="49.89 38.2 82.94 95.45 91.22 81.12 81.41 64.14 81.43 64.46 73.26 50.3 73.34 50.16 44.16 0 27.68 0 41.62 23.88 49.89 38.2"/>
    <polygon class="cls-1" points="25.08 14.33 16.7 0 0 0 69.16 119.33 77.43 105 25.08 14.33"/>
  </g>
  <g>
    <path class="cls-1" d="M321.41,27.6h-17.82c-.3,0-.46.1-.46.3l-34.26,88.16-34.11-88.16c0-.2-.15-.3-.46-.3h-17.97c-.1.1-.15.2-.15.3l44.31,112.22c0,.2.15.3.46.3h15.99c.3,0,.46-.1.46-.3l44.31-112.22c0-.1-.03-.18-.08-.23-.05-.05-.13-.08-.23-.08Z"/>
    <path class="cls-1" d="M344.71,25.02h-15.68c-.1,0-.18.03-.23.08-.05.05-.08.13-.08.23v18.12c0,.1.02.18.08.23.05.05.13.08.23.08h15.68c.1,0,.18-.02.23-.08.05-.05.08-.13.08-.23v-18.12c0-.1-.03-.18-.08-.23-.05-.05-.13-.08-.23-.08Z"/>
    <path class="cls-1" d="M344.71,59.73h-15.68c-.1,0-.18.03-.23.08-.05.05-.08.13-.08.23v80.09c0,.1.02.18.08.23.05.05.13.08.23.08h15.68c.1,0,.18-.02.23-.08.05-.05.08-.13.08-.23V60.04c0-.1-.03-.18-.08-.23-.05-.05-.13-.08-.23-.08Z"/>
    <path class="cls-1" d="M406.22,58.06c-8.12,0-15.41,2.44-21.85,7.31-1.42,1.07-2.76,2.24-4.04,3.48v-8.81c0-.1-.03-.18-.08-.23-.05-.05-.13-.08-.23-.08h-15.68c-.1,0-.18.03-.23.08-.05.05-.08.13-.08.23v80.09c0,.1.02.18.08.23.05.05.13.08.23.08h15.68c.1,0,.18-.02.23-.08.05-.05.08-.13.08-.23v-39.13c0-6.19.99-11.29,2.97-15.3,1.98-4.01,4.87-6.98,8.68-8.91,3.81-1.93,8.55-2.89,14.24-2.89.1,0,.18-.02.23-.08s.08-.13.08-.23v-15.23c0-.1-.03-.18-.08-.23-.05-.05-.13-.08-.23-.08Z"/>
    <path class="cls-1" d="M469.41,59.73h-21.93v-25.43c0-.1-.03-.18-.08-.23-.05-.05-.13-.08-.23-.08h-15.84c-.1,0-.18.03-.23.08-.05.05-.08.13-.08.23v25.43h-15.99c-.1,0-.18.03-.23.08-.05.05-.08.13-.08.23v14.62c0,.1.02.18.08.23.05.05.13.08.23.08h15.99v34.26c0,10.25,3.1,17.99,9.29,23.22,6.19,5.23,15.89,7.9,29.08,7.99.1,0,.18-.02.23-.08s.08-.13.08-.23v-15.23c0-.1-.03-.18-.08-.23-.05-.05-.13-.08-.23-.08-5.89,0-10.41-.58-13.55-1.75-3.15-1.17-5.33-3.02-6.55-5.56-1.22-2.54-1.83-6.04-1.83-10.5v-31.83h21.93c.1,0,.18-.02.23-.08s.08-.13.08-.23v-14.62c0-.1-.03-.18-.08-.23-.05-.05-.13-.08-.23-.08Z"/>
    <path class="cls-1" d="M556.2,59.73h-15.84c-.1,0-.18.03-.23.08-.05.05-.08.13-.08.23v41.11c0,5.59-.79,10.25-2.36,14.01-1.57,3.76-3.88,6.55-6.93,8.38-3.05,1.83-6.75,2.74-11.12,2.74s-7.79-.89-10.58-2.66c-2.79-1.77-4.9-4.52-6.32-8.22-1.42-3.7-2.13-8.45-2.13-14.24v-41.11c0-.1-.03-.18-.08-.23-.05-.05-.13-.08-.23-.08h-15.68c-.1,0-.18.03-.23.08-.05.05-.08.13-.08.23v41.11c0,7.92,1.42,14.97,4.26,21.17,2.84,6.19,6.93,11.04,12.26,14.54,5.33,3.5,11.6,5.25,18.81,5.25s13.48-1.72,19.11-5.18c5.63-3.45,10-8.27,13.1-14.47,3.1-6.19,4.64-13.3,4.64-21.32v-41.11c0-.1-.03-.18-.08-.23-.05-.05-.13-.08-.23-.08Z"/>
    <path class="cls-1" d="M634.85,63.23c-6.14-3.45-12.82-5.18-20.02-5.18-8.12,0-15.4,1.8-21.85,5.4-6.45,3.61-11.47,8.58-15.07,14.92-3.6,6.34-5.41,13.53-5.41,21.54s1.8,15.23,5.41,21.62c3.6,6.39,8.68,11.42,15.23,15.07,6.55,3.65,14.18,5.48,22.92,5.48,7.1,0,13.93-1.77,20.48-5.33s11.85-8.43,15.91-14.62c.1-.1.13-.18.08-.23-.05-.05-.13-.13-.23-.23l-12.49-8.38h-.23c-.05,0-.13.05-.23.15-2.84,4.36-6.27,7.77-10.28,10.2-4.01,2.44-8.35,3.65-13.02,3.65-6.09,0-11.22-1.07-15.38-3.2-4.16-2.13-7.29-5.25-9.36-9.37-1.53-3.02-2.49-6.5-2.89-10.43h66.16c.1,0,.18-.02.23-.08.05-.05.08-.13.08-.23.2-9.95-1.55-18.37-5.25-25.27-3.71-6.9-8.63-12.08-14.77-15.53ZM589.25,90.95c.51-2.01,1.16-3.91,2.04-5.63,2.08-4.06,5.1-7.16,9.06-9.29,3.96-2.13,8.78-3.2,14.47-3.2,4.87,0,9.16,1.09,12.87,3.27,3.7,2.19,6.65,5.64,8.83,10.35.64,1.38,1.15,2.9,1.61,4.49h-48.87Z"/>
    <path class="cls-1" d="M737.91,27.6h-16.14c-.3,0-.46.1-.46.3l-41.72,112.22c0,.1.05.2.15.3h17.66c.1,0,.18-.02.23-.08s.13-.13.23-.23l11.41-30.91h41.08l11.46,30.91c0,.1.05.18.15.23.1.05.2.08.3.08h17.51c.1,0,.15-.02.15-.08v-.23l-41.57-112.22c0-.2-.15-.3-.46-.3ZM715.41,92.62l14.37-38.9,14.43,38.9h-28.79Z"/>
    <path class="cls-1" d="M808.79,27.68c-.05-.05-.13-.08-.23-.08h-16.44c-.1,0-.18.03-.23.08-.05.05-.08.13-.08.23v112.22c0,.1.02.18.08.23.05.05.13.08.23.08h16.44c.1,0,.18-.02.23-.08.05-.05.08-.13.08-.23V27.91c0-.1-.03-.18-.08-.23Z"/>
  </g>
</svg>