<?xml version="1.0" encoding="utf-8" ?>
<svg xmlns="http://www.w3.org/2000/svg" xmlns:xlink="http://www.w3.org/1999/xlink" width="512" height="512">
	<path fill="#F1FAEE" transform="scale(0.666667 0.666667)" d="M60.2322 768L-0 768L0 -0L592.111 0L768 0L768 164.137L768 178.878L768 768L505.978 768L472.252 768L430.449 768L310.076 768L306.808 768L305.289 768L60.2322 768Z"/>
	<path fill="#A8DADC" transform="scale(0.666667 0.666667)" d="M548.406 100.8L549.048 100.6L550.631 103.106C552.258 106.157 557.913 121.165 557.138 123.641L556.216 123.946L555.188 123.301C551.959 116.525 549.615 108.213 548.406 100.8Z"/>
	<path fill="#457B9D" transform="scale(0.666667 0.666667)" d="M478.439 388.471L478.593 387.75C478.802 386.53 478.412 386.326 479.438 385.469C481.248 385.273 483.746 384.911 485.269 386.143C486.37 387.035 487.371 388.763 487.466 390.188L487.181 394.824C485.275 394.897 482.823 393.745 481.351 392.55C480.106 391.538 478.631 390.043 478.439 388.471Z"/>
	<path fill="#1D3557" transform="scale(0.666667 0.666667)" d="M598.177 252.373L593.854 241.878C595.746 241.31 597.462 240.52 599.241 239.679L603.958 250.416L604.723 252.03C603.725 253.846 601.808 254.509 600.023 255.402C599.74 254.203 598.934 253.306 598.177 252.373Z"/>
	<path fill="#A8DADC" transform="scale(0.666667 0.666667)" d="M598.177 252.373C599.284 251.726 600.205 250.609 601.313 250.054C602.416 249.502 602.949 249.979 603.958 250.416L604.723 252.03C603.725 253.846 601.808 254.509 600.023 255.402C599.74 254.203 598.934 253.306 598.177 252.373Z"/>
	<path fill="#1D3557" transform="scale(0.666667 0.666667)" d="M604.723 252.03L612.35 267.638L607.63 271.614L607.501 271.138C606.033 265.944 603.349 259.689 600.023 255.402C601.808 254.509 603.725 253.846 604.723 252.03Z"/>
	<path fill="#457B9D" transform="scale(0.666667 0.666667)" d="M539.236 141.844L555.878 150.201L556.292 150.37L552.375 157.708L552.039 158.438L551.409 158.466C547.067 154.915 541.876 151.673 536.94 148.996L536.531 148.778C537.67 146.563 538.422 144.191 539.236 141.844Z"/>
	<path fill="#457B9D" transform="scale(0.666667 0.666667)" d="M423.316 275.872C429.385 278.713 434.94 281.587 439.828 286.28C438.266 288.277 435.848 289.782 433.81 291.282C431.084 290.569 428 288.049 425.44 286.683C423.348 285.566 420.787 284.778 418.922 283.381C420.449 280.873 421.575 278.269 423.316 275.872Z"/>
	<path fill="#A8DADC" transform="scale(0.666667 0.666667)" d="M460.318 151.688C462.389 151.485 465.067 152.804 467.052 153.462C482.634 158.631 496.76 166.049 511.344 173.415L520.591 178.498C521.327 178.861 522.604 179.669 523.358 179.78C525.9 180.154 529.641 179.043 532.134 178.535C537.193 177.505 542.185 176.379 547.347 176.059C546.093 178.816 544.777 181.173 542.927 183.58L535.344 192.359C533.71 189.138 531.996 186.865 529.238 184.543C524.848 180.848 520.015 179.093 515.25 176.138C510.888 173.434 506.07 171.054 501.481 168.726C488.238 162.01 474.405 156.358 460.318 151.688Z"/>
	<path fill="#1D3557" transform="scale(0.666667 0.666667)" d="M548.406 100.8L543.537 88.1142C542.373 85.1016 541.344 81.8815 539.874 79.0118C542.473 78.0455 546.377 76.2796 549.109 76.3788L558.395 97.6363C555.307 98.571 551.978 99.261 549.048 100.6L548.406 100.8Z"/>
	<path fill="#1D3557" transform="scale(0.666667 0.666667)" d="M606.862 206.949C613.375 209.29 621.766 229.104 625.157 235.993L632.462 250.733C633.926 253.841 635.387 256.813 636.106 260.199L635.775 260.563C634.924 261.034 634.122 261.494 633.188 261.784L616.68 229.148C613.167 222.046 608.854 214.647 606.862 206.949Z"/>
	<path fill="#1D3557" transform="scale(0.666667 0.666667)" d="M575.439 376.385L574.88 375.719C574.915 374.173 574.533 372.259 575.625 371.142L577.591 371.555C577.794 372.86 577.914 374.987 577.315 376.163C577.533 377.829 576.813 385.348 577.075 385.875C577.228 386.182 577.608 386.307 577.875 386.522L581.413 386.431L576.137 423.396C573.436 421.993 570.8 420.937 567.872 420.097C570.972 406.648 574.275 392.423 574.814 378.578L574.827 378.188L575.887 377.206L575.439 376.385Z"/>
	<path fill="#E63946" transform="scale(0.666667 0.666667)" d="M632.46 323.056L632.8 322.743C634.577 321.065 635.909 319.093 637.306 317.101C642.551 317.594 648.277 318.518 653.514 317.783C657.228 317.262 660.878 315.752 664.379 314.454L669.86 323.146C668.114 323.952 662.724 325.82 661.926 327.485C661.379 327.902 659.647 328.166 658.941 328.362C654.942 329.468 650.668 330.661 646.5 330.717C644.69 329.282 645.382 326.906 643.935 325.474C641.829 323.39 635.323 323.409 632.46 323.056Z"/>
	<path fill="#457B9D" transform="scale(0.666667 0.666667)" d="M453.004 306.585C457.822 301.566 464.003 299.212 469.537 295.171C473.134 292.545 476.261 289.137 479.9 286.667C481.036 285.896 482.353 285.476 483.648 285.057L483.396 285.518C478.437 294.376 470.692 301.435 465.728 310.408C467.627 310.495 470.711 310.155 472.057 311.682C473.168 312.943 473.791 314.766 474.376 316.33C476.006 320.693 476.979 325.153 477.912 329.703L496.589 325.553C497.432 329.32 495.174 333.054 495.888 336.519L511.473 336.456C513.199 336.432 516.714 335.986 518.095 336.938C518.131 338.284 517.859 339.233 516.96 340.275C515.945 341.453 514.207 342.157 512.812 342.806C508.608 344.762 504.115 346.21 499.792 347.885L482.641 354.702C481.343 352.715 482.061 341.887 482.059 338.822L477.002 339.076C475.826 339.174 475.048 339.222 473.969 339.79L472.703 339.661C470.323 335.359 468.891 330.535 466.581 326.158C462.829 319.045 457.737 313.018 453.004 306.585Z"/>
	<path fill="#A8DADC" transform="scale(0.666667 0.666667)" d="M449.968 191.634L454.217 176.202L471.252 182.812C483.761 188.071 496.033 194.589 507.345 202.071C505.476 206.577 503.596 211.566 501.015 215.711C498.687 218.851 497.284 222.324 495.636 225.838C494.022 224.713 492.583 223.155 491.141 221.812C490.48 221.755 489.854 221.717 489.218 221.511L488.625 221.295C487.623 220.943 486.067 220.5 485.381 219.624C484.756 218.827 485.314 218.07 484.312 217.189C483.035 217.639 482.285 217.825 480.938 217.609C479.568 216.526 479.709 215.691 478.83 214.312C477.919 214.346 477.139 214.756 476.25 214.815C475.035 214.897 474.183 214.298 473.3 213.562C473.122 212.602 473.051 211.708 472.397 210.938L471.453 211.022C469.584 211.081 466.945 210.175 465.575 208.884C464.497 207.87 463.044 208.16 462.188 207.386C461.445 206.716 461.767 206.073 460.688 205.463L459.354 205.722C458.059 205.907 457.161 205.795 456.118 205.049L456.002 202.688C455.329 201.73 453.962 202.813 452.625 202.072C451.817 202.405 451.244 202.431 450.375 202.424L448.765 200.625C448.632 197.625 449.323 194.549 449.968 191.634Z"/>
	<path fill="#A8DADC" transform="scale(0.666667 0.666667)" d="M549.865 242.314C551.427 242.148 553.908 241.957 555.374 242.589C559.526 244.377 575.614 273.342 578.635 279.192C580.956 283.686 582.927 288.358 584.91 293.007L546.899 300.674C546.673 300.697 545.228 300.909 545.105 300.848C544.829 300.713 544.937 300.258 544.851 299.963C544.222 297.798 543.912 297.233 542.152 295.802C541.843 295.706 541.197 294.873 540.937 294.607C541.284 293.087 542.395 292.914 542.64 291.375L541.688 290.066C540.675 289.614 540.27 290.231 539.062 290.14L538.123 288.836L536.438 288.68C535.721 287.795 535.735 287.826 535.774 286.688C536.575 286.164 537.434 285.775 537.741 284.812L536.914 283.688C535.807 283.443 535.557 283.747 534.562 284.234L534.015 283.875C534.053 282.974 534.091 282.322 533.812 281.45C532.835 281.57 532.186 282.139 531.375 282.669C530.507 282.024 530.459 282.117 530.304 281.062C530.887 279.933 531.29 279.371 532.332 278.631L532.614 278.438C532.15 276.401 529.551 278.112 528.188 276.987L530.229 272.506C528.842 273.216 527.591 274.139 526.312 275.025L525.188 274.769C524.905 273.513 526.151 272.612 526.417 271.335C526.661 270.163 525.478 268.151 524.841 267.188L524.252 267.069C524.317 267.688 524.239 268.207 524.164 268.822C523.222 269.55 522.569 269.913 521.438 270.283L520.828 269.812C520.699 269.17 520.603 268.543 520.319 267.948C519.943 267.163 519.758 266.759 519.745 265.875C520.307 265.398 520.893 264.927 521.318 264.319C523.627 261.011 527.832 258.545 530.995 256.027C536.898 251.327 542.969 245.485 549.865 242.314Z"/>
	<path fill="#E63946" transform="scale(0.666667 0.666667)" d="M439.828 286.28C442.101 285.45 444.365 283.705 446.4 282.361L460.263 272.702L496.542 247.105C503.888 241.569 511.117 235.992 517.495 229.33C524.244 222.28 526.19 216.141 525.999 206.49L538.571 217.662L561.234 208.061C553.444 214.059 543.839 217.162 536.125 223.283C529.846 228.266 524.882 235.436 519.686 241.492L483.648 285.057C482.353 285.476 481.036 285.896 479.9 286.667C476.261 289.137 473.134 292.545 469.537 295.171C464.003 299.212 457.822 301.566 453.004 306.585C447.531 300.821 440.397 295.744 433.81 291.282C435.848 289.782 438.266 288.277 439.828 286.28Z"/>
	<path fill="#E63946" transform="scale(0.666667 0.666667)" d="M496.589 325.553L531.467 318.493C554.44 313.629 576.964 308.505 599.461 301.688C605.287 299.922 611.646 297.881 617.721 297.214C618.57 297.121 619.443 296.941 620.212 297.394L620.305 298.312C618.091 300.412 614.519 301.468 611.719 302.546L595.977 308.4L583.875 313.522C576.487 316.861 569.376 320.766 562.41 324.906C559.798 326.459 555.571 328.417 553.813 330.938C549.162 334.535 542.9 336.839 537.707 339.648C534.113 341.592 530.738 343.953 526.94 345.509L517.563 350.26L501.908 360.046C504.183 362.454 506.729 365.035 508.135 368.085L522.372 380.735C523.441 381.665 526.272 383.477 526.797 384.613C527.348 385.807 527.196 389.393 527.242 390.896C527.384 395.505 527.6 400.429 527.014 405.006C522.37 402.337 517.426 400.162 512.663 397.711L496.155 389.503C493.034 388.033 489.844 386.369 486.507 385.468L478.554 383.073C479.907 374.469 479.603 364.896 479.443 356.197L482.641 354.702L499.792 347.885C504.115 346.21 508.608 344.762 512.812 342.806C514.207 342.157 515.945 341.453 516.96 340.275C517.859 339.233 518.131 338.284 518.095 336.938C516.714 335.986 513.199 336.432 511.473 336.456L495.888 336.519C495.174 333.054 497.432 329.32 496.589 325.553Z"/>
	<path fill="#F1FAEE" transform="scale(0.666667 0.666667)" d="M501.908 360.046C504.183 362.454 506.729 365.035 508.135 368.085C506.095 367.945 503.399 367.274 501.814 365.913C500.878 365.109 500.215 364.279 500.229 363C500.243 361.818 501.185 360.883 501.908 360.046Z"/>
	<path fill="#A8DADC" transform="scale(0.666667 0.666667)" d="M553.813 330.938C562.39 328.063 571.155 324.43 580.049 322.81L584.029 348.799L577.784 348.04C577.79 349.714 578.18 353.141 577.49 354.562L577.669 354.978C578.203 356.687 577.785 359.442 577.645 361.246C578.405 363.071 578.13 369.086 577.412 371.011L577.591 371.555L575.625 371.142C574.533 372.259 574.915 374.173 574.88 375.719L575.439 376.385L575.887 377.206L574.827 378.188L574.814 378.578C574.275 392.423 570.972 406.648 567.872 420.097L535.158 408.648L527.014 405.006C527.6 400.429 527.384 395.505 527.242 390.896C527.196 389.393 527.348 385.807 526.797 384.613C526.272 383.477 523.441 381.665 522.372 380.735L508.135 368.085C506.729 365.035 504.183 362.454 501.908 360.046L517.563 350.26L526.94 345.509C530.738 343.953 534.113 341.592 537.707 339.648C542.9 336.839 549.162 334.535 553.813 330.938Z"/>
	<path fill="#1D3557" transform="scale(0.666667 0.666667)" d="M553.813 330.938C562.39 328.063 571.155 324.43 580.049 322.81L584.029 348.799L577.784 348.04C577.79 349.714 578.18 353.141 577.49 354.562L577.669 354.978C578.203 356.687 577.785 359.442 577.645 361.246C578.405 363.071 578.13 369.086 577.412 371.011L576 370.96C574.639 369.817 575.165 369.435 574.927 367.791C574.591 365.461 574.548 362.641 575.947 360.713L574.916 359.812L575.098 348.006L550.733 345.929L541.745 344.9C541 344.801 537.909 344.111 537.388 344.453C537.645 362.311 538.05 380.124 536.709 397.949C536.466 401.185 536.572 405.718 535.158 408.648L527.014 405.006C527.6 400.429 527.384 395.505 527.242 390.896C527.196 389.393 527.348 385.807 526.797 384.613C526.272 383.477 523.441 381.665 522.372 380.735L508.135 368.085C506.729 365.035 504.183 362.454 501.908 360.046L517.563 350.26L526.94 345.509C530.738 343.953 534.113 341.592 537.707 339.648C542.9 336.839 549.162 334.535 553.813 330.938Z"/>
	<path fill="#F1FAEE" transform="scale(0.666667 0.666667)" d="M517.563 350.26L526.94 345.509L527.246 377.311C526.08 375.909 524.916 374.509 523.531 373.317L518.774 369.523C518.562 369.36 517.59 368.738 517.472 368.522C517.187 367.997 517.586 352.682 517.563 350.26Z"/>
	<path fill="#1D3557" transform="scale(0.666667 0.666667)" d="M103.583 325.881C105.21 325.53 106.968 324.405 108.507 323.726C111.553 322.381 114.672 321.215 117.905 320.402C128.547 317.725 148.768 317.555 158.339 323.241C160.768 324.679 163.474 326.139 164.274 329.062C164.754 330.815 164.614 332.675 163.698 334.271C161.891 337.419 157.855 339.182 154.609 340.452L158.658 353.209C160.13 357.54 162.597 362.289 162.433 366.938C160.695 369.431 155.73 370.943 153.18 372.797C153.867 376.546 155.088 380.161 152.771 383.573L146.944 391.867L146.869 392.299C146.804 393.474 147.413 394.703 147.818 395.793C149.707 400.88 152.13 405.462 147.938 410.138C145.518 412.837 141.39 414.267 137.812 414.342L132.642 414.158L129.275 420.832L113.017 454.234C110.057 449.879 106.698 445.422 102.745 441.911C98.7332 438.348 93.6074 435.298 89.1184 432.314L90.6346 430.616C96.5057 423.747 100.713 413.705 102.718 404.964C103.493 401.583 104.077 398.164 103.811 394.691L97.3276 369.388C95.0274 360.464 92.2137 350.145 93.9035 340.887C95.015 334.797 98.5016 329.407 103.583 325.881Z"/>
	<path fill="#E63946" transform="scale(0.666667 0.666667)" d="M103.811 394.691C107.025 391.803 108.988 388.042 111.1 384.336C113.188 380.672 115.445 376.853 116.74 372.821C117.814 369.476 118.092 365.582 119.66 362.449C120.625 360.518 122.142 358.532 124.312 357.921C125.39 357.618 126.647 357.668 127.614 358.27C130.024 359.769 131.447 362.342 133.003 364.615C138.665 372.888 144.156 382.158 146.944 391.867L146.869 392.299C146.804 393.474 147.413 394.703 147.818 395.793C149.707 400.88 152.13 405.462 147.938 410.138C145.518 412.837 141.39 414.267 137.812 414.342L132.642 414.158L129.275 420.832L113.017 454.234C110.057 449.879 106.698 445.422 102.745 441.911C98.7332 438.348 93.6074 435.298 89.1184 432.314L90.6346 430.616C96.5057 423.747 100.713 413.705 102.718 404.964C103.493 401.583 104.077 398.164 103.811 394.691Z"/>
	<path fill="#1D3557" transform="scale(0.666667 0.666667)" d="M127.605 361.688C128.677 363.084 128.306 366.816 128.549 368.674C128.753 370.234 129.211 371.795 129.623 373.312L129.188 373.834L128.118 373.279C127.145 372.323 126.184 371.284 125.438 370.14C124.523 368.739 124.144 367.211 124.561 365.567C124.98 363.912 126.19 362.561 127.605 361.688Z"/>
	<path fill="#E63946" transform="scale(0.666667 0.666667)" d="M606.862 206.949L605.643 204.04L597.681 204.966L597.862 215.555L587.247 215.35C586.733 212.549 586.861 209.519 586.797 206.669C580.911 205.437 575.04 202.451 570.562 198.422C564.44 192.914 560.635 185.681 560.311 177.38C559.975 168.777 564.615 160.263 570.392 154.184C574.657 149.696 579.49 148.758 585.375 147.758C588.642 147.203 591.893 146.693 595.213 146.611L595.896 146.598L594.421 138.379L594.847 138.524C599.836 140.173 605.377 140.216 610.524 141.332C610.465 143.252 609.904 147.058 610.744 148.692L611.642 149.11C615.174 150.159 619.005 154.397 620.946 157.457C621.983 159.521 623.161 161.582 623.853 163.791C625.093 168.055 625.95 172.362 625.452 176.832C627.092 176.878 631.053 176.537 632.356 177.265C633.593 179.299 641.468 181.557 643.942 182.582C647.741 184.158 652.245 186.056 655.291 188.898C657.403 191.352 658.797 194.272 660.648 196.922L680.295 227.073C684.799 234.214 690.073 241.148 694.039 248.584C695.59 251.493 696.709 254.531 697.508 257.726C700.557 269.933 699.16 283.061 699.719 295.52L688.411 295.438C686.445 295.404 684.3 295.519 682.378 295.153C681.573 294.639 681.127 294.585 680.204 294.387C679.183 294.985 678.087 295.536 677.198 296.323C675.225 298.886 677.294 306.862 676.763 310.46C674.702 312.058 668.308 310.547 665.614 310.367C665.014 308.64 665.197 306.327 665.128 304.495C664.309 304.753 662.809 306.631 662.062 307.27C660.743 308.398 659.203 309.399 657.652 310.178C651.413 313.309 643.589 313.007 637.096 310.798C631.816 309.002 626.985 304.543 625.268 299.138C624.587 296.993 624.237 294.483 623.25 292.49L622.875 292.441L622.312 292.356C620.071 292.069 618.465 290.463 616.539 289.374C615.134 288.579 613.548 288.09 612.022 287.578C613.481 283.292 615.839 278.678 618.542 275.059C620.731 276.522 622.701 278.857 624.904 280.493C625.837 279.866 626.633 278.569 627.344 277.678C628.775 275.885 630.298 273.6 632.132 272.239C634.038 270.823 637.09 270.001 639.32 269.177C638.139 266.356 636.441 263.544 635.775 260.563L636.106 260.199C635.387 256.813 633.926 253.841 632.462 250.733L625.157 235.993C621.766 229.104 613.375 209.29 606.862 206.949Z"/>
	<path fill="#1D3557" transform="scale(0.666667 0.666667)" d="M677.198 296.323C676.109 295.78 675.665 294.869 675.055 293.879C674.256 292.581 673.118 291.035 672.739 289.547C671.701 285.466 673.143 279.985 674.099 275.946C675.224 276.678 678.894 291.261 680.078 294.093L680.204 294.387C679.183 294.985 678.087 295.536 677.198 296.323Z"/>
	<path fill="#F1FAEE" transform="scale(0.666667 0.666667)" d="M654.945 261.11C660.288 263.795 665.043 267.253 669.941 270.652L667.217 273.938L666.76 274.469C666.753 274.475 666.068 274.87 666 274.862C664.784 274.717 661.986 272.43 660.789 271.781C658.296 270.431 655.733 269.715 652.98 269.115C653.397 266.337 654.09 263.784 654.945 261.11Z"/>
	<path fill="#457B9D" transform="scale(0.666667 0.666667)" d="M625.452 176.832C627.092 176.878 631.053 176.537 632.356 177.265C633.593 179.299 641.468 181.557 643.942 182.582C647.741 184.158 652.245 186.056 655.291 188.898C653.778 191.69 652.974 194.713 651.912 197.688L646.398 212.52C640.556 209.918 634.248 208.566 628.289 206.259C623.998 204.597 620.124 202.071 616.021 200.024C615.59 199.809 614.696 199.237 614.257 199.159C614.044 199.121 612.931 199.532 612.719 199.599L605.782 202.153C608.263 199.88 611.149 198.217 613.789 196.149C620.631 190.791 622.015 184.365 625.452 176.832Z"/>
	<path fill="#1D3557" transform="scale(0.666667 0.666667)" d="M592.111 0L768 0L768 164.137L768 178.878L687.336 178.783L659.138 178.78C650.07 178.765 641.319 178.859 632.356 177.265C631.053 176.537 627.092 176.878 625.452 176.832C625.95 172.362 625.093 168.055 623.853 163.791C623.161 161.582 621.983 159.521 620.946 157.457C619.005 154.397 615.174 150.159 611.642 149.11C613.41 145.2 615.453 141.891 617.881 138.347C616.92 137.334 615.256 137.118 613.932 136.833L601.348 134.728L593.652 134.222L593.446 134.047C593.071 133.517 592.944 132.922 592.911 132.288L592.695 88.9659L592.111 0Z"/>
	<path fill="#51A4C1" transform="scale(0.666667 0.666667)" d="M638.412 127.29C640.708 126.812 641.05 125.664 642.3 123.759L653.215 104.193L661.984 110.331C658.757 115.219 654.685 121.048 653.635 126.879C653.547 127.366 653.404 127.707 653.15 128.129C651.958 128.271 650.584 128.302 649.437 128.634C647.346 127.432 644.076 128.151 641.717 127.657C640.623 127.428 639.525 127.373 638.412 127.29Z"/>
	<path fill="#51A4C1" transform="scale(0.666667 0.666667)" d="M601.893 102.019L602.484 101.871C603.085 101.71 603.535 101.532 604.081 101.25C605.206 98.7498 605.695 95.9113 606.363 93.2585L610.184 77.3613L619.669 79.7462C618.477 84.139 614.592 100.715 616.441 104.038C612.984 102.701 608.686 103.802 605.25 102.723C603.943 102.313 603.396 102.071 601.893 102.019Z"/>
	<path fill="#65B5CC" transform="scale(0.666667 0.666667)" d="M601.893 102.019C603.396 102.071 603.943 102.313 605.25 102.723C608.686 103.802 612.984 102.701 616.441 104.038C617.404 105.371 617.409 106.912 617.877 108.444C620.198 116.047 623.885 119.829 630.483 123.784C631.162 124.191 631.324 124.035 631.462 124.875L630.167 126.314C627.1 128.163 624.11 131.685 621.578 134.257C620.542 135.309 619.265 137.067 617.816 137.438L617.881 138.347C616.92 137.334 615.256 137.118 613.932 136.833L601.348 134.728C601.817 126.911 601.469 119.072 601.5 111.244C601.512 108.506 601.057 104.564 601.893 102.019Z"/>
	<path fill="#65B5CC" transform="scale(0.666667 0.666667)" d="M617.881 138.347L617.816 137.438C619.265 137.067 620.542 135.309 621.578 134.257C624.11 131.685 627.1 128.163 630.167 126.314C631.963 126.135 633.32 126.076 635.063 126.607L638.412 127.29C639.525 127.373 640.623 127.428 641.717 127.657C644.076 128.151 647.346 127.432 649.437 128.634C645.69 133.168 643.094 139.682 643.655 145.665C644.071 150.109 645.993 154.006 648.953 157.294C650.949 159.512 652.986 161.206 654.369 163.826L654.726 164.248C652.681 164.725 649.317 164.313 647.172 164.316C640.05 164.327 632.511 164.785 625.444 164.018L623.853 163.791C623.161 161.582 621.983 159.521 620.946 157.457C619.005 154.397 615.174 150.159 611.642 149.11C613.41 145.2 615.453 141.891 617.881 138.347Z"/>
	<path fill="#1D3557" transform="scale(0.666667 0.666667)" d="M633.682 155.609C634.514 156.133 635.373 156.613 636.072 157.312C635.452 157.628 634.897 157.754 634.227 157.916C631.679 158.534 627.303 160.502 625.955 162.847L625.444 164.018L623.853 163.791C623.161 161.582 621.983 159.521 620.946 157.457L633.682 155.609Z"/>
	<path fill="#457B9D" transform="scale(0.666667 0.666667)" d="M617.881 138.347L617.816 137.438C619.265 137.067 620.542 135.309 621.578 134.257C624.11 131.685 627.1 128.163 630.167 126.314C631.963 126.135 633.32 126.076 635.063 126.607L635.004 126.932C634.432 129.793 632.462 131.986 630.844 134.326C629.52 136.241 628.331 138.314 627.223 140.361C626.915 140.931 626.008 142.486 626.028 143.053C626.115 145.46 627.78 148.69 629.09 150.681C630.226 152.407 632.004 154.41 633.682 155.609L620.946 157.457C619.005 154.397 615.174 150.159 611.642 149.11C613.41 145.2 615.453 141.891 617.881 138.347Z"/>
	<path fill="#A8DADC" transform="scale(0.666667 0.666667)" d="M623.853 163.791L625.444 164.018C632.511 164.785 640.05 164.327 647.172 164.316C649.317 164.313 652.681 164.725 654.726 164.248L768 164.137L768 178.878L687.336 178.783L659.138 178.78C650.07 178.765 641.319 178.859 632.356 177.265C631.053 176.537 627.092 176.878 625.452 176.832C625.95 172.362 625.093 168.055 623.853 163.791Z"/>
	<path fill="#E63946" transform="scale(0.666667 0.666667)" d="M103.583 325.881C102.957 296.822 113.308 269.185 125.969 243.498C136.732 221.662 151.129 201.822 167.445 183.837C201.99 145.755 245.814 115.944 294.691 99.5013C332.717 86.709 374.347 82.5957 414.188 87.0189C424.668 88.1825 434.943 90.1578 445.237 92.3971C458.327 95.245 471.034 98.511 483.651 103.088C501.72 109.644 518.721 118.54 535.89 127.083C533.009 133.131 530.679 139.489 528.595 145.851C526.757 151.459 525.134 157.236 522.415 162.491C530.989 164.448 539.165 168.344 546.757 172.686C545.138 173.058 543.188 172.929 541.513 172.945C525.259 173.097 509.545 163.661 495.045 157.358C483.762 152.454 471.588 146.938 459.67 143.927C455.659 153.268 453.428 163.237 450.633 172.983C448.054 181.972 445.078 190.792 443.062 199.939L439.308 221.541C437.177 233.589 434.669 245.565 431.454 257.371C430.159 262.125 428.638 268.567 425.812 272.666L423.316 275.872C421.575 278.269 420.449 280.873 418.922 283.381C420.787 284.778 423.348 285.566 425.44 286.683C428 288.049 431.084 290.569 433.81 291.282C440.397 295.744 447.531 300.821 453.004 306.585C457.737 313.018 462.829 319.045 466.581 326.158C468.891 330.535 470.323 335.359 472.703 339.661L473.969 339.79C475.048 339.222 475.826 339.174 477.002 339.076L482.059 338.822C482.061 341.887 481.343 352.715 482.641 354.702L479.443 356.197C479.603 364.896 479.907 374.469 478.554 383.073C478.294 384.868 477.8 386.727 478.439 388.471C478.631 390.043 480.106 391.538 481.351 392.55C482.823 393.745 485.275 394.897 487.181 394.824L492.647 398.122C491.976 400.671 490.579 402.04 488.456 403.623L475.947 400.702C472.958 403.12 470.543 405.764 468.325 408.902C466.434 409.307 465.332 408.743 463.687 407.843L462.257 405.427L458.438 411.127L458.118 411.54C453.839 416.979 447.841 422.075 442.59 426.583C437.616 430.854 431.528 434.02 425.671 436.896C423.604 437.911 420.231 438.835 418.613 440.288C409.119 443.934 398.057 445.607 387.938 444.995C381.713 444.619 375.805 443.417 369.701 442.318C357.97 439.544 347.076 435.19 337.44 427.792L279.107 478.248L278.912 476.928L278.212 477.03C277.771 477.854 277.717 478.177 276.75 478.442C275.917 478.671 274.977 478.616 274.125 478.822C273.216 479.042 272.391 479.509 271.491 479.761L269.995 477.008L270.099 478.312L269.192 479.324C265.381 477.558 261.739 474.364 258 472.245C256.753 471.539 255.187 470.476 253.748 470.356C253.114 470.303 252.572 470.942 252.09 471.315L251.854 471.767L252.433 472.871L251.974 473.291C250.484 474.679 249.33 476.306 247.747 477.622C244.386 480.415 240.563 482.622 237.184 485.438L237.377 485.888L237.594 485.968L236.668 486.919C235.211 488.279 231.564 490.852 231.361 492.75L231.399 494.551L231.472 495.272C232.485 497.515 232.321 500.29 231.458 502.565L231.303 502.948L228.564 500.54C227.878 506.161 226.875 511.37 225.366 516.835C224.813 520.04 224.349 523.358 223.394 526.472C222.145 530.545 220.182 534.477 218.379 538.335C214.43 546.782 210.042 554.797 205.231 562.776L205.204 563.341C204.075 562.787 203.167 561.597 202.306 560.681L197.23 555.184L179.679 536.102C177.179 534.009 175.258 530.88 173.9 527.957C171.978 524.555 168.885 521.283 166.439 518.213L158.849 508.26C155.932 506.157 152.935 501.504 150.594 498.637C149.871 497.337 149.1 495.817 148.688 494.38C148.386 493.327 148.36 492.227 147.881 491.236L147.691 489.377C146.477 486.911 144.682 484.582 143.15 482.299C137.086 473.262 130.354 464.74 121.019 458.92C118.445 457.193 115.545 456.082 113.017 454.234L129.275 420.832L132.642 414.158L137.812 414.342C141.39 414.267 145.518 412.837 147.938 410.138C152.13 405.462 149.707 400.88 147.818 395.793C147.413 394.703 146.804 393.474 146.869 392.299L146.944 391.867L152.771 383.573C155.088 380.161 153.867 376.546 153.18 372.797C155.73 370.943 160.695 369.431 162.433 366.938C162.597 362.289 160.13 357.54 158.658 353.209L154.609 340.452C157.855 339.182 161.891 337.419 163.698 334.271C164.614 332.675 164.754 330.815 164.274 329.062C163.474 326.139 160.768 324.679 158.339 323.241C148.768 317.555 128.547 317.725 117.905 320.402C114.672 321.215 111.553 322.381 108.507 323.726C106.968 324.405 105.21 325.53 103.583 325.881Z"/>
	<path fill="#4B547B" transform="scale(0.666667 0.666667)" d="M265.67 321.938L296.641 324.397L295.939 335.51C293.309 334.786 290.702 333.657 288.056 332.873C282.142 331.121 274.517 329.951 269.222 326.842C267.475 325.816 266.338 324.465 265.312 322.751L265.67 321.938Z"/>
	<path fill="#1D5A90" transform="scale(0.666667 0.666667)" d="M370.553 267.634C371.056 266.861 371.578 266.214 372.188 265.528C378.872 265.202 385.403 265.051 392.075 265.76L391.028 277.694C387.827 278.037 384.561 278.029 381.342 278.155C379.497 278.228 377.291 278.537 375.489 278.185C374.548 274.32 371.938 271.304 370.553 267.634Z"/>
	<path fill="#F1FAEE" transform="scale(0.666667 0.666667)" d="M237.399 297.898L242.878 292.386C242.926 291.136 242.896 289.657 243.415 288.5C244.15 286.859 245.591 286.464 247.186 285.927C247.911 285.683 247.763 285.654 247.912 284.94C248.127 283.912 248.053 282.841 248.267 281.812C248.4 281.176 249.189 279.399 249.821 279.104C251.332 278.398 251.991 279.762 253.276 277.937C254.393 276.351 254.371 274.074 255.519 272.77C256.643 272.337 257.936 271.671 259.138 272.13C259.851 272.402 260.614 272.088 261.372 271.941L264.702 275.517C267.846 278.162 272.372 280.848 274.511 284.363C276.615 287.403 279.273 290.117 281.774 292.831L293.723 305.146C296.877 308.179 300.456 310.989 302.952 314.61L302.519 314.869C301.552 315.265 299.975 314.892 298.985 314.704L288.75 312.274L269.625 307.848L253.896 303.054L237.399 297.898Z"/>
	<path fill="#F1FAEE" transform="scale(0.666667 0.666667)" d="M370.553 267.634C369.258 268.694 367.865 269.49 366.188 269.655C364.635 268.176 364.19 266.278 363.536 264.296L360.628 255.274C354.03 235.759 347.689 216.116 342.809 196.08C339.054 180.663 336.708 164.786 332.056 149.626C341.746 147.638 351.372 145.785 361.232 144.836C387.772 142.281 414.607 144.77 440.514 150.848C437.678 157.965 435.696 165.6 433.726 172.993L429.414 189.079L425.761 207.954C424.789 212.814 423.882 217.736 421.119 221.929C416.137 218.096 414.291 211.786 410.89 206.696C410.156 207.687 409.921 209.505 409.579 210.698L406.684 220.119L394.91 254.504C393.756 258.231 392.796 261.925 392.075 265.76C385.403 265.051 378.872 265.202 372.188 265.528C371.578 266.214 371.056 266.861 370.553 267.634Z"/>
	<path fill="#A8DADC" transform="scale(0.666667 0.666667)" d="M378.285 165.966C391.643 164.986 404.965 166.352 418.218 167.886L410.398 189.913C406.398 189.48 402.185 189.613 398.15 189.538C392.705 189.438 387.163 189.193 381.736 189.612L381.08 189.666L370.858 190.436C369.49 190.571 367.1 191.104 365.849 190.594L365.438 190.352L364.548 190.57C360.482 191.996 355.365 191.871 351.046 192.664L344.708 170.722C345.653 169.951 348.444 169.763 349.688 169.521C359.198 167.678 368.615 166.536 378.285 165.966Z"/>
	<path fill="#1D3557" transform="scale(0.666667 0.666667)" d="M391.028 277.694C399.983 278.491 410.723 279.49 418.922 283.381C420.787 284.778 423.348 285.566 425.44 286.683C428 288.049 431.084 290.569 433.81 291.282C440.397 295.744 447.531 300.821 453.004 306.585C457.737 313.018 462.829 319.045 466.581 326.158C468.891 330.535 470.323 335.359 472.703 339.661L473.969 339.79C475.048 339.222 475.826 339.174 477.002 339.076L482.059 338.822C482.061 341.887 481.343 352.715 482.641 354.702L479.443 356.197C479.603 364.896 479.907 374.469 478.554 383.073C478.294 384.868 477.8 386.727 478.439 388.471C478.631 390.043 480.106 391.538 481.351 392.55C482.823 393.745 485.275 394.897 487.181 394.824L492.647 398.122C491.976 400.671 490.579 402.04 488.456 403.623L475.947 400.702C472.958 403.12 470.543 405.764 468.325 408.902C466.434 409.307 465.332 408.743 463.687 407.843L462.257 405.427L458.438 411.127L458.118 411.54C453.839 416.979 447.841 422.075 442.59 426.583C437.616 430.854 431.528 434.02 425.671 436.896C423.604 437.911 420.231 438.835 418.613 440.288C409.119 443.934 398.057 445.607 387.938 444.995C381.713 444.619 375.805 443.417 369.701 442.318C357.97 439.544 347.076 435.19 337.44 427.792C323.12 415.158 311.433 400.26 306.414 381.486C306.783 378.404 305.084 373.518 304.624 370.312C304.164 367.104 304.223 363.416 303.442 360.316C304.327 340.201 311.778 318.071 325.433 302.942C335.825 291.428 349.151 285.162 363.815 280.849C367.605 279.734 371.528 278.387 375.489 278.185C377.291 278.537 379.497 278.228 381.342 278.155C384.561 278.029 387.827 278.037 391.028 277.694Z"/>
	<path fill="#1D5A90" transform="scale(0.666667 0.666667)" d="M473.969 339.79C475.048 339.222 475.826 339.174 477.002 339.076L482.059 338.822C482.061 341.887 481.343 352.715 482.641 354.702L479.443 356.197C479.603 364.896 479.907 374.469 478.554 383.073C478.294 384.868 477.8 386.727 478.439 388.471C478.631 390.043 480.106 391.538 481.351 392.55C482.823 393.745 485.275 394.897 487.181 394.824L492.647 398.122C491.976 400.671 490.579 402.04 488.456 403.623L475.947 400.702C472.958 403.12 470.543 405.764 468.325 408.902C466.434 409.307 465.332 408.743 463.687 407.843L462.257 405.427C469.233 394.047 472.433 382.345 474.438 369.249C475.282 363.743 476.061 357.384 475.183 351.836L474.581 345.913L474.288 344.725C474.181 343.444 474.211 343.024 473.621 341.846C473.309 341.223 473.763 340.45 473.969 339.79Z"/>
	<path fill="#E63946" transform="scale(0.666667 0.666667)" d="M385.916 298.278C401.323 296.672 417.766 301.695 430.027 310.908C443.662 321.152 452.169 335.679 454.475 352.587C456.72 369.047 452.019 384.368 442.045 397.499C431.098 411.909 416.511 419.771 398.716 422.185L397.066 422.369C381.023 423.871 361.006 417.525 348.657 407.193C336.009 396.61 330.111 381.507 328.673 365.424C327.225 349.22 331.366 332.996 341.972 320.498C353.529 306.879 368.265 299.734 385.916 298.278Z"/>
	<path fill="#F1FAEE" transform="scale(0.666667 0.666667)" d="M389.072 324.147C399.054 323.539 408.084 326.467 415.925 332.658C423.441 338.593 427.46 346.772 428.495 356.208C429.63 366.565 427.275 376.224 420.676 384.356C413.732 392.914 404.564 396.025 393.959 397.15C383.871 397.515 374.578 395.563 366.562 389.098C359.273 383.218 354.413 374.239 353.52 364.925C352.588 355.207 355.116 345.381 361.386 337.786C368.573 329.081 378.069 325.176 389.072 324.147Z"/>
	<path fill="#1D3557" transform="scale(0.666667 0.666667)" d="M388.467 335.75C393.551 335.09 399.78 336.644 404.108 339.354C410.143 343.132 413.788 348.665 415.312 355.568C416.748 362.079 415.345 369.081 411.681 374.639C407.437 381.076 401.082 384.1 393.726 385.486C387.767 385.596 381.701 384.919 376.654 381.436C371.184 377.66 367.305 371.663 366.206 365.103C365.114 358.586 366.785 351.285 370.676 345.938C374.973 340.031 381.409 336.898 388.467 335.75Z"/>
	<path fill="#F1FAEE" transform="scale(0.666667 0.666667)" d="M158.339 323.241C159.315 309.882 164.621 295.763 169.826 283.477C180.224 258.928 194.863 236.613 213.153 217.243C217.533 212.604 222.331 208.303 227.034 203.995C242.297 190.019 259.328 177.566 277.655 167.887C288.14 162.35 299.478 158.229 310.461 153.8L314.94 171.06C317.582 181.734 320.062 192.943 323.867 203.258C326.54 210.503 330.435 217.319 333.269 224.54L325.191 218.419C328.567 233.139 330.959 248.114 333.049 263.062C333.886 269.052 335.075 275.231 335.236 281.271C335.281 282.921 335.476 283.748 334.312 285.002C330.612 285.152 325.129 280.411 321.931 278.502C318.567 283.454 319.63 289.844 319.014 295.557C318.535 298.136 309.053 306.69 306.74 309.425C305.798 311.073 304.713 313.78 302.952 314.61C300.456 310.989 296.877 308.179 293.723 305.146L281.774 292.831C279.273 290.117 276.615 287.403 274.511 284.363C272.372 280.848 267.846 278.162 264.702 275.517L261.372 271.941C260.614 272.088 259.851 272.402 259.138 272.13C257.936 271.671 256.643 272.337 255.519 272.77C254.371 274.074 254.393 276.351 253.276 277.937C251.991 279.762 251.332 278.398 249.821 279.104C249.189 279.399 248.4 281.176 248.267 281.812C248.053 282.841 248.127 283.912 247.912 284.94C247.763 285.654 247.911 285.683 247.186 285.927C245.591 286.464 244.15 286.859 243.415 288.5C242.896 289.657 242.926 291.136 242.878 292.386L237.399 297.898C233.819 296.766 230.265 294.965 226.772 293.561C219.194 290.517 211.293 287.936 204.231 283.771L193.462 314.077C206.999 316.666 220.408 320.068 233.561 324.193C244.113 327.502 291.343 345.92 297.036 352.5C297.236 353.269 297.344 353.719 297.298 354.525C298.356 357.36 299.702 358.798 302.521 360.031C303.02 360.25 302.885 360.19 303.442 360.316C304.223 363.416 304.164 367.104 304.624 370.312C305.084 373.518 306.783 378.404 306.414 381.486C311.433 400.26 323.12 415.158 337.44 427.792L279.107 478.248L278.912 476.928L278.212 477.03C277.771 477.854 277.717 478.177 276.75 478.442C275.917 478.671 274.977 478.616 274.125 478.822C273.216 479.042 272.391 479.509 271.491 479.761L269.995 477.008L270.099 478.312L269.192 479.324C265.381 477.558 261.739 474.364 258 472.245C256.753 471.539 255.187 470.476 253.748 470.356C253.114 470.303 252.572 470.942 252.09 471.315L251.854 471.767L252.433 472.871L251.974 473.291C250.484 474.679 249.33 476.306 247.747 477.622C244.386 480.415 240.563 482.622 237.184 485.438L237.377 485.888L237.594 485.968L236.668 486.919C235.211 488.279 231.564 490.852 231.361 492.75L231.399 494.551L231.472 495.272C232.485 497.515 232.321 500.29 231.458 502.565L231.303 502.948L228.564 500.54C227.878 506.161 226.875 511.37 225.366 516.835C224.813 520.04 224.349 523.358 223.394 526.472C222.145 530.545 220.182 534.477 218.379 538.335C214.43 546.782 210.042 554.797 205.231 562.776L205.204 563.341C204.075 562.787 203.167 561.597 202.306 560.681L197.23 555.184L179.679 536.102C177.179 534.009 175.258 530.88 173.9 527.957C171.978 524.555 168.885 521.283 166.439 518.213L158.849 508.26C155.932 506.157 152.935 501.504 150.594 498.637C149.871 497.337 149.1 495.817 148.688 494.38C148.386 493.327 148.36 492.227 147.881 491.236L147.691 489.377C146.477 486.911 144.682 484.582 143.15 482.299C137.086 473.262 130.354 464.74 121.019 458.92C118.445 457.193 115.545 456.082 113.017 454.234L129.275 420.832L132.642 414.158L137.812 414.342C141.39 414.267 145.518 412.837 147.938 410.138C152.13 405.462 149.707 400.88 147.818 395.793C147.413 394.703 146.804 393.474 146.869 392.299L146.944 391.867L152.771 383.573C155.088 380.161 153.867 376.546 153.18 372.797C155.73 370.943 160.695 369.431 162.433 366.938C162.597 362.289 160.13 357.54 158.658 353.209L154.609 340.452C157.855 339.182 161.891 337.419 163.698 334.271C164.614 332.675 164.754 330.815 164.274 329.062C163.474 326.139 160.768 324.679 158.339 323.241Z"/>
	<path fill="#1D3557" transform="scale(0.666667 0.666667)" d="M166.533 407.317L163.5 407.195L163.079 406.688C164.68 404.426 166.155 402.172 167.01 399.512C168.508 394.854 168.433 389.838 169.194 385.034C169.431 383.534 169.47 381.694 170.369 380.438L171.663 380.395L172.414 381.155C173.756 388.39 174.385 397.653 169.943 403.979C168.998 405.325 167.821 406.322 166.533 407.317Z"/>
	<defs>
		<linearGradient id="gradient_0" gradientUnits="userSpaceOnUse" x1="280.53027" y1="278.17917" x2="266.74985" y2="272.68192">
			<stop offset="0" stop-color="#195591"/>
			<stop offset="1" stop-color="#2D8EBF"/>
		</linearGradient>
	</defs>
	<path fill="url(#gradient_0)" transform="scale(0.666667 0.666667)" d="M271.912 266.056C275.345 269.939 279.717 272.302 282.501 276.851L274.511 284.363C272.372 280.848 267.846 278.162 264.702 275.517C265.899 274.621 266.581 272.859 267.461 271.627C268.846 269.688 270.373 267.873 271.912 266.056Z"/>
	<path fill="#457B9D" transform="scale(0.666667 0.666667)" d="M297.298 354.525C298.356 357.36 299.702 358.798 302.521 360.031C303.02 360.25 302.885 360.19 303.442 360.316C304.223 363.416 304.164 367.104 304.624 370.312C305.084 373.518 306.783 378.404 306.414 381.486C304.199 380.384 301.25 380.278 298.824 379.976C298.819 378.981 299.064 375.971 298.584 375.188C298.451 374.969 296.056 374.782 295.688 374.695C293.587 374.198 292.019 373.039 290.639 371.438C290.246 368.294 293.552 363.986 294.863 361.079C295.819 358.959 296.55 356.725 297.298 354.525Z"/>
	<path fill="#65B5CC" transform="scale(0.666667 0.666667)" d="M282.501 276.851L306.74 309.425C305.798 311.073 304.713 313.78 302.952 314.61C300.456 310.989 296.877 308.179 293.723 305.146L281.774 292.831C279.273 290.117 276.615 287.403 274.511 284.363L282.501 276.851Z"/>
	<path fill="#1D3557" transform="scale(0.666667 0.666667)" d="M190.387 382.015C189.122 367.911 188.583 353.935 189.731 339.788C190.267 333.179 191.37 326.617 192.474 320.083L203.131 322.47C200.628 329.335 199.397 337.112 198.199 344.309L197.194 350.615C197.094 351.251 197.057 352.511 196.811 353.062C196.694 353.325 195.927 353.712 195.679 353.819L195.319 353.959C194.482 356.569 194.702 360.475 194.65 363.237L194.607 382.347L190.387 382.015Z"/>
	<path fill="#1D3557" transform="scale(0.666667 0.666667)" d="M319.014 295.557L295.652 274.768C291.016 270.552 285.582 266.284 282.143 260.994C280.397 258.309 279.425 254.996 278.19 252.042C280.417 250.293 282.322 248.455 284.233 246.365C289.513 255.854 297.384 261.799 306.149 267.951L321.931 278.502C318.567 283.454 319.63 289.844 319.014 295.557Z"/>
	<path fill="#A8DADC" transform="scale(0.666667 0.666667)" d="M203.131 322.47L235.974 331.419C233.85 341.588 232.587 352.152 232.518 362.544L232.751 382.641L194.607 382.347L194.65 363.237C194.702 360.475 194.482 356.569 195.319 353.959L195.679 353.819C195.927 353.712 196.694 353.325 196.811 353.062C197.057 352.511 197.094 351.251 197.194 350.615L198.199 344.309C199.397 337.112 200.628 329.335 203.131 322.47Z"/>
	<path fill="#A8DADC" transform="scale(0.666667 0.666667)" d="M204.231 283.771C205.363 280.674 207.022 277.721 208.429 274.734C217.936 254.548 230.798 237.405 246.505 221.67C253.376 214.786 260.533 208.132 268.396 202.384C279.219 194.473 291.015 188.126 302.58 181.4C306.113 186.879 309.917 192.127 313.163 197.797L320.329 211.893C313.516 215.477 306.489 218.772 299.906 222.763C286.445 230.924 274.166 242.411 263.523 253.919L266.049 258.586L271.912 266.056C270.373 267.873 268.846 269.688 267.461 271.627C266.581 272.859 265.899 274.621 264.702 275.517L261.372 271.941C260.614 272.088 259.851 272.402 259.138 272.13C257.936 271.671 256.643 272.337 255.519 272.77C254.371 274.074 254.393 276.351 253.276 277.937C251.991 279.762 251.332 278.398 249.821 279.104C249.189 279.399 248.4 281.176 248.267 281.812C248.053 282.841 248.127 283.912 247.912 284.94C247.763 285.654 247.911 285.683 247.186 285.927C245.591 286.464 244.15 286.859 243.415 288.5C242.896 289.657 242.926 291.136 242.878 292.386L237.399 297.898C233.819 296.766 230.265 294.965 226.772 293.561C219.194 290.517 211.293 287.936 204.231 283.771Z"/>
	<path fill="#1D3557" transform="scale(0.666667 0.666667)" d="M266.049 258.586L271.912 266.056C270.373 267.873 268.846 269.688 267.461 271.627C266.581 272.859 265.899 274.621 264.702 275.517L261.372 271.941L257.782 268.729C260.817 265.441 263.336 262.126 266.049 258.586Z"/>
	<path fill="#457B9D" transform="scale(0.666667 0.666667)" d="M129.275 420.832L168.938 419.258C169.492 418.54 169.545 418.357 169.688 417.456C170.335 418.106 170.1 417.689 170.273 418.518C170.776 420.939 173.303 424.212 174.484 426.522C179.108 435.565 183.136 445.24 188.549 453.824C194.086 453.113 197.3 453.646 201.885 457.133L210.434 464.045L223.003 478.847C224.894 480.56 227.912 480.134 230.315 480.24L230.755 480.779C231.323 481.487 231.709 482.221 232.125 483.024C232.864 483.334 233.577 483.669 234.356 483.862L233.69 484.875C234.27 485.62 234.717 486.049 235.527 486.535L236.668 486.919C235.211 488.279 231.564 490.852 231.361 492.75L231.399 494.551L231.472 495.272C232.485 497.515 232.321 500.29 231.458 502.565L231.303 502.948L228.564 500.54C227.878 506.161 226.875 511.37 225.366 516.835C224.813 520.04 224.349 523.358 223.394 526.472C222.145 530.545 220.182 534.477 218.379 538.335C214.43 546.782 210.042 554.797 205.231 562.776L205.204 563.341C204.075 562.787 203.167 561.597 202.306 560.681L197.23 555.184L179.679 536.102C177.179 534.009 175.258 530.88 173.9 527.957C171.978 524.555 168.885 521.283 166.439 518.213L158.849 508.26C155.932 506.157 152.935 501.504 150.594 498.637C149.871 497.337 149.1 495.817 148.688 494.38C148.386 493.327 148.36 492.227 147.881 491.236L147.691 489.377C146.477 486.911 144.682 484.582 143.15 482.299C137.086 473.262 130.354 464.74 121.019 458.92C118.445 457.193 115.545 456.082 113.017 454.234L129.275 420.832Z"/>
	<path fill="#1D3557" transform="scale(0.666667 0.666667)" d="M165.442 502.749C165.636 501.954 168.501 500.759 169.312 500.253C173.853 497.425 178.427 493.847 182.625 490.506C187.073 486.965 205.127 470.326 205.408 465.36C205.516 463.44 203.051 461.036 201.869 459.623C204.475 461.145 206.155 462.856 208.103 465.122C207.998 467.132 207.307 468.417 206.117 470.033C204.616 472.071 202.427 473.954 200.634 475.77L189.659 487.545C187.41 490.165 184.989 492.958 183.468 496.082C181.16 499.116 178.071 502.472 175.17 504.943C171.901 504.573 168.542 503.865 165.442 502.749Z"/>
	<defs>
		<linearGradient id="gradient_1" gradientUnits="userSpaceOnUse" x1="163.68748" y1="478.54083" x2="197.34482" y2="519.98425">
			<stop offset="0" stop-color="#5CAFC9"/>
			<stop offset="1" stop-color="#9ADCE1"/>
		</linearGradient>
	</defs>
	<path fill="url(#gradient_1)" transform="scale(0.666667 0.666667)" d="M147.691 489.377C149.552 490.19 150.919 491.774 152.438 493.089C154.994 495.303 157.863 497.264 160.545 499.331C161.936 500.402 163.794 502.163 165.442 502.749C168.542 503.865 171.901 504.573 175.17 504.943C178.071 502.472 181.16 499.116 183.468 496.082L211.648 497.341C207.456 503.682 202.7 511.264 195.622 514.631C194.373 515.225 190.814 516.057 190.017 516.804C189.813 516.996 190.076 517.36 190.106 517.638C190.191 518.434 190.549 519.866 190.423 520.616C190.177 522.08 188.048 524.424 187.133 525.667C184.604 529.102 182.34 532.776 179.679 536.102C177.179 534.009 175.258 530.88 173.9 527.957C171.978 524.555 168.885 521.283 166.439 518.213L158.849 508.26C155.932 506.157 152.935 501.504 150.594 498.637C149.871 497.337 149.1 495.817 148.688 494.38C148.386 493.327 148.36 492.227 147.881 491.236L147.691 489.377Z"/>
	<path fill="#1D3557" transform="scale(0.666667 0.666667)" d="M158.849 508.26L159.385 508.019L159.859 508.301C162.777 510.019 165.931 511.075 169.103 512.215C171.171 512.959 173.675 513.549 174.985 515.438C175.099 518.431 174.772 521.295 174.528 524.273C174.427 525.502 174.532 526.883 173.9 527.957C171.978 524.555 168.885 521.283 166.439 518.213L158.849 508.26Z"/>
	<path fill="#E63946" transform="scale(0.666667 0.666667)" d="M223.003 478.847C224.894 480.56 227.912 480.134 230.315 480.24L230.755 480.779C231.323 481.487 231.709 482.221 232.125 483.024C232.864 483.334 233.577 483.669 234.356 483.862L233.69 484.875C234.27 485.62 234.717 486.049 235.527 486.535L236.668 486.919C235.211 488.279 231.564 490.852 231.361 492.75L231.399 494.551L231.472 495.272C232.485 497.515 232.321 500.29 231.458 502.565L231.303 502.948L228.564 500.54C227.878 506.161 226.875 511.37 225.366 516.835C224.813 520.04 224.349 523.358 223.394 526.472C222.145 530.545 220.182 534.477 218.379 538.335C214.43 546.782 210.042 554.797 205.231 562.776L205.204 563.341C204.075 562.787 203.167 561.597 202.306 560.681L197.23 555.184L179.679 536.102C182.34 532.776 184.604 529.102 187.133 525.667C188.048 524.424 190.177 522.08 190.423 520.616C190.549 519.866 190.191 518.434 190.106 517.638C190.076 517.36 189.813 516.996 190.017 516.804C190.814 516.057 194.373 515.225 195.622 514.631C202.7 511.264 207.456 503.682 211.648 497.341C212.018 496.592 212.387 496.207 212.245 495.358L211.137 494.062C211.121 493.606 211.107 493.226 211.244 492.783C212.243 489.568 216.3 486.846 219.188 485.495L220.475 486.235C220.996 485.471 220.827 485.85 221.071 485.022C221.71 482.863 222.64 481.128 223.003 478.847Z"/>
	<path fill="#F1FAEE" transform="scale(0.666667 0.666667)" d="M212.245 495.358L211.137 494.062C211.121 493.606 211.107 493.226 211.244 492.783C212.243 489.568 216.3 486.846 219.188 485.495L220.475 486.235L223.892 488.626L223.301 489.405C218.152 490.027 215.896 491.831 212.245 495.358Z"/>
	<path fill="#1D3557" transform="scale(0.666667 0.666667)" d="M235.527 486.535L236.668 486.919C235.211 488.279 231.564 490.852 231.361 492.75L231.399 494.551L231.472 495.272C232.485 497.515 232.321 500.29 231.458 502.565L231.303 502.948L228.564 500.54C227.523 497.947 226.606 495.607 225.98 492.88L226.453 490.714L227.062 489.578C229.991 488.966 232.699 487.5 235.527 486.535Z"/>
	<path fill="#1D3557" transform="scale(0.666667 0.666667)" d="M225.366 516.835C224.813 520.04 224.349 523.358 223.394 526.472C222.145 530.545 220.182 534.477 218.379 538.335C214.43 546.782 210.042 554.797 205.231 562.776C204.945 561.658 204.967 560.784 205.339 559.69C207.6 553.038 211.275 546.434 213.992 539.902C216.618 533.588 218.576 526.925 221.37 520.7C222.358 518.498 223.094 517.702 225.366 516.835Z"/>
	<path fill="#E63946" transform="scale(0.666667 0.666667)" d="M298.824 379.976C301.25 380.278 304.199 380.384 306.414 381.486C311.433 400.26 323.12 415.158 337.44 427.792L279.107 478.248L278.912 476.928L278.212 477.03C277.771 477.854 277.717 478.177 276.75 478.442C275.917 478.671 274.977 478.616 274.125 478.822C273.216 479.042 272.391 479.509 271.491 479.761L269.995 477.008L270.099 478.312L269.192 479.324C265.381 477.558 261.739 474.364 258 472.245C256.753 471.539 255.187 470.476 253.748 470.356C253.114 470.303 252.572 470.942 252.09 471.315L251.854 471.767L252.433 472.871L251.974 473.291C250.484 474.679 249.33 476.306 247.747 477.622C244.386 480.415 240.563 482.622 237.184 485.438L237.377 485.888L237.594 485.968L236.668 486.919L235.527 486.535C234.717 486.049 234.27 485.62 233.69 484.875L234.356 483.862C233.577 483.669 232.864 483.334 232.125 483.024C231.709 482.221 231.323 481.487 230.755 480.779L230.315 480.24C217.905 464.351 209.159 445.577 201.91 426.896C199.584 420.9 197.098 414.873 195.171 408.738C193.622 408.076 190.85 408.429 189.166 408.426L175.312 408.358C172.327 408.259 169.461 407.89 166.533 407.317C167.821 406.322 168.998 405.325 169.943 403.979C174.385 397.653 173.756 388.39 172.414 381.155C177.877 382.661 184.68 381.368 190.387 382.015L194.607 382.347L232.751 382.641C236.718 382.983 240.998 382.629 244.991 382.562L279.883 380.952C286.136 380.499 292.554 379.61 298.824 379.976Z"/>
	<path fill="#F1FAEE" transform="scale(0.666667 0.666667)" d="M263.621 454.827L263.441 455.372C262.761 457.227 259.001 460.466 257.476 461.706C262.153 462.201 268.201 461.827 272.279 464.156C275.262 465.861 277.956 467.978 278.865 471.503C279.298 473.185 279.11 475.222 278.912 476.928L278.212 477.03C277.703 476.186 277.323 475.167 276.886 474.275C275.141 470.705 273.446 467.308 269.39 466.038C266.075 465 261.928 464.809 258.479 464.643C257.09 464.577 255.556 464.297 254.3 464.995C252.63 466.677 251.045 468.184 249.066 469.501C248.631 469.667 248.141 469.745 247.688 469.851C246.809 469.317 246.814 469.351 246.502 468.375C247.735 466.612 250.202 466.329 251.346 464.615C252.374 463.075 253.76 462.339 255.375 461.52C258.523 459.923 261.045 457.209 263.621 454.827Z"/>
	<path fill="#457B9D" transform="scale(0.666667 0.666667)" d="M254.3 464.995C255.556 464.297 257.09 464.577 258.479 464.643C261.928 464.809 266.075 465 269.39 466.038C273.446 467.308 275.141 470.705 276.886 474.275C277.323 475.167 277.703 476.186 278.212 477.03C277.771 477.854 277.717 478.177 276.75 478.442C275.917 478.671 274.977 478.616 274.125 478.822C273.216 479.042 272.391 479.509 271.491 479.761L269.995 477.008L270.099 478.312L269.192 479.324C265.381 477.558 261.739 474.364 258 472.245C256.753 471.539 255.187 470.476 253.748 470.356C253.114 470.303 252.572 470.942 252.09 471.315L251.867 470.53C250.98 469.973 250.065 469.783 249.066 469.501C251.045 468.184 252.63 466.677 254.3 464.995Z"/>
	<path fill="#E63946" transform="scale(0.666667 0.666667)" d="M254.3 464.995C257.092 465.153 260.82 466.04 262.733 468.188C263.109 468.609 264.17 469.6 264.339 470.109C264.767 471.393 264.197 473.668 265.312 474.714C266.455 475.786 268.547 475.81 269.995 477.008L270.099 478.312L269.192 479.324C265.381 477.558 261.739 474.364 258 472.245C256.753 471.539 255.187 470.476 253.748 470.356C253.114 470.303 252.572 470.942 252.09 471.315L251.867 470.53C250.98 469.973 250.065 469.783 249.066 469.501C251.045 468.184 252.63 466.677 254.3 464.995Z"/>
	<path fill="#1D3557" transform="scale(0.666667 0.666667)" d="M306.534 409.119C307.961 410.134 308.822 412.458 309.633 414C309.712 415.88 308.726 417.201 307.504 418.555C302.51 424.089 296.133 428.702 290.485 433.563C284.373 438.825 278.488 444.269 272.018 449.102C270.538 450.208 267.892 452.435 266.043 452.607L265.558 452.585L277.985 439.764L296.337 421.555C299.649 418.164 304.759 413.517 306.534 409.119Z"/>
	<path fill="#F1FAEE" transform="scale(0.666667 0.666667)" d="M239.205 408.765L283.844 408.468L295.8 408.147C298.616 408.009 303.56 407.227 306.172 408.088L306.534 409.119C304.759 413.517 299.649 418.164 296.337 421.555L277.985 439.764L265.558 452.585C265.014 453.216 264.44 454.064 263.779 454.557C260.673 451.765 258.699 447.662 256.573 444.108C249.898 432.947 243.355 421.124 239.205 408.765Z"/>
	<path fill="#1D3557" transform="scale(0.666667 0.666667)" d="M195.171 408.738L223.305 408.6C228.518 408.564 234.024 408.222 239.205 408.765C243.355 421.124 249.898 432.947 256.573 444.108C258.699 447.662 260.673 451.765 263.779 454.557L263.621 454.827C261.045 457.209 258.523 459.923 255.375 461.52C253.76 462.339 252.374 463.075 251.346 464.615C250.202 466.329 247.735 466.612 246.502 468.375C246.814 469.351 246.809 469.317 247.688 469.851C248.141 469.745 248.631 469.667 249.066 469.501C250.065 469.783 250.98 469.973 251.867 470.53L252.09 471.315L251.854 471.767L252.433 472.871L251.974 473.291C250.484 474.679 249.33 476.306 247.747 477.622C244.386 480.415 240.563 482.622 237.184 485.438L237.377 485.888L237.594 485.968L236.668 486.919L235.527 486.535C234.717 486.049 234.27 485.62 233.69 484.875L234.356 483.862C233.577 483.669 232.864 483.334 232.125 483.024C231.709 482.221 231.323 481.487 230.755 480.779L230.315 480.24C217.905 464.351 209.159 445.577 201.91 426.896C199.584 420.9 197.098 414.873 195.171 408.738Z"/>
	<path fill="#A8DADC" transform="scale(0.666667 0.666667)" d="M234.356 483.862C237.604 482.229 240.54 479.743 243.436 477.555L251.854 471.767L252.433 472.871L251.974 473.291C250.484 474.679 249.33 476.306 247.747 477.622C244.386 480.415 240.563 482.622 237.184 485.438L237.377 485.888L237.594 485.968L236.668 486.919L235.527 486.535C234.717 486.049 234.27 485.62 233.69 484.875L234.356 483.862Z"/>
	<path fill="#1D3557" transform="scale(0.666667 0.666667)" d="M632.356 177.265C641.319 178.859 650.07 178.765 659.138 178.78L687.336 178.783L768 178.878L768 768L505.978 768L472.252 768L430.449 768L310.076 768L306.808 768L305.289 768L60.2322 768L61.5574 717.762L73.9514 717.471C70.3135 705.396 71.6528 693.354 71.6119 680.991C71.5842 672.636 71.0177 664.347 70.1717 656.038C68.5426 640.038 65.5275 624.172 62.2466 608.438L55.4944 575.504C53.847 565.366 53.8592 555.18 53.6107 544.941L52.8516 527.62C52.7522 515.173 54.0804 502.367 56.2355 490.125C59.9629 468.951 70.409 445.03 88.4768 432.381C88.5119 432.929 88.4522 434.82 88.6598 435.235C88.9862 435.888 90.6952 437.29 91.3125 437.816L92.4375 438.594L93.375 439.364L103.688 447.66L122.22 466.075C121.793 464.583 120.854 462.298 121.173 460.818L121.237 460.786C121.775 461.326 121.754 461.665 121.839 462.384C121.955 463.36 122.114 463.743 122.708 464.548L122.943 464.884C124.17 466.574 125.967 467.857 127.487 469.276L133.857 475.688L147.267 491.433L147.881 491.236C148.36 492.227 148.386 493.327 148.688 494.38C149.1 495.817 149.871 497.337 150.594 498.637C152.935 501.504 155.932 506.157 158.849 508.26L166.439 518.213C168.885 521.283 171.978 524.555 173.9 527.957C175.258 530.88 177.179 534.009 179.679 536.102L197.23 555.184L202.306 560.681C203.167 561.597 204.075 562.787 205.204 563.341L205.231 562.776C210.042 554.797 214.43 546.782 218.379 538.335C220.182 534.477 222.145 530.545 223.394 526.472C224.349 523.358 224.813 520.04 225.366 516.835C226.875 511.37 227.878 506.161 228.564 500.54L231.303 502.948L231.458 502.565C232.321 500.29 232.485 497.515 231.472 495.272L231.399 494.551L231.361 492.75C231.564 490.852 235.211 488.279 236.668 486.919L237.594 485.968L237.377 485.888L237.184 485.438C240.563 482.622 244.386 480.415 247.747 477.622C249.33 476.306 250.484 474.679 251.974 473.291L252.433 472.871L251.854 471.767L252.09 471.315C252.572 470.942 253.114 470.303 253.748 470.356C255.187 470.476 256.753 471.539 258 472.245C261.739 474.364 265.381 477.558 269.192 479.324L270.099 478.312L269.995 477.008L271.491 479.761C272.391 479.509 273.216 479.042 274.125 478.822C274.977 478.616 275.917 478.671 276.75 478.442C277.717 478.177 277.771 477.854 278.212 477.03L278.912 476.928L279.107 478.248L337.44 427.792C347.076 435.19 357.97 439.544 369.701 442.318C375.805 443.417 381.713 444.619 387.938 444.995C398.057 445.607 409.119 443.934 418.613 440.288C420.231 438.835 423.604 437.911 425.671 436.896C431.528 434.02 437.616 430.854 442.59 426.583C447.841 422.075 453.839 416.979 458.118 411.54L458.438 411.127L462.257 405.427L463.687 407.843C465.332 408.743 466.434 409.307 468.325 408.902C470.543 405.764 472.958 403.12 475.947 400.702L488.456 403.623C490.579 402.04 491.976 400.671 492.647 398.122L519.774 412.497L519.74 413.062C516.474 414.607 512.463 412.575 509.062 412.633C507.818 412.654 507.294 413.152 506.487 414C506.545 414.424 506.527 414.498 506.754 414.938C507.38 416.152 509.02 417.287 510.188 417.92C512.945 419.415 516.034 420.468 518.949 421.616L534.583 427.702L590.387 449.134C597.666 451.9 605.301 453.996 612.398 457.154C615.062 449.57 616.185 440.582 617.441 432.66L620.565 413.812C621.841 403.961 622.361 393.805 622.606 383.874C623.054 377.494 622.944 370.981 622.913 364.58C622.833 348.175 621.587 331.836 616.851 316.062C621.058 313.97 624.712 312.461 629.458 312.668C628.332 314.107 627.111 315.563 626.236 317.173C625.445 318.629 625.021 319.948 625.501 321.562C627.375 323.389 629.979 323.027 632.46 323.056C635.323 323.409 641.829 323.39 643.935 325.474C645.382 326.906 644.69 329.282 646.5 330.717C650.668 330.661 654.942 329.468 658.941 328.362C659.647 328.166 661.379 327.902 661.926 327.485C663.731 327.41 665.736 327.21 667.469 327.803C670.191 328.734 671.42 332.557 672.575 334.927L694.614 335.039L693.725 326.242L684.084 326.086L682.378 295.153C684.3 295.519 686.445 295.404 688.411 295.438L699.719 295.52C699.16 283.061 700.557 269.933 697.508 257.726C696.709 254.531 695.59 251.493 694.039 248.584C690.073 241.148 684.799 234.214 680.295 227.073L660.648 196.922C658.797 194.272 657.403 191.352 655.291 188.898C652.245 186.056 647.741 184.158 643.942 182.582C641.468 181.557 633.593 179.299 632.356 177.265Z"/>
	<path fill="#457B9D" transform="scale(0.666667 0.666667)" d="M658.514 554.686L659.046 554.844C660.093 555.132 661.46 555.131 662.485 554.77C662.793 555.227 663.077 555.654 663.328 556.145L662.983 557.703C662.307 558.759 661.802 559.544 660.75 560.249L660.389 559.875C660.85 558.732 660.98 557.723 661.099 556.5C660.282 555.637 659.441 555.882 658.283 555.825L658.514 554.686Z"/>
	<path fill="#457B9D" transform="scale(0.666667 0.666667)" d="M653.972 578.293C655.09 577.856 655.385 577.653 655.916 576.562C656.418 575.531 656.741 574.483 657.305 573.466C657.897 575.635 657.753 577.826 657.727 580.055L657.386 581.161L655.5 580.443C654.411 579.876 654.283 579.433 653.972 578.293Z"/>
	<path fill="#4B547B" transform="scale(0.666667 0.666667)" d="M663.038 579.408L663.927 579.078C664.326 580.612 663.316 582.231 662.607 583.549L657.386 581.161L657.727 580.055L660.562 580.235C661.789 580.26 662.137 580.255 663.038 579.408Z"/>
	<path fill="#4B547B" transform="scale(0.666667 0.666667)" d="M655.844 556.545C656.036 556.968 656.357 557.353 656.42 557.813C656.581 558.983 655.264 561.868 656.25 562.62C657.683 562.6 658.908 562.625 660.303 562.969C660.727 563.808 660.799 563.97 660.49 564.928C660.181 565.887 659.462 566.752 658.876 567.562C658.804 569.081 658.809 569.95 659.518 571.312C661.428 571.756 663.545 571.615 665.502 571.649C665.885 572.829 665.444 573.764 665.199 574.963L653.686 571.497L653.244 570.544C652.919 569.945 652.663 569.602 652.907 568.884C653.383 567.485 653.589 567.083 653.499 565.503L653.062 565.564C651.989 567.158 652.299 567.432 652.185 569.252C650.94 569.866 649.11 569.554 647.72 569.52C648.908 567.792 649.069 563.489 650.813 562.362L653.021 563.706L653.723 562.439C654.16 562.199 654.542 561.869 654.938 561.566C654.924 559.685 654.846 558.228 655.844 556.545Z"/>
	<path fill="#1D3557" transform="scale(0.666667 0.666667)" d="M647.72 569.52C648.908 567.792 649.069 563.489 650.813 562.362L653.021 563.706L653.44 564.095C653.988 564.572 654.48 564.839 655.125 565.152C655.722 565.022 656.065 564.911 656.625 564.629L658.4 565.688L658.337 566.334L658.122 570.539L653.244 570.544C652.919 569.945 652.663 569.602 652.907 568.884C653.383 567.485 653.589 567.083 653.499 565.503L653.062 565.564C651.989 567.158 652.299 567.432 652.185 569.252C650.94 569.866 649.11 569.554 647.72 569.52Z"/>
	<path fill="#903259" transform="scale(0.666667 0.666667)" d="M647.72 569.52C649.11 569.554 650.94 569.866 652.185 569.252C652.299 567.432 651.989 567.158 653.062 565.564L653.499 565.503C653.589 567.083 653.383 567.485 652.907 568.884C652.663 569.602 652.919 569.945 653.244 570.544L653.686 571.497L652.312 571.782C651.344 573.39 651.206 574.909 651.089 576.75C651.543 577.464 651.791 577.883 652.561 578.265C651.81 578.765 649.821 579.897 649.37 580.589C648.869 581.358 648.591 583.967 648.36 584.962C650.304 585.059 652.525 585.371 654.375 584.646L654.69 585.188C654.325 586.475 653.895 587.687 653.978 589.042L653.056 589.631C652.813 589.173 652.55 588.678 652.186 588.302C651.101 587.178 649.578 586.443 648.024 586.497L648.295 585.432L647.666 585.339C646.282 585.62 645.334 585.641 643.957 585.319L642.944 584.946C642.543 582.964 644.497 579.202 645.221 577.157C645.749 574.969 646.628 572.737 647.531 570.679L647.72 569.52Z"/>
	<path fill="#1D3557" transform="scale(0.666667 0.666667)" d="M647.531 570.679C648.732 570.983 649.999 571.128 650.88 572.062L649.908 576.953L649.334 576.879C647.925 576.711 646.965 576.528 645.671 577.245C646.183 578.145 646.414 578.65 647.438 579.063C647.751 579.189 648.222 579.235 648.562 579.281C648.631 580.209 648.48 580.53 648.148 581.366C647.73 582.417 647.359 584.236 647.666 585.339C646.282 585.62 645.334 585.641 643.957 585.319L642.944 584.946C642.543 582.964 644.497 579.202 645.221 577.157C645.749 574.969 646.628 572.737 647.531 570.679Z"/>
	<path fill="#F1FAEE" transform="scale(0.666667 0.666667)" d="M637.994 375.439L695.324 375.731L696.052 383.886L639.408 383.541C638.548 380.904 638.313 378.181 637.994 375.439Z"/>
	<path fill="#F1FAEE" transform="scale(0.666667 0.666667)" d="M636.466 342.891L694.689 343.201L696.179 351.089L636.725 351.066C636.353 348.317 636.39 345.66 636.466 342.891Z"/>
	<path fill="#F1FAEE" transform="scale(0.666667 0.666667)" d="M637.379 358.869L694.369 359.186C695.821 361.534 695.81 365.113 696.095 367.831L637.945 367.83C637.99 364.785 637.758 361.89 637.379 358.869Z"/>
	<path fill="#F1FAEE" transform="scale(0.666667 0.666667)" d="M472.55 632.889C473.474 633.151 475.845 632.212 476.855 631.928L505.978 768L472.252 768L472.55 632.889Z"/>
	<path fill="#1D3557" transform="scale(0.666667 0.666667)" d="M429.746 641.823L472.55 632.889L472.252 768L430.449 768L429.746 641.823Z"/>
	<path fill="#E63946" transform="scale(0.666667 0.666667)" d="M622.606 383.874C627.684 383.911 633.265 383.534 638.282 384.23L639.515 392.23L677.335 392.405C682.553 392.398 688.139 391.978 693.316 392.571C693.94 397.963 693.719 403.479 693.711 408.902L693.698 432.525L693.713 445.698C693.733 448.731 693.961 451.962 693.487 454.966C693.056 457.701 691.719 460.263 690.594 462.768L685.253 474.7L673.199 502.803L666.163 519.318C664.915 522.335 664.035 525.985 662.022 528.562L662.237 529.054C662.472 529.649 662.512 529.999 662.51 530.623L662.192 530.884C659.776 532.99 659.917 537.003 658.439 539.819C658.039 540.582 657.921 541.221 657.789 542.062L658.312 542.718L660.774 542.812L661.38 543.562L661.137 544.987C659.825 544.723 658.387 544.144 657.157 544.688C656.581 545.878 656.239 546.345 656.306 547.688C657.361 547.889 658.067 547.661 659.062 547.364C659.763 548.27 659.577 548.564 659.521 549.677L658.5 550.497C657.316 550.344 656.65 549.904 655.688 549.262C654.543 550.116 654.472 551.047 654.01 552.375C654.342 553.573 654.854 553.637 655.875 554.292C656.726 554.149 656.895 554.109 657.562 553.572C657.985 553.956 658.21 554.189 658.514 554.686L658.283 555.825C657.461 555.968 656.661 556.136 655.825 556.158C655.061 555.656 654.228 555.362 653.438 554.904C652.207 555.865 651.625 559.056 651.42 560.57L653.723 562.439L653.021 563.706L650.813 562.362C649.069 563.489 648.908 567.792 647.72 569.52L647.531 570.679C646.628 572.737 645.749 574.969 645.221 577.157C644.497 579.202 642.543 582.964 642.944 584.946L643.957 585.319C645.334 585.641 646.282 585.62 647.666 585.339L648.295 585.432L648.024 586.497C647.032 588.393 646.383 590.154 646.329 592.312C646.775 592.862 646.888 593.046 647.564 593.321L648.982 593.325C650.614 593.261 651.101 592.556 652.136 591.431L652.636 591.668C651.758 593.437 651.016 595.471 651.597 597.455C651.935 598.611 653.024 599.096 654.039 599.557L657.89 601.27C655.652 600.994 652.302 600.055 650.189 600.723C649.523 601.343 649.056 601.72 648.662 602.564L648.63 602.967C648.484 605.725 650.361 608.543 651.566 610.965C649.443 610.894 646.32 611.178 644.382 610.442C645.277 609.865 646.045 609.142 646.84 608.438C647.259 607.183 647.118 606.865 646.844 605.609C645.644 604.352 645.326 603.915 643.688 603.432C642.327 603.703 641.334 604.696 640.544 605.812C640.01 606.568 639.903 608.119 640.215 609L640.491 609.61C641.372 610.741 642.126 611.749 642.708 613.064L641.564 613.551L640.186 613.023C638.449 613.044 637.326 613.082 635.812 613.952L634.247 614.858L633.544 619.96L629.489 614.998C627.827 614.489 626.046 615.492 624.562 616.233C619.545 618.737 614.837 622.184 610.085 625.158L586.855 639.556C580.271 643.746 573.759 648.817 566.529 651.853C564.143 652.855 561.515 653.762 558.896 653.627C554.901 653.421 550.826 651.321 548.125 648.445C543.571 643.597 540.873 636.478 538.122 630.505L521.979 592.5C519.811 587.33 516.995 582.039 515.374 576.685C514.93 575.218 514.989 573.733 515.032 572.219L510.082 556.682L499.162 562.001L450.942 581.261L444.92 559.698L437.151 532.105L419.712 454.305L419.822 448.946C420.144 446.184 419.311 442.963 418.613 440.288C420.231 438.835 423.604 437.911 425.671 436.896C431.528 434.02 437.616 430.854 442.59 426.583C447.841 422.075 453.839 416.979 458.118 411.54L458.438 411.127L462.257 405.427L463.687 407.843C465.332 408.743 466.434 409.307 468.325 408.902C470.543 405.764 472.958 403.12 475.947 400.702L488.456 403.623C490.579 402.04 491.976 400.671 492.647 398.122L519.774 412.497L519.74 413.062C516.474 414.607 512.463 412.575 509.062 412.633C507.818 412.654 507.294 413.152 506.487 414C506.545 414.424 506.527 414.498 506.754 414.938C507.38 416.152 509.02 417.287 510.188 417.92C512.945 419.415 516.034 420.468 518.949 421.616L534.583 427.702L590.387 449.134C597.666 451.9 605.301 453.996 612.398 457.154C615.062 449.57 616.185 440.582 617.441 432.66L620.565 413.812C621.841 403.961 622.361 393.805 622.606 383.874Z"/>
	<path fill="#1D3557" transform="scale(0.666667 0.666667)" d="M641.212 593.549L639.802 592.482C639.341 590.856 640.946 588.377 641.704 586.932L642.842 586.742C643.678 587.237 644.535 587.454 644.744 588.494C645.008 589.81 644.426 591.681 643.916 592.908C643.02 593.258 642.155 593.399 641.212 593.549Z"/>
	<path fill="#1D3557" transform="scale(0.666667 0.666667)" d="M643.83 599.311C643.801 598.075 644.044 596.899 644.256 595.688C645.406 594.582 646.392 594.8 647.916 594.695C649.245 596.01 649.967 597.115 650.607 598.875L650.174 599.551C648.933 599.866 647.635 600.256 646.348 600.273C644.969 600.291 644.839 600.241 643.83 599.311Z"/>
	<path fill="#1D3557" transform="scale(0.666667 0.666667)" d="M641.706 600.811C640.812 601.875 639.824 602.826 638.352 602.901C637.227 602.958 637.018 602.92 636.188 602.194C636.331 600.129 637.116 597.282 638.313 595.587C639.291 595.586 640.223 595.715 641.189 595.849C642.271 597.138 641.759 599.145 641.706 600.811Z"/>
	<path fill="#1D3557" transform="scale(0.666667 0.666667)" d="M632.152 613.565L632.062 613.163L631.952 612.572C631.87 612.159 631.786 611.924 631.778 611.528C631.737 609.446 633.257 606.301 634.688 604.809C635.152 604.95 635.357 604.988 635.812 605.257C636.332 605.565 637.29 606.383 637.426 606.981C637.775 608.518 637.521 610.177 636.74 611.53L636.178 612.42C634.799 613.153 633.557 613.061 632.152 613.565Z"/>
	<path fill="#903259" transform="scale(0.666667 0.666667)" d="M473.602 416.713C473.963 416.011 474.163 415.588 474.75 415.044L489.035 418.154C490.182 418.404 492.766 418.673 493.688 419.256C493.946 419.419 494.044 419.752 494.223 420C493.939 421.129 493.733 421.843 492.938 422.747C490.059 423.209 487.954 420.211 484.403 421.212L473.602 416.713Z"/>
	<path fill="#1D3557" transform="scale(0.666667 0.666667)" d="M597.524 461.534C600.243 460.964 607.316 463.928 609.89 465.168L602.92 478.245C602.606 477.996 601.771 477.494 601.586 477.188C600.612 475.577 600.375 472.062 599.932 470.169L597.524 461.534Z"/>
	<defs>
		<linearGradient id="gradient_2" gradientUnits="userSpaceOnUse" x1="466.41986" y1="455.98938" x2="439.05923" y2="423.75446">
			<stop offset="0" stop-color="#6E5578"/>
			<stop offset="1" stop-color="#126DA6"/>
		</linearGradient>
	</defs>
	<path fill="url(#gradient_2)" transform="scale(0.666667 0.666667)" d="M462.257 405.427L463.687 407.843C465.332 408.743 466.434 409.307 468.325 408.902C467.232 410.662 467.052 411.398 467.521 413.458L467.756 414.416C466.043 417.979 463.812 420.529 461.612 423.72L465.823 429.359C464.977 435.875 460.492 439.829 464.915 446.305C466.304 448.338 468.017 450.038 469.674 451.854C470.191 452.421 470.909 453.466 471.522 453.833C474.983 458.327 479.975 461.814 482.824 466.694C477.91 464.502 473.645 459.028 469.962 455.159C463.218 448.073 455.855 440.965 450.49 432.743C449.546 431.296 448.945 429.58 448.323 427.974C445.953 430.095 444.081 433.058 442.117 435.567C440.999 436.996 439.637 438.209 438.731 439.789L438.575 440.197C438.357 441.003 438.565 441.709 438.736 442.5C437.84 443.849 436.156 444.165 434.669 444.762C430.849 446.294 426.812 447.885 422.754 448.66L419.822 448.946C420.144 446.184 419.311 442.963 418.613 440.288C420.231 438.835 423.604 437.911 425.671 436.896C431.528 434.02 437.616 430.854 442.59 426.583C447.841 422.075 453.839 416.979 458.118 411.54L458.438 411.127L462.257 405.427Z"/>
	<path fill="#F1FAEE" transform="scale(0.666667 0.666667)" d="M467.756 414.416L473.602 416.713L484.403 421.212L535.671 439.929L559.077 447.61C560.765 448.147 566.638 449.633 567.595 450.982C571.749 453.29 576.717 454.692 581.184 456.289C586.385 458.148 592.092 460.632 597.524 461.534L599.932 470.169C600.375 472.062 600.612 475.577 601.586 477.188C601.771 477.494 602.606 477.996 602.92 478.245L602.981 478.74C600.508 485.449 595.746 491.221 591.637 497.002C587.164 503.293 582.864 509.896 577.238 515.228L555.974 515.294C550.409 515.269 544.082 515.647 538.688 514.055C536.039 513.273 533.895 511.991 531.911 510.079C526.35 504.722 521.923 497.654 517.292 491.487L490.265 458.446C487.444 455.201 484.644 451.253 481.448 448.414L481.026 448.047C479.569 445.792 477.607 443.68 475.908 441.598L465.823 429.359L461.612 423.72C463.812 420.529 466.043 417.979 467.756 414.416Z"/>
	<path fill="#A8DADC" transform="scale(0.666667 0.666667)" d="M564.815 456.824C569.381 458.43 572.963 461.688 576.719 464.663C578.162 465.806 580.138 467.057 581.186 468.541L567.668 487.989C564.968 491.559 562.2 495.366 558.81 498.319C554.143 496.81 548.433 495.378 544.113 493.161L564.815 456.824Z"/>
	<path fill="#1D3557" transform="scale(0.666667 0.666667)" d="M535.671 439.929L559.077 447.61C560.765 448.147 566.638 449.633 567.595 450.982L564.815 456.824L544.113 493.161C543.736 493.737 543.389 493.995 542.812 494.367C542.245 494.118 541.812 493.835 541.319 493.455C537.407 490.437 533.876 486.596 530.34 483.141C527.057 479.932 523.426 476.767 520.481 473.262C519.766 472.41 519.214 471.558 519.075 470.438L519.562 470.1C520.878 469.206 524.98 462.331 525.285 460.732C525.53 459.451 526.983 457.72 527.619 456.457L535.671 439.929Z"/>
	<path fill="#F1FAEE" transform="scale(0.666667 0.666667)" d="M438.731 439.789C441.477 441.272 443.357 444.696 445.575 446.926C448.138 449.502 450.971 451.91 453.745 454.261L482.044 477.138C491.798 484.891 501.862 492.339 510.598 501.263C515.761 506.538 520.354 511.688 522.525 518.895C527.775 536.324 523.79 556.059 515.277 571.776L515.032 572.219L510.082 556.682L499.162 562.001L450.942 581.261L444.92 559.698L437.151 532.105L419.712 454.305L419.822 448.946L422.754 448.66C426.812 447.885 430.849 446.294 434.669 444.762C436.156 444.165 437.84 443.849 438.736 442.5C438.565 441.709 438.357 441.003 438.575 440.197L438.731 439.789Z"/>
	<path fill="#1D3557" transform="scale(0.666667 0.666667)" d="M441.39 527.659L438.781 519.291C447.978 516.496 456.847 511.539 465.159 506.812L480.647 497.858L486.895 503.968L486.505 504.179C479.766 507.886 473.522 512.682 466.923 516.677C459.182 521.362 450.61 524.813 442.138 527.939L441.39 527.659Z"/>
	<path fill="#A8DADC" transform="scale(0.666667 0.666667)" d="M486.895 503.968C492.302 509.408 500.067 513.369 502.509 521.062L502.705 521.653C503.363 523.696 504.419 529 503.61 531.051C502.698 533.363 496.634 536.153 494.522 537.354C485.582 542.438 476.582 547.629 467.194 551.841L452.653 557.52C450.762 558.166 448.758 559.057 446.812 559.491C446.162 559.636 445.584 559.673 444.92 559.698L437.151 532.105L437.686 531.791L439.02 530.99C440.239 530.155 441.113 529.116 441.39 527.659L442.138 527.939C450.61 524.813 459.182 521.362 466.923 516.677C473.522 512.682 479.766 507.886 486.505 504.179L486.895 503.968Z"/>
	<path fill="#F1FAEE" transform="scale(0.666667 0.666667)" d="M337.44 427.792C347.076 435.19 357.97 439.544 369.701 442.318C375.805 443.417 381.713 444.619 387.938 444.995C398.057 445.607 409.119 443.934 418.613 440.288C419.311 442.963 420.144 446.184 419.822 448.946L419.712 454.305L437.151 532.105L444.92 559.698L450.942 581.261L499.162 562.001C501.416 562.7 502.761 563.374 503.915 565.512L521.946 611.068L496.04 622.904L481.622 629.437C480.183 630.11 477.904 630.778 476.855 631.928C475.845 632.212 473.474 633.151 472.55 632.889L429.746 641.823L430.449 768L310.076 768L306.808 768L305.289 768L60.2322 768L61.5574 717.762L73.9514 717.471C70.3135 705.396 71.6528 693.354 71.6119 680.991C71.5842 672.636 71.0177 664.347 70.1717 656.038C68.5426 640.038 65.5275 624.172 62.2466 608.438L55.4944 575.504C53.847 565.366 53.8592 555.18 53.6107 544.941L52.8516 527.62C52.7522 515.173 54.0804 502.367 56.2355 490.125C59.9629 468.951 70.409 445.03 88.4768 432.381C88.5119 432.929 88.4522 434.82 88.6598 435.235C88.9862 435.888 90.6952 437.29 91.3125 437.816L92.4375 438.594L93.375 439.364L103.688 447.66L122.22 466.075C121.793 464.583 120.854 462.298 121.173 460.818L121.237 460.786C121.775 461.326 121.754 461.665 121.839 462.384C121.955 463.36 122.114 463.743 122.708 464.548L122.943 464.884C124.17 466.574 125.967 467.857 127.487 469.276L133.857 475.688L147.267 491.433L147.881 491.236C148.36 492.227 148.386 493.327 148.688 494.38C149.1 495.817 149.871 497.337 150.594 498.637C152.935 501.504 155.932 506.157 158.849 508.26L166.439 518.213C168.885 521.283 171.978 524.555 173.9 527.957C175.258 530.88 177.179 534.009 179.679 536.102L197.23 555.184L202.306 560.681C203.167 561.597 204.075 562.787 205.204 563.341L205.231 562.776C210.042 554.797 214.43 546.782 218.379 538.335C220.182 534.477 222.145 530.545 223.394 526.472C224.349 523.358 224.813 520.04 225.366 516.835C226.875 511.37 227.878 506.161 228.564 500.54L231.303 502.948L231.458 502.565C232.321 500.29 232.485 497.515 231.472 495.272L231.399 494.551L231.361 492.75C231.564 490.852 235.211 488.279 236.668 486.919L237.594 485.968L237.377 485.888L237.184 485.438C240.563 482.622 244.386 480.415 247.747 477.622C249.33 476.306 250.484 474.679 251.974 473.291L252.433 472.871L251.854 471.767L252.09 471.315C252.572 470.942 253.114 470.303 253.748 470.356C255.187 470.476 256.753 471.539 258 472.245C261.739 474.364 265.381 477.558 269.192 479.324L270.099 478.312L269.995 477.008L271.491 479.761C272.391 479.509 273.216 479.042 274.125 478.822C274.977 478.616 275.917 478.671 276.75 478.442C277.717 478.177 277.771 477.854 278.212 477.03L278.912 476.928L279.107 478.248L337.44 427.792Z"/>
	<path fill="#1D3557" transform="scale(0.666667 0.666667)" d="M142.262 694.208C144.601 690.844 146.591 687.238 148.752 683.757L162.538 661.026C170.59 647.475 179.624 633.733 185.67 619.151C192.989 623.733 201.194 627.435 209.024 631.07C218.731 635.577 228.566 640.127 238.71 643.569L238.447 643.955C236.215 647.328 234.695 651.31 233.049 655.002L224.778 673.54L197.201 732.481L272.526 732.293L295.174 732.243C298.212 732.233 301.62 731.834 304.619 732.207C306.187 732.402 307.289 732.843 308.374 734.007C309.473 735.186 309.883 737.136 310.068 738.699C310.437 741.8 310.144 745.304 310.132 748.446L310.076 768L306.808 768L305.289 768L60.2322 768L61.5574 717.762L73.9514 717.471L114.191 716.716L123.83 716.656C125.658 716.652 127.645 716.836 129.414 716.342C130.187 714.798 130.401 712.864 130.835 711.188C131.865 707.209 133.355 703.528 135.747 700.171L135.831 700.188L142.262 694.208Z"/>
	<path fill="#F1FAEE" transform="scale(0.666667 0.666667)" d="M305.289 768C305.292 759.38 304.519 749.721 305.867 741.251C307.011 744.619 306.718 748.491 306.748 752.014L306.808 768L305.289 768Z"/>
	<path fill="#A8DADC" transform="scale(0.666667 0.666667)" d="M73.9514 717.471C70.3135 705.396 71.6528 693.354 71.6119 680.991C71.5842 672.636 71.0177 664.347 70.1717 656.038C68.5426 640.038 65.5275 624.172 62.2466 608.438L55.4944 575.504C53.847 565.366 53.8592 555.18 53.6107 544.941L52.8516 527.62C52.7522 515.173 54.0804 502.367 56.2355 490.125C59.9629 468.951 70.409 445.03 88.4768 432.381C88.5119 432.929 88.4522 434.82 88.6598 435.235C88.9862 435.888 90.6952 437.29 91.3125 437.816L92.4375 438.594L93.375 439.364L103.688 447.66L122.22 466.075C121.793 464.583 120.854 462.298 121.173 460.818L121.237 460.786C121.775 461.326 121.754 461.665 121.839 462.384C121.955 463.36 122.114 463.743 122.708 464.548L122.943 464.884C124.17 466.574 125.967 467.857 127.487 469.276L133.857 475.688L147.267 491.433L147.881 491.236C148.36 492.227 148.386 493.327 148.688 494.38C149.1 495.817 149.871 497.337 150.594 498.637C149.264 501.689 148.603 504.93 147.72 508.125C144.103 521.204 142.262 534.68 140.504 548.117L152.854 562.811L168.162 581.295C175.906 590.687 182.65 601.316 192.012 609.188L191.625 609.309C188.572 607.013 185.438 604.627 182.076 602.799C177.484 600.303 172.429 598.427 167.996 595.677C158.591 589.841 151.951 581.526 144.867 573.226C140.308 567.884 135.773 562.766 131.992 556.822L125.918 561.81L132.777 615.375L138.615 660.749L141.19 682.351L141.774 690.199C141.811 691.347 141.571 693.294 142.262 694.208L135.831 700.188L135.747 700.171C133.355 703.528 131.865 707.209 130.835 711.188C130.401 712.864 130.187 714.798 129.414 716.342C127.645 716.836 125.658 716.652 123.83 716.656L114.191 716.716L73.9514 717.471Z"/>
	<path fill="#F1FAEE" transform="scale(0.666667 0.666667)" d="M129.414 716.342L118.387 716.29C122.452 711.839 126.451 707.074 130.872 702.986C131.652 702.264 133.354 700.579 134.305 700.312C134.77 700.182 135.266 700.218 135.747 700.171C133.355 703.528 131.865 707.209 130.835 711.188C130.401 712.864 130.187 714.798 129.414 716.342Z"/>
	<path fill="#E63946" transform="scale(0.666667 0.666667)" d="M337.44 427.792C347.076 435.19 357.97 439.544 369.701 442.318C375.805 443.417 381.713 444.619 387.938 444.995C398.057 445.607 409.119 443.934 418.613 440.288C419.311 442.963 420.144 446.184 419.822 448.946L419.712 454.305L437.151 532.105L444.92 559.698L450.942 581.261L499.162 562.001C501.416 562.7 502.761 563.374 503.915 565.512L521.946 611.068L496.04 622.904L481.622 629.437C480.183 630.11 477.904 630.778 476.855 631.928C475.845 632.212 473.474 633.151 472.55 632.889L429.746 641.823C421.936 643.332 413.631 643.517 405.698 643.945C392.811 644.64 380.21 644.117 367.359 643.037C356.563 642.129 345.641 641.115 334.996 639.059C312.344 634.685 290.399 626.572 269.348 617.266L268.364 617.789C268.172 618.365 267.208 619.161 266.79 619.61L262.564 624.089C257.397 629.497 252.623 634.539 248.45 640.791C242.619 637.249 235.903 635.028 229.618 632.392L196.508 619.198C197.29 617.758 198.119 616.479 198.258 614.812C197.648 614.179 197.141 613.543 196.631 612.826C197.389 613.004 197.696 613.09 198.478 612.938C198.748 612.42 198.943 611.929 199.095 611.364C200.772 605.112 208.044 566.764 206.129 563.457L205.204 563.341L205.231 562.776C210.042 554.797 214.43 546.782 218.379 538.335C220.182 534.477 222.145 530.545 223.394 526.472C224.349 523.358 224.813 520.04 225.366 516.835C226.875 511.37 227.878 506.161 228.564 500.54L231.303 502.948L231.458 502.565C232.321 500.29 232.485 497.515 231.472 495.272L231.399 494.551L231.361 492.75C231.564 490.852 235.211 488.279 236.668 486.919L237.594 485.968L237.377 485.888L237.184 485.438C240.563 482.622 244.386 480.415 247.747 477.622C249.33 476.306 250.484 474.679 251.974 473.291L252.433 472.871L251.854 471.767L252.09 471.315C252.572 470.942 253.114 470.303 253.748 470.356C255.187 470.476 256.753 471.539 258 472.245C261.739 474.364 265.381 477.558 269.192 479.324L270.099 478.312L269.995 477.008L271.491 479.761C272.391 479.509 273.216 479.042 274.125 478.822C274.977 478.616 275.917 478.671 276.75 478.442C277.717 478.177 277.771 477.854 278.212 477.03L278.912 476.928L279.107 478.248L337.44 427.792Z"/>
	<path fill="#1D3557" transform="scale(0.666667 0.666667)" d="M293.994 573.391C293.421 576.429 290.715 579.76 289.162 582.509C285.657 588.712 281.918 594.92 278.927 601.386C281.749 602.399 284.707 602.879 287.645 603.435C283.892 607.178 279.475 609.786 275.142 612.786C273.253 614.094 270.891 615.592 269.348 617.266L268.364 617.789L277.504 602.721L288.736 581.625C290.115 579.156 291.675 575.03 293.994 573.391Z"/>
	<path fill="#F1FAEE" transform="scale(0.666667 0.666667)" d="M354.969 570.222C371.201 573.601 387.849 573.197 404.265 571.446L421.558 569.372L425.456 586.699C421.989 587.344 418.391 587.452 414.882 587.777C396.783 589.452 378.253 588.953 360.13 587.836C357.028 587.644 352.699 587.901 349.812 586.842L351.98 579.991L352.953 576.255L353.783 573.97L354.969 570.222Z"/>
	<path fill="#F1FAEE" transform="scale(0.666667 0.666667)" d="M369.701 442.318C375.805 443.417 381.713 444.619 387.938 444.995C398.057 445.607 409.119 443.934 418.613 440.288C419.311 442.963 420.144 446.184 419.822 448.946L419.712 454.305L437.151 532.105L444.92 559.698L450.942 581.261L425.456 586.699L421.558 569.372L404.265 571.446C387.849 573.197 371.201 573.601 354.969 570.222L353.783 573.97L352.953 576.255L351.98 579.991L349.812 586.842C345.607 585.687 341.207 585.154 336.938 584.266C331.916 583.222 325.847 581.061 320.75 581.437C321.663 574.667 324.487 567.798 326.5 561.267L331.215 547.314C331.974 544.817 332.561 541.662 333.786 539.382C334.326 538.377 335.288 537.498 336.098 536.715C335.878 535.271 335.948 533.732 335.922 532.272L337.314 526.018C337.491 525.885 337.45 525.596 337.508 525.382L342.056 507.235L348.487 484.395C351.462 473.98 354.387 462.599 359.925 453.267C362.905 451.314 366.227 450.053 369.587 448.927L369.701 442.318Z"/>
	<path fill="#457B9D" transform="scale(0.666667 0.666667)" d="M362.051 493.198C365.757 486.663 367.176 478.606 369.192 471.407C370.697 466.032 372.561 460.753 373.442 455.229C376.944 455.926 380.445 456.205 384 456.456C386.317 456.619 389.112 456.398 391.134 457.586L375.181 515.438C373.919 518.855 372.75 522.552 371.103 525.796L363.491 548.703L359.44 558.64C358.888 559.96 358.403 561.548 357.564 562.704C356.249 561.847 355.163 560.81 354.021 559.744C354.66 558.826 356.803 558.301 357.781 557.5L358.219 557.124C358.915 555.616 359.438 554.45 359.062 552.762L358.182 552.246C357.097 551.104 360.582 548.844 361.028 547.443C361.448 546.121 360.088 545.362 360.114 543.938C362.113 542.512 363.542 541.414 364.407 539.062C363.914 537.498 363.411 538.188 362.761 537.039C364.49 535.556 365.137 533.377 366.107 531.36L366.339 530.915C367.591 528.664 367.549 527.041 367.511 524.519L370.719 520.77L372.311 518.438C370.726 514.358 367.835 510.994 366.437 506.695L366.276 506.185C365.251 504.125 364.194 502.211 363.473 500.014L363.247 499.312C362.559 497.22 362.244 495.374 362.051 493.198Z"/>
	<path fill="#A8DADC" transform="scale(0.666667 0.666667)" d="M402.35 505.279C403.369 506.347 403.61 506.363 404.982 506.709L421.558 569.372L404.265 571.446C387.849 573.197 371.201 573.601 354.969 570.222C355.103 569.191 355.563 568 355.843 566.986L357.564 562.704C358.403 561.548 358.888 559.96 359.44 558.64L363.491 548.703C364.073 548.92 364.024 548.962 364.523 548.993C366.951 549.146 369.66 548.656 372.09 548.411L386.126 547.035L392.394 546.431C392.837 546.379 394.067 546.379 394.436 546.188C394.7 546.051 394.865 545.778 395.079 545.573C394.757 545.064 394.488 544.744 394.034 544.331L393.583 543.938L394.125 543.441C395.646 543.908 395.593 543.991 396.409 545.25C397.557 545.631 397.988 545.369 399.136 545.062L399.188 542.615L399.938 542.415C400.922 543.885 400.136 543.266 400.107 544.688C402.726 545.065 405.84 544.108 408.415 543.601L403.737 519.207C403.351 517.133 403.485 514.362 402.829 512.438C402.708 512.081 402.594 511.986 402.375 511.733C401.689 512.117 401.284 512.181 400.5 512.198L400.091 511.5C401.177 510.246 401.189 511.485 402.585 511.111L402.35 505.279Z"/>
	<path fill="#1D3557" transform="scale(0.666667 0.666667)" d="M362.051 493.198C362.244 495.374 362.559 497.22 363.247 499.312L363.473 500.014C364.194 502.211 365.251 504.125 366.276 506.185L366.437 506.695C367.835 510.994 370.726 514.358 372.311 518.438L370.719 520.77L367.511 524.519C367.549 527.041 367.591 528.664 366.339 530.915L366.107 531.36C365.137 533.377 364.49 535.556 362.761 537.039C363.411 538.188 363.914 537.498 364.407 539.062C363.542 541.414 362.113 542.512 360.114 543.938C360.088 545.362 361.448 546.121 361.028 547.443C360.582 548.844 357.097 551.104 358.182 552.246L359.062 552.762C359.438 554.45 358.915 555.616 358.219 557.124L357.781 557.5C356.803 558.301 354.66 558.826 354.021 559.744C355.163 560.81 356.249 561.847 357.564 562.704L355.843 566.986C355.563 568 355.103 569.191 354.969 570.222L353.783 573.97L352.953 576.255L351.98 579.991L349.812 586.842C345.607 585.687 341.207 585.154 336.938 584.266C331.916 583.222 325.847 581.061 320.75 581.437C321.663 574.667 324.487 567.798 326.5 561.267L331.215 547.314C331.974 544.817 332.561 541.662 333.786 539.382C334.326 538.377 335.288 537.498 336.098 536.715C339.332 533.442 342.726 530.155 345.383 526.387C352.492 516.306 355.751 503.827 362.051 493.198Z"/>
	<path fill="#457B9D" transform="scale(0.666667 0.666667)" d="M351.98 579.991C350.213 579.436 348.498 578.369 346.851 577.52L352.953 576.255L351.98 579.991Z"/>
	<path fill="#E63946" transform="scale(0.666667 0.666667)" d="M369.701 442.318C375.805 443.417 381.713 444.619 387.938 444.995C398.057 445.607 409.119 443.934 418.613 440.288C419.311 442.963 420.144 446.184 419.822 448.946L419.712 454.305C415.484 455.545 411.628 456.272 407.211 456.381C407.885 463.417 408.481 470.496 409.735 477.457L415.055 501L408.292 493.103C406.588 491.015 404.96 488.636 402.685 487.139L401.641 484.066C400.384 479.87 398.812 473.541 395.567 470.476L393.87 463.062C393.345 461.239 392.813 458.509 391.134 457.586C389.112 456.398 386.317 456.619 384 456.456C380.445 456.205 376.944 455.926 373.442 455.229C372.561 460.753 370.697 466.032 369.192 471.407C367.176 478.606 365.757 486.663 362.051 493.198C355.751 503.827 352.492 516.306 345.383 526.387C342.726 530.155 339.332 533.442 336.098 536.715C335.878 535.271 335.948 533.732 335.922 532.272L337.314 526.018C337.491 525.885 337.45 525.596 337.508 525.382L342.056 507.235L348.487 484.395C351.462 473.98 354.387 462.599 359.925 453.267C362.905 451.314 366.227 450.053 369.587 448.927L369.701 442.318Z"/>
	<path fill="#1D3557" transform="scale(0.666667 0.666667)" d="M419.712 454.305L437.151 532.105L444.92 559.698L450.942 581.261L425.456 586.699L421.558 569.372L404.982 506.709C403.61 506.363 403.369 506.347 402.35 505.279C401.433 498.622 399.037 492.262 398.473 485.524C396.905 480.819 396.28 475.384 395.567 470.476C398.812 473.541 400.384 479.87 401.641 484.066L402.685 487.139C404.96 488.636 406.588 491.015 408.292 493.103L415.055 501L409.735 477.457C408.481 470.496 407.885 463.417 407.211 456.381C411.628 456.272 415.484 455.545 419.712 454.305Z"/>
	<path fill="#457B9D" transform="scale(0.666667 0.666667)" d="M398.473 485.524C399.794 486.415 400 486.627 400.678 488.065L404.982 506.709C403.61 506.363 403.369 506.347 402.35 505.279C401.433 498.622 399.037 492.262 398.473 485.524Z"/>
	<path fill="#F1FAEE" transform="scale(0.666667 0.666667)" d="M337.44 427.792C347.076 435.19 357.97 439.544 369.701 442.318L369.587 448.927C366.227 450.053 362.905 451.314 359.925 453.267C354.387 462.599 351.462 473.98 348.487 484.395L342.056 507.235L337.508 525.382C337.45 525.596 337.491 525.885 337.314 526.018L335.922 532.272C335.948 533.732 335.878 535.271 336.098 536.715C335.288 537.498 334.326 538.377 333.786 539.382C332.561 541.662 331.974 544.817 331.215 547.314L326.5 561.267C324.487 567.798 321.663 574.667 320.75 581.437C317.09 582.836 298.314 574.87 293.994 573.391C291.675 575.03 290.115 579.156 288.736 581.625L277.504 602.721L268.364 617.789C268.172 618.365 267.208 619.161 266.79 619.61L262.564 624.089C257.397 629.497 252.623 634.539 248.45 640.791C242.619 637.249 235.903 635.028 229.618 632.392L196.508 619.198C197.29 617.758 198.119 616.479 198.258 614.812C197.648 614.179 197.141 613.543 196.631 612.826C197.389 613.004 197.696 613.09 198.478 612.938C198.748 612.42 198.943 611.929 199.095 611.364C200.772 605.112 208.044 566.764 206.129 563.457L205.204 563.341L205.231 562.776C210.042 554.797 214.43 546.782 218.379 538.335C220.182 534.477 222.145 530.545 223.394 526.472C224.349 523.358 224.813 520.04 225.366 516.835C226.875 511.37 227.878 506.161 228.564 500.54L231.303 502.948L231.458 502.565C232.321 500.29 232.485 497.515 231.472 495.272L231.399 494.551L231.361 492.75C231.564 490.852 235.211 488.279 236.668 486.919L237.594 485.968L237.377 485.888L237.184 485.438C240.563 482.622 244.386 480.415 247.747 477.622C249.33 476.306 250.484 474.679 251.974 473.291L252.433 472.871L251.854 471.767L252.09 471.315C252.572 470.942 253.114 470.303 253.748 470.356C255.187 470.476 256.753 471.539 258 472.245C261.739 474.364 265.381 477.558 269.192 479.324L270.099 478.312L269.995 477.008L271.491 479.761C272.391 479.509 273.216 479.042 274.125 478.822C274.977 478.616 275.917 478.671 276.75 478.442C277.717 478.177 277.771 477.854 278.212 477.03L278.912 476.928L279.107 478.248L337.44 427.792Z"/>
	<path fill="#A8DADC" transform="scale(0.666667 0.666667)" d="M303.635 518.818L325.125 527.999C328.728 529.481 332.159 531.212 335.922 532.272C335.948 533.732 335.878 535.271 336.098 536.715C335.288 537.498 334.326 538.377 333.786 539.382C332.561 541.662 331.974 544.817 331.215 547.314L326.5 561.267C326.032 559.91 321.752 558.928 320.331 558.353L299.444 549.539C297.417 548.596 294.106 547.327 292.656 545.591C291.983 544.786 292.083 543.469 292.119 542.438C292.168 541.04 292.315 538.717 292.916 537.494C294.315 534.648 298.473 532.716 300.333 529.816C302.35 526.67 303.243 522.477 303.635 518.818Z"/>
	<path fill="#E63946" transform="scale(0.666667 0.666667)" d="M292.263 472.706C293.328 475.93 292.672 479.681 292.536 483.027L292.244 497.159C292.316 504.023 292.659 510.739 293.535 517.553C293.988 521.077 295.562 525.058 295.672 528.494C295.703 529.454 294.957 530.945 294.485 531.815C293.27 534.059 291.617 536.028 289.098 536.771C286.426 537.559 282.215 535.51 279.916 534.135C274.416 530.844 270.715 525.688 269.176 519.482C267.821 514.018 267.619 508.448 267.661 502.847C269.986 500.068 272.345 497.219 274.326 494.182C275.913 491.751 276.959 488.986 278.562 486.578C279.836 484.664 281.553 482.948 283.078 481.233C285.858 478.106 288.509 474.689 292.263 472.706Z"/>
	<defs>
		<linearGradient id="gradient_3" gradientUnits="userSpaceOnUse" x1="247.77534" y1="484.40042" x2="346.49338" y2="516.28082">
			<stop offset="0" stop-color="#12254D"/>
			<stop offset="1" stop-color="#1973A8"/>
		</linearGradient>
	</defs>
	<path fill="url(#gradient_3)" transform="scale(0.666667 0.666667)" d="M337.44 427.792C347.076 435.19 357.97 439.544 369.701 442.318L369.587 448.927C366.227 450.053 362.905 451.314 359.925 453.267C349.854 448.654 338.129 447.677 329.337 440.297C325.352 444.689 320.741 448.454 316.295 452.371L292.263 472.706C288.509 474.689 285.858 478.106 283.078 481.233C281.553 482.948 279.836 484.664 278.562 486.578C276.959 488.986 275.913 491.751 274.326 494.182C272.345 497.219 269.986 500.068 267.661 502.847L261.721 507.826C261.25 508.189 259.405 509.29 259.173 509.734C258.835 510.379 258.827 512.236 258.747 513.065C258.539 515.214 258.214 517.301 257.674 519.394C254.904 530.143 248.056 540.326 241.231 548.955C235.572 554.708 230.924 562.191 226.403 568.879C230.607 554.129 237.999 540.739 238.972 525.104L234.405 524.548C235.35 521.524 236.154 518.451 237.697 515.667L237.132 514.433C236.054 512.995 235.424 511.093 234.679 509.46C233.663 507.232 232.507 505.079 231.303 502.948L231.458 502.565C232.321 500.29 232.485 497.515 231.472 495.272L231.399 494.551L231.361 492.75C231.564 490.852 235.211 488.279 236.668 486.919L237.594 485.968L237.377 485.888L237.184 485.438C240.563 482.622 244.386 480.415 247.747 477.622C249.33 476.306 250.484 474.679 251.974 473.291L252.433 472.871L251.854 471.767L252.09 471.315C252.572 470.942 253.114 470.303 253.748 470.356C255.187 470.476 256.753 471.539 258 472.245C261.739 474.364 265.381 477.558 269.192 479.324L270.099 478.312L269.995 477.008L271.491 479.761C272.391 479.509 273.216 479.042 274.125 478.822C274.977 478.616 275.917 478.671 276.75 478.442C277.717 478.177 277.771 477.854 278.212 477.03L278.912 476.928L279.107 478.248L337.44 427.792Z"/>
	<path fill="#78818D" transform="scale(0.666667 0.666667)" d="M278.212 477.03L278.912 476.928L279.107 478.248C278.005 479.723 276.552 482.201 275.093 483.276C273.596 482.192 272.523 481.331 271.491 479.761C272.391 479.509 273.216 479.042 274.125 478.822C274.977 478.616 275.917 478.671 276.75 478.442C277.717 478.177 277.771 477.854 278.212 477.03Z"/>
	<path fill="#A8DADC" transform="scale(0.666667 0.666667)" d="M245.989 498.839C247.758 498.514 248.467 497.116 250.014 496.278L252.457 496.745L252.846 497.438L248.286 503.175L247.553 502.83C247.04 501.917 246.673 501.191 246.409 500.165L245.989 498.839Z"/>
	<path fill="#A898A7" transform="scale(0.666667 0.666667)" d="M246.409 500.165C246.673 501.191 247.04 501.917 247.553 502.83L248.286 503.175L237.697 515.667L237.132 514.433C237.53 513.77 237.526 513.973 237.575 513.352C237.956 508.545 243.428 503.815 246.409 500.165Z"/>
	<path fill="#F1FAEE" transform="scale(0.666667 0.666667)" d="M252.09 471.315C252.572 470.942 253.114 470.303 253.748 470.356C255.187 470.476 256.753 471.539 258 472.245C261.739 474.364 265.381 477.558 269.192 479.324L268.119 480.552C265.438 483.716 262.097 486.388 258.966 489.097C256.151 491.532 253.182 494.343 250.014 496.278C248.467 497.116 247.758 498.514 245.989 498.839L246.409 500.165C243.428 503.815 237.956 508.545 237.575 513.352C237.526 513.973 237.53 513.77 237.132 514.433C236.054 512.995 235.424 511.093 234.679 509.46C233.663 507.232 232.507 505.079 231.303 502.948L231.458 502.565C232.321 500.29 232.485 497.515 231.472 495.272L231.399 494.551L231.361 492.75C231.564 490.852 235.211 488.279 236.668 486.919L237.594 485.968L237.377 485.888L237.184 485.438C240.563 482.622 244.386 480.415 247.747 477.622C249.33 476.306 250.484 474.679 251.974 473.291L252.433 472.871L251.854 471.767L252.09 471.315Z"/>
	<path fill="#E63946" transform="scale(0.666667 0.666667)" d="M231.399 494.551L231.848 494.521C233.722 494.15 235.767 491.945 237.696 491.149C238.839 492.185 239.956 493.094 240.75 494.438C240.949 494.774 241.269 495.416 241.558 495.697L245.989 498.839L246.409 500.165C243.428 503.815 237.956 508.545 237.575 513.352C237.526 513.973 237.53 513.77 237.132 514.433C236.054 512.995 235.424 511.093 234.679 509.46C233.663 507.232 232.507 505.079 231.303 502.948L231.458 502.565C232.321 500.29 232.485 497.515 231.472 495.272L231.399 494.551Z"/>
	<path fill="#65B5CC" transform="scale(0.666667 0.666667)" d="M252.433 472.871C254.45 472.829 255.717 474.025 257.37 475L265.788 479.621C260.629 482.914 249.669 495.196 244.125 494.674L243.003 493.896C242.42 491.654 241.95 490.938 240.51 489.162L237.594 485.968L237.377 485.888L237.184 485.438C240.563 482.622 244.386 480.415 247.747 477.622C249.33 476.306 250.484 474.679 251.974 473.291L252.433 472.871Z"/>
	<path fill="#A8DADC" transform="scale(0.666667 0.666667)" d="M228.564 500.54L231.303 502.948C232.507 505.079 233.663 507.232 234.679 509.46C235.424 511.093 236.054 512.995 237.132 514.433L237.697 515.667C236.154 518.451 235.35 521.524 234.405 524.548L238.972 525.104C237.999 540.739 230.607 554.129 226.403 568.879C230.924 562.191 235.572 554.708 241.231 548.955L241.699 549.137C244.566 550.222 247.563 550.835 250.418 552.049C259.844 556.055 268.761 561.201 277.974 565.667C283.189 568.195 289.099 570.362 293.994 573.391C291.675 575.03 290.115 579.156 288.736 581.625L277.504 602.721L268.364 617.789C268.172 618.365 267.208 619.161 266.79 619.61L262.564 624.089C257.397 629.497 252.623 634.539 248.45 640.791C242.619 637.249 235.903 635.028 229.618 632.392L196.508 619.198C197.29 617.758 198.119 616.479 198.258 614.812C197.648 614.179 197.141 613.543 196.631 612.826C197.389 613.004 197.696 613.09 198.478 612.938C198.748 612.42 198.943 611.929 199.095 611.364C200.772 605.112 208.044 566.764 206.129 563.457L205.204 563.341L205.231 562.776C210.042 554.797 214.43 546.782 218.379 538.335C220.182 534.477 222.145 530.545 223.394 526.472C224.349 523.358 224.813 520.04 225.366 516.835C226.875 511.37 227.878 506.161 228.564 500.54Z"/>
</svg>
