<svg xmlns="http://www.w3.org/2000/svg" version="1.1" xmlns:xlink="http://www.w3.org/1999/xlink" viewBox="0 0 200 200"><rect width="200" height="200" fill="url('#gradient')"></rect><defs><linearGradient id="gradient" gradientTransform="rotate(45 0.5 0.5)"><stop offset="0%" stop-color="#ceaa96"></stop><stop offset="100%" stop-color="#49f10e"></stop></linearGradient></defs><g><g fill="#445272" transform="matrix(4.572578616352201,0,0,4.572578616352201,26.678547033693803,133.8394241481757)" stroke="#c8512e" stroke-width="0.35"><path d="M5.39-2.34L5.39-2.34Q6.08-2.34 6.46-2.72Q6.85-3.10 6.84-3.77L6.84-3.77L9.92-3.77Q9.92-2.03 8.68-0.92Q7.43 0.20 5.47 0.20L5.47 0.20Q3.16 0.20 1.84-1.25Q0.51-2.70 0.51-5.25L0.51-5.25L0.51-5.39Q0.51-6.99 1.10-8.22Q1.69-9.44 2.80-10.10Q3.92-10.76 5.44-10.76L5.44-10.76Q7.50-10.76 8.71-9.62Q9.92-8.48 9.92-6.52L9.92-6.52L6.84-6.52Q6.84-7.34 6.44-7.78Q6.04-8.22 5.36-8.22L5.36-8.22Q4.08-8.22 3.87-6.59L3.87-6.59Q3.80-6.07 3.80-5.17L3.80-5.17Q3.80-3.57 4.18-2.96Q4.56-2.34 5.39-2.34ZM10.90-5.36L10.90-5.36Q10.90-7.87 11.98-9.32Q13.07-10.76 15.01-10.76L15.01-10.76Q16.43-10.76 17.39-9.65L17.39-9.65L17.39-15L20.69-15L20.69 0L17.73 0L17.57-1.13Q16.55 0.20 14.99 0.20L14.99 0.20Q13.11 0.20 12.00-1.25Q10.90-2.70 10.90-5.36ZM14.20-5.76L14.19-5.16Q14.19-2.34 15.83-2.34L15.83-2.34Q16.92-2.34 17.39-3.26L17.39-3.26L17.39-7.29Q16.94-8.22 15.85-8.22L15.85-8.22Q14.33-8.22 14.20-5.76L14.20-5.76ZM27.03-2.34L27.03-2.34Q27.72-2.34 28.11-2.72Q28.49-3.10 28.48-3.77L28.48-3.77L31.56-3.77Q31.56-2.03 30.32-0.92Q29.07 0.20 27.11 0.20L27.11 0.20Q24.80 0.20 23.48-1.25Q22.15-2.70 22.15-5.25L22.15-5.25L22.15-5.39Q22.15-6.99 22.74-8.22Q23.33-9.44 24.44-10.10Q25.56-10.76 27.08-10.76L27.08-10.76Q29.14-10.76 30.35-9.62Q31.56-8.48 31.56-6.52L31.56-6.52L28.48-6.52Q28.48-7.34 28.08-7.78Q27.68-8.22 27.00-8.22L27.00-8.22Q25.72-8.22 25.51-6.59L25.51-6.59Q25.44-6.07 25.44-5.17L25.44-5.17Q25.44-3.57 25.82-2.96Q26.20-2.34 27.03-2.34Z"></path></g></g></svg>