<?xml version="1.0" standalone="no"?>
<!DOCTYPE svg PUBLIC "-//W3C//DTD SVG 20010904//EN"
 "http://www.w3.org/TR/2001/REC-SVG-20010904/DTD/svg10.dtd">
<svg version="1.0" xmlns="http://www.w3.org/2000/svg"
 width="700.000000pt" height="700.000000pt" viewBox="0 0 700.000000 700.000000"
 preserveAspectRatio="xMidYMid meet">
<metadata>
Created by potrace 1.14, written by Peter Selinger 2001-2017
</metadata>
<g transform="translate(0.000000,700.000000) scale(0.100000,-0.100000)"
fill="#000000" stroke="none">
<path d="M3279 6299 l-221 -221 1288 -1289 1289 -1289 -1289 -1289 -1288
-1289 221 -221 221 -221 1505 1505 c828 828 1505 1510 1505 1515 0 5 -677 687
-1505 1515 l-1505 1505 -221 -221z"/>
<path d="M1540 4515 l-1015 -1015 1016 -1016 1016 -1016 1017 1016 1016 1017
-1014 1015 c-558 557 -1016 1014 -1018 1014 -2 0 -460 -457 -1018 -1015z
m1226 -27 c112 -112 204 -207 204 -213 0 -5 -173 -182 -383 -392 l-383 -383
383 -382 c210 -211 383 -387 383 -392 0 -5 -93 -101 -206 -214 l-205 -206
-597 597 -597 597 595 595 c327 327 597 595 599 595 2 0 95 -91 207 -202z"/>
</g>
</svg>
