<svg
    xmlns="http://www.w3.org/2000/svg"
    viewBox="0 0 17 23"
>
    <title>Padlock</title>
    <path d="M14.193 7.697H13.2V5.641C13.199 2.803 10.972.5 8.227.5 5.483.5 3.256 2.803 3.256 5.64v2.057H2.26c-1.093 0-1.988.925-1.988 2.056v10.282c0 1.13.895 2.056 1.988 2.056h11.932c1.094 0 1.989-.925 1.989-2.056V9.753c0-1.13-.895-2.056-1.989-2.056zM8.227 16.95c-1.093 0-1.988-.925-1.988-2.056s.895-2.056 1.988-2.056c1.094 0 1.989.925 1.989 2.056 0 1.13-.895 2.056-1.989 2.056zm3.083-9.253H5.145V5.641c0-1.758 1.382-3.188 3.082-3.188s3.083 1.43 3.083 3.188v2.056z" fill-rule="nonzero"/>
</svg>
