<svg
    xmlns="http://www.w3.org/2000/svg"
    viewBox="0 0 2280 738"
>
    <title>Direct Debit logo</title>
    <path
    d="M1072.61 155.012h118.219s117.052-2.36 115.871 104.03c-1.167 79.22-113.485 91.035-113.485 91.035h-120.593V155.012h-.013zm353.672 381.895c3.32 15.473 14.513 32.528 51.853 34.279 49.648 1.167 78.026-17.756 78.026-17.756v36.653s-54.382 13.021-80.4 13.021c-27.184 0-107.584-5.927-107.584-80.4 0-60.283 66.21-79.206 104.03-79.206 66.211 2.36 98.13 26.018 96.95 93.396 0 .972-108.934.246-142.875.013zm.155-29.584h90.71s0-34.28-43.746-34.28c-32.905 0-43.67 17.743-46.964 34.28zm286.956-37.016c13.126-14.241 35.161-25.641 72.125-25.641 73.305 0 85.134 61.476 83.953 78.026-1.18 16.55-7.094 79.206-92.202 79.206-32.152 0-51.827-10.972-63.863-24.59v19.856h-57.936V384.356h57.936v85.95h-.013zm49.675 98.492c34.279-1.193 49.648-30.725 49.648-44.914s-8.288-43.747-52.035-43.747c-33.942 0-44.279 25.641-47.288 38.17v15.421c2.983 12.775 13.372 35.07 49.675 35.07zm500.1-5.901l1.168 33.112s-27.185 5.901-44.914 5.901c-17.73 0-63.863-10.635-63.863-55.575v-68.572h-48.456V447.04h48.456v-36.652h59.129v36.652h48.48v30.725h-48.48v59.13s0 29.558 23.657 29.558c23.63 0 24.824-3.554 24.824-3.554zM2083.46 186.93h68.57v164.327h57.91V186.93h69.765v-34.292H2083.46v34.292zm-23.657 8.275l7.094-34.292s-29.558-12.996-81.567-12.996c-50.841 0-132.408 28.378-132.408 105.224 0 75.666 86.3 101.67 139.503 101.67 53.202 0 70.931-8.275 70.931-8.275l-5.9-37.832s-23.658 7.094-63.864 7.094c-39.013-1.18-79.18-31.919-79.18-66.198 1.167-30.738 36.626-65.03 82.76-65.03 35.446 0 62.63 10.635 62.63 10.635zm-522.565-41.373s96.949-4.721 96.949 52.021c0 48.481-55.55 52.022-55.55 52.022s15.357 2.36 22.464 12.996c5.901 9.455 44.914 80.4 44.914 80.4h-59.129s-9.455-11.83-14.189-20.09c-3.54-8.276-14.189-26.018-14.189-26.018s-8.261-29.558-36.652-29.558c-.714 0-12.257-.441-21.284-.778v76.443h-56.742V153.832h93.408zm-36.653 88.674h30.752s42.554-2.374 44.914-28.378c1.193-24.824-41.36-28.378-41.36-28.378h-34.306v56.756zm237.632 30.738h94.589v-36.652h-94.589v-44.928h102.877v-37.832H1680.32V351.27h161.967v-35.472H1738.23v-42.554h-.013zm230.538 151.318h57.936v-40.206h-57.936v40.206zm0 172.615h57.936V447.04h-57.936v150.138zM1337.452 351.27h56.742V153.832h-56.742V351.27zm-264.843 49.662h118.22s117.052-2.387 115.871 104.03c-1.167 79.206-113.485 91.048-113.485 91.048h-120.593V400.932h-.013zm57.936 158.425h37.833s78.026-4.734 78.026-65.03c0-60.297-82.76-66.21-82.76-66.21h-33.099v131.24zm0-245.92h37.833s78.026-5.914 78.026-65.03c0-61.477-82.76-66.198-82.76-66.198h-33.099v131.229zM541.77 272.545v395.578S312.4 626.735 312.4 469.502c.012-125.404 169.8-180.681 229.37-196.958zm0-7.38C403.914 255.19 91.33 319.806 91.33 461.215c0 92.202 165.52 226.997 435.07 230.538 10.636 0 316.839-11.829 312.118-340.496C834.549 75.21 627.94 26.857 561.873 18.44V1.618c263.39 16.718 470.543 175.118 470.543 367.369 0 203.353-231.731 368.86-516.65 368.86-284.92 0-515.471-165.52-515.471-368.86S230.832.127 515.765.127c8.729 0 17.406.156 26.018.467v264.57h-.013z"
    fill="#000"
    fillRule="nonzero"
    />
</svg>
