<svg xmlns="http://www.w3.org/2000/svg" xmlns:xlink="http://www.w3.org/1999/xlink" xmlns:lucid="lucid" width="901.97" height="305.5"><g transform="translate(-308.03086419753095 -140)" lucid:page-tab-id="4J-PIXB7vn34"><path d="M950 160h240v60H950z" fill="none"/><use xlink:href="#a" transform="matrix(1,0,0,1,955,165) translate(11.583170572916686 33.33821614583333)"/><use xlink:href="#b" transform="matrix(1,0,0,1,955,165) translate(143.20458984375 33.33821614583333)"/><path d="M703.94 160h240v60h-240z" fill="none"/><use xlink:href="#c" transform="matrix(1,0,0,1,708.9382716049381,165) translate(39.787760416666686 33.33821614583333)"/><use xlink:href="#d" transform="matrix(1,0,0,1,708.9382716049381,165) translate(133.80305989583331 33.33821614583333)"/><path d="M400 160h240v60H400z" fill="none"/><use xlink:href="#e" transform="matrix(1,0,0,1,405,165) translate(30.38623046875003 33.33821614583333)"/><use xlink:href="#f" transform="matrix(1,0,0,1,405,165) translate(143.20458984375 33.33821614583333)"/><path d="M328.03 220h383.94v50H328.03z" fill="#cfe4ff"/><path d="M328.03 270h383.94v50H328.03z" fill="#fff"/><path d="M328.03 220v50M711.97 220v50M328.03 270v50M711.97 270v50M328.03 220h383.94M328.03 270h383.94M328.03 320h383.94" stroke="#3a414a" fill="none"/><use xlink:href="#g" transform="matrix(1,0,0,1,333.03086419753095,225) translate(105.03086419753089 26.22222222222222)"/><use xlink:href="#h" transform="matrix(1,0,0,1,333.03086419753095,275) translate(0.030864197530945603 26.22222222222222)"/><path d="M980 220h180v52.5H980z" fill="#ff8f8f"/><path d="M980 272.5h180v48H980zM980 320.5h180V373H980zM980 373h180v52.5H980z" fill="#fff"/><path d="M980 220v52.5M1160 220v52.5M980 272.5v48M1160 272.5v48M980 320.5V373M1160 320.5V373M980 373v52.5M1160 373v52.5M980 220h180M980 272.5h180M980 320.5h180M980 373h180M980 425.5h180" stroke="#3a414a" fill="none"/><use xlink:href="#i" transform="matrix(1,0,0,1,985,225) translate(34.59876543209878 27.72222222222222)"/><use xlink:href="#j" transform="matrix(1,0,0,1,985,277.5) translate(30.234567901234577 25.22222222222222)"/><use xlink:href="#k" transform="matrix(1,0,0,1,985,325.5) translate(20.209876543209887 27.72222222222222)"/><use xlink:href="#l" transform="matrix(1,0,0,1,985,378) translate(27.7283950617284 27.72222222222222)"/><path d="M714.97 294.67h239.67" stroke="#3a414a" stroke-width="5" fill="none"/><path d="M715.03 297.17h-2.56v-5h2.56z" stroke="#3a414a" stroke-width=".05" fill="#3a414a"/><path d="M971.4 294.67l-14.26 4.63v-9.27z" stroke="#3a414a" stroke-width="5" fill="#3a414a"/><path d="M714.97 294.67h46a6 6 0 0 1 6 6v42.5a6 6 0 0 0 6 6h181.67" stroke="#3a414a" stroke-width="5" fill="none"/><path d="M715.03 297.17h-2.56v-5h2.56z" stroke="#3a414a" stroke-width=".05" fill="#3a414a"/><path d="M971.4 349.17l-14.26 4.64v-9.26z" stroke="#3a414a" stroke-width="5" fill="#3a414a"/><path d="M714.97 294.67h125a6 6 0 0 1 6 6v92.08a6 6 0 0 0 6 6h102.67" stroke="#3a414a" stroke-width="5" fill="none"/><path d="M715.03 297.17h-2.56v-5h2.56z" stroke="#3a414a" stroke-width=".05" fill="#3a414a"/><path d="M971.4 398.75l-14.26 4.64v-9.28z" stroke="#3a414a" stroke-width="5" fill="#3a414a"/><path d="M979.5 293.07" stroke="#3a414a" stroke-width="5" fill="none"/><path stroke="#3a414a" stroke-width=".05" fill="#3a414a"/><path d="M971.4 293.07l-14.26 4.63v-9.27z" stroke="#3a414a" stroke-width="5" fill="#3a414a"/><defs><path d="M615-1370c385 0 542 273 542 691 0 230-47 404-140 522S790 20 615 20C231 20 72-262 72-679c0-419 158-691 543-691zM797-330c77-133 78-564 0-695-44-73-101-113-182-113s-139 40-183 114c-79 133-78 560 0 694 45 77 102 118 183 118s138-41 182-118" id="m"/><path d="M471 20c-247 0-336-169-336-415v-687h281v607c4 148 31 285 172 285 152 0 207-150 207-312v-580h281c4 359-9 736 8 1082H816c-7-63-11-146-12-215h-5C736-76 644 20 471 20" id="n"/><path d="M711 13c-250 0-386-99-385-349l2-556H161v-190h181l88-282h176v282h385v190H606v530c-10 130 45 186 174 184 91-2 176-11 255-27v186C933-1 833 13 711 13" id="o"/><path d="M427-171c3 195 2 397 2 596H148V-846c1-83-4-168-8-236h272c10 49 14 118 15 176h4c59-114 151-197 316-197 291 0 385 259 385 560 0 243-65 433-220 521-50 28-109 42-176 42-162-2-253-78-309-191zm69-661c-91 113-92 463-1 586 46 62 145 101 225 54 96-57 118-191 119-351 0-123-18-215-53-276-46-82-128-115-220-74-25 12-48 33-70 61" id="p"/><g id="a"><use transform="matrix(0.015299479166666663,0,0,0.015299479166666663,0,0)" xlink:href="#m"/><use transform="matrix(0.015299479166666663,0,0,0.015299479166666663,18.80305989583333,0)" xlink:href="#n"/><use transform="matrix(0.015299479166666663,0,0,0.015299479166666663,37.60611979166666,0)" xlink:href="#o"/><use transform="matrix(0.015299479166666663,0,0,0.015299479166666663,56.409179687499986,0)" xlink:href="#p"/><use transform="matrix(0.015299479166666663,0,0,0.015299479166666663,75.21223958333331,0)" xlink:href="#n"/><use transform="matrix(0.015299479166666663,0,0,0.015299479166666663,94.01529947916664,0)" xlink:href="#o"/></g><path d="M875-1102c70 0 148 7 206 17v237c-110-17-267-37-359 15-123 69-192 207-192 395V0H250c-10-367 32-789-52-1082h271c19 69 36 149 46 228h4c52-151 151-250 356-248" id="q"/><path d="M616-1102c361 0 521 202 521 560 0 354-171 562-527 562C259 20 92-192 92-542c0-351 169-560 524-560zm-9 930c200-2 236-165 236-370 0-199-27-367-223-367-195 0-233 146-233 367 0 129 18 223 55 282s92 88 165 88" id="r"/><path d="M1028 0H784c-56-191-119-378-170-573C562-377 495-191 437 0H194L11-1082h228c32 239 67 472 95 714 4 40 7 80 7 119 53-195 119-378 177-568h193c56 190 120 371 169 568-1-79 11-158 21-226l91-607h226" id="s"/><path d="M622-916c-112 2-200 14-200 111 0 90 89 101 168 121 234 58 514 77 514 368C1104-4 751 54 434 5 267-21 161-112 121-270l247-37c24 111 113 145 252 141 114-3 226-12 226-124 0-101-103-113-192-134-225-54-490-76-490-351 0-247 201-328 458-328 245 0 413 88 457 292l-249 26c-16-98-92-133-208-131" id="t"/><g id="b"><use transform="matrix(0.015299479166666663,0,0,0.015299479166666663,0,0)" xlink:href="#q"/><use transform="matrix(0.015299479166666663,0,0,0.015299479166666663,18.80305989583333,0)" xlink:href="#r"/><use transform="matrix(0.015299479166666663,0,0,0.015299479166666663,37.60611979166666,0)" xlink:href="#s"/><use transform="matrix(0.015299479166666663,0,0,0.015299479166666663,56.409179687499986,0)" xlink:href="#t"/></g><path d="M462-1121v384h621v228H462V0H167v-1349h939v228H462" id="u"/><path d="M794-190h353V0H118v-190h395v-1104H223v-190h571v1294" id="v"/><path d="M775-193C708-75 621 20 439 20 226 20 106-93 106-306c0-251 170-341 417-346l223-4c4-143-12-264-148-264-103 0-141 58-150 153l-293-14c37-219 194-321 455-321 263 0 418 130 417 390v392c1 84 5 161 89 160 21 0 42-2 62-6v152c-57 15-108 27-180 26-145 0-202-73-217-205h-6zm-256 17c168 0 234-139 227-325-166 4-347-25-347 173 0 94 33 152 120 152" id="w"/><g id="c"><use transform="matrix(0.015299479166666663,0,0,0.015299479166666663,0,0)" xlink:href="#u"/><use transform="matrix(0.015299479166666663,0,0,0.015299479166666663,18.80305989583333,0)" xlink:href="#v"/><use transform="matrix(0.015299479166666663,0,0,0.015299479166666663,37.60611979166666,0)" xlink:href="#w"/><use transform="matrix(0.015299479166666663,0,0,0.015299479166666663,56.409179687499986,0)" xlink:href="#o"/></g><path d="M934-1102c199 0 220 177 220 381V0H926c-2-260 10-533-4-785-4-72-14-138-83-138-34 0-61 27-81 81s-29 134-29 241V0H501c-2-260 9-533-5-785-4-72-13-138-82-138-46 0-65 47-80 93-21 67-30 155-30 248V0H75c-3-360 6-732-6-1082h209c6 50 3 123 8 175 36-100 83-195 216-195 135 0 166 79 196 196 42-105 93-196 236-196" id="x"/><g id="d"><use transform="matrix(0.015299479166666663,0,0,0.015299479166666663,0,0)" xlink:href="#x"/><use transform="matrix(0.015299479166666663,0,0,0.015299479166666663,18.80305989583333,0)" xlink:href="#w"/><use transform="matrix(0.015299479166666663,0,0,0.015299479166666663,37.60611979166666,0)" xlink:href="#p"/></g><path d="M157-1349h916v228H757v893h316V0H157v-228h316v-893H157v-228" id="y"/><path d="M768-1103c247 0 336 167 336 416V0H824v-619c-3-164-24-273-171-273-164 0-229 142-229 312V0H143c-4-359 9-736-8-1082h268c7 63 12 146 13 215h4c67-145 160-236 348-236" id="z"/><g id="e"><use transform="matrix(0.015299479166666663,0,0,0.015299479166666663,0,0)" xlink:href="#y"/><use transform="matrix(0.015299479166666663,0,0,0.015299479166666663,18.80305989583333,0)" xlink:href="#z"/><use transform="matrix(0.015299479166666663,0,0,0.015299479166666663,37.60611979166666,0)" xlink:href="#p"/><use transform="matrix(0.015299479166666663,0,0,0.015299479166666663,56.409179687499986,0)" xlink:href="#n"/><use transform="matrix(0.015299479166666663,0,0,0.015299479166666663,75.21223958333331,0)" xlink:href="#o"/></g><g id="f"><use transform="matrix(0.015299479166666663,0,0,0.015299479166666663,0,0)" xlink:href="#q"/><use transform="matrix(0.015299479166666663,0,0,0.015299479166666663,18.80305989583333,0)" xlink:href="#r"/><use transform="matrix(0.015299479166666663,0,0,0.015299479166666663,37.60611979166666,0)" xlink:href="#s"/></g><path d="M195-6C206 82 75 100 31 46c-4-6-6-13-8-21l49-6c3 16 16 24 34 25 40 0 42-37 40-79-11 22-30 35-61 35-53 0-70-43-70-97 0-56 18-96 73-97 30 0 46 14 59 34l2-30h47zm-90-29c32 0 41-27 41-63 0-35-9-62-40-62-32 0-39 29-40 63 0 36 9 62 39 62" id="A"/><path d="M185-48c-13 30-37 53-82 52C43 2 14-33 14-96s30-98 90-98c62 0 83 45 84 108H66c0 31 8 55 39 56 18 0 30-7 34-22zm-45-69c5-46-57-63-70-21-2 6-4 13-4 21h74" id="B"/><path d="M135-194c87-1 58 113 63 194h-50c-7-57 23-157-34-157-59 0-34 97-39 157H25l-1-190h47c2 12-1 28 3 38 12-26 28-41 61-42" id="C"/><path d="M135-150c-39-12-60 13-60 57V0H25l-1-190h47c2 13-1 29 3 40 6-28 27-53 61-41v41" id="D"/><path d="M137-138c1-29-70-34-71-4 15 46 118 7 119 86 1 83-164 76-172 9l43-7c4 19 20 25 44 25 33 8 57-30 24-41C81-84 22-81 20-136c-2-80 154-74 161-7" id="E"/><path d="M-4 44V30h207v14H-4" id="F"/><path d="M25 0v-261h50V0H25" id="G"/><path d="M25-224v-37h50v37H25zM25 0v-190h50V0H25" id="H"/><path d="M115-3C79 11 28 4 28-45v-112H4v-33h27l15-45h31v45h36v33H77v99c-1 23 16 31 38 25v30" id="I"/><g id="g"><use transform="matrix(0.08641975308641973,0,0,0.08641975308641973,0,0)" xlink:href="#A"/><use transform="matrix(0.08641975308641973,0,0,0.08641975308641973,18.92592592592592,0)" xlink:href="#B"/><use transform="matrix(0.08641975308641973,0,0,0.08641975308641973,36.209876543209866,0)" xlink:href="#C"/><use transform="matrix(0.08641975308641973,0,0,0.08641975308641973,55.13580246913578,0)" xlink:href="#D"/><use transform="matrix(0.08641975308641973,0,0,0.08641975308641973,67.23456790123454,0)" xlink:href="#B"/><use transform="matrix(0.08641975308641973,0,0,0.08641975308641973,84.51851851851849,0)" xlink:href="#E"/><use transform="matrix(0.08641975308641973,0,0,0.08641975308641973,101.80246913580245,0)" xlink:href="#F"/><use transform="matrix(0.08641975308641973,0,0,0.08641975308641973,119.08641975308639,0)" xlink:href="#G"/><use transform="matrix(0.08641975308641973,0,0,0.08641975308641973,127.72839506172836,0)" xlink:href="#H"/><use transform="matrix(0.08641975308641973,0,0,0.08641975308641973,136.37037037037032,0)" xlink:href="#E"/><use transform="matrix(0.08641975308641973,0,0,0.08641975308641973,153.65432098765427,0)" xlink:href="#I"/></g><path d="M63-220v92h138v28H63V0H30v-248h175v28H63" id="J"/><path d="M141-36C126-15 110 5 73 4 37 3 15-17 15-53c-1-64 63-63 125-63 3-35-9-54-41-54-24 1-41 7-42 31l-33-3c5-37 33-52 76-52 45 0 72 20 72 64v82c-1 20 7 32 28 27v20c-31 9-61-2-59-35zM48-53c0 20 12 33 32 33 41-3 63-29 60-74-43 2-92-5-92 41" id="K"/><path d="M117-194c89-4 53 116 60 194h-32v-121c0-31-8-49-39-48C34-167 62-67 57 0H25l-1-190h30c1 10-1 24 2 32 11-22 29-35 61-36" id="L"/><path d="M59-47c-2 24 18 29 38 22v24C64 9 27 4 27-40v-127H5v-23h24l9-43h21v43h35v23H59v120" id="M"/><path d="M135-143c-3-34-86-38-87 0 15 53 115 12 119 90S17 21 10-45l28-5c4 36 97 45 98 0-10-56-113-15-118-90-4-57 82-63 122-42 12 7 21 19 24 35" id="N"/><path d="M179-190L93 31C79 59 56 82 12 73V49c39 6 53-20 64-50L1-190h34L92-34l54-156h33" id="O"/><path d="M68-36c1 33-1 63-14 82H32c9-13 17-26 17-46H33v-36h35zM33-154v-36h35v36H33" id="P"/><path d="M266 0h-40l-56-210L115 0H75L2-248h35L96-30l15-64 43-154h32l59 218 59-218h35" id="Q"/><path d="M100-194c63 0 86 42 84 106H49c0 40 14 67 53 68 26 1 43-12 49-29l28 8c-11 28-37 45-77 45C44 4 14-33 15-96c1-61 26-98 85-98zm52 81c6-60-76-77-97-28-3 7-6 17-6 28h103" id="R"/><path d="M114-163C36-179 61-72 57 0H25l-1-190h30c1 12-1 29 2 39 6-27 23-49 58-41v29" id="S"/><path d="M212-179c-10-28-35-45-73-45-59 0-87 40-87 99 0 60 29 101 89 101 43 0 62-24 78-52l27 14C228-24 195 4 139 4 59 4 22-46 18-125c-6-104 99-153 187-111 19 9 31 26 39 46" id="T"/><path d="M24 0v-261h32V0H24" id="U"/><path d="M24-231v-30h32v30H24zM24 0v-190h32V0H24" id="V"/><path d="M96-169c-40 0-48 33-48 73s9 75 48 75c24 0 41-14 43-38l32 2c-6 37-31 61-74 61-59 0-76-41-82-99-10-93 101-131 147-64 4 7 5 14 7 22l-32 3c-4-21-16-35-41-35" id="W"/><g id="h"><use transform="matrix(0.08641975308641973,0,0,0.08641975308641973,0,0)" xlink:href="#J"/><use transform="matrix(0.08641975308641973,0,0,0.08641975308641973,18.92592592592592,0)" xlink:href="#K"/><use transform="matrix(0.08641975308641973,0,0,0.08641975308641973,36.209876543209866,0)" xlink:href="#L"/><use transform="matrix(0.08641975308641973,0,0,0.08641975308641973,53.49382716049381,0)" xlink:href="#M"/><use transform="matrix(0.08641975308641973,0,0,0.08641975308641973,62.13580246913578,0)" xlink:href="#K"/><use transform="matrix(0.08641975308641973,0,0,0.08641975308641973,79.41975308641973,0)" xlink:href="#N"/><use transform="matrix(0.08641975308641973,0,0,0.08641975308641973,94.97530864197529,0)" xlink:href="#O"/><use transform="matrix(0.08641975308641973,0,0,0.08641975308641973,110.53086419753085,0)" xlink:href="#P"/><use transform="matrix(0.08641975308641973,0,0,0.08641975308641973,119.17283950617282,0)" xlink:href="#Q"/><use transform="matrix(0.08641975308641973,0,0,0.08641975308641973,147.86419753086417,0)" xlink:href="#R"/><use transform="matrix(0.08641975308641973,0,0,0.08641975308641973,165.14814814814812,0)" xlink:href="#N"/><use transform="matrix(0.08641975308641973,0,0,0.08641975308641973,180.70370370370367,0)" xlink:href="#M"/><use transform="matrix(0.08641975308641973,0,0,0.08641975308641973,189.34567901234564,0)" xlink:href="#R"/><use transform="matrix(0.08641975308641973,0,0,0.08641975308641973,206.6296296296296,0)" xlink:href="#S"/><use transform="matrix(0.08641975308641973,0,0,0.08641975308641973,216.91358024691354,0)" xlink:href="#L"/><use transform="matrix(0.08641975308641973,0,0,0.08641975308641973,234.1975308641975,0)" xlink:href="#N"/><use transform="matrix(0.08641975308641973,0,0,0.08641975308641973,249.75308641975303,0)" xlink:href="#P"/><use transform="matrix(0.08641975308641973,0,0,0.08641975308641973,258.395061728395,0)" xlink:href="#T"/><use transform="matrix(0.08641975308641973,0,0,0.08641975308641973,280.7777777777777,0)" xlink:href="#U"/><use transform="matrix(0.08641975308641973,0,0,0.08641975308641973,287.60493827160485,0)" xlink:href="#K"/><use transform="matrix(0.08641975308641973,0,0,0.08641975308641973,304.8888888888888,0)" xlink:href="#N"/><use transform="matrix(0.08641975308641973,0,0,0.08641975308641973,320.44444444444434,0)" xlink:href="#N"/><use transform="matrix(0.08641975308641973,0,0,0.08641975308641973,335.9999999999999,0)" xlink:href="#V"/><use transform="matrix(0.08641975308641973,0,0,0.08641975308641973,342.827160493827,0)" xlink:href="#W"/><use transform="matrix(0.08641975308641973,0,0,0.08641975308641973,358.38271604938257,0)" xlink:href="#N"/></g><g id="i"><use transform="matrix(0.08641975308641973,0,0,0.08641975308641973,0,0)" xlink:href="#A"/><use transform="matrix(0.08641975308641973,0,0,0.08641975308641973,18.92592592592592,0)" xlink:href="#B"/><use transform="matrix(0.08641975308641973,0,0,0.08641975308641973,36.209876543209866,0)" xlink:href="#C"/><use transform="matrix(0.08641975308641973,0,0,0.08641975308641973,55.13580246913578,0)" xlink:href="#D"/><use transform="matrix(0.08641975308641973,0,0,0.08641975308641973,67.23456790123454,0)" xlink:href="#B"/><use transform="matrix(0.08641975308641973,0,0,0.08641975308641973,84.51851851851849,0)" xlink:href="#E"/></g><g id="j"><use transform="matrix(0.08641975308641973,0,0,0.08641975308641973,0,0)" xlink:href="#J"/><use transform="matrix(0.08641975308641973,0,0,0.08641975308641973,18.92592592592592,0)" xlink:href="#K"/><use transform="matrix(0.08641975308641973,0,0,0.08641975308641973,36.209876543209866,0)" xlink:href="#L"/><use transform="matrix(0.08641975308641973,0,0,0.08641975308641973,53.49382716049381,0)" xlink:href="#M"/><use transform="matrix(0.08641975308641973,0,0,0.08641975308641973,62.13580246913578,0)" xlink:href="#K"/><use transform="matrix(0.08641975308641973,0,0,0.08641975308641973,79.41975308641973,0)" xlink:href="#N"/><use transform="matrix(0.08641975308641973,0,0,0.08641975308641973,94.97530864197529,0)" xlink:href="#O"/></g><g id="k"><use transform="matrix(0.08641975308641973,0,0,0.08641975308641973,0,0)" xlink:href="#Q"/><use transform="matrix(0.08641975308641973,0,0,0.08641975308641973,28.69135802469135,0)" xlink:href="#R"/><use transform="matrix(0.08641975308641973,0,0,0.08641975308641973,45.975308641975296,0)" xlink:href="#N"/><use transform="matrix(0.08641975308641973,0,0,0.08641975308641973,61.53086419753085,0)" xlink:href="#M"/><use transform="matrix(0.08641975308641973,0,0,0.08641975308641973,70.17283950617282,0)" xlink:href="#R"/><use transform="matrix(0.08641975308641973,0,0,0.08641975308641973,87.45679012345677,0)" xlink:href="#S"/><use transform="matrix(0.08641975308641973,0,0,0.08641975308641973,97.74074074074072,0)" xlink:href="#L"/><use transform="matrix(0.08641975308641973,0,0,0.08641975308641973,115.02469135802467,0)" xlink:href="#N"/></g><g id="l"><use transform="matrix(0.08641975308641973,0,0,0.08641975308641973,0,0)" xlink:href="#T"/><use transform="matrix(0.08641975308641973,0,0,0.08641975308641973,22.38271604938271,0)" xlink:href="#U"/><use transform="matrix(0.08641975308641973,0,0,0.08641975308641973,29.20987654320987,0)" xlink:href="#K"/><use transform="matrix(0.08641975308641973,0,0,0.08641975308641973,46.493827160493815,0)" xlink:href="#N"/><use transform="matrix(0.08641975308641973,0,0,0.08641975308641973,62.04938271604937,0)" xlink:href="#N"/><use transform="matrix(0.08641975308641973,0,0,0.08641975308641973,77.60493827160492,0)" xlink:href="#V"/><use transform="matrix(0.08641975308641973,0,0,0.08641975308641973,84.43209876543209,0)" xlink:href="#W"/><use transform="matrix(0.08641975308641973,0,0,0.08641975308641973,99.98765432098766,0)" xlink:href="#N"/></g></defs></g></svg>