<svg xmlns="http://www.w3.org/2000/svg" xmlns:xlink="http://www.w3.org/1999/xlink" xmlns:lucid="lucid" width="677" height="600"><g transform="translate(-400 -220)" lucid:page-tab-id="0_0"><path d="M420 300h80v40h-80zM500 300h80v40h-80zM580 300h92.53v40H580z" fill="#f2f3f5"/><path d="M420 340h80v40h-80zM500 340h80v40h-80zM580 340h92.53v40H580zM420 380h80v40h-80zM500 380h80v40h-80zM580 380h92.53v40H580z" fill="#fff"/><path d="M420 420h80v40h-80zM500 420h80v40h-80z" fill="#cfe4ff"/><path d="M580 420h92.53v40H580z" fill="#ffdda6"/><path d="M420 300v40M500 300v40M580 300v40M672.53 300v40M420 340v40M500 340v40M580 340v40M672.53 340v40M420 380v40M500 380v40M580 380v40M672.53 380v40M420 420v40M500 420v40M580 420v40M672.53 420v40M420 300h80M500 300h80M580 300h92.53M420 340h80M500 340h80M580 340h92.53M420 380h80M500 380h80M580 380h92.53M420 420h80M420 460h80M500 420h80M500 460h80M580 420h92.53M580 460h92.53" stroke="#3a414a" fill="none"/><use xlink:href="#a" transform="matrix(1,0,0,1,425,305) translate(6.018518518518523 19.444444444444443)"/><use xlink:href="#b" transform="matrix(1,0,0,1,505,305) translate(15.895061728395063 19.444444444444443)"/><use xlink:href="#c" transform="matrix(1,0,0,1,585,305) translate(0.23456790123456983 19.444444444444443)"/><use xlink:href="#d" transform="matrix(1,0,0,1,425,345) translate(15.246913580246915 19.444444444444443)"/><use xlink:href="#e" transform="matrix(1,0,0,1,505,345) translate(22.654320987654323 19.444444444444443)"/><use xlink:href="#f" transform="matrix(1,0,0,1,585,345) translate(10.635802469135804 19.444444444444443)"/><use xlink:href="#g" transform="matrix(1,0,0,1,425,385) translate(10.987654320987655 19.444444444444443)"/><use xlink:href="#h" transform="matrix(1,0,0,1,505,385) translate(22.654320987654323 19.444444444444443)"/><use xlink:href="#i" transform="matrix(1,0,0,1,585,385) translate(10.635802469135804 19.444444444444443)"/><use xlink:href="#j" transform="matrix(1,0,0,1,425,425) translate(7.253086419753085 19.444444444444443)"/><use xlink:href="#k" transform="matrix(1,0,0,1,505,425) translate(22.654320987654323 19.444444444444443)"/><use xlink:href="#l" transform="matrix(1,0,0,1,585,425) translate(10.635802469135804 19.444444444444443)"/><path d="M820 300h102.52v40H820zM922.52 300H1057v40H922.52z" fill="#f2f3f5"/><path d="M820 340h102.52v40H820zM922.52 340H1057v40H922.52zM820 380h102.52v40H820zM922.52 380H1057v40H922.52z" fill="#fff"/><path d="M820 420h102.52v37H820z" fill="#cfe4ff"/><path d="M922.52 420H1057v37H922.52z" fill="#ffdda6"/><path d="M820 457h102.52v40H820z" fill="#cfe4ff"/><path d="M922.52 457H1057v40H922.52z" fill="#ffdda6"/><path d="M820 300v40M922.52 300v40M1057 300v40M820 340v40M922.52 340v40M1057 340v40M820 380v40M922.52 380v40M1057 380v40M820 420v37M922.52 420v37M1057 420v37M820 457v40M922.52 457v40M1057 457v40M820 300h102.52M922.52 300H1057M820 340h102.52M922.52 340H1057M820 380h102.52M922.52 380H1057M820 420h102.52M922.52 420H1057M820 457h102.52M820 497h102.52M922.52 457H1057M922.52 497H1057" stroke="#3a414a" fill="none"/><use xlink:href="#m" transform="matrix(1,0,0,1,825,305) translate(20.635802469135804 19.444444444444443)"/><use xlink:href="#c" transform="matrix(1,0,0,1,927.520694259012,305) translate(21.23456790123457 19.444444444444443)"/><use xlink:href="#n" transform="matrix(1,0,0,1,825,345) translate(30.45061728395062 19.444444444444443)"/><use xlink:href="#f" transform="matrix(1,0,0,1,927.520694259012,345) translate(31.635802469135804 19.444444444444443)"/><use xlink:href="#o" transform="matrix(1,0,0,1,825,385) translate(31.098765432098766 19.444444444444443)"/><use xlink:href="#i" transform="matrix(1,0,0,1,927.520694259012,385) translate(31.635802469135804 19.444444444444443)"/><use xlink:href="#p" transform="matrix(1,0,0,1,825,425) translate(32.51851851851852 17.944444444444443)"/><use xlink:href="#l" transform="matrix(1,0,0,1,927.520694259012,425) translate(31.635802469135804 17.944444444444443)"/><use xlink:href="#q" transform="matrix(1,0,0,1,825,462) translate(31.746913580246915 19.444444444444443)"/><use xlink:href="#l" transform="matrix(1,0,0,1,927.520694259012,462) translate(31.635802469135804 19.444444444444443)"/><path d="M520 540h100.7v40H520zM620.7 540h132.1v40H620.7z" fill="#f2f3f5"/><path d="M752.8 540h134v40h-134zM886.8 540h92.53v40H886.8z" fill="#f2f3f5"/><path d="M520 580h100.7v40H520zM620.7 580h132.1v40H620.7z" fill="#fff"/><path d="M752.8 580h134v40h-134zM886.8 580h92.53v40H886.8zM520 620h100.7v40H520zM620.7 620h132.1v40H620.7z" fill="#fff"/><path d="M752.8 620h134v40h-134zM886.8 620h92.53v40H886.8z" fill="#fff"/><path d="M520 660h100.7v40H520zM620.7 660h132.1v40H620.7z" fill="#cfe4ff"/><path d="M752.8 660h134v40h-134z" fill="#cfe4ff"/><path d="M886.8 660h92.53v40H886.8z" fill="#ffdda6"/><path d="M520 700h100.7v40H520zM620.7 700h132.1v40H620.7z" fill="#cfe4ff"/><path d="M752.8 700h134v40h-134z" fill="#cfe4ff"/><path d="M886.8 700h92.53v40H886.8z" fill="#ffdda6"/><path d="M520 540v40M620.7 540v40M752.8 540v40M886.8 540v40M979.33 540v40M520 580v40M620.7 580v40M752.8 580v40M886.8 580v40M979.33 580v40M520 620v40M620.7 620v40M752.8 620v40M886.8 620v40M979.33 620v40M520 660v40M620.7 660v40M752.8 660v40M886.8 660v40M979.33 660v40M520 700v40M620.7 700v40M752.8 700v40M886.8 700v40M979.33 700v40M520 540h100.7M620.7 540h132.1M752.8 540h134M886.8 540h92.53M520 580h100.7M620.7 580h132.1M752.8 580h134M886.8 580h92.53M520 620h100.7M620.7 620h132.1M752.8 620h134M886.8 620h92.53M520 660h100.7M620.7 660h132.1M752.8 660h134M886.8 660h92.53M520 700h100.7M520 740h100.7M620.7 700h132.1M620.7 740h132.1M752.8 700h134M752.8 740h134M886.8 700h92.53M886.8 740h92.53" stroke="#3a414a" fill="none"/><use xlink:href="#a" transform="matrix(1,0,0,1,525,545) translate(16.518518518518523 19.444444444444443)"/><use xlink:href="#b" transform="matrix(1,0,0,1,625.7054409005628,545) translate(42.39506172839506 19.444444444444443)"/><use xlink:href="#m" transform="matrix(1,0,0,1,757.8036272670419,545) translate(36.135802469135804 19.444444444444443)"/><use xlink:href="#c" transform="matrix(1,0,0,1,891.8036272670419,545) translate(0.23456790123456983 19.444444444444443)"/><use xlink:href="#d" transform="matrix(1,0,0,1,525,585) translate(25.746913580246915 19.444444444444443)"/><use xlink:href="#r" transform="matrix(1,0,0,1,625.7054409005628,585) translate(49.15432098765432 19.444444444444443)"/><use xlink:href="#n" transform="matrix(1,0,0,1,757.8036272670419,585) translate(45.95061728395062 19.444444444444443)"/><use xlink:href="#f" transform="matrix(1,0,0,1,891.8036272670419,585) translate(10.635802469135804 19.444444444444443)"/><use xlink:href="#g" transform="matrix(1,0,0,1,525,625) translate(21.487654320987655 19.444444444444443)"/><use xlink:href="#s" transform="matrix(1,0,0,1,625.7054409005628,625) translate(49.15432098765432 19.444444444444443)"/><use xlink:href="#o" transform="matrix(1,0,0,1,757.8036272670419,625) translate(46.598765432098766 19.444444444444443)"/><use xlink:href="#i" transform="matrix(1,0,0,1,891.8036272670419,625) translate(10.635802469135804 19.444444444444443)"/><use xlink:href="#j" transform="matrix(1,0,0,1,525,665) translate(17.753086419753085 19.444444444444443)"/><use xlink:href="#t" transform="matrix(1,0,0,1,625.7054409005628,665) translate(49.15432098765432 19.444444444444443)"/><use xlink:href="#p" transform="matrix(1,0,0,1,757.8036272670419,665) translate(48.01851851851852 19.444444444444443)"/><use xlink:href="#l" transform="matrix(1,0,0,1,891.8036272670419,665) translate(10.635802469135804 19.444444444444443)"/><use xlink:href="#j" transform="matrix(1,0,0,1,525,705) translate(17.753086419753085 19.444444444444443)"/><use xlink:href="#t" transform="matrix(1,0,0,1,625.7054409005628,705) translate(49.15432098765432 19.444444444444443)"/><use xlink:href="#q" transform="matrix(1,0,0,1,757.8036272670419,705) translate(47.24691358024691 19.444444444444443)"/><use xlink:href="#l" transform="matrix(1,0,0,1,891.8036272670419,705) translate(10.635802469135804 19.444444444444443)"/><path d="M420 240h246.48v60H420z" fill="none"/><use xlink:href="#u" transform="matrix(1,0,0,1,425,245) translate(32.0859375 29.7900390625)"/><use xlink:href="#v" transform="matrix(1,0,0,1,425,245) translate(107.6982421875 29.7900390625)"/><path d="M820 240h237v60H820z" fill="none"/><use xlink:href="#w" transform="matrix(1,0,0,1,825,245) translate(32.48681640625 29.7900390625)"/><use xlink:href="#x" transform="matrix(1,0,0,1,825,245) translate(108.09912109375 29.7900390625)"/><path d="M626.64 740h240v60h-240z" fill="none"/><use xlink:href="#u" transform="matrix(1,0,0,1,631.6425543742616,745) translate(17.7841796875 19.5947265625)"/><use xlink:href="#y" transform="matrix(1,0,0,1,631.6425543742616,745) translate(93.396484375 19.5947265625)"/><use xlink:href="#z" transform="matrix(1,0,0,1,631.6425543742616,745) translate(147.4052734375 19.5947265625)"/><use xlink:href="#A" transform="matrix(1,0,0,1,631.6425543742616,745) translate(66.39208984375 39.9853515625)"/><path d="M626.64 368.5h240v60h-240z" fill="none"/><g><use xlink:href="#B" transform="matrix(1,0,0,1,631.6425543742616,373.5) translate(55.59033203125 29.7900390625)"/></g><path d="M746.64 431v84.14" stroke="#3a414a" stroke-width="5" fill="none"/><path d="M749.14 431.06h-5v-2.56h5z" stroke="#3a414a" stroke-width=".05" fill="#3a414a"/><path d="M746.64 531.9L742 517.65h9.28z" stroke="#3a414a" stroke-width="5" fill="#3a414a"/><defs><path d="M135-194c87-1 58 113 63 194h-50c-7-57 23-157-34-157-59 0-34 97-39 157H25l-1-190h47c2 12-1 28 3 38 12-26 28-41 61-42" id="C"/><path d="M133-34C117-15 103 5 69 4 32 3 11-16 11-54c-1-60 55-63 116-61 1-26-3-47-28-47-18 1-26 9-28 27l-52-2c7-38 36-58 82-57s74 22 75 68l1 82c-1 14 12 18 25 15v27c-30 8-71 5-69-32zm-48 3c29 0 43-24 42-57-32 0-66-3-65 30 0 17 8 27 23 27" id="D"/><path d="M220-157c-53 9-28 100-34 157h-49v-107c1-27-5-49-29-50C55-147 81-57 75 0H25l-1-190h47c2 12-1 28 3 38 10-53 101-56 108 0 13-22 24-43 59-42 82 1 51 116 57 194h-49v-107c-1-25-5-48-29-50" id="E"/><path d="M185-48c-13 30-37 53-82 52C43 2 14-33 14-96s30-98 90-98c62 0 83 45 84 108H66c0 31 8 55 39 56 18 0 30-7 34-22zm-45-69c5-46-57-63-70-21-2 6-4 13-4 21h74" id="F"/><g id="a"><use transform="matrix(0.06172839506172839,0,0,0.06172839506172839,0,0)" xlink:href="#C"/><use transform="matrix(0.06172839506172839,0,0,0.06172839506172839,13.518518518518517,0)" xlink:href="#D"/><use transform="matrix(0.06172839506172839,0,0,0.06172839506172839,25.864197530864196,0)" xlink:href="#E"/><use transform="matrix(0.06172839506172839,0,0,0.06172839506172839,45.61728395061728,0)" xlink:href="#F"/></g><path d="M195-6C206 82 75 100 31 46c-4-6-6-13-8-21l49-6c3 16 16 24 34 25 40 0 42-37 40-79-11 22-30 35-61 35-53 0-70-43-70-97 0-56 18-96 73-97 30 0 46 14 59 34l2-30h47zm-90-29c32 0 41-27 41-63 0-35-9-62-40-62-32 0-39 29-40 63 0 36 9 62 39 62" id="G"/><g id="b"><use transform="matrix(0.06172839506172839,0,0,0.06172839506172839,0,0)" xlink:href="#D"/><use transform="matrix(0.06172839506172839,0,0,0.06172839506172839,12.345679012345679,0)" xlink:href="#G"/><use transform="matrix(0.06172839506172839,0,0,0.06172839506172839,25.864197530864196,0)" xlink:href="#F"/></g><path d="M12 0v-35l95-120H19v-35h142v35L67-36h103V0H12" id="H"/><path d="M25-224v-37h50v37H25zM25 0v-190h50V0H25" id="I"/><path d="M135-194c53 0 70 44 70 98 0 56-19 98-73 100-31 1-45-17-59-34 3 33 2 69 2 105H25l-1-265h48c2 10 0 23 3 31 11-24 29-35 60-35zM114-30c33 0 39-31 40-66 0-38-9-64-40-64-56 0-55 130 0 130" id="J"/><path d="M190-63c-7 42-38 67-86 67-59 0-84-38-90-98-12-110 154-137 174-36l-49 2c-2-19-15-32-35-32-30 0-35 28-38 64-6 74 65 87 74 30" id="K"/><path d="M110-194c64 0 96 36 96 99 0 64-35 99-97 99-61 0-95-36-95-99 0-62 34-99 96-99zm-1 164c35 0 45-28 45-65 0-40-10-65-43-65-34 0-45 26-45 65 0 36 10 65 43 65" id="L"/><path d="M88-194c31-1 46 15 58 34l-1-101h50l1 261h-48c-2-10 0-23-3-31C134-8 116 4 84 4 32 4 16-41 15-95c0-56 19-97 73-99zm17 164c33 0 40-30 41-66 1-37-9-64-41-64s-38 30-39 65c0 43 13 65 39 65" id="M"/><g id="c"><use transform="matrix(0.06172839506172839,0,0,0.06172839506172839,0,0)" xlink:href="#H"/><use transform="matrix(0.06172839506172839,0,0,0.06172839506172839,11.11111111111111,0)" xlink:href="#I"/><use transform="matrix(0.06172839506172839,0,0,0.06172839506172839,17.28395061728395,0)" xlink:href="#J"/><use transform="matrix(0.06172839506172839,0,0,0.06172839506172839,30.80246913580247,0)" xlink:href="#K"/><use transform="matrix(0.06172839506172839,0,0,0.06172839506172839,43.148148148148145,0)" xlink:href="#L"/><use transform="matrix(0.06172839506172839,0,0,0.06172839506172839,56.666666666666664,0)" xlink:href="#M"/><use transform="matrix(0.06172839506172839,0,0,0.06172839506172839,70.18518518518518,0)" xlink:href="#F"/></g><path d="M160-131c35 5 61 23 61 61C221 17 115-2 30 0v-248c76 3 177-17 177 60 0 33-19 50-47 57zm-97-11c50-1 110 9 110-42 0-47-63-36-110-37v79zm0 115c55-2 124 14 124-45 0-56-70-42-124-44v89" id="N"/><path d="M100-194c62-1 85 37 85 99 1 63-27 99-86 99S16-35 15-95c0-66 28-99 85-99zM99-20c44 1 53-31 53-75 0-43-8-75-51-75s-53 32-53 75 10 74 51 75" id="O"/><path d="M115-194c53 0 69 39 70 98 0 66-23 100-70 100C84 3 66-7 56-30L54 0H23l1-261h32v101c10-23 28-34 59-34zm-8 174c40 0 45-34 45-75 0-40-5-75-45-74-42 0-51 32-51 76 0 43 10 73 51 73" id="P"/><g id="d"><use transform="matrix(0.06172839506172839,0,0,0.06172839506172839,0,0)" xlink:href="#N"/><use transform="matrix(0.06172839506172839,0,0,0.06172839506172839,14.814814814814813,0)" xlink:href="#O"/><use transform="matrix(0.06172839506172839,0,0,0.06172839506172839,27.160493827160494,0)" xlink:href="#P"/></g><path d="M101-251c82-7 93 87 43 132L82-64C71-53 59-42 53-27h129V0H18c2-99 128-94 128-182 0-28-16-43-45-43s-46 15-49 41l-32-3c6-41 34-60 81-64" id="Q"/><path d="M134-131c28 9 52 24 51 62-1 50-34 73-85 73S17-19 16-69c0-36 21-54 49-61-75-25-45-126 34-121 46 3 78 18 79 63 0 33-17 51-44 57zm-34-11c31 1 46-15 46-44 0-28-17-43-47-42-29 0-46 13-45 42 1 28 16 44 46 44zm1 122c35 0 51-18 51-52 0-30-18-46-53-46-33 0-51 17-51 47 0 34 19 51 53 51" id="R"/><g id="e"><use transform="matrix(0.06172839506172839,0,0,0.06172839506172839,0,0)" xlink:href="#Q"/><use transform="matrix(0.06172839506172839,0,0,0.06172839506172839,12.345679012345679,0)" xlink:href="#R"/></g><path d="M126-127c33 6 58 20 58 59 0 88-139 92-164 29-3-8-5-16-6-25l32-3c6 27 21 44 54 44 32 0 52-15 52-46 0-38-36-46-79-43v-28c39 1 72-4 72-42 0-27-17-43-46-43-28 0-47 15-49 41l-32-3c6-42 35-63 81-64 48-1 79 21 79 65 0 36-21 52-52 59" id="S"/><path d="M101-251c68 0 85 55 85 127S166 4 100 4C33 4 14-52 14-124c0-73 17-127 87-127zm-1 229c47 0 54-49 54-102s-4-102-53-102c-51 0-55 48-55 102 0 53 5 102 54 102" id="T"/><path d="M155-56V0h-30v-56H8v-25l114-167h33v167h35v25h-35zm-30-156c-27 46-58 90-88 131h88v-131" id="U"/><g id="f"><use transform="matrix(0.06172839506172839,0,0,0.06172839506172839,0,0)" xlink:href="#S"/><use transform="matrix(0.06172839506172839,0,0,0.06172839506172839,12.345679012345679,0)" xlink:href="#T"/><use transform="matrix(0.06172839506172839,0,0,0.06172839506172839,24.691358024691358,0)" xlink:href="#T"/><use transform="matrix(0.06172839506172839,0,0,0.06172839506172839,37.03703703703704,0)" xlink:href="#T"/><use transform="matrix(0.06172839506172839,0,0,0.06172839506172839,49.382716049382715,0)" xlink:href="#U"/></g><path d="M205 0l-28-72H64L36 0H1l101-248h38L239 0h-34zm-38-99l-47-123c-12 45-31 82-46 123h93" id="V"/><path d="M24 0v-261h32V0H24" id="W"/><path d="M24-231v-30h32v30H24zM24 0v-190h32V0H24" id="X"/><path d="M96-169c-40 0-48 33-48 73s9 75 48 75c24 0 41-14 43-38l32 2c-6 37-31 61-74 61-59 0-76-41-82-99-10-93 101-131 147-64 4 7 5 14 7 22l-32 3c-4-21-16-35-41-35" id="Y"/><path d="M100-194c63 0 86 42 84 106H49c0 40 14 67 53 68 26 1 43-12 49-29l28 8c-11 28-37 45-77 45C44 4 14-33 15-96c1-61 26-98 85-98zm52 81c6-60-76-77-97-28-3 7-6 17-6 28h103" id="Z"/><g id="g"><use transform="matrix(0.06172839506172839,0,0,0.06172839506172839,0,0)" xlink:href="#V"/><use transform="matrix(0.06172839506172839,0,0,0.06172839506172839,14.814814814814813,0)" xlink:href="#W"/><use transform="matrix(0.06172839506172839,0,0,0.06172839506172839,19.691358024691354,0)" xlink:href="#X"/><use transform="matrix(0.06172839506172839,0,0,0.06172839506172839,24.5679012345679,0)" xlink:href="#Y"/><use transform="matrix(0.06172839506172839,0,0,0.06172839506172839,35.67901234567901,0)" xlink:href="#Z"/></g><g id="h"><use transform="matrix(0.06172839506172839,0,0,0.06172839506172839,0,0)" xlink:href="#Q"/><use transform="matrix(0.06172839506172839,0,0,0.06172839506172839,12.345679012345679,0)" xlink:href="#S"/></g><path d="M99-251c64 0 84 50 84 122C183-37 130 33 47-8c-14-7-20-23-25-40l30-5c6 39 69 39 84 7 9-19 16-44 16-74-10 22-31 35-62 35-49 0-73-33-73-83 0-54 28-83 82-83zm-1 141c31-1 51-18 51-49 0-36-14-67-51-67-34 0-49 23-49 58 0 34 15 58 49 58" id="aa"/><path d="M27 0v-27h64v-190l-56 39v-29l58-41h29v221h61V0H27" id="ab"/><g id="i"><use transform="matrix(0.06172839506172839,0,0,0.06172839506172839,0,0)" xlink:href="#aa"/><use transform="matrix(0.06172839506172839,0,0,0.06172839506172839,12.345679012345679,0)" xlink:href="#T"/><use transform="matrix(0.06172839506172839,0,0,0.06172839506172839,24.691358024691358,0)" xlink:href="#Q"/><use transform="matrix(0.06172839506172839,0,0,0.06172839506172839,37.03703703703704,0)" xlink:href="#ab"/><use transform="matrix(0.06172839506172839,0,0,0.06172839506172839,49.382716049382715,0)" xlink:href="#T"/></g><path d="M185-189c-5-48-123-54-124 2 14 75 158 14 163 119 3 78-121 87-175 55-17-10-28-26-33-46l33-7c5 56 141 63 141-1 0-78-155-14-162-118-5-82 145-84 179-34 5 7 8 16 11 25" id="ac"/><path d="M84 4C-5 8 30-112 23-190h32v120c0 31 7 50 39 49 72-2 45-101 50-169h31l1 190h-30c-1-10 1-25-2-33-11 22-28 36-60 37" id="ad"/><path d="M135-143c-3-34-86-38-87 0 15 53 115 12 119 90S17 21 10-45l28-5c4 36 97 45 98 0-10-56-113-15-118-90-4-57 82-63 122-42 12 7 21 19 24 35" id="ae"/><g id="j"><use transform="matrix(0.06172839506172839,0,0,0.06172839506172839,0,0)" xlink:href="#ac"/><use transform="matrix(0.06172839506172839,0,0,0.06172839506172839,14.814814814814813,0)" xlink:href="#ad"/><use transform="matrix(0.06172839506172839,0,0,0.06172839506172839,27.160493827160494,0)" xlink:href="#ae"/><use transform="matrix(0.06172839506172839,0,0,0.06172839506172839,38.27160493827161,0)" xlink:href="#X"/><use transform="matrix(0.06172839506172839,0,0,0.06172839506172839,43.14814814814815,0)" xlink:href="#Z"/></g><path d="M110-160c48 1 74 30 74 79 0 53-28 85-80 85-65 0-83-55-86-122-5-90 50-162 133-122 14 7 22 21 27 39l-31 6c-5-40-67-38-82-6-9 19-15 44-15 74 11-20 30-34 60-33zm-7 138c34 0 49-23 49-58s-16-56-50-56c-29 0-50 16-49 49 1 36 15 65 50 65" id="af"/><g id="k"><use transform="matrix(0.06172839506172839,0,0,0.06172839506172839,0,0)" xlink:href="#S"/><use transform="matrix(0.06172839506172839,0,0,0.06172839506172839,12.345679012345679,0)" xlink:href="#af"/></g><path d="M64 0c3-98 48-159 88-221H18v-27h164v26C143-157 98-101 97 0H64" id="ag"/><path d="M54-142c48-35 137-8 131 61C196 18 31 33 14-55l32-4c7 23 22 37 52 37 35-1 51-22 54-58 4-55-73-65-99-34H22l8-134h141v27H59" id="ah"/><g id="l"><use transform="matrix(0.06172839506172839,0,0,0.06172839506172839,0,0)" xlink:href="#S"/><use transform="matrix(0.06172839506172839,0,0,0.06172839506172839,12.345679012345679,0)" xlink:href="#ag"/><use transform="matrix(0.06172839506172839,0,0,0.06172839506172839,24.691358024691358,0)" xlink:href="#ag"/><use transform="matrix(0.06172839506172839,0,0,0.06172839506172839,37.03703703703704,0)" xlink:href="#ah"/><use transform="matrix(0.06172839506172839,0,0,0.06172839506172839,49.382716049382715,0)" xlink:href="#Q"/></g><path d="M137-138c1-29-70-34-71-4 15 46 118 7 119 86 1 83-164 76-172 9l43-7c4 19 20 25 44 25 33 8 57-30 24-41C81-84 22-81 20-136c-2-80 154-74 161-7" id="ai"/><path d="M115-3C79 11 28 4 28-45v-112H4v-33h27l15-45h31v45h36v33H77v99c-1 23 16 31 38 25v30" id="aj"/><g id="m"><use transform="matrix(0.06172839506172839,0,0,0.06172839506172839,0,0)" xlink:href="#ai"/><use transform="matrix(0.06172839506172839,0,0,0.06172839506172839,12.345679012345679,0)" xlink:href="#aj"/><use transform="matrix(0.06172839506172839,0,0,0.06172839506172839,19.691358024691358,0)" xlink:href="#D"/><use transform="matrix(0.06172839506172839,0,0,0.06172839506172839,32.03703703703704,0)" xlink:href="#aj"/><use transform="matrix(0.06172839506172839,0,0,0.06172839506172839,39.382716049382715,0)" xlink:href="#F"/></g><path d="M143 4C61 4 22-44 18-125c-5-107 100-154 193-111 17 8 29 25 37 43l-32 9c-13-25-37-40-76-40-61 0-88 39-88 99 0 61 29 100 91 101 35 0 62-11 79-27v-45h-74v-28h105v86C228-13 192 4 143 4" id="ak"/><g id="n"><use transform="matrix(0.06172839506172839,0,0,0.06172839506172839,0,0)" xlink:href="#ak"/><use transform="matrix(0.06172839506172839,0,0,0.06172839506172839,17.28395061728395,0)" xlink:href="#V"/></g><path d="M212-179c-10-28-35-45-73-45-59 0-87 40-87 99 0 60 29 101 89 101 43 0 62-24 78-52l27 14C228-24 195 4 139 4 59 4 22-46 18-125c-6-104 99-153 187-111 19 9 31 26 39 46" id="al"/><g id="o"><use transform="matrix(0.06172839506172839,0,0,0.06172839506172839,0,0)" xlink:href="#al"/><use transform="matrix(0.06172839506172839,0,0,0.06172839506172839,15.987654320987653,0)" xlink:href="#V"/></g><path d="M137 0h-34L2-248h35l83 218 83-218h36" id="am"/><g id="p"><use transform="matrix(0.06172839506172839,0,0,0.06172839506172839,0,0)" xlink:href="#am"/><use transform="matrix(0.06172839506172839,0,0,0.06172839506172839,13.148148148148147,0)" xlink:href="#V"/></g><path d="M127-220V0H93v-220H8v-28h204v28h-85" id="an"/><path d="M190 0L58-211 59 0H30v-248h39L202-35l-2-213h31V0h-41" id="ao"/><g id="q"><use transform="matrix(0.06172839506172839,0,0,0.06172839506172839,0,0)" xlink:href="#an"/><use transform="matrix(0.06172839506172839,0,0,0.06172839506172839,13.518518518518517,0)" xlink:href="#ao"/></g><g id="r"><use transform="matrix(0.06172839506172839,0,0,0.06172839506172839,0,0)" xlink:href="#Q"/><use transform="matrix(0.06172839506172839,0,0,0.06172839506172839,12.345679012345679,0)" xlink:href="#R"/></g><g id="s"><use transform="matrix(0.06172839506172839,0,0,0.06172839506172839,0,0)" xlink:href="#Q"/><use transform="matrix(0.06172839506172839,0,0,0.06172839506172839,12.345679012345679,0)" xlink:href="#S"/></g><g id="t"><use transform="matrix(0.06172839506172839,0,0,0.06172839506172839,0,0)" xlink:href="#S"/><use transform="matrix(0.06172839506172839,0,0,0.06172839506172839,12.345679012345679,0)" xlink:href="#af"/></g><path d="M616-1349c316 3 526 118 526 426 0 301-201 442-514 447H431V0H136v-1349h480zm-25 646c164 1 254-62 254-215 0-157-99-200-262-202H431v417h160" id="ap"/><path d="M1113-274C1038-96 884 20 626 20c-352 0-526-209-526-566 0-358 185-556 530-556 358 0 496 251 499 615H395c5 180 68 319 245 319 102 0 186-45 208-129zM857-663c-6-177-128-307-315-247-94 30-141 121-145 247h460" id="aq"/><path d="M616-1102c361 0 521 202 521 560 0 354-171 562-527 562C259 20 92-192 92-542c0-351 169-560 524-560zm-9 930c200-2 236-165 236-370 0-199-27-367-223-367-195 0-233 146-233 367 0 129 18 223 55 282s92 88 165 88" id="ar"/><path d="M427-171c3 195 2 397 2 596H148V-846c1-83-4-168-8-236h272c10 49 14 118 15 176h4c59-114 151-197 316-197 291 0 385 259 385 560 0 243-65 433-220 521-50 28-109 42-176 42-162-2-253-78-309-191zm69-661c-91 113-92 463-1 586 46 62 145 101 225 54 96-57 118-191 119-351 0-123-18-215-53-276-46-82-128-115-220-74-25 12-48 33-70 61" id="as"/><path d="M794-190h353V0H118v-190h395v-1104H223v-190h571v1294" id="at"/><g id="u"><use transform="matrix(0.0087890625,0,0,0.0087890625,0,0)" xlink:href="#ap"/><use transform="matrix(0.0087890625,0,0,0.0087890625,10.8017578125,0)" xlink:href="#aq"/><use transform="matrix(0.0087890625,0,0,0.0087890625,21.603515625,0)" xlink:href="#ar"/><use transform="matrix(0.0087890625,0,0,0.0087890625,32.4052734375,0)" xlink:href="#as"/><use transform="matrix(0.0087890625,0,0,0.0087890625,43.20703125,0)" xlink:href="#at"/><use transform="matrix(0.0087890625,0,0,0.0087890625,54.0087890625,0)" xlink:href="#aq"/></g><path d="M621-530c0 421 127 700 301 955H641C466 173 344-110 344-531s122-702 297-953h281c-174 254-301 534-301 954" id="au"/><path d="M875-1102c70 0 148 7 206 17v237c-110-17-267-37-359 15-123 69-192 207-192 395V0H250c-10-367 32-789-52-1082h271c19 69 36 149 46 228h4c52-151 151-250 356-248" id="av"/><path d="M794-190h353V0H118v-190h395v-702H223v-190h571v892zM513-1277v-207h281v207H513" id="aw"/><path d="M774 0H438L31-1082h297c94 290 200 568 280 872 83-304 194-581 291-872h294" id="ax"/><path d="M775-193C708-75 621 20 439 20 226 20 106-93 106-306c0-251 170-341 417-346l223-4c4-143-12-264-148-264-103 0-141 58-150 153l-293-14c37-219 194-321 455-321 263 0 418 130 417 390v392c1 84 5 161 89 160 21 0 42-2 62-6v152c-57 15-108 27-180 26-145 0-202-73-217-205h-6zm-256 17c168 0 234-139 227-325-166 4-347-25-347 173 0 94 33 152 120 152" id="ay"/><path d="M711 13c-250 0-386-99-385-349l2-556H161v-190h181l88-282h176v282h385v190H606v530c-10 130 45 186 174 184 91-2 176-11 255-27v186C933-1 833 13 711 13" id="az"/><path d="M885-531c0 421-122 704-297 956H307c174-255 301-534 301-955 0-420-127-700-301-954h281c175 251 297 532 297 953" id="aA"/><g id="v"><use transform="matrix(0.0087890625,0,0,0.0087890625,0,0)" xlink:href="#au"/><use transform="matrix(0.0087890625,0,0,0.0087890625,10.8017578125,0)" xlink:href="#as"/><use transform="matrix(0.0087890625,0,0,0.0087890625,21.603515625,0)" xlink:href="#av"/><use transform="matrix(0.0087890625,0,0,0.0087890625,32.4052734375,0)" xlink:href="#aw"/><use transform="matrix(0.0087890625,0,0,0.0087890625,43.20703125,0)" xlink:href="#ax"/><use transform="matrix(0.0087890625,0,0,0.0087890625,54.0087890625,0)" xlink:href="#ay"/><use transform="matrix(0.0087890625,0,0,0.0087890625,64.810546875,0)" xlink:href="#az"/><use transform="matrix(0.0087890625,0,0,0.0087890625,75.6123046875,0)" xlink:href="#aq"/><use transform="matrix(0.0087890625,0,0,0.0087890625,86.4140625,0)" xlink:href="#aA"/></g><path d="M609-1161c-125 0-218 36-218 153 0 149 166 161 290 196 235 67 484 129 484 421 0 300-239 408-554 411C302 23 93-114 38-367l285-37c32 128 131 205 296 203 143-2 259-31 259-173 0-164-197-172-333-212-218-64-441-131-441-405 0-276 231-379 511-379 299 0 463 114 513 363l-286 29c-28-115-96-183-233-183" id="aB"/><path d="M622-916c-112 2-200 14-200 111 0 90 89 101 168 121 234 58 514 77 514 368C1104-4 751 54 434 5 267-21 161-112 121-270l247-37c24 111 113 145 252 141 114-3 226-12 226-124 0-101-103-113-192-134-225-54-490-76-490-351 0-247 201-328 458-328 245 0 413 88 457 292l-249 26c-16-98-92-133-208-131" id="aC"/><g id="w"><use transform="matrix(0.0087890625,0,0,0.0087890625,0,0)" xlink:href="#aB"/><use transform="matrix(0.0087890625,0,0,0.0087890625,10.8017578125,0)" xlink:href="#az"/><use transform="matrix(0.0087890625,0,0,0.0087890625,21.603515625,0)" xlink:href="#ay"/><use transform="matrix(0.0087890625,0,0,0.0087890625,32.4052734375,0)" xlink:href="#az"/><use transform="matrix(0.0087890625,0,0,0.0087890625,43.20703125,0)" xlink:href="#aq"/><use transform="matrix(0.0087890625,0,0,0.0087890625,54.0087890625,0)" xlink:href="#aC"/></g><path d="M471 20c-247 0-336-169-336-415v-687h281v607c4 148 31 285 172 285 152 0 207-150 207-312v-580h281c4 359-9 736 8 1082H816c-7-63-11-146-12-215h-5C736-76 644 20 471 20" id="aD"/><path d="M429-1484c1 190-1 388 0 572 54-116 155-191 317-191 300 0 386 257 386 563 0 241-73 429-226 518-49 28-106 42-169 42-162 0-251-81-306-196h-4c-1 59-5 127-15 176H140c4-67 9-153 8-236v-1248h281zm66 648c-93 114-92 466 1 585 35 45 77 79 142 79 64 0 112-31 148-92 69-115 68-440-2-561-39-68-131-111-221-70-25 11-46 32-68 59" id="aE"/><path d="M1109-360C1066-122 902 20 624 20c-347 0-514-209-514-555 0-353 168-567 518-567 270 0 425 136 473 361l-283 14c-16-106-75-183-196-182-75 0-130 31-165 93s-52 152-52 270c0 249 74 374 221 374 120 0 188-82 201-201" id="aF"/><g id="x"><use transform="matrix(0.0087890625,0,0,0.0087890625,0,0)" xlink:href="#au"/><use transform="matrix(0.0087890625,0,0,0.0087890625,10.8017578125,0)" xlink:href="#as"/><use transform="matrix(0.0087890625,0,0,0.0087890625,21.603515625,0)" xlink:href="#aD"/><use transform="matrix(0.0087890625,0,0,0.0087890625,32.4052734375,0)" xlink:href="#aE"/><use transform="matrix(0.0087890625,0,0,0.0087890625,43.20703125,0)" xlink:href="#at"/><use transform="matrix(0.0087890625,0,0,0.0087890625,54.0087890625,0)" xlink:href="#aw"/><use transform="matrix(0.0087890625,0,0,0.0087890625,64.810546875,0)" xlink:href="#aF"/><use transform="matrix(0.0087890625,0,0,0.0087890625,75.6123046875,0)" xlink:href="#aA"/></g><path d="M1019-446c-6 296-159 466-455 466-288 0-421-169-462-422l291-43c13 79 35 137 65 176s66 58 108 58c112 0 159-101 159-228v-679H424v-231h595v903" id="aG"/><path d="M615-1370c385 0 542 273 542 691 0 230-47 404-140 522S790 20 615 20C231 20 72-262 72-679c0-419 158-691 543-691zM797-330c77-133 78-564 0-695-44-73-101-113-182-113s-139 40-183 114c-79 133-78 560 0 694 45 77 102 118 183 118s138-41 182-118" id="aH"/><path d="M157-1349h916v228H757v893h316V0H157v-228h316v-893H157v-228" id="aI"/><path d="M865-312c-44-312-23-686-28-1037h257V0H748L364-1010c44 304 24 668 28 1010H135v-1349h337" id="aJ"/><g id="y"><use transform="matrix(0.0087890625,0,0,0.0087890625,0,0)" xlink:href="#aG"/><use transform="matrix(0.0087890625,0,0,0.0087890625,10.8017578125,0)" xlink:href="#aH"/><use transform="matrix(0.0087890625,0,0,0.0087890625,21.603515625,0)" xlink:href="#aI"/><use transform="matrix(0.0087890625,0,0,0.0087890625,32.4052734375,0)" xlink:href="#aJ"/></g><g id="z"><use transform="matrix(0.0087890625,0,0,0.0087890625,0,0)" xlink:href="#aB"/><use transform="matrix(0.0087890625,0,0,0.0087890625,10.8017578125,0)" xlink:href="#az"/><use transform="matrix(0.0087890625,0,0,0.0087890625,21.603515625,0)" xlink:href="#ay"/><use transform="matrix(0.0087890625,0,0,0.0087890625,32.4052734375,0)" xlink:href="#az"/><use transform="matrix(0.0087890625,0,0,0.0087890625,43.20703125,0)" xlink:href="#aq"/><use transform="matrix(0.0087890625,0,0,0.0087890625,54.0087890625,0)" xlink:href="#aC"/></g><g id="A"><use transform="matrix(0.0087890625,0,0,0.0087890625,0,0)" xlink:href="#au"/><use transform="matrix(0.0087890625,0,0,0.0087890625,10.8017578125,0)" xlink:href="#as"/><use transform="matrix(0.0087890625,0,0,0.0087890625,21.603515625,0)" xlink:href="#av"/><use transform="matrix(0.0087890625,0,0,0.0087890625,32.4052734375,0)" xlink:href="#aw"/><use transform="matrix(0.0087890625,0,0,0.0087890625,43.20703125,0)" xlink:href="#ax"/><use transform="matrix(0.0087890625,0,0,0.0087890625,54.0087890625,0)" xlink:href="#ay"/><use transform="matrix(0.0087890625,0,0,0.0087890625,64.810546875,0)" xlink:href="#az"/><use transform="matrix(0.0087890625,0,0,0.0087890625,75.6123046875,0)" xlink:href="#aq"/><use transform="matrix(0.0087890625,0,0,0.0087890625,86.4140625,0)" xlink:href="#aA"/></g><path d="M380 206c143 0 202-71 202-216v-882H228v-190h636V13c-6 279-184 412-459 412-107 0-208-16-288-43V172c69 16 169 34 263 34zm203-1483v-207h281v207H583" id="aK"/><path d="M768-1103c247 0 336 167 336 416V0H824v-619c-3-164-24-273-171-273-164 0-229 142-229 312V0H143c-4-359 9-736-8-1082h268c7 63 12 146 13 215h4c67-145 160-236 348-236" id="aL"/><path d="M-5 220v-96h1238v96H-5" id="aM"/><g id="B"><use transform="matrix(0.0087890625,0,0,0.0087890625,0,0)" xlink:href="#aK"/><use transform="matrix(0.0087890625,0,0,0.0087890625,10.8017578125,0)" xlink:href="#ar"/><use transform="matrix(0.0087890625,0,0,0.0087890625,21.603515625,0)" xlink:href="#aw"/><use transform="matrix(0.0087890625,0,0,0.0087890625,32.4052734375,0)" xlink:href="#aL"/><use transform="matrix(0.0087890625,0,0,0.0087890625,43.20703125,0)" xlink:href="#aM"/><use transform="matrix(0.0087890625,0,0,0.0087890625,54.0087890625,0)" xlink:href="#as"/><use transform="matrix(0.0087890625,0,0,0.0087890625,64.810546875,0)" xlink:href="#aD"/><use transform="matrix(0.0087890625,0,0,0.0087890625,75.6123046875,0)" xlink:href="#aE"/><use transform="matrix(0.0087890625,0,0,0.0087890625,86.4140625,0)" xlink:href="#at"/><use transform="matrix(0.0087890625,0,0,0.0087890625,97.2158203125,0)" xlink:href="#aw"/><use transform="matrix(0.0087890625,0,0,0.0087890625,108.017578125,0)" xlink:href="#aF"/></g></defs></g></svg>