<svg id="visual" viewBox="0 0 900 600" width="900" height="600" xmlns="http://www.w3.org/2000/svg" xmlns:xlink="http://www.w3.org/1999/xlink" version="1.1"><path d="M0 43L10 41C20 39 40 35 60 33C80 31 100 31 120 31C140 31 160 31 180 34C200 37 220 43 240 46C260 49 280 49 300 46C320 43 340 37 360 36C380 35 400 39 420 42C440 45 460 47 480 46C500 45 520 41 540 40C560 39 580 41 600 41C620 41 640 39 660 40C680 41 700 45 720 47C740 49 760 49 780 46C800 43 820 37 840 37C860 37 880 43 890 46L900 49L900 0L890 0C880 0 860 0 840 0C820 0 800 0 780 0C760 0 740 0 720 0C700 0 680 0 660 0C640 0 620 0 600 0C580 0 560 0 540 0C520 0 500 0 480 0C460 0 440 0 420 0C400 0 380 0 360 0C340 0 320 0 300 0C280 0 260 0 240 0C220 0 200 0 180 0C160 0 140 0 120 0C100 0 80 0 60 0C40 0 20 0 10 0L0 0Z" fill="#121260"></path><path d="M0 97L10 91C20 85 40 73 60 70C80 67 100 73 120 76C140 79 160 79 180 80C200 81 220 83 240 86C260 89 280 93 300 91C320 89 340 81 360 78C380 75 400 77 420 78C440 79 460 79 480 78C500 77 520 75 540 76C560 77 580 81 600 81C620 81 640 77 660 79C680 81 700 89 720 93C740 97 760 97 780 92C800 87 820 77 840 75C860 73 880 79 890 82L900 85L900 47L890 44C880 41 860 35 840 35C820 35 800 41 780 44C760 47 740 47 720 45C700 43 680 39 660 38C640 37 620 39 600 39C580 39 560 37 540 38C520 39 500 43 480 44C460 45 440 43 420 40C400 37 380 33 360 34C340 35 320 41 300 44C280 47 260 47 240 44C220 41 200 35 180 32C160 29 140 29 120 29C100 29 80 29 60 31C40 33 20 37 10 39L0 41Z" fill="#16126a"></path><path d="M0 151L10 148C20 145 40 139 60 136C80 133 100 133 120 137C140 141 160 149 180 153C200 157 220 157 240 155C260 153 280 149 300 146C320 143 340 141 360 142C380 143 400 147 420 145C440 143 460 135 480 131C500 127 520 127 540 131C560 135 580 143 600 147C620 151 640 151 660 149C680 147 700 143 720 142C740 141 760 143 780 143C800 143 820 141 840 141C860 141 880 143 890 144L900 145L900 83L890 80C880 77 860 71 840 73C820 75 800 85 780 90C760 95 740 95 720 91C700 87 680 79 660 77C640 75 620 79 600 79C580 79 560 75 540 74C520 73 500 75 480 76C460 77 440 77 420 76C400 75 380 73 360 76C340 79 320 87 300 89C280 91 260 87 240 84C220 81 200 79 180 78C160 77 140 77 120 74C100 71 80 65 60 68C40 71 20 83 10 89L0 95Z" fill="#1c1173"></path><path d="M0 307L10 301C20 295 40 283 60 274C80 265 100 259 120 260C140 261 160 269 180 277C200 285 220 293 240 290C260 287 280 273 300 273C320 273 340 287 360 291C380 295 400 289 420 279C440 269 460 255 480 252C500 249 520 257 540 268C560 279 580 293 600 291C620 289 640 271 660 270C680 269 700 285 720 284C740 283 760 265 780 256C800 247 820 247 840 257C860 267 880 287 890 297L900 307L900 143L890 142C880 141 860 139 840 139C820 139 800 141 780 141C760 141 740 139 720 140C700 141 680 145 660 147C640 149 620 149 600 145C580 141 560 133 540 129C520 125 500 125 480 129C460 133 440 141 420 143C400 145 380 141 360 140C340 139 320 141 300 144C280 147 260 151 240 153C220 155 200 155 180 151C160 147 140 139 120 135C100 131 80 131 60 134C40 137 20 143 10 146L0 149Z" fill="#220f7c"></path><path d="M0 343L10 338C20 333 40 323 60 314C80 305 100 297 120 298C140 299 160 309 180 318C200 327 220 335 240 332C260 329 280 315 300 316C320 317 340 333 360 340C380 347 400 345 420 334C440 323 460 303 480 299C500 295 520 307 540 319C560 331 580 343 600 338C620 333 640 311 660 311C680 311 700 333 720 335C740 337 760 319 780 310C800 301 820 301 840 311C860 321 880 341 890 351L900 361L900 305L890 295C880 285 860 265 840 255C820 245 800 245 780 254C760 263 740 281 720 282C700 283 680 267 660 268C640 269 620 287 600 289C580 291 560 277 540 266C520 255 500 247 480 250C460 253 440 267 420 277C400 287 380 293 360 289C340 285 320 271 300 271C280 271 260 285 240 288C220 291 200 283 180 275C160 267 140 259 120 258C100 257 80 263 60 272C40 281 20 293 10 299L0 305Z" fill="#2c1486"></path><path d="M0 391L10 389C20 387 40 383 60 378C80 373 100 367 120 367C140 367 160 373 180 381C200 389 220 399 240 396C260 393 280 377 300 378C320 379 340 397 360 400C380 403 400 391 420 379C440 367 460 355 480 352C500 349 520 355 540 367C560 379 580 397 600 397C620 397 640 379 660 379C680 379 700 397 720 394C740 391 760 367 780 357C800 347 820 351 840 364C860 377 880 399 890 410L900 421L900 359L890 349C880 339 860 319 840 309C820 299 800 299 780 308C760 317 740 335 720 333C700 331 680 309 660 309C640 309 620 331 600 336C580 341 560 329 540 317C520 305 500 293 480 297C460 301 440 321 420 332C400 343 380 345 360 338C340 331 320 315 300 314C280 313 260 327 240 330C220 333 200 325 180 316C160 307 140 297 120 296C100 295 80 303 60 312C40 321 20 331 10 336L0 341Z" fill="#381f91"></path><path d="M0 541L10 536C20 531 40 521 60 519C80 517 100 523 120 526C140 529 160 529 180 528C200 527 220 525 240 522C260 519 280 515 300 517C320 519 340 527 360 526C380 525 400 515 420 512C440 509 460 513 480 518C500 523 520 529 540 529C560 529 580 523 600 520C620 517 640 517 660 519C680 521 700 525 720 524C740 523 760 517 780 514C800 511 820 511 840 512C860 513 880 515 890 516L900 517L900 419L890 408C880 397 860 375 840 362C820 349 800 345 780 355C760 365 740 389 720 392C700 395 680 377 660 377C640 377 620 395 600 395C580 395 560 377 540 365C520 353 500 347 480 350C460 353 440 365 420 377C400 389 380 401 360 398C340 395 320 377 300 376C280 375 260 391 240 394C220 397 200 387 180 379C160 371 140 365 120 365C100 365 80 371 60 376C40 381 20 385 10 387L0 389Z" fill="#432a9b"></path><path d="M0 601L10 601C20 601 40 601 60 601C80 601 100 601 120 601C140 601 160 601 180 601C200 601 220 601 240 601C260 601 280 601 300 601C320 601 340 601 360 601C380 601 400 601 420 601C440 601 460 601 480 601C500 601 520 601 540 601C560 601 580 601 600 601C620 601 640 601 660 601C680 601 700 601 720 601C740 601 760 601 780 601C800 601 820 601 840 601C860 601 880 601 890 601L900 601L900 515L890 514C880 513 860 511 840 510C820 509 800 509 780 512C760 515 740 521 720 522C700 523 680 519 660 517C640 515 620 515 600 518C580 521 560 527 540 527C520 527 500 521 480 516C460 511 440 507 420 510C400 513 380 523 360 524C340 525 320 517 300 515C280 513 260 517 240 520C220 523 200 525 180 526C160 527 140 527 120 524C100 521 80 515 60 517C40 519 20 529 10 534L0 539Z" fill="#4e35a6"></path></svg>